<svg xmlns="http://www.w3.org/2000/svg" xmlns:xlink="http://www.w3.org/1999/xlink" width="794" zoomAndPan="magnify" viewBox="0 0 594.95996 842.24997" height="1123" preserveAspectRatio="xMidYMid meet" version="1.0"><defs><g/><clipPath id="b89f8e5520"><path d="M 0.246094 0 L 594.675781 0 L 594.675781 841.5 L 0.246094 841.5 Z M 0.246094 0 " clip-rule="nonzero"/></clipPath><clipPath id="772b64739c"><path d="M 6 0 L 589 0 L 589 841.5 L 6 841.5 Z M 6 0 " clip-rule="nonzero"/></clipPath><clipPath id="c859104cb1"><path d="M 0.464844 0 L 582.773438 0 L 582.773438 841.5 L 0.464844 841.5 Z M 0.464844 0 " clip-rule="nonzero"/></clipPath><clipPath id="6844c1c8ff"><path d="M 28.1875 0 L 555.046875 0 C 570.359375 0 582.773438 12.414062 582.773438 27.726562 L 582.773438 813.414062 C 582.773438 828.726562 570.359375 841.140625 555.046875 841.140625 L 28.1875 841.140625 C 12.875 841.140625 0.464844 828.726562 0.464844 813.414062 L 0.464844 27.726562 C 0.464844 12.414062 12.875 0 28.1875 0 Z M 28.1875 0 " clip-rule="nonzero"/></clipPath><clipPath id="7e3920f315"><path d="M 0.464844 0 L 582.773438 0 L 582.773438 841.171875 L 0.464844 841.171875 Z M 0.464844 0 " clip-rule="nonzero"/></clipPath><clipPath id="816013ea02"><path d="M 28.1875 0 L 555.046875 0 C 570.359375 0 582.773438 12.414062 582.773438 27.726562 L 582.773438 813.414062 C 582.773438 828.726562 570.359375 841.140625 555.046875 841.140625 L 28.1875 841.140625 C 12.875 841.140625 0.464844 828.726562 0.464844 813.414062 L 0.464844 27.726562 C 0.464844 12.414062 12.875 0 28.1875 0 Z M 28.1875 0 " clip-rule="nonzero"/></clipPath><clipPath id="d2b909664f"><rect x="0" width="583" y="0" height="842"/></clipPath><clipPath id="766c6d318a"><path d="M 267.511719 179.035156 L 315.195312 179.035156 L 315.195312 226.722656 L 267.511719 226.722656 Z M 267.511719 179.035156 " clip-rule="nonzero"/></clipPath><clipPath id="855082029e"><path d="M 267.511719 613.15625 L 315.195312 613.15625 L 315.195312 660.84375 L 267.511719 660.84375 Z M 267.511719 613.15625 " clip-rule="nonzero"/></clipPath><clipPath id="7f69e51845"><rect x="0" width="217" y="0" height="154"/></clipPath><clipPath id="02a256d861"><rect x="0" width="583" y="0" height="842"/></clipPath></defs><g clip-path="url(#b89f8e5520)"><path fill="#ffffff" d="M 0.246094 0 L 595.214844 0 L 595.214844 841.5 L 0.246094 841.5 Z M 0.246094 0 " fill-opacity="1" fill-rule="nonzero"/><path fill="#6b1510" d="M 0.246094 0 L 595.214844 0 L 595.214844 841.5 L 0.246094 841.5 Z M 0.246094 0 " fill-opacity="1" fill-rule="nonzero"/></g><g clip-path="url(#772b64739c)"><g transform="matrix(1, 0, 0, 1, 6, 0)"><g clip-path="url(#02a256d861)"><g clip-path="url(#c859104cb1)"><g clip-path="url(#6844c1c8ff)"><g transform="matrix(1, 0, 0, 1, -0.000000000000001776, 0)"><g clip-path="url(#d2b909664f)"><g clip-path="url(#7e3920f315)"><g clip-path="url(#816013ea02)"><path fill="#6b1510" d="M 0.464844 0 L 582.773438 0 L 582.773438 841.617188 L 0.464844 841.617188 Z M 0.464844 0 " fill-opacity="1" fill-rule="nonzero"/></g></g></g></g></g></g><g clip-path="url(#766c6d318a)"><path fill="#ffffff" d="M 283.765625 206.382812 L 274.566406 220.171875 L 288.359375 210.984375 L 291.613281 227.230469 L 294.859375 210.980469 L 308.648438 220.171875 L 299.457031 206.382812 L 315.707031 203.132812 L 299.457031 199.882812 L 308.648438 186.09375 L 294.859375 195.289062 L 291.613281 179.035156 L 288.359375 195.289062 L 274.566406 186.09375 L 283.765625 199.882812 L 267.511719 203.132812 Z M 283.765625 206.382812 " fill-opacity="1" fill-rule="nonzero"/></g><g clip-path="url(#855082029e)"><path fill="#ffffff" d="M 283.765625 640.503906 L 274.566406 654.292969 L 288.359375 645.101562 L 291.613281 661.351562 L 294.859375 645.101562 L 308.648438 654.292969 L 299.457031 640.503906 L 315.707031 637.253906 L 299.457031 634.003906 L 308.648438 620.214844 L 294.859375 629.410156 L 291.613281 613.15625 L 288.359375 629.410156 L 274.566406 620.214844 L 283.765625 634.003906 L 267.511719 637.253906 Z M 283.765625 640.503906 " fill-opacity="1" fill-rule="nonzero"/></g><g fill="#ffffff" fill-opacity="1"><g transform="translate(184.901802, 407.879677)"><g><path d="M 19.46875 0.125 L 7.171875 -85.796875 L 0.828125 -85.796875 L 0.828125 -88.78125 L 23.59375 -88.78125 L 23.59375 -85.796875 L 18.203125 -85.796875 L 25.8125 -23.078125 L 24.484375 -19.96875 L 33.484375 -80.65625 L 34.25 -73.375 L 31.890625 -85.796875 L 26.375 -85.796875 L 26.375 -88.78125 L 48.453125 -88.78125 L 48.453125 -85.796875 L 42.484375 -85.796875 L 51.5 -23.65625 L 50.34375 -20.546875 L 58.40625 -85.796875 L 52.890625 -85.796875 L 52.890625 -88.78125 L 67.65625 -88.78125 L 67.65625 -85.796875 L 61.703125 -85.796875 L 49.96875 0.125 L 45.78125 0.125 L 34.375 -72.734375 L 35.765625 -74.640625 L 23.59375 0.125 Z M 19.46875 0.125 "/></g></g></g><g fill="#ffffff" fill-opacity="1"><g transform="translate(252.66807, 407.879677)"><g><path d="M 3.171875 0 L 3.171875 -2.984375 L 9 -2.984375 L 9 -85.796875 L 3.171875 -85.796875 L 3.171875 -88.78125 L 23.34375 -88.78125 L 23.34375 -85.796875 L 18.453125 -85.796875 L 18.453125 -47.25 L 35.0625 -47.25 L 35.0625 -85.796875 L 30.25 -85.796875 L 30.25 -88.78125 L 50.34375 -88.78125 L 50.34375 -85.796875 L 44.390625 -85.796875 L 44.390625 -2.984375 L 50.34375 -2.984375 L 50.34375 0 L 30.25 0 L 30.25 -2.984375 L 35.0625 -2.984375 L 35.0625 -44.203125 L 18.453125 -44.203125 L 18.453125 -2.984375 L 23.34375 -2.984375 L 23.34375 0 Z M 3.171875 0 "/></g></g></g><g fill="#ffffff" fill-opacity="1"><g transform="translate(306.171121, 407.879677)"><g><path d="M 23.265625 1.390625 C 19.253906 1.390625 15.789062 -0.519531 12.875 -4.34375 C 9.957031 -8.164062 7.71875 -13.488281 6.15625 -20.3125 C 4.59375 -27.144531 3.8125 -35.128906 3.8125 -44.265625 C 3.8125 -53.441406 4.59375 -61.460938 6.15625 -68.328125 C 7.71875 -75.203125 9.957031 -80.5625 12.875 -84.40625 C 15.789062 -88.25 19.253906 -90.171875 23.265625 -90.171875 C 27.367188 -90.171875 30.890625 -88.25 33.828125 -84.40625 C 36.765625 -80.5625 39.035156 -75.203125 40.640625 -68.328125 C 42.253906 -61.460938 43.0625 -53.441406 43.0625 -44.265625 C 43.0625 -35.128906 42.253906 -27.144531 40.640625 -20.3125 C 39.035156 -13.488281 36.765625 -8.164062 33.828125 -4.34375 C 30.890625 -0.519531 27.367188 1.390625 23.265625 1.390625 Z M 23.265625 -1.578125 C 25.003906 -1.578125 26.472656 -2.613281 27.671875 -4.6875 C 28.878906 -6.757812 29.875 -9.707031 30.65625 -13.53125 C 31.4375 -17.363281 32.003906 -21.878906 32.359375 -27.078125 C 32.722656 -32.273438 32.90625 -38.003906 32.90625 -44.265625 C 32.90625 -50.515625 32.722656 -56.25 32.359375 -61.46875 C 32.003906 -66.695312 31.4375 -71.234375 30.65625 -75.078125 C 29.875 -78.929688 28.878906 -81.910156 27.671875 -84.015625 C 26.472656 -86.128906 25.003906 -87.1875 23.265625 -87.1875 C 21.617188 -87.1875 20.191406 -86.128906 18.984375 -84.015625 C 17.785156 -81.910156 16.828125 -78.929688 16.109375 -75.078125 C 15.390625 -71.234375 14.847656 -66.695312 14.484375 -61.46875 C 14.128906 -56.25 13.953125 -50.515625 13.953125 -44.265625 C 13.953125 -38.003906 14.128906 -32.273438 14.484375 -27.078125 C 14.847656 -21.878906 15.390625 -17.363281 16.109375 -13.53125 C 16.828125 -9.707031 17.785156 -6.757812 18.984375 -4.6875 C 20.191406 -2.613281 21.617188 -1.578125 23.265625 -1.578125 Z M 23.265625 -1.578125 "/></g></g></g><g fill="#ffffff" fill-opacity="1"><g transform="translate(352.827813, 407.879677)"><g><path d="M 11.484375 0 L 11.484375 -2.984375 L 18.015625 -2.984375 L 18.015625 -85.796875 L 13.640625 -85.796875 C 11.441406 -85.796875 9.757812 -85.253906 8.59375 -84.171875 C 7.425781 -83.097656 6.640625 -81.429688 6.234375 -79.171875 C 5.835938 -76.910156 5.640625 -74.003906 5.640625 -70.453125 L 2.59375 -70.453125 L 2.59375 -88.78125 L 42.796875 -88.78125 L 42.796875 -70.453125 L 39.828125 -70.453125 C 39.828125 -74.003906 39.613281 -76.910156 39.1875 -79.171875 C 38.769531 -81.429688 37.988281 -83.097656 36.84375 -84.171875 C 35.695312 -85.253906 34.023438 -85.796875 31.828125 -85.796875 L 27.453125 -85.796875 L 27.453125 -2.984375 L 34.3125 -2.984375 L 34.3125 0 Z M 11.484375 0 "/></g></g></g><g transform="matrix(1, 0, 0, 1, 183, 414)"><g clip-path="url(#7f69e51845)"><g fill="#ffffff" fill-opacity="1"><g transform="translate(215.389182, 34.380821)"><g><path d="M -19.46875 -0.125 L -7.171875 85.796875 L -0.828125 85.796875 L -0.828125 88.78125 L -23.59375 88.78125 L -23.59375 85.796875 L -18.203125 85.796875 L -25.8125 23.078125 L -24.484375 19.96875 L -33.484375 80.65625 L -34.25 73.375 L -31.890625 85.796875 L -26.375 85.796875 L -26.375 88.78125 L -48.453125 88.78125 L -48.453125 85.796875 L -42.484375 85.796875 L -51.5 23.65625 L -50.34375 20.546875 L -58.40625 85.796875 L -52.890625 85.796875 L -52.890625 88.78125 L -67.65625 88.78125 L -67.65625 85.796875 L -61.703125 85.796875 L -49.96875 -0.125 L -45.78125 -0.125 L -34.375 72.734375 L -35.765625 74.640625 L -23.59375 -0.125 Z M -19.46875 -0.125 "/></g></g></g><g fill="#ffffff" fill-opacity="1"><g transform="translate(147.604678, 34.380821)"><g><path d="M -3.171875 0 L -3.171875 2.984375 L -9 2.984375 L -9 85.796875 L -3.171875 85.796875 L -3.171875 88.78125 L -23.34375 88.78125 L -23.34375 85.796875 L -18.453125 85.796875 L -18.453125 47.25 L -35.0625 47.25 L -35.0625 85.796875 L -30.25 85.796875 L -30.25 88.78125 L -50.34375 88.78125 L -50.34375 85.796875 L -44.390625 85.796875 L -44.390625 2.984375 L -50.34375 2.984375 L -50.34375 0 L -30.25 0 L -30.25 2.984375 L -35.0625 2.984375 L -35.0625 44.203125 L -18.453125 44.203125 L -18.453125 2.984375 L -23.34375 2.984375 L -23.34375 0 Z M -3.171875 0 "/></g></g></g><g fill="#ffffff" fill-opacity="1"><g transform="translate(94.087261, 34.380821)"><g><path d="M -23.265625 -1.390625 C -19.253906 -1.390625 -15.789062 0.519531 -12.875 4.34375 C -9.957031 8.164062 -7.71875 13.488281 -6.15625 20.3125 C -4.59375 27.144531 -3.8125 35.128906 -3.8125 44.265625 C -3.8125 53.441406 -4.59375 61.460938 -6.15625 68.328125 C -7.71875 75.203125 -9.957031 80.5625 -12.875 84.40625 C -15.789062 88.25 -19.253906 90.171875 -23.265625 90.171875 C -27.367188 90.171875 -30.890625 88.25 -33.828125 84.40625 C -36.765625 80.5625 -39.035156 75.203125 -40.640625 68.328125 C -42.253906 61.460938 -43.0625 53.441406 -43.0625 44.265625 C -43.0625 35.128906 -42.253906 27.144531 -40.640625 20.3125 C -39.035156 13.488281 -36.765625 8.164062 -33.828125 4.34375 C -30.890625 0.519531 -27.367188 -1.390625 -23.265625 -1.390625 Z M -23.265625 1.578125 C -25.003906 1.578125 -26.472656 2.613281 -27.671875 4.6875 C -28.878906 6.757812 -29.875 9.707031 -30.65625 13.53125 C -31.4375 17.363281 -32.003906 21.878906 -32.359375 27.078125 C -32.722656 32.273438 -32.90625 38.003906 -32.90625 44.265625 C -32.90625 50.515625 -32.722656 56.25 -32.359375 61.46875 C -32.003906 66.695312 -31.4375 71.234375 -30.65625 75.078125 C -29.875 78.929688 -28.878906 81.910156 -27.671875 84.015625 C -26.472656 86.128906 -25.003906 87.1875 -23.265625 87.1875 C -21.617188 87.1875 -20.191406 86.128906 -18.984375 84.015625 C -17.785156 81.910156 -16.828125 78.929688 -16.109375 75.078125 C -15.390625 71.234375 -14.847656 66.695312 -14.484375 61.46875 C -14.128906 56.25 -13.953125 50.515625 -13.953125 44.265625 C -13.953125 38.003906 -14.128906 32.273438 -14.484375 27.078125 C -14.847656 21.878906 -15.390625 17.363281 -16.109375 13.53125 C -16.828125 9.707031 -17.785156 6.757812 -18.984375 4.6875 C -20.191406 2.613281 -21.617188 1.578125 -23.265625 1.578125 Z M -23.265625 1.578125 "/></g></g></g><g fill="#ffffff" fill-opacity="1"><g transform="translate(47.418049, 34.380821)"><g><path d="M -11.484375 0 L -11.484375 2.984375 L -18.015625 2.984375 L -18.015625 85.796875 L -13.640625 85.796875 C -11.441406 85.796875 -9.757812 85.253906 -8.59375 84.171875 C -7.425781 83.097656 -6.640625 81.429688 -6.234375 79.171875 C -5.835938 76.910156 -5.640625 74.003906 -5.640625 70.453125 L -2.59375 70.453125 L -2.59375 88.78125 L -42.796875 88.78125 L -42.796875 70.453125 L -39.828125 70.453125 C -39.828125 74.003906 -39.613281 76.910156 -39.1875 79.171875 C -38.769531 81.429688 -37.988281 83.097656 -36.84375 84.171875 C -35.695312 85.253906 -34.023438 85.796875 -31.828125 85.796875 L -27.453125 85.796875 L -27.453125 2.984375 L -34.3125 2.984375 L -34.3125 0 Z M -11.484375 0 "/></g></g></g></g></g></g></g></g></svg>