<svg xmlns="http://www.w3.org/2000/svg" xmlns:xlink="http://www.w3.org/1999/xlink" width="794" zoomAndPan="magnify" viewBox="0 0 595.5 842.249979" height="1123" preserveAspectRatio="xMidYMid meet" version="1.0"><defs><clipPath id="cf622475fd"><path d="M 0.015625 0 L 594.984375 0 L 594.984375 841.5 L 0.015625 841.5 Z M 0.015625 0 " clip-rule="nonzero"/></clipPath><clipPath id="19f6895385"><path d="M 0.015625 0 L 594.984375 0 L 594.984375 841.5 L 0.015625 841.5 Z M 0.015625 0 " clip-rule="nonzero"/></clipPath><clipPath id="ab5346b40d"><path d="M 6 0 L 589 0 L 589 841.5 L 6 841.5 Z M 6 0 " clip-rule="nonzero"/></clipPath><clipPath id="8da167ec58"><path d="M 0.234375 0 L 582.765625 0 L 582.765625 841.5 L 0.234375 841.5 Z M 0.234375 0 " clip-rule="nonzero"/></clipPath><clipPath id="87ff210705"><path d="M 27.972656 0 L 555.027344 0 C 570.347656 0 582.765625 12.417969 582.765625 27.734375 L 582.765625 813.722656 C 582.765625 829.039062 570.347656 841.457031 555.027344 841.457031 L 27.972656 841.457031 C 12.652344 841.457031 0.234375 829.039062 0.234375 813.722656 L 0.234375 27.734375 C 0.234375 12.417969 12.652344 0 27.972656 0 Z M 27.972656 0 " clip-rule="nonzero"/></clipPath><clipPath id="3f36b29814"><path d="M 0.234375 0 L 582.765625 0 L 582.765625 841.5 L 0.234375 841.5 Z M 0.234375 0 " clip-rule="nonzero"/></clipPath><clipPath id="42f3512523"><path d="M 27.972656 0 L 555.027344 0 C 570.347656 0 582.765625 12.417969 582.765625 27.734375 L 582.765625 813.722656 C 582.765625 829.039062 570.347656 841.457031 555.027344 841.457031 L 27.972656 841.457031 C 12.652344 841.457031 0.234375 829.039062 0.234375 813.722656 L 0.234375 27.734375 C 0.234375 12.417969 12.652344 0 27.972656 0 Z M 27.972656 0 " clip-rule="nonzero"/></clipPath><clipPath id="99acdcfe0b"><rect x="0" width="583" y="0" height="842"/></clipPath><clipPath id="277874e40f"><path d="M 38.292969 36.265625 L 544.707031 36.265625 L 544.707031 805.785156 L 38.292969 805.785156 Z M 38.292969 36.265625 " clip-rule="nonzero"/></clipPath><clipPath id="f7ee4e9eec"><path d="M 66.027344 36.265625 L 516.972656 36.265625 C 532.289062 36.265625 544.707031 48.683594 544.707031 64.003906 L 544.707031 777.453125 C 544.707031 792.773438 532.289062 805.191406 516.972656 805.191406 L 66.027344 805.191406 C 50.710938 805.191406 38.292969 792.773438 38.292969 777.453125 L 38.292969 64.003906 C 38.292969 48.683594 50.710938 36.265625 66.027344 36.265625 Z M 66.027344 36.265625 " clip-rule="nonzero"/></clipPath><clipPath id="88356c6472"><path d="M 0.292969 0.265625 L 506.707031 0.265625 L 506.707031 769.203125 L 0.292969 769.203125 Z M 0.292969 0.265625 " clip-rule="nonzero"/></clipPath><clipPath id="4f43447666"><path d="M 28.027344 0.265625 L 478.972656 0.265625 C 494.289062 0.265625 506.707031 12.683594 506.707031 28.003906 L 506.707031 741.453125 C 506.707031 756.773438 494.289062 769.191406 478.972656 769.191406 L 28.027344 769.191406 C 12.710938 769.191406 0.292969 756.773438 0.292969 741.453125 L 0.292969 28.003906 C 0.292969 12.683594 12.710938 0.265625 28.027344 0.265625 Z M 28.027344 0.265625 " clip-rule="nonzero"/></clipPath><clipPath id="c812ab6221"><rect x="0" width="507" y="0" height="770"/></clipPath><clipPath id="61b90a5d46"><path d="M 38.292969 36.289062 L 545 36.289062 L 545 804.558594 L 38.292969 804.558594 Z M 38.292969 36.289062 " clip-rule="nonzero"/></clipPath><clipPath id="da73a7e907"><path d="M 66.027344 36.289062 L 516.945312 36.289062 C 532.261719 36.289062 544.679688 48.703125 544.679688 64.023438 L 544.679688 777.429688 C 544.679688 792.75 532.261719 805.164062 516.945312 805.164062 L 66.027344 805.164062 C 50.707031 805.164062 38.292969 792.75 38.292969 777.429688 L 38.292969 64.023438 C 38.292969 48.703125 50.707031 36.289062 66.027344 36.289062 Z M 66.027344 36.289062 " clip-rule="nonzero"/></clipPath><clipPath id="9659999dce"><rect x="0" width="583" y="0" height="842"/></clipPath><clipPath id="062e6635e3"><rect x="0" width="595" y="0" height="842"/></clipPath></defs><g clip-path="url(#cf622475fd)"><path fill="#ffffff" d="M 0.015625 0 L 594.984375 0 L 594.984375 841.5 L 0.015625 841.5 Z M 0.015625 0 " fill-opacity="1" fill-rule="nonzero"/><g transform="matrix(1, 0, 0, 1, -0.000000000000000002, 0)"><g clip-path="url(#062e6635e3)"><g clip-path="url(#19f6895385)"><path fill="#ffffff" d="M 0.015625 0 L 595.210938 0 L 595.210938 841.816406 L 0.015625 841.816406 Z M 0.015625 0 " fill-opacity="1" fill-rule="nonzero"/></g><g clip-path="url(#ab5346b40d)"><g transform="matrix(1, 0, 0, 1, 6, 0)"><g clip-path="url(#9659999dce)"><g clip-path="url(#8da167ec58)"><g clip-path="url(#87ff210705)"><g transform="matrix(1, 0, 0, 1, -0.000000000000000888, 0)"><g clip-path="url(#99acdcfe0b)"><g clip-path="url(#3f36b29814)"><g clip-path="url(#42f3512523)"><path fill="#ffffff" d="M 0.234375 0 L 582.765625 0 L 582.765625 841.9375 L 0.234375 841.9375 Z M 0.234375 0 " fill-opacity="1" fill-rule="nonzero"/></g></g></g></g></g></g><g clip-path="url(#277874e40f)"><g clip-path="url(#f7ee4e9eec)"><g transform="matrix(1, 0, 0, 1, 38, 36)"><g clip-path="url(#c812ab6221)"><g clip-path="url(#88356c6472)"><g clip-path="url(#4f43447666)"><path fill="#ffffff" d="M 0.292969 0.265625 L 506.707031 0.265625 L 506.707031 769.785156 L 0.292969 769.785156 Z M 0.292969 0.265625 " fill-opacity="1" fill-rule="nonzero"/></g></g></g></g></g></g><g clip-path="url(#61b90a5d46)"><g clip-path="url(#da73a7e907)"><path stroke-linecap="butt" transform="matrix(2.510751, 0, 0, 2.510751, 38.29184, 36.28738)" fill="none" stroke-linejoin="miter" d="M 11.046697 0.000670296 L 190.64156 0.000670296 C 196.741889 0.000670296 201.687807 4.945033 201.687807 11.046917 L 201.687807 295.187508 C 201.687807 301.287837 196.741889 306.233756 190.64156 306.233756 L 11.046697 306.233756 C 4.944812 306.233756 0.000449682 301.287837 0.000449682 295.187508 L 0.000449682 11.046917 C 0.000449682 4.945033 4.944812 0.000670296 11.046697 0.000670296 Z M 11.046697 0.000670296 " stroke="#6b1510" stroke-width="2.985621" stroke-opacity="1" stroke-miterlimit="4"/></g></g></g></g></g></g></g></g></svg>