<svg xmlns="http://www.w3.org/2000/svg" xmlns:xlink="http://www.w3.org/1999/xlink" width="794" zoomAndPan="magnify" viewBox="0 0 594.95996 842.24997" height="1123" preserveAspectRatio="xMidYMid meet" version="1.0"><defs><g/><clipPath id="42ca0f97ad"><path d="M 0.246094 0 L 594.675781 0 L 594.675781 841.5 L 0.246094 841.5 Z M 0.246094 0 " clip-rule="nonzero"/></clipPath><clipPath id="3737f0b842"><path d="M 7 0 L 590 0 L 590 841.5 L 7 841.5 Z M 7 0 " clip-rule="nonzero"/></clipPath><clipPath id="18e31bc508"><path d="M 0.339844 0 L 582.648438 0 L 582.648438 841.5 L 0.339844 841.5 Z M 0.339844 0 " clip-rule="nonzero"/></clipPath><clipPath id="0c1c79d152"><path d="M 28.066406 0 L 554.925781 0 C 570.238281 0 582.648438 12.414062 582.648438 27.726562 L 582.648438 813.414062 C 582.648438 828.726562 570.238281 841.140625 554.925781 841.140625 L 28.066406 841.140625 C 12.753906 841.140625 0.339844 828.726562 0.339844 813.414062 L 0.339844 27.726562 C 0.339844 12.414062 12.753906 0 28.066406 0 Z M 28.066406 0 " clip-rule="nonzero"/></clipPath><clipPath id="4beebdb443"><path d="M 0.339844 0 L 582.648438 0 L 582.648438 841.171875 L 0.339844 841.171875 Z M 0.339844 0 " clip-rule="nonzero"/></clipPath><clipPath id="916ff76a7b"><path d="M 28.066406 0 L 554.925781 0 C 570.238281 0 582.648438 12.414062 582.648438 27.726562 L 582.648438 813.414062 C 582.648438 828.726562 570.238281 841.140625 554.925781 841.140625 L 28.066406 841.140625 C 12.753906 841.140625 0.339844 828.726562 0.339844 813.414062 L 0.339844 27.726562 C 0.339844 12.414062 12.753906 0 28.066406 0 Z M 28.066406 0 " clip-rule="nonzero"/></clipPath><clipPath id="93dbec0e91"><rect x="0" width="583" y="0" height="842"/></clipPath><clipPath id="82c831c297"><path d="M 38.382812 36.253906 L 544.609375 36.253906 L 544.609375 805 L 38.382812 805 Z M 38.382812 36.253906 " clip-rule="nonzero"/></clipPath><clipPath id="2e071b9338"><path d="M 66.109375 36.253906 L 516.882812 36.253906 C 532.195312 36.253906 544.609375 48.667969 544.609375 63.980469 L 544.609375 777.160156 C 544.609375 792.472656 532.195312 804.886719 516.882812 804.886719 L 66.109375 804.886719 C 50.796875 804.886719 38.382812 792.472656 38.382812 777.160156 L 38.382812 63.980469 C 38.382812 48.667969 50.796875 36.253906 66.109375 36.253906 Z M 66.109375 36.253906 " clip-rule="nonzero"/></clipPath><clipPath id="808cdc5d5c"><path d="M 0.382812 0.253906 L 506.609375 0.253906 L 506.609375 768.964844 L 0.382812 768.964844 Z M 0.382812 0.253906 " clip-rule="nonzero"/></clipPath><clipPath id="20841a8c28"><path d="M 28.109375 0.253906 L 478.882812 0.253906 C 494.195312 0.253906 506.609375 12.667969 506.609375 27.980469 L 506.609375 741.160156 C 506.609375 756.472656 494.195312 768.886719 478.882812 768.886719 L 28.109375 768.886719 C 12.796875 768.886719 0.382812 756.472656 0.382812 741.160156 L 0.382812 27.980469 C 0.382812 12.667969 12.796875 0.253906 28.109375 0.253906 Z M 28.109375 0.253906 " clip-rule="nonzero"/></clipPath><clipPath id="b465d4aabc"><rect x="0" width="507" y="0" height="769"/></clipPath><clipPath id="a5894ee383"><path d="M 38.382812 36.273438 L 545 36.273438 L 545 804.253906 L 38.382812 804.253906 Z M 38.382812 36.273438 " clip-rule="nonzero"/></clipPath><clipPath id="7cc7b775fa"><path d="M 66.105469 36.273438 L 516.855469 36.273438 C 532.167969 36.273438 544.578125 48.6875 544.578125 63.996094 L 544.578125 777.136719 C 544.578125 792.449219 532.167969 804.863281 516.855469 804.863281 L 66.105469 804.863281 C 50.792969 804.863281 38.382812 792.449219 38.382812 777.136719 L 38.382812 63.996094 C 38.382812 48.6875 50.792969 36.273438 66.105469 36.273438 Z M 66.105469 36.273438 " clip-rule="nonzero"/></clipPath><clipPath id="50e270151f"><path d="M 117.816406 235.648438 L 464.835938 235.648438 L 464.835938 591.132812 L 117.816406 591.132812 Z M 117.816406 235.648438 " clip-rule="nonzero"/></clipPath><clipPath id="9024503d91"><path d="M 0.816406 0.648438 L 347.835938 0.648438 L 347.835938 356 L 0.816406 356 Z M 0.816406 0.648438 " clip-rule="nonzero"/></clipPath><clipPath id="74fd7eded5"><rect x="0" width="348" y="0" height="357"/></clipPath><clipPath id="f831c97c49"><path d="M 432.96875 610.75 L 488.171875 610.75 L 488.171875 667.476562 L 432.96875 667.476562 Z M 432.96875 610.75 " clip-rule="nonzero"/></clipPath><clipPath id="5c81847b59"><path d="M 0.96875 0.75 L 56.171875 0.75 L 56.171875 57.476562 L 0.96875 57.476562 Z M 0.96875 0.75 " clip-rule="nonzero"/></clipPath><clipPath id="5235256c98"><rect x="0" width="57" y="0" height="58"/></clipPath><clipPath id="9a73649a92"><path d="M 90.214844 158.84375 L 145.417969 158.84375 L 145.417969 215.570312 L 90.214844 215.570312 Z M 90.214844 158.84375 " clip-rule="nonzero"/></clipPath><clipPath id="d898dc6132"><path d="M 0.214844 0.84375 L 55.417969 0.84375 L 55.417969 57.570312 L 0.214844 57.570312 Z M 0.214844 0.84375 " clip-rule="nonzero"/></clipPath><clipPath id="113e63fe2c"><rect x="0" width="56" y="0" height="58"/></clipPath><clipPath id="ac205d3dc9"><rect x="0" width="583" y="0" height="842"/></clipPath></defs><g clip-path="url(#42ca0f97ad)"><path fill="#ffffff" d="M 0.246094 0 L 595.214844 0 L 595.214844 841.5 L 0.246094 841.5 Z M 0.246094 0 " fill-opacity="1" fill-rule="nonzero"/><path fill="#ffffff" d="M 0.246094 0 L 595.214844 0 L 595.214844 841.5 L 0.246094 841.5 Z M 0.246094 0 " fill-opacity="1" fill-rule="nonzero"/></g><g clip-path="url(#3737f0b842)"><g transform="matrix(1, 0, 0, 1, 7, 0)"><g clip-path="url(#ac205d3dc9)"><g clip-path="url(#18e31bc508)"><g clip-path="url(#0c1c79d152)"><g transform="matrix(1, 0, 0, 1, -0.000000000000001776, 0)"><g clip-path="url(#93dbec0e91)"><g clip-path="url(#4beebdb443)"><g clip-path="url(#916ff76a7b)"><path fill="#ffffff" d="M 0.339844 0 L 582.648438 0 L 582.648438 841.617188 L 0.339844 841.617188 Z M 0.339844 0 " fill-opacity="1" fill-rule="nonzero"/></g></g></g></g></g></g><g clip-path="url(#82c831c297)"><g clip-path="url(#2e071b9338)"><g transform="matrix(1, 0, 0, 1, 38, 36)"><g clip-path="url(#b465d4aabc)"><g clip-path="url(#808cdc5d5c)"><g clip-path="url(#20841a8c28)"><path fill="#ffffff" d="M 0.382812 0.253906 L 506.609375 0.253906 L 506.609375 769.480469 L 0.382812 769.480469 Z M 0.382812 0.253906 " fill-opacity="1" fill-rule="nonzero"/></g></g></g></g></g></g><g clip-path="url(#a5894ee383)"><g clip-path="url(#7cc7b775fa)"><path stroke-linecap="butt" transform="matrix(2.509805, 0, 0, 2.509805, 38.382268, 36.273706)" fill="none" stroke-linejoin="miter" d="M 11.045957 -0.000107011 L 190.641561 -0.000107011 C 196.742632 -0.000107011 201.687301 4.946118 201.687301 11.045633 L 201.687301 295.187445 C 201.687301 301.288516 196.742632 306.234741 190.641561 306.234741 L 11.045957 306.234741 C 4.944886 306.234741 0.000216787 301.288516 0.000216787 295.187445 L 0.000216787 11.045633 C 0.000216787 4.946118 4.944886 -0.000107011 11.045957 -0.000107011 Z M 11.045957 -0.000107011 " stroke="#6b1510" stroke-width="2.985621" stroke-opacity="1" stroke-miterlimit="4"/></g></g><g clip-path="url(#50e270151f)"><g transform="matrix(1, 0, 0, 1, 117, 235)"><g clip-path="url(#74fd7eded5)"><g clip-path="url(#9024503d91)"><path fill="#6b1510" d="M 0.816406 0.648438 L 347.835938 0.648438 L 347.835938 355.804688 L 0.816406 355.804688 Z M 0.816406 0.648438 " fill-opacity="1" fill-rule="nonzero"/></g></g></g></g><g fill="#6b1510" fill-opacity="1"><g transform="translate(98.632958, 145.502137)"><g><path d="M 25.28125 0.546875 C 23.789062 0.546875 22.382812 0.28125 21.0625 -0.25 C 19.738281 -0.78125 18.460938 -1.390625 17.234375 -2.078125 C 16.015625 -2.773438 14.800781 -3.394531 13.59375 -3.9375 C 12.382812 -4.488281 11.148438 -4.765625 9.890625 -4.765625 C 8.398438 -4.765625 7.253906 -4.226562 6.453125 -3.15625 C 5.660156 -2.082031 5.179688 -1.03125 5.015625 0 L 2.734375 0 C 2.734375 -5.425781 3.21875 -10.160156 4.1875 -14.203125 C 5.164062 -18.242188 6.425781 -21.8125 7.96875 -24.90625 C 9.507812 -28.007812 11.148438 -30.800781 12.890625 -33.28125 C 14.628906 -35.769531 16.257812 -38.140625 17.78125 -40.390625 C 19.3125 -42.640625 20.5625 -44.945312 21.53125 -47.3125 C 22.507812 -49.6875 23 -52.332031 23 -55.25 C 23 -57.957031 22.757812 -60.269531 22.28125 -62.1875 C 21.800781 -64.113281 21.0625 -65.585938 20.0625 -66.609375 C 19.070312 -67.640625 17.832031 -68.15625 16.34375 -68.15625 C 15.25 -68.15625 14.210938 -67.941406 13.234375 -67.515625 C 12.265625 -67.085938 11.472656 -66.539062 10.859375 -65.875 C 10.242188 -65.207031 9.9375 -64.492188 9.9375 -63.734375 C 9.9375 -63.078125 10.179688 -62.382812 10.671875 -61.65625 C 11.171875 -60.925781 11.671875 -60.117188 12.171875 -59.234375 C 12.671875 -58.359375 12.921875 -57.34375 12.921875 -56.1875 C 12.921875 -54.332031 12.476562 -52.960938 11.59375 -52.078125 C 10.71875 -51.203125 9.601562 -50.765625 8.25 -50.765625 C 6.820312 -50.765625 5.671875 -51.296875 4.796875 -52.359375 C 3.921875 -53.421875 3.484375 -55.078125 3.484375 -57.328125 C 3.484375 -59.773438 4.066406 -62 5.234375 -64 C 6.410156 -66.007812 8.09375 -67.617188 10.28125 -68.828125 C 12.46875 -70.035156 15.085938 -70.640625 18.140625 -70.640625 C 19.921875 -70.640625 21.769531 -70.390625 23.6875 -69.890625 C 25.613281 -69.398438 27.390625 -68.539062 29.015625 -67.3125 C 30.640625 -66.09375 31.945312 -64.421875 32.9375 -62.296875 C 33.925781 -60.179688 34.421875 -57.484375 34.421875 -54.203125 C 34.421875 -50.691406 33.945312 -47.6875 33 -45.1875 C 32.0625 -42.6875 30.8125 -40.507812 29.25 -38.65625 C 27.695312 -36.800781 25.96875 -35.101562 24.0625 -33.5625 C 22.164062 -32.019531 20.226562 -30.46875 18.25 -28.90625 C 16.28125 -27.351562 14.425781 -25.609375 12.6875 -23.671875 C 10.945312 -21.734375 9.457031 -19.445312 8.21875 -16.8125 C 6.976562 -14.175781 6.160156 -11.023438 5.765625 -7.359375 C 6.160156 -8.546875 6.910156 -9.578125 8.015625 -10.453125 C 9.128906 -11.335938 10.414062 -12.019531 11.875 -12.5 C 13.332031 -12.976562 14.773438 -13.21875 16.203125 -13.21875 C 18.085938 -13.21875 19.75 -12.976562 21.1875 -12.5 C 22.625 -12.019531 23.914062 -11.535156 25.0625 -11.046875 C 26.207031 -10.566406 27.257812 -10.328125 28.21875 -10.328125 C 29.570312 -10.328125 30.585938 -10.695312 31.265625 -11.4375 C 31.953125 -12.1875 32.296875 -13.242188 32.296875 -14.609375 L 34.53125 -14.609375 L 34.53125 -12.46875 C 34.53125 -10.445312 34.25 -8.429688 33.6875 -6.421875 C 33.125 -4.421875 32.171875 -2.757812 30.828125 -1.4375 C 29.484375 -0.113281 27.632812 0.546875 25.28125 0.546875 Z M 25.28125 0.546875 "/></g></g></g><g fill="#6b1510" fill-opacity="1"><g transform="translate(484.0068, 686.965601)"><g><path d="M -25.28125 -0.546875 C -23.789062 -0.546875 -22.382812 -0.28125 -21.0625 0.25 C -19.738281 0.78125 -18.460938 1.390625 -17.234375 2.078125 C -16.015625 2.773438 -14.800781 3.394531 -13.59375 3.9375 C -12.382812 4.488281 -11.148438 4.765625 -9.890625 4.765625 C -8.398438 4.765625 -7.253906 4.226562 -6.453125 3.15625 C -5.660156 2.082031 -5.179688 1.03125 -5.015625 0 L -2.734375 0 C -2.734375 5.425781 -3.21875 10.160156 -4.1875 14.203125 C -5.164062 18.242188 -6.425781 21.8125 -7.96875 24.90625 C -9.507812 28.007812 -11.148438 30.800781 -12.890625 33.28125 C -14.628906 35.769531 -16.257812 38.140625 -17.78125 40.390625 C -19.3125 42.640625 -20.5625 44.945312 -21.53125 47.3125 C -22.507812 49.6875 -23 52.332031 -23 55.25 C -23 57.957031 -22.757812 60.269531 -22.28125 62.1875 C -21.800781 64.113281 -21.0625 65.585938 -20.0625 66.609375 C -19.070312 67.640625 -17.832031 68.15625 -16.34375 68.15625 C -15.25 68.15625 -14.210938 67.941406 -13.234375 67.515625 C -12.265625 67.085938 -11.472656 66.539062 -10.859375 65.875 C -10.242188 65.207031 -9.9375 64.492188 -9.9375 63.734375 C -9.9375 63.078125 -10.179688 62.382812 -10.671875 61.65625 C -11.171875 60.925781 -11.671875 60.117188 -12.171875 59.234375 C -12.671875 58.359375 -12.921875 57.34375 -12.921875 56.1875 C -12.921875 54.332031 -12.476562 52.960938 -11.59375 52.078125 C -10.71875 51.203125 -9.601562 50.765625 -8.25 50.765625 C -6.820312 50.765625 -5.671875 51.296875 -4.796875 52.359375 C -3.921875 53.421875 -3.484375 55.078125 -3.484375 57.328125 C -3.484375 59.773438 -4.066406 62 -5.234375 64 C -6.410156 66.007812 -8.09375 67.617188 -10.28125 68.828125 C -12.46875 70.035156 -15.085938 70.640625 -18.140625 70.640625 C -19.921875 70.640625 -21.769531 70.390625 -23.6875 69.890625 C -25.613281 69.398438 -27.390625 68.539062 -29.015625 67.3125 C -30.640625 66.09375 -31.945312 64.421875 -32.9375 62.296875 C -33.925781 60.179688 -34.421875 57.484375 -34.421875 54.203125 C -34.421875 50.691406 -33.945312 47.6875 -33 45.1875 C -32.0625 42.6875 -30.8125 40.507812 -29.25 38.65625 C -27.695312 36.800781 -25.96875 35.101562 -24.0625 33.5625 C -22.164062 32.019531 -20.226562 30.46875 -18.25 28.90625 C -16.28125 27.351562 -14.425781 25.609375 -12.6875 23.671875 C -10.945312 21.734375 -9.457031 19.445312 -8.21875 16.8125 C -6.976562 14.175781 -6.160156 11.023438 -5.765625 7.359375 C -6.160156 8.546875 -6.910156 9.578125 -8.015625 10.453125 C -9.128906 11.335938 -10.414062 12.019531 -11.875 12.5 C -13.332031 12.976562 -14.773438 13.21875 -16.203125 13.21875 C -18.085938 13.21875 -19.75 12.976562 -21.1875 12.5 C -22.625 12.019531 -23.914062 11.535156 -25.0625 11.046875 C -26.207031 10.566406 -27.257812 10.328125 -28.21875 10.328125 C -29.570312 10.328125 -30.585938 10.695312 -31.265625 11.4375 C -31.953125 12.1875 -32.296875 13.242188 -32.296875 14.609375 L -34.53125 14.609375 L -34.53125 12.46875 C -34.53125 10.445312 -34.25 8.429688 -33.6875 6.421875 C -33.125 4.421875 -32.171875 2.757812 -30.828125 1.4375 C -29.484375 0.113281 -27.632812 -0.546875 -25.28125 -0.546875 Z M -25.28125 -0.546875 "/></g></g></g><g clip-path="url(#f831c97c49)"><g transform="matrix(1, 0, 0, 1, 432, 610)"><g clip-path="url(#5235256c98)"><g clip-path="url(#5c81847b59)"><path fill="#6b1510" d="M 0.96875 0.75 L 56.171875 0.75 L 56.171875 57.464844 L 0.96875 57.464844 Z M 0.96875 0.75 " fill-opacity="1" fill-rule="nonzero"/></g></g></g></g><g clip-path="url(#9a73649a92)"><g transform="matrix(1, 0, 0, 1, 90, 158)"><g clip-path="url(#113e63fe2c)"><g clip-path="url(#d898dc6132)"><path fill="#6b1510" d="M 0.214844 0.84375 L 55.417969 0.84375 L 55.417969 57.558594 L 0.214844 57.558594 Z M 0.214844 0.84375 " fill-opacity="1" fill-rule="nonzero"/></g></g></g></g></g></g></g></svg>