<svg xmlns="http://www.w3.org/2000/svg" xmlns:xlink="http://www.w3.org/1999/xlink" width="794" zoomAndPan="magnify" viewBox="0 0 594.95996 842.24997" height="1123" preserveAspectRatio="xMidYMid meet" version="1.0"><defs><g/><clipPath id="bb21cd45c3"><path d="M 0.246094 0 L 594.675781 0 L 594.675781 841.5 L 0.246094 841.5 Z M 0.246094 0 " clip-rule="nonzero"/></clipPath><clipPath id="f70603e81a"><path d="M 7 0 L 590 0 L 590 841.5 L 7 841.5 Z M 7 0 " clip-rule="nonzero"/></clipPath><clipPath id="283daaf117"><path d="M 0.25 0 L 582.558594 0 L 582.558594 841.5 L 0.25 841.5 Z M 0.25 0 " clip-rule="nonzero"/></clipPath><clipPath id="ff4851ac49"><path d="M 27.976562 0 L 554.835938 0 C 570.148438 0 582.558594 12.414062 582.558594 27.726562 L 582.558594 813.414062 C 582.558594 828.726562 570.148438 841.140625 554.835938 841.140625 L 27.976562 841.140625 C 12.664062 841.140625 0.25 828.726562 0.25 813.414062 L 0.25 27.726562 C 0.25 12.414062 12.664062 0 27.976562 0 Z M 27.976562 0 " clip-rule="nonzero"/></clipPath><clipPath id="fe8c7f0204"><path d="M 0.25 0 L 582.558594 0 L 582.558594 841.171875 L 0.25 841.171875 Z M 0.25 0 " clip-rule="nonzero"/></clipPath><clipPath id="a254eada0c"><path d="M 27.976562 0 L 554.835938 0 C 570.148438 0 582.558594 12.414062 582.558594 27.726562 L 582.558594 813.414062 C 582.558594 828.726562 570.148438 841.140625 554.835938 841.140625 L 27.976562 841.140625 C 12.664062 841.140625 0.25 828.726562 0.25 813.414062 L 0.25 27.726562 C 0.25 12.414062 12.664062 0 27.976562 0 Z M 27.976562 0 " clip-rule="nonzero"/></clipPath><clipPath id="9510957f12"><rect x="0" width="583" y="0" height="842"/></clipPath><clipPath id="7bf02d1a00"><path d="M 38.292969 36.253906 L 544.519531 36.253906 L 544.519531 805 L 38.292969 805 Z M 38.292969 36.253906 " clip-rule="nonzero"/></clipPath><clipPath id="312f789361"><path d="M 66.015625 36.253906 L 516.792969 36.253906 C 532.105469 36.253906 544.519531 48.667969 544.519531 63.980469 L 544.519531 777.160156 C 544.519531 792.472656 532.105469 804.886719 516.792969 804.886719 L 66.015625 804.886719 C 50.707031 804.886719 38.292969 792.472656 38.292969 777.160156 L 38.292969 63.980469 C 38.292969 48.667969 50.707031 36.253906 66.015625 36.253906 Z M 66.015625 36.253906 " clip-rule="nonzero"/></clipPath><clipPath id="c165db3ee8"><path d="M 0.292969 0.253906 L 506.519531 0.253906 L 506.519531 768.964844 L 0.292969 768.964844 Z M 0.292969 0.253906 " clip-rule="nonzero"/></clipPath><clipPath id="64f5a8df59"><path d="M 28.015625 0.253906 L 478.792969 0.253906 C 494.105469 0.253906 506.519531 12.667969 506.519531 27.980469 L 506.519531 741.160156 C 506.519531 756.472656 494.105469 768.886719 478.792969 768.886719 L 28.015625 768.886719 C 12.707031 768.886719 0.292969 756.472656 0.292969 741.160156 L 0.292969 27.980469 C 0.292969 12.667969 12.707031 0.253906 28.015625 0.253906 Z M 28.015625 0.253906 " clip-rule="nonzero"/></clipPath><clipPath id="3f97c73d37"><rect x="0" width="507" y="0" height="769"/></clipPath><clipPath id="43f9fac57b"><path d="M 38.292969 36.273438 L 545 36.273438 L 545 804.253906 L 38.292969 804.253906 Z M 38.292969 36.273438 " clip-rule="nonzero"/></clipPath><clipPath id="7a9c9a1484"><path d="M 66.015625 36.273438 L 516.765625 36.273438 C 532.074219 36.273438 544.488281 48.6875 544.488281 63.996094 L 544.488281 777.136719 C 544.488281 792.449219 532.074219 804.863281 516.765625 804.863281 L 66.015625 804.863281 C 50.703125 804.863281 38.292969 792.449219 38.292969 777.136719 L 38.292969 63.996094 C 38.292969 48.6875 50.703125 36.273438 66.015625 36.273438 Z M 66.015625 36.273438 " clip-rule="nonzero"/></clipPath><clipPath id="0cb330d1c9"><path d="M 117.726562 235.648438 L 464.746094 235.648438 L 464.746094 591.132812 L 117.726562 591.132812 Z M 117.726562 235.648438 " clip-rule="nonzero"/></clipPath><clipPath id="8b8230adbe"><path d="M 0.726562 0.648438 L 347.746094 0.648438 L 347.746094 356 L 0.726562 356 Z M 0.726562 0.648438 " clip-rule="nonzero"/></clipPath><clipPath id="2a2ebc2a8d"><rect x="0" width="348" y="0" height="357"/></clipPath><clipPath id="49fe410024"><path d="M 432.878906 610.75 L 488.082031 610.75 L 488.082031 667.476562 L 432.878906 667.476562 Z M 432.878906 610.75 " clip-rule="nonzero"/></clipPath><clipPath id="6aeb02d0de"><path d="M 0.878906 0.75 L 56.082031 0.75 L 56.082031 57.476562 L 0.878906 57.476562 Z M 0.878906 0.75 " clip-rule="nonzero"/></clipPath><clipPath id="0a27434f67"><rect x="0" width="57" y="0" height="58"/></clipPath><clipPath id="2a8d16a7ca"><path d="M 90.121094 158.84375 L 145.328125 158.84375 L 145.328125 215.570312 L 90.121094 215.570312 Z M 90.121094 158.84375 " clip-rule="nonzero"/></clipPath><clipPath id="392d7a1aac"><path d="M 0.121094 0.84375 L 55.328125 0.84375 L 55.328125 57.570312 L 0.121094 57.570312 Z M 0.121094 0.84375 " clip-rule="nonzero"/></clipPath><clipPath id="d0f5015901"><rect x="0" width="56" y="0" height="58"/></clipPath><clipPath id="79c849880d"><rect x="0" width="583" y="0" height="842"/></clipPath></defs><g clip-path="url(#bb21cd45c3)"><path fill="#ffffff" d="M 0.246094 0 L 595.214844 0 L 595.214844 841.5 L 0.246094 841.5 Z M 0.246094 0 " fill-opacity="1" fill-rule="nonzero"/><path fill="#ffffff" d="M 0.246094 0 L 595.214844 0 L 595.214844 841.5 L 0.246094 841.5 Z M 0.246094 0 " fill-opacity="1" fill-rule="nonzero"/></g><g clip-path="url(#f70603e81a)"><g transform="matrix(1, 0, 0, 1, 7, 0)"><g clip-path="url(#79c849880d)"><g clip-path="url(#283daaf117)"><g clip-path="url(#ff4851ac49)"><g transform="matrix(1, 0, 0, 1, -0.000000000000001776, 0)"><g clip-path="url(#9510957f12)"><g clip-path="url(#fe8c7f0204)"><g clip-path="url(#a254eada0c)"><path fill="#ffffff" d="M 0.25 0 L 582.558594 0 L 582.558594 841.617188 L 0.25 841.617188 Z M 0.25 0 " fill-opacity="1" fill-rule="nonzero"/></g></g></g></g></g></g><g clip-path="url(#7bf02d1a00)"><g clip-path="url(#312f789361)"><g transform="matrix(1, 0, 0, 1, 38, 36)"><g clip-path="url(#3f97c73d37)"><g clip-path="url(#c165db3ee8)"><g clip-path="url(#64f5a8df59)"><path fill="#ffffff" d="M 0.292969 0.253906 L 506.519531 0.253906 L 506.519531 769.480469 L 0.292969 769.480469 Z M 0.292969 0.253906 " fill-opacity="1" fill-rule="nonzero"/></g></g></g></g></g></g><g clip-path="url(#43f9fac57b)"><g clip-path="url(#7a9c9a1484)"><path stroke-linecap="butt" transform="matrix(2.509805, 0, 0, 2.509805, 38.292063, 36.273706)" fill="none" stroke-linejoin="miter" d="M 11.046101 -0.000107011 L 190.641706 -0.000107011 C 196.74122 -0.000107011 201.687445 4.946118 201.687445 11.045633 L 201.687445 295.187445 C 201.687445 301.288516 196.74122 306.234741 190.641706 306.234741 L 11.046101 306.234741 C 4.94503 306.234741 0.00036083 301.288516 0.00036083 295.187445 L 0.00036083 11.045633 C 0.00036083 4.946118 4.94503 -0.000107011 11.046101 -0.000107011 Z M 11.046101 -0.000107011 " stroke="#6b1510" stroke-width="2.985621" stroke-opacity="1" stroke-miterlimit="4"/></g></g><g clip-path="url(#0cb330d1c9)"><g transform="matrix(1, 0, 0, 1, 117, 235)"><g clip-path="url(#2a2ebc2a8d)"><g clip-path="url(#8b8230adbe)"><path fill="#6b1510" d="M 0.726562 0.648438 L 347.746094 0.648438 L 347.746094 355.804688 L 0.726562 355.804688 Z M 0.726562 0.648438 " fill-opacity="1" fill-rule="nonzero"/></g></g></g></g><g fill="#6b1510" fill-opacity="1"><g transform="translate(98.346679, 145.502137)"><g><path d="M 17.640625 1.1875 C 14.953125 1.1875 12.554688 0.582031 10.453125 -0.625 C 8.347656 -1.832031 6.695312 -3.453125 5.5 -5.484375 C 4.3125 -7.523438 3.71875 -9.785156 3.71875 -12.265625 C 3.71875 -14.484375 4.296875 -16.1875 5.453125 -17.375 C 6.617188 -18.570312 7.898438 -19.171875 9.296875 -19.171875 C 10.617188 -19.171875 11.660156 -18.75 12.421875 -17.90625 C 13.179688 -17.0625 13.5625 -15.796875 13.5625 -14.109375 C 13.5625 -12.878906 13.285156 -11.867188 12.734375 -11.078125 C 12.191406 -10.285156 11.644531 -9.488281 11.09375 -8.6875 C 10.550781 -7.894531 10.28125 -6.90625 10.28125 -5.71875 C 10.28125 -4.59375 10.859375 -3.601562 12.015625 -2.75 C 13.179688 -1.90625 14.578125 -1.484375 16.203125 -1.484375 C 17.453125 -1.484375 18.539062 -1.976562 19.46875 -2.96875 C 20.394531 -3.96875 21.113281 -5.648438 21.625 -8.015625 C 22.144531 -10.390625 22.40625 -13.660156 22.40625 -17.828125 C 22.40625 -21.609375 22.179688 -24.640625 21.734375 -26.921875 C 21.285156 -29.210938 20.679688 -30.9375 19.921875 -32.09375 C 19.160156 -33.25 18.289062 -34.023438 17.3125 -34.421875 C 16.332031 -34.828125 15.316406 -35.03125 14.265625 -35.03125 L 14.265625 -37.75 C 15.316406 -37.75 16.363281 -37.898438 17.40625 -38.203125 C 18.457031 -38.503906 19.40625 -39.179688 20.25 -40.234375 C 21.09375 -41.296875 21.753906 -42.960938 22.234375 -45.234375 C 22.710938 -47.503906 22.953125 -50.625 22.953125 -54.59375 C 22.953125 -58.90625 22.390625 -62.210938 21.265625 -64.515625 C 20.140625 -66.816406 18.515625 -67.96875 16.390625 -67.96875 C 14.765625 -67.96875 13.347656 -67.566406 12.140625 -66.765625 C 10.929688 -65.972656 10.328125 -65.015625 10.328125 -63.890625 C 10.328125 -62.660156 10.609375 -61.648438 11.171875 -60.859375 C 11.734375 -60.066406 12.285156 -59.265625 12.828125 -58.453125 C 13.378906 -57.640625 13.65625 -56.617188 13.65625 -55.390625 C 13.65625 -53.703125 13.273438 -52.4375 12.515625 -51.59375 C 11.753906 -50.75 10.695312 -50.328125 9.34375 -50.328125 C 7.945312 -50.328125 6.675781 -50.929688 5.53125 -52.140625 C 4.394531 -53.347656 3.828125 -55.078125 3.828125 -57.328125 C 3.828125 -59.773438 4.429688 -62 5.640625 -64 C 6.847656 -66.007812 8.535156 -67.617188 10.703125 -68.828125 C 12.867188 -70.035156 15.347656 -70.640625 18.140625 -70.640625 C 20.921875 -70.640625 23.5625 -70.050781 26.0625 -68.875 C 28.5625 -67.707031 30.585938 -65.90625 32.140625 -63.46875 C 33.703125 -61.03125 34.484375 -57.957031 34.484375 -54.25 C 34.484375 -50.9375 33.9375 -48.15625 32.84375 -45.90625 C 31.75 -43.65625 30.375 -41.84375 28.71875 -40.46875 C 27.0625 -39.09375 25.394531 -38.082031 23.71875 -37.4375 C 22.050781 -36.789062 20.632812 -36.429688 19.46875 -36.359375 C 20.632812 -36.191406 22.082031 -35.769531 23.8125 -35.09375 C 25.550781 -34.414062 27.28125 -33.378906 29 -31.984375 C 30.726562 -30.597656 32.171875 -28.769531 33.328125 -26.5 C 34.492188 -24.226562 35.078125 -21.441406 35.078125 -18.140625 C 35.078125 -14.265625 34.363281 -10.875 32.9375 -7.96875 C 31.507812 -5.070312 29.492188 -2.820312 26.890625 -1.21875 C 24.296875 0.382812 21.210938 1.1875 17.640625 1.1875 Z M 17.640625 1.1875 "/></g></g></g><g fill="#6b1510" fill-opacity="1"><g transform="translate(484.112671, 686.965601)"><g><path d="M -17.640625 -1.1875 C -14.953125 -1.1875 -12.554688 -0.582031 -10.453125 0.625 C -8.347656 1.832031 -6.695312 3.453125 -5.5 5.484375 C -4.3125 7.523438 -3.71875 9.785156 -3.71875 12.265625 C -3.71875 14.484375 -4.296875 16.1875 -5.453125 17.375 C -6.617188 18.570312 -7.898438 19.171875 -9.296875 19.171875 C -10.617188 19.171875 -11.660156 18.75 -12.421875 17.90625 C -13.179688 17.0625 -13.5625 15.796875 -13.5625 14.109375 C -13.5625 12.878906 -13.285156 11.867188 -12.734375 11.078125 C -12.191406 10.285156 -11.644531 9.488281 -11.09375 8.6875 C -10.550781 7.894531 -10.28125 6.90625 -10.28125 5.71875 C -10.28125 4.59375 -10.859375 3.601562 -12.015625 2.75 C -13.179688 1.90625 -14.578125 1.484375 -16.203125 1.484375 C -17.453125 1.484375 -18.539062 1.976562 -19.46875 2.96875 C -20.394531 3.96875 -21.113281 5.648438 -21.625 8.015625 C -22.144531 10.390625 -22.40625 13.660156 -22.40625 17.828125 C -22.40625 21.609375 -22.179688 24.640625 -21.734375 26.921875 C -21.285156 29.210938 -20.679688 30.9375 -19.921875 32.09375 C -19.160156 33.25 -18.289062 34.023438 -17.3125 34.421875 C -16.332031 34.828125 -15.316406 35.03125 -14.265625 35.03125 L -14.265625 37.75 C -15.316406 37.75 -16.363281 37.898438 -17.40625 38.203125 C -18.457031 38.503906 -19.40625 39.179688 -20.25 40.234375 C -21.09375 41.296875 -21.753906 42.960938 -22.234375 45.234375 C -22.710938 47.503906 -22.953125 50.625 -22.953125 54.59375 C -22.953125 58.90625 -22.390625 62.210938 -21.265625 64.515625 C -20.140625 66.816406 -18.515625 67.96875 -16.390625 67.96875 C -14.765625 67.96875 -13.347656 67.566406 -12.140625 66.765625 C -10.929688 65.972656 -10.328125 65.015625 -10.328125 63.890625 C -10.328125 62.660156 -10.609375 61.648438 -11.171875 60.859375 C -11.734375 60.066406 -12.285156 59.265625 -12.828125 58.453125 C -13.378906 57.640625 -13.65625 56.617188 -13.65625 55.390625 C -13.65625 53.703125 -13.273438 52.4375 -12.515625 51.59375 C -11.753906 50.75 -10.695312 50.328125 -9.34375 50.328125 C -7.945312 50.328125 -6.675781 50.929688 -5.53125 52.140625 C -4.394531 53.347656 -3.828125 55.078125 -3.828125 57.328125 C -3.828125 59.773438 -4.429688 62 -5.640625 64 C -6.847656 66.007812 -8.535156 67.617188 -10.703125 68.828125 C -12.867188 70.035156 -15.347656 70.640625 -18.140625 70.640625 C -20.921875 70.640625 -23.5625 70.050781 -26.0625 68.875 C -28.5625 67.707031 -30.585938 65.90625 -32.140625 63.46875 C -33.703125 61.03125 -34.484375 57.957031 -34.484375 54.25 C -34.484375 50.9375 -33.9375 48.15625 -32.84375 45.90625 C -31.75 43.65625 -30.375 41.84375 -28.71875 40.46875 C -27.0625 39.09375 -25.394531 38.082031 -23.71875 37.4375 C -22.050781 36.789062 -20.632812 36.429688 -19.46875 36.359375 C -20.632812 36.191406 -22.082031 35.769531 -23.8125 35.09375 C -25.550781 34.414062 -27.28125 33.378906 -29 31.984375 C -30.726562 30.597656 -32.171875 28.769531 -33.328125 26.5 C -34.492188 24.226562 -35.078125 21.441406 -35.078125 18.140625 C -35.078125 14.265625 -34.363281 10.875 -32.9375 7.96875 C -31.507812 5.070312 -29.492188 2.820312 -26.890625 1.21875 C -24.296875 -0.382812 -21.210938 -1.1875 -17.640625 -1.1875 Z M -17.640625 -1.1875 "/></g></g></g><g clip-path="url(#49fe410024)"><g transform="matrix(1, 0, 0, 1, 432, 610)"><g clip-path="url(#0a27434f67)"><g clip-path="url(#6aeb02d0de)"><path fill="#6b1510" d="M 0.878906 0.75 L 56.082031 0.75 L 56.082031 57.464844 L 0.878906 57.464844 Z M 0.878906 0.75 " fill-opacity="1" fill-rule="nonzero"/></g></g></g></g><g clip-path="url(#2a8d16a7ca)"><g transform="matrix(1, 0, 0, 1, 90, 158)"><g clip-path="url(#d0f5015901)"><g clip-path="url(#392d7a1aac)"><path fill="#6b1510" d="M 0.121094 0.84375 L 55.328125 0.84375 L 55.328125 57.558594 L 0.121094 57.558594 Z M 0.121094 0.84375 " fill-opacity="1" fill-rule="nonzero"/></g></g></g></g></g></g></g></svg>