<svg xmlns="http://www.w3.org/2000/svg" xmlns:xlink="http://www.w3.org/1999/xlink" width="794" zoomAndPan="magnify" viewBox="0 0 594.95996 842.24997" height="1123" preserveAspectRatio="xMidYMid meet" version="1.0"><defs><g/><clipPath id="c1c2bf901e"><path d="M 0.246094 0 L 594.675781 0 L 594.675781 841.5 L 0.246094 841.5 Z M 0.246094 0 " clip-rule="nonzero"/></clipPath><clipPath id="d5b03a369c"><path d="M 6 0 L 589 0 L 589 841.5 L 6 841.5 Z M 6 0 " clip-rule="nonzero"/></clipPath><clipPath id="08a5b244ab"><path d="M 0.464844 0 L 582.773438 0 L 582.773438 841.5 L 0.464844 841.5 Z M 0.464844 0 " clip-rule="nonzero"/></clipPath><clipPath id="a2a68c1fb5"><path d="M 28.1875 0 L 555.046875 0 C 570.359375 0 582.773438 12.414062 582.773438 27.726562 L 582.773438 813.414062 C 582.773438 828.726562 570.359375 841.140625 555.046875 841.140625 L 28.1875 841.140625 C 12.875 841.140625 0.464844 828.726562 0.464844 813.414062 L 0.464844 27.726562 C 0.464844 12.414062 12.875 0 28.1875 0 Z M 28.1875 0 " clip-rule="nonzero"/></clipPath><clipPath id="c00375f572"><path d="M 0.464844 0 L 582.773438 0 L 582.773438 841.171875 L 0.464844 841.171875 Z M 0.464844 0 " clip-rule="nonzero"/></clipPath><clipPath id="9aa6ff4172"><path d="M 28.1875 0 L 555.046875 0 C 570.359375 0 582.773438 12.414062 582.773438 27.726562 L 582.773438 813.414062 C 582.773438 828.726562 570.359375 841.140625 555.046875 841.140625 L 28.1875 841.140625 C 12.875 841.140625 0.464844 828.726562 0.464844 813.414062 L 0.464844 27.726562 C 0.464844 12.414062 12.875 0 28.1875 0 Z M 28.1875 0 " clip-rule="nonzero"/></clipPath><clipPath id="2aeaeb73d6"><rect x="0" width="583" y="0" height="842"/></clipPath><clipPath id="f28f106cd6"><path d="M 38.503906 36.253906 L 544.730469 36.253906 L 544.730469 805 L 38.503906 805 Z M 38.503906 36.253906 " clip-rule="nonzero"/></clipPath><clipPath id="4697602ffa"><path d="M 66.230469 36.253906 L 517.003906 36.253906 C 532.316406 36.253906 544.730469 48.667969 544.730469 63.980469 L 544.730469 777.160156 C 544.730469 792.472656 532.316406 804.886719 517.003906 804.886719 L 66.230469 804.886719 C 50.917969 804.886719 38.503906 792.472656 38.503906 777.160156 L 38.503906 63.980469 C 38.503906 48.667969 50.917969 36.253906 66.230469 36.253906 Z M 66.230469 36.253906 " clip-rule="nonzero"/></clipPath><clipPath id="9cccb33d7c"><path d="M 0.503906 0.253906 L 506.730469 0.253906 L 506.730469 768.964844 L 0.503906 768.964844 Z M 0.503906 0.253906 " clip-rule="nonzero"/></clipPath><clipPath id="994b65fcbf"><path d="M 28.230469 0.253906 L 479.003906 0.253906 C 494.316406 0.253906 506.730469 12.667969 506.730469 27.980469 L 506.730469 741.160156 C 506.730469 756.472656 494.316406 768.886719 479.003906 768.886719 L 28.230469 768.886719 C 12.917969 768.886719 0.503906 756.472656 0.503906 741.160156 L 0.503906 27.980469 C 0.503906 12.667969 12.917969 0.253906 28.230469 0.253906 Z M 28.230469 0.253906 " clip-rule="nonzero"/></clipPath><clipPath id="378f4128a5"><rect x="0" width="507" y="0" height="769"/></clipPath><clipPath id="2468954582"><path d="M 38.503906 36.273438 L 545 36.273438 L 545 804.253906 L 38.503906 804.253906 Z M 38.503906 36.273438 " clip-rule="nonzero"/></clipPath><clipPath id="71b857abf2"><path d="M 66.226562 36.273438 L 516.976562 36.273438 C 532.289062 36.273438 544.699219 48.6875 544.699219 63.996094 L 544.699219 777.136719 C 544.699219 792.449219 532.289062 804.863281 516.976562 804.863281 L 66.226562 804.863281 C 50.917969 804.863281 38.503906 792.449219 38.503906 777.136719 L 38.503906 63.996094 C 38.503906 48.6875 50.917969 36.273438 66.226562 36.273438 Z M 66.226562 36.273438 " clip-rule="nonzero"/></clipPath><clipPath id="68de4975f3"><path d="M 117.9375 235.648438 L 464.960938 235.648438 L 464.960938 591.132812 L 117.9375 591.132812 Z M 117.9375 235.648438 " clip-rule="nonzero"/></clipPath><clipPath id="0f413ceba3"><path d="M 0.9375 0.648438 L 347.960938 0.648438 L 347.960938 356 L 0.9375 356 Z M 0.9375 0.648438 " clip-rule="nonzero"/></clipPath><clipPath id="7a117c2260"><rect x="0" width="348" y="0" height="357"/></clipPath><clipPath id="77e9d1600e"><path d="M 433.089844 610.75 L 488.296875 610.75 L 488.296875 667.476562 L 433.089844 667.476562 Z M 433.089844 610.75 " clip-rule="nonzero"/></clipPath><clipPath id="62e40049a4"><path d="M 0.0898438 0.75 L 55.296875 0.75 L 55.296875 57.476562 L 0.0898438 57.476562 Z M 0.0898438 0.75 " clip-rule="nonzero"/></clipPath><clipPath id="2a29bca2fc"><rect x="0" width="56" y="0" height="58"/></clipPath><clipPath id="e258b08ff1"><path d="M 90.335938 158.84375 L 145.539062 158.84375 L 145.539062 215.570312 L 90.335938 215.570312 Z M 90.335938 158.84375 " clip-rule="nonzero"/></clipPath><clipPath id="0b681b4ecf"><path d="M 0.335938 0.84375 L 55.539062 0.84375 L 55.539062 57.570312 L 0.335938 57.570312 Z M 0.335938 0.84375 " clip-rule="nonzero"/></clipPath><clipPath id="bec6654460"><rect x="0" width="56" y="0" height="58"/></clipPath><clipPath id="5c4389415d"><rect x="0" width="583" y="0" height="842"/></clipPath></defs><g clip-path="url(#c1c2bf901e)"><path fill="#ffffff" d="M 0.246094 0 L 595.214844 0 L 595.214844 841.5 L 0.246094 841.5 Z M 0.246094 0 " fill-opacity="1" fill-rule="nonzero"/><path fill="#ffffff" d="M 0.246094 0 L 595.214844 0 L 595.214844 841.5 L 0.246094 841.5 Z M 0.246094 0 " fill-opacity="1" fill-rule="nonzero"/></g><g clip-path="url(#d5b03a369c)"><g transform="matrix(1, 0, 0, 1, 6, 0)"><g clip-path="url(#5c4389415d)"><g clip-path="url(#08a5b244ab)"><g clip-path="url(#a2a68c1fb5)"><g transform="matrix(1, 0, 0, 1, -0.000000000000001776, 0)"><g clip-path="url(#2aeaeb73d6)"><g clip-path="url(#c00375f572)"><g clip-path="url(#9aa6ff4172)"><path fill="#ffffff" d="M 0.464844 0 L 582.773438 0 L 582.773438 841.617188 L 0.464844 841.617188 Z M 0.464844 0 " fill-opacity="1" fill-rule="nonzero"/></g></g></g></g></g></g><g clip-path="url(#f28f106cd6)"><g clip-path="url(#4697602ffa)"><g transform="matrix(1, 0, 0, 1, 38, 36)"><g clip-path="url(#378f4128a5)"><g clip-path="url(#9cccb33d7c)"><g clip-path="url(#994b65fcbf)"><path fill="#ffffff" d="M 0.503906 0.253906 L 506.730469 0.253906 L 506.730469 769.480469 L 0.503906 769.480469 Z M 0.503906 0.253906 " fill-opacity="1" fill-rule="nonzero"/></g></g></g></g></g></g><g clip-path="url(#2468954582)"><g clip-path="url(#71b857abf2)"><path stroke-linecap="butt" transform="matrix(2.509805, 0, 0, 2.509805, 38.504697, 36.273706)" fill="none" stroke-linejoin="miter" d="M 11.045425 -0.000107011 L 190.64103 -0.000107011 C 196.742101 -0.000107011 201.68677 4.946118 201.68677 11.045633 L 201.68677 295.187445 C 201.68677 301.288516 196.742101 306.234741 190.64103 306.234741 L 11.045425 306.234741 C 4.94591 306.234741 -0.000314955 301.288516 -0.000314955 295.187445 L -0.000314955 11.045633 C -0.000314955 4.946118 4.94591 -0.000107011 11.045425 -0.000107011 Z M 11.045425 -0.000107011 " stroke="#6b1510" stroke-width="2.985621" stroke-opacity="1" stroke-miterlimit="4"/></g></g><g clip-path="url(#68de4975f3)"><g transform="matrix(1, 0, 0, 1, 117, 235)"><g clip-path="url(#7a117c2260)"><g clip-path="url(#0f413ceba3)"><path fill="#6b1510" d="M 0.9375 0.648438 L 347.960938 0.648438 L 347.960938 355.804688 L 0.9375 355.804688 Z M 0.9375 0.648438 " fill-opacity="1" fill-rule="nonzero"/></g></g></g></g><g fill="#6b1510" fill-opacity="1"><g transform="translate(83.85342, 145.502137)"><g><path d="M 4.03125 0 L 4.03125 -2.578125 L 8.640625 -2.578125 L 8.640625 -56.03125 C 8.410156 -55.800781 8.019531 -55.550781 7.46875 -55.28125 C 6.925781 -55.019531 6.347656 -54.789062 5.734375 -54.59375 C 5.117188 -54.394531 4.566406 -54.265625 4.078125 -54.203125 L 4.078125 -57.234375 C 5.203125 -57.492188 6.453125 -57.992188 7.828125 -58.734375 C 9.203125 -59.484375 10.554688 -60.472656 11.890625 -61.703125 C 13.234375 -62.929688 14.453125 -64.375 15.546875 -66.03125 C 16.640625 -67.6875 17.453125 -69.554688 17.984375 -71.640625 L 20.5625 -71.640625 L 20.5625 -2.578125 L 25.34375 -2.578125 L 25.34375 0 Z M 4.03125 0 "/></g></g></g><g fill="#6b1510" fill-opacity="1"><g transform="translate(113.206298, 145.502137)"><g><path d="M 17.640625 1.1875 C 14.953125 1.1875 12.554688 0.582031 10.453125 -0.625 C 8.347656 -1.832031 6.695312 -3.453125 5.5 -5.484375 C 4.3125 -7.523438 3.71875 -9.785156 3.71875 -12.265625 C 3.71875 -14.484375 4.296875 -16.1875 5.453125 -17.375 C 6.617188 -18.570312 7.898438 -19.171875 9.296875 -19.171875 C 10.617188 -19.171875 11.660156 -18.75 12.421875 -17.90625 C 13.179688 -17.0625 13.5625 -15.796875 13.5625 -14.109375 C 13.5625 -12.878906 13.285156 -11.867188 12.734375 -11.078125 C 12.191406 -10.285156 11.644531 -9.488281 11.09375 -8.6875 C 10.550781 -7.894531 10.28125 -6.90625 10.28125 -5.71875 C 10.28125 -4.59375 10.859375 -3.601562 12.015625 -2.75 C 13.179688 -1.90625 14.578125 -1.484375 16.203125 -1.484375 C 17.453125 -1.484375 18.539062 -1.976562 19.46875 -2.96875 C 20.394531 -3.96875 21.113281 -5.648438 21.625 -8.015625 C 22.144531 -10.390625 22.40625 -13.660156 22.40625 -17.828125 C 22.40625 -21.609375 22.179688 -24.640625 21.734375 -26.921875 C 21.285156 -29.210938 20.679688 -30.9375 19.921875 -32.09375 C 19.160156 -33.25 18.289062 -34.023438 17.3125 -34.421875 C 16.332031 -34.828125 15.316406 -35.03125 14.265625 -35.03125 L 14.265625 -37.75 C 15.316406 -37.75 16.363281 -37.898438 17.40625 -38.203125 C 18.457031 -38.503906 19.40625 -39.179688 20.25 -40.234375 C 21.09375 -41.296875 21.753906 -42.960938 22.234375 -45.234375 C 22.710938 -47.503906 22.953125 -50.625 22.953125 -54.59375 C 22.953125 -58.90625 22.390625 -62.210938 21.265625 -64.515625 C 20.140625 -66.816406 18.515625 -67.96875 16.390625 -67.96875 C 14.765625 -67.96875 13.347656 -67.566406 12.140625 -66.765625 C 10.929688 -65.972656 10.328125 -65.015625 10.328125 -63.890625 C 10.328125 -62.660156 10.609375 -61.648438 11.171875 -60.859375 C 11.734375 -60.066406 12.285156 -59.265625 12.828125 -58.453125 C 13.378906 -57.640625 13.65625 -56.617188 13.65625 -55.390625 C 13.65625 -53.703125 13.273438 -52.4375 12.515625 -51.59375 C 11.753906 -50.75 10.695312 -50.328125 9.34375 -50.328125 C 7.945312 -50.328125 6.675781 -50.929688 5.53125 -52.140625 C 4.394531 -53.347656 3.828125 -55.078125 3.828125 -57.328125 C 3.828125 -59.773438 4.429688 -62 5.640625 -64 C 6.847656 -66.007812 8.535156 -67.617188 10.703125 -68.828125 C 12.867188 -70.035156 15.347656 -70.640625 18.140625 -70.640625 C 20.921875 -70.640625 23.5625 -70.050781 26.0625 -68.875 C 28.5625 -67.707031 30.585938 -65.90625 32.140625 -63.46875 C 33.703125 -61.03125 34.484375 -57.957031 34.484375 -54.25 C 34.484375 -50.9375 33.9375 -48.15625 32.84375 -45.90625 C 31.75 -43.65625 30.375 -41.84375 28.71875 -40.46875 C 27.0625 -39.09375 25.394531 -38.082031 23.71875 -37.4375 C 22.050781 -36.789062 20.632812 -36.429688 19.46875 -36.359375 C 20.632812 -36.191406 22.082031 -35.769531 23.8125 -35.09375 C 25.550781 -34.414062 27.28125 -33.378906 29 -31.984375 C 30.726562 -30.597656 32.171875 -28.769531 33.328125 -26.5 C 34.492188 -24.226562 35.078125 -21.441406 35.078125 -18.140625 C 35.078125 -14.265625 34.363281 -10.875 32.9375 -7.96875 C 31.507812 -5.070312 29.492188 -2.820312 26.890625 -1.21875 C 24.296875 0.382812 21.210938 1.1875 17.640625 1.1875 Z M 17.640625 1.1875 "/></g></g></g><g fill="#6b1510" fill-opacity="1"><g transform="translate(499.031173, 686.965601)"><g><path d="M -4.03125 0 L -4.03125 2.578125 L -8.640625 2.578125 L -8.640625 56.03125 C -8.410156 55.800781 -8.019531 55.550781 -7.46875 55.28125 C -6.925781 55.019531 -6.347656 54.789062 -5.734375 54.59375 C -5.117188 54.394531 -4.566406 54.265625 -4.078125 54.203125 L -4.078125 57.234375 C -5.203125 57.492188 -6.453125 57.992188 -7.828125 58.734375 C -9.203125 59.484375 -10.554688 60.472656 -11.890625 61.703125 C -13.234375 62.929688 -14.453125 64.375 -15.546875 66.03125 C -16.640625 67.6875 -17.453125 69.554688 -17.984375 71.640625 L -20.5625 71.640625 L -20.5625 2.578125 L -25.34375 2.578125 L -25.34375 0 Z M -4.03125 0 "/></g></g></g><g fill="#6b1510" fill-opacity="1"><g transform="translate(469.678295, 686.965601)"><g><path d="M -17.640625 -1.1875 C -14.953125 -1.1875 -12.554688 -0.582031 -10.453125 0.625 C -8.347656 1.832031 -6.695312 3.453125 -5.5 5.484375 C -4.3125 7.523438 -3.71875 9.785156 -3.71875 12.265625 C -3.71875 14.484375 -4.296875 16.1875 -5.453125 17.375 C -6.617188 18.570312 -7.898438 19.171875 -9.296875 19.171875 C -10.617188 19.171875 -11.660156 18.75 -12.421875 17.90625 C -13.179688 17.0625 -13.5625 15.796875 -13.5625 14.109375 C -13.5625 12.878906 -13.285156 11.867188 -12.734375 11.078125 C -12.191406 10.285156 -11.644531 9.488281 -11.09375 8.6875 C -10.550781 7.894531 -10.28125 6.90625 -10.28125 5.71875 C -10.28125 4.59375 -10.859375 3.601562 -12.015625 2.75 C -13.179688 1.90625 -14.578125 1.484375 -16.203125 1.484375 C -17.453125 1.484375 -18.539062 1.976562 -19.46875 2.96875 C -20.394531 3.96875 -21.113281 5.648438 -21.625 8.015625 C -22.144531 10.390625 -22.40625 13.660156 -22.40625 17.828125 C -22.40625 21.609375 -22.179688 24.640625 -21.734375 26.921875 C -21.285156 29.210938 -20.679688 30.9375 -19.921875 32.09375 C -19.160156 33.25 -18.289062 34.023438 -17.3125 34.421875 C -16.332031 34.828125 -15.316406 35.03125 -14.265625 35.03125 L -14.265625 37.75 C -15.316406 37.75 -16.363281 37.898438 -17.40625 38.203125 C -18.457031 38.503906 -19.40625 39.179688 -20.25 40.234375 C -21.09375 41.296875 -21.753906 42.960938 -22.234375 45.234375 C -22.710938 47.503906 -22.953125 50.625 -22.953125 54.59375 C -22.953125 58.90625 -22.390625 62.210938 -21.265625 64.515625 C -20.140625 66.816406 -18.515625 67.96875 -16.390625 67.96875 C -14.765625 67.96875 -13.347656 67.566406 -12.140625 66.765625 C -10.929688 65.972656 -10.328125 65.015625 -10.328125 63.890625 C -10.328125 62.660156 -10.609375 61.648438 -11.171875 60.859375 C -11.734375 60.066406 -12.285156 59.265625 -12.828125 58.453125 C -13.378906 57.640625 -13.65625 56.617188 -13.65625 55.390625 C -13.65625 53.703125 -13.273438 52.4375 -12.515625 51.59375 C -11.753906 50.75 -10.695312 50.328125 -9.34375 50.328125 C -7.945312 50.328125 -6.675781 50.929688 -5.53125 52.140625 C -4.394531 53.347656 -3.828125 55.078125 -3.828125 57.328125 C -3.828125 59.773438 -4.429688 62 -5.640625 64 C -6.847656 66.007812 -8.535156 67.617188 -10.703125 68.828125 C -12.867188 70.035156 -15.347656 70.640625 -18.140625 70.640625 C -20.921875 70.640625 -23.5625 70.050781 -26.0625 68.875 C -28.5625 67.707031 -30.585938 65.90625 -32.140625 63.46875 C -33.703125 61.03125 -34.484375 57.957031 -34.484375 54.25 C -34.484375 50.9375 -33.9375 48.15625 -32.84375 45.90625 C -31.75 43.65625 -30.375 41.84375 -28.71875 40.46875 C -27.0625 39.09375 -25.394531 38.082031 -23.71875 37.4375 C -22.050781 36.789062 -20.632812 36.429688 -19.46875 36.359375 C -20.632812 36.191406 -22.082031 35.769531 -23.8125 35.09375 C -25.550781 34.414062 -27.28125 33.378906 -29 31.984375 C -30.726562 30.597656 -32.171875 28.769531 -33.328125 26.5 C -34.492188 24.226562 -35.078125 21.441406 -35.078125 18.140625 C -35.078125 14.265625 -34.363281 10.875 -32.9375 7.96875 C -31.507812 5.070312 -29.492188 2.820312 -26.890625 1.21875 C -24.296875 -0.382812 -21.210938 -1.1875 -17.640625 -1.1875 Z M -17.640625 -1.1875 "/></g></g></g><g clip-path="url(#77e9d1600e)"><g transform="matrix(1, 0, 0, 1, 433, 610)"><g clip-path="url(#2a29bca2fc)"><g clip-path="url(#62e40049a4)"><path fill="#6b1510" d="M 0.0898438 0.75 L 55.296875 0.75 L 55.296875 57.464844 L 0.0898438 57.464844 Z M 0.0898438 0.75 " fill-opacity="1" fill-rule="nonzero"/></g></g></g></g><g clip-path="url(#e258b08ff1)"><g transform="matrix(1, 0, 0, 1, 90, 158)"><g clip-path="url(#bec6654460)"><g clip-path="url(#0b681b4ecf)"><path fill="#6b1510" d="M 0.335938 0.84375 L 55.539062 0.84375 L 55.539062 57.558594 L 0.335938 57.558594 Z M 0.335938 0.84375 " fill-opacity="1" fill-rule="nonzero"/></g></g></g></g></g></g></g></svg>