<svg xmlns="http://www.w3.org/2000/svg" xmlns:xlink="http://www.w3.org/1999/xlink" width="794" zoomAndPan="magnify" viewBox="0 0 594.95996 842.24997" height="1123" preserveAspectRatio="xMidYMid meet" version="1.0"><defs><g/><clipPath id="137260ba65"><path d="M 0.246094 0 L 594.675781 0 L 594.675781 841.5 L 0.246094 841.5 Z M 0.246094 0 " clip-rule="nonzero"/></clipPath><clipPath id="d254da4ab6"><path d="M 0.96875 0 L 582.265625 0 L 582.265625 840 L 0.96875 840 Z M 0.96875 0 " clip-rule="nonzero"/></clipPath><clipPath id="977e11850c"><path d="M 28.695312 0 L 554.539062 0 C 561.894531 0 568.945312 2.921875 574.144531 8.121094 C 579.34375 13.320312 582.265625 20.371094 582.265625 27.726562 L 582.265625 811.949219 C 582.265625 819.304688 579.34375 826.355469 574.144531 831.554688 C 568.945312 836.753906 561.894531 839.675781 554.539062 839.675781 L 28.695312 839.675781 C 21.34375 839.675781 14.289062 836.753906 9.089844 831.554688 C 3.890625 826.355469 0.96875 819.304688 0.96875 811.949219 L 0.96875 27.726562 C 0.96875 20.371094 3.890625 13.320312 9.089844 8.121094 C 14.289062 2.921875 21.34375 0 28.695312 0 Z M 28.695312 0 " clip-rule="nonzero"/></clipPath><clipPath id="7c89d6595f"><path d="M 0.96875 0 L 582.265625 0 L 582.265625 839.730469 L 0.96875 839.730469 Z M 0.96875 0 " clip-rule="nonzero"/></clipPath><clipPath id="da442a41cd"><path d="M 28.695312 0 L 554.539062 0 C 561.894531 0 568.945312 2.921875 574.144531 8.121094 C 579.34375 13.320312 582.265625 20.371094 582.265625 27.726562 L 582.265625 811.949219 C 582.265625 819.304688 579.34375 826.355469 574.144531 831.554688 C 568.945312 836.753906 561.894531 839.675781 554.539062 839.675781 L 28.695312 839.675781 C 21.34375 839.675781 14.289062 836.753906 9.089844 831.554688 C 3.890625 826.355469 0.96875 819.304688 0.96875 811.949219 L 0.96875 27.726562 C 0.96875 20.371094 3.890625 13.320312 9.089844 8.121094 C 14.289062 2.921875 21.34375 0 28.695312 0 Z M 28.695312 0 " clip-rule="nonzero"/></clipPath><clipPath id="0e3d915212"><rect x="0" width="583" y="0" height="840"/></clipPath><clipPath id="fa0d7cb994"><path d="M 38 36 L 544.289062 36 L 544.289062 804 L 38 804 Z M 38 36 " clip-rule="nonzero"/></clipPath><clipPath id="4fdd237dd7"><path d="M 66.671875 36.191406 L 516.5625 36.191406 C 523.917969 36.191406 530.96875 39.113281 536.167969 44.3125 C 541.367188 49.511719 544.289062 56.5625 544.289062 63.914062 L 544.289062 775.757812 C 544.289062 783.113281 541.367188 790.164062 536.167969 795.363281 C 530.96875 800.5625 523.917969 803.484375 516.5625 803.484375 L 66.671875 803.484375 C 59.316406 803.484375 52.265625 800.5625 47.066406 795.363281 C 41.867188 790.164062 38.945312 783.113281 38.945312 775.757812 L 38.945312 63.914062 C 38.945312 56.5625 41.867188 49.511719 47.066406 44.3125 C 52.265625 39.113281 59.316406 36.191406 66.671875 36.191406 Z M 66.671875 36.191406 " clip-rule="nonzero"/></clipPath><clipPath id="366d1882f3"><path d="M 0.84375 0 L 506.289062 0 L 506.289062 767.523438 L 0.84375 767.523438 Z M 0.84375 0 " clip-rule="nonzero"/></clipPath><clipPath id="24b72db0ba"><path d="M 28.671875 0.191406 L 478.5625 0.191406 C 485.917969 0.191406 492.96875 3.113281 498.167969 8.3125 C 503.367188 13.511719 506.289062 20.5625 506.289062 27.914062 L 506.289062 739.757812 C 506.289062 747.113281 503.367188 754.164062 498.167969 759.363281 C 492.96875 764.5625 485.917969 767.484375 478.5625 767.484375 L 28.671875 767.484375 C 21.316406 767.484375 14.265625 764.5625 9.066406 759.363281 C 3.867188 754.164062 0.945312 747.113281 0.945312 739.757812 L 0.945312 27.914062 C 0.945312 20.5625 3.867188 13.511719 9.066406 8.3125 C 14.265625 3.113281 21.316406 0.191406 28.671875 0.191406 Z M 28.671875 0.191406 " clip-rule="nonzero"/></clipPath><clipPath id="cba767f927"><rect x="0" width="507" y="0" height="768"/></clipPath><clipPath id="ea4de6a656"><path d="M 38.945312 36.210938 L 544.824219 36.210938 L 544.824219 802.851562 L 38.945312 802.851562 Z M 38.945312 36.210938 " clip-rule="nonzero"/></clipPath><clipPath id="085a1eb660"><path d="M 66.667969 36.210938 L 516.535156 36.210938 C 523.890625 36.210938 530.941406 39.132812 536.140625 44.332031 C 541.339844 49.53125 544.261719 56.582031 544.261719 63.933594 L 544.261719 775.734375 C 544.261719 783.089844 541.339844 790.140625 536.140625 795.339844 C 530.941406 800.539062 523.890625 803.460938 516.535156 803.460938 L 66.667969 803.460938 C 59.316406 803.460938 52.265625 800.539062 47.066406 795.339844 C 41.867188 790.140625 38.945312 783.089844 38.945312 775.734375 L 38.945312 63.933594 C 38.945312 56.582031 41.867188 49.53125 47.066406 44.332031 C 52.265625 39.132812 59.316406 36.210938 66.667969 36.210938 Z M 66.667969 36.210938 " clip-rule="nonzero"/></clipPath><clipPath id="33b37eb85f"><path d="M 118.242188 235.238281 L 464.65625 235.238281 L 464.65625 590.101562 L 118.242188 590.101562 Z M 118.242188 235.238281 " clip-rule="nonzero"/></clipPath><clipPath id="d5f3ccc1c1"><path d="M 0.242188 0.238281 L 346.65625 0.238281 L 346.65625 355 L 0.242188 355 Z M 0.242188 0.238281 " clip-rule="nonzero"/></clipPath><clipPath id="0580ea65ef"><rect x="0" width="347" y="0" height="356"/></clipPath><clipPath id="19c93dc85b"><path d="M 432.84375 609.683594 L 487.953125 609.683594 L 487.953125 666.3125 L 432.84375 666.3125 Z M 432.84375 609.683594 " clip-rule="nonzero"/></clipPath><clipPath id="41ce70bfff"><path d="M 0.84375 0.683594 L 55.953125 0.683594 L 55.953125 57.3125 L 0.84375 57.3125 Z M 0.84375 0.683594 " clip-rule="nonzero"/></clipPath><clipPath id="5b9a084992"><rect x="0" width="56" y="0" height="58"/></clipPath><clipPath id="79601b8bc8"><path d="M 90.6875 158.566406 L 145.796875 158.566406 L 145.796875 215.195312 L 90.6875 215.195312 Z M 90.6875 158.566406 " clip-rule="nonzero"/></clipPath><clipPath id="5b5f2355d0"><path d="M 0.6875 0.566406 L 55.796875 0.566406 L 55.796875 57.195312 L 0.6875 57.195312 Z M 0.6875 0.566406 " clip-rule="nonzero"/></clipPath><clipPath id="fe852e1442"><rect x="0" width="56" y="0" height="58"/></clipPath><clipPath id="4404e06abf"><rect x="0" width="583" y="0" height="841"/></clipPath></defs><g clip-path="url(#137260ba65)"><path fill="#ffffff" d="M 0.246094 0 L 595.214844 0 L 595.214844 841.5 L 0.246094 841.5 Z M 0.246094 0 " fill-opacity="1" fill-rule="nonzero"/><path fill="#ffffff" d="M 0.246094 0 L 595.214844 0 L 595.214844 841.5 L 0.246094 841.5 Z M 0.246094 0 " fill-opacity="1" fill-rule="nonzero"/></g><g transform="matrix(1, 0, 0, 1, 6, 0)"><g clip-path="url(#4404e06abf)"><g clip-path="url(#d254da4ab6)"><g clip-path="url(#977e11850c)"><g transform="matrix(1, 0, 0, 1, -0.000000000000000888, 0)"><g clip-path="url(#0e3d915212)"><g clip-path="url(#7c89d6595f)"><g clip-path="url(#da442a41cd)"><path fill="#ffffff" d="M 0.96875 0 L 582.265625 0 L 582.265625 840.152344 L 0.96875 840.152344 Z M 0.96875 0 " fill-opacity="1" fill-rule="nonzero"/></g></g></g></g></g></g><g clip-path="url(#fa0d7cb994)"><g clip-path="url(#4fdd237dd7)"><g transform="matrix(1, 0, 0, 1, 38, 36)"><g clip-path="url(#cba767f927)"><g clip-path="url(#366d1882f3)"><g clip-path="url(#24b72db0ba)"><path fill="#ffffff" d="M 0.945312 0.191406 L 506.289062 0.191406 L 506.289062 768.078125 L 0.945312 768.078125 Z M 0.945312 0.191406 " fill-opacity="1" fill-rule="nonzero"/></g></g></g></g></g></g><g clip-path="url(#ea4de6a656)"><g clip-path="url(#085a1eb660)"><path stroke-linecap="butt" transform="matrix(2.505434, 0, 0, 2.505434, 38.945515, 36.210532)" fill="none" stroke-linejoin="miter" d="M 11.064931 0.000161778 L 190.62153 0.000161778 C 193.557336 0.000161778 196.371532 1.166377 198.446709 3.241554 C 200.521886 5.316731 201.688101 8.130927 201.688101 11.065174 L 201.688101 295.167973 C 201.688101 298.103779 200.521886 300.917975 198.446709 302.993152 C 196.371532 305.068329 193.557336 306.234544 190.62153 306.234544 L 11.064931 306.234544 C 8.130684 306.234544 5.316488 305.068329 3.241311 302.993152 C 1.166134 300.917975 -0.0000808707 298.103779 -0.0000808707 295.167973 L -0.0000808707 11.065174 C -0.0000808707 8.130927 1.166134 5.316731 3.241311 3.241554 C 5.316488 1.166377 8.130684 0.000161778 11.064931 0.000161778 Z M 11.064931 0.000161778 " stroke="#6b1510" stroke-width="2.99083" stroke-opacity="1" stroke-miterlimit="4"/></g></g><g clip-path="url(#33b37eb85f)"><g transform="matrix(1, 0, 0, 1, 118, 235)"><g clip-path="url(#0580ea65ef)"><g clip-path="url(#d5f3ccc1c1)"><path fill="#6b1510" d="M 0.242188 0.238281 L 346.65625 0.238281 L 346.65625 354.773438 L 0.242188 354.773438 Z M 0.242188 0.238281 " fill-opacity="1" fill-rule="nonzero"/></g></g></g></g><g fill="#6b1510" fill-opacity="1"><g transform="translate(100.422285, 145.248728)"><g><path d="M 17.015625 0.984375 C 15.753906 0.984375 14.601562 0.660156 13.5625 0.015625 C 12.519531 -0.617188 11.691406 -1.742188 11.078125 -3.359375 C 10.472656 -4.984375 10.171875 -7.21875 10.171875 -10.0625 C 10.171875 -14.925781 10.832031 -19.5 12.15625 -23.78125 C 13.476562 -28.0625 15.101562 -32.128906 17.03125 -35.984375 C 18.96875 -39.835938 20.910156 -43.523438 22.859375 -47.046875 C 24.804688 -50.566406 26.429688 -53.992188 27.734375 -57.328125 C 29.046875 -60.671875 29.703125 -63.992188 29.703125 -67.296875 C 29.472656 -66.046875 28.925781 -64.90625 28.0625 -63.875 C 27.207031 -62.851562 26.117188 -62.050781 24.796875 -61.46875 C 23.472656 -60.894531 21.984375 -60.609375 20.328125 -60.609375 C 18.640625 -60.609375 17.289062 -60.753906 16.28125 -61.046875 C 15.28125 -61.347656 14.378906 -61.65625 13.578125 -61.96875 C 12.785156 -62.28125 11.910156 -62.4375 10.953125 -62.4375 C 10.066406 -62.4375 9.300781 -62.242188 8.65625 -61.859375 C 8.007812 -61.484375 7.503906 -60.847656 7.140625 -59.953125 C 6.773438 -59.066406 6.546875 -57.828125 6.453125 -56.234375 L 3.921875 -56.234375 L 3.921875 -69.4375 L 32.390625 -69.4375 C 32.390625 -68.070312 32.289062 -66.769531 32.09375 -65.53125 C 31.894531 -64.289062 31.644531 -63.039062 31.34375 -61.78125 C 31.039062 -60.53125 30.691406 -59.226562 30.296875 -57.875 C 29.898438 -56.519531 29.476562 -55.054688 29.03125 -53.484375 C 28.59375 -51.910156 28.140625 -50.179688 27.671875 -48.296875 C 27.304688 -46.710938 26.953125 -45.050781 26.609375 -43.3125 C 26.265625 -41.582031 25.925781 -39.757812 25.59375 -37.84375 C 24.957031 -33.96875 24.46875 -29.75 24.125 -25.1875 C 23.78125 -20.625 23.609375 -15.582031 23.609375 -10.0625 C 23.609375 -7.21875 23.316406 -4.984375 22.734375 -3.359375 C 22.160156 -1.742188 21.375 -0.617188 20.375 0.015625 C 19.382812 0.660156 18.265625 0.984375 17.015625 0.984375 Z M 17.015625 0.984375 "/></g></g></g><g fill="#6b1510" fill-opacity="1"><g transform="translate(482.462931, 685.769163)"><g><path d="M -17.015625 -0.984375 C -15.753906 -0.984375 -14.601562 -0.660156 -13.5625 -0.015625 C -12.519531 0.617188 -11.691406 1.742188 -11.078125 3.359375 C -10.472656 4.984375 -10.171875 7.21875 -10.171875 10.0625 C -10.171875 14.925781 -10.832031 19.5 -12.15625 23.78125 C -13.476562 28.0625 -15.101562 32.128906 -17.03125 35.984375 C -18.96875 39.835938 -20.910156 43.523438 -22.859375 47.046875 C -24.804688 50.566406 -26.429688 53.992188 -27.734375 57.328125 C -29.046875 60.671875 -29.703125 63.992188 -29.703125 67.296875 C -29.472656 66.046875 -28.925781 64.90625 -28.0625 63.875 C -27.207031 62.851562 -26.117188 62.050781 -24.796875 61.46875 C -23.472656 60.894531 -21.984375 60.609375 -20.328125 60.609375 C -18.640625 60.609375 -17.289062 60.753906 -16.28125 61.046875 C -15.28125 61.347656 -14.378906 61.65625 -13.578125 61.96875 C -12.785156 62.28125 -11.910156 62.4375 -10.953125 62.4375 C -10.066406 62.4375 -9.300781 62.242188 -8.65625 61.859375 C -8.007812 61.484375 -7.503906 60.847656 -7.140625 59.953125 C -6.773438 59.066406 -6.546875 57.828125 -6.453125 56.234375 L -3.921875 56.234375 L -3.921875 69.4375 L -32.390625 69.4375 C -32.390625 68.070312 -32.289062 66.769531 -32.09375 65.53125 C -31.894531 64.289062 -31.644531 63.039062 -31.34375 61.78125 C -31.039062 60.53125 -30.691406 59.226562 -30.296875 57.875 C -29.898438 56.519531 -29.476562 55.054688 -29.03125 53.484375 C -28.59375 51.910156 -28.140625 50.179688 -27.671875 48.296875 C -27.304688 46.710938 -26.953125 45.050781 -26.609375 43.3125 C -26.265625 41.582031 -25.925781 39.757812 -25.59375 37.84375 C -24.957031 33.96875 -24.46875 29.75 -24.125 25.1875 C -23.78125 20.625 -23.609375 15.582031 -23.609375 10.0625 C -23.609375 7.21875 -23.316406 4.984375 -22.734375 3.359375 C -22.160156 1.742188 -21.375 0.617188 -20.375 -0.015625 C -19.382812 -0.660156 -18.265625 -0.984375 -17.015625 -0.984375 Z M -17.015625 -0.984375 "/></g></g></g><g clip-path="url(#19c93dc85b)"><g transform="matrix(1, 0, 0, 1, 432, 609)"><g clip-path="url(#5b9a084992)"><g clip-path="url(#41ce70bfff)"><path fill="#6b1510" d="M 0.84375 0.683594 L 55.953125 0.683594 L 55.953125 57.300781 L 0.84375 57.300781 Z M 0.84375 0.683594 " fill-opacity="1" fill-rule="nonzero"/></g></g></g></g><g clip-path="url(#79601b8bc8)"><g transform="matrix(1, 0, 0, 1, 90, 158)"><g clip-path="url(#fe852e1442)"><g clip-path="url(#5b5f2355d0)"><path fill="#6b1510" d="M 0.6875 0.566406 L 55.796875 0.566406 L 55.796875 57.183594 L 0.6875 57.183594 Z M 0.6875 0.566406 " fill-opacity="1" fill-rule="nonzero"/></g></g></g></g></g></g></svg>