<svg xmlns="http://www.w3.org/2000/svg" xmlns:xlink="http://www.w3.org/1999/xlink" width="794" zoomAndPan="magnify" viewBox="0 0 594.95996 842.24997" height="1123" preserveAspectRatio="xMidYMid meet" version="1.0"><defs><g/><clipPath id="3e04bd9a30"><path d="M 0.246094 0 L 594.675781 0 L 594.675781 841.5 L 0.246094 841.5 Z M 0.246094 0 " clip-rule="nonzero"/></clipPath><clipPath id="556cd91ce1"><path d="M 6 0 L 589 0 L 589 841.5 L 6 841.5 Z M 6 0 " clip-rule="nonzero"/></clipPath><clipPath id="44eb481533"><path d="M 0.464844 0 L 582.773438 0 L 582.773438 841.5 L 0.464844 841.5 Z M 0.464844 0 " clip-rule="nonzero"/></clipPath><clipPath id="c985af4415"><path d="M 28.1875 0 L 555.046875 0 C 570.359375 0 582.773438 12.414062 582.773438 27.726562 L 582.773438 813.414062 C 582.773438 828.726562 570.359375 841.140625 555.046875 841.140625 L 28.1875 841.140625 C 12.875 841.140625 0.464844 828.726562 0.464844 813.414062 L 0.464844 27.726562 C 0.464844 12.414062 12.875 0 28.1875 0 Z M 28.1875 0 " clip-rule="nonzero"/></clipPath><clipPath id="0aeeb434d1"><path d="M 0.464844 0 L 582.773438 0 L 582.773438 841.171875 L 0.464844 841.171875 Z M 0.464844 0 " clip-rule="nonzero"/></clipPath><clipPath id="68ad2a9407"><path d="M 28.1875 0 L 555.046875 0 C 570.359375 0 582.773438 12.414062 582.773438 27.726562 L 582.773438 813.414062 C 582.773438 828.726562 570.359375 841.140625 555.046875 841.140625 L 28.1875 841.140625 C 12.875 841.140625 0.464844 828.726562 0.464844 813.414062 L 0.464844 27.726562 C 0.464844 12.414062 12.875 0 28.1875 0 Z M 28.1875 0 " clip-rule="nonzero"/></clipPath><clipPath id="fe6a59c0d8"><rect x="0" width="583" y="0" height="842"/></clipPath><clipPath id="6394d18510"><path d="M 38.503906 36.253906 L 544.730469 36.253906 L 544.730469 805 L 38.503906 805 Z M 38.503906 36.253906 " clip-rule="nonzero"/></clipPath><clipPath id="ccf6fa00c1"><path d="M 66.230469 36.253906 L 517.003906 36.253906 C 532.316406 36.253906 544.730469 48.667969 544.730469 63.980469 L 544.730469 777.160156 C 544.730469 792.472656 532.316406 804.886719 517.003906 804.886719 L 66.230469 804.886719 C 50.917969 804.886719 38.503906 792.472656 38.503906 777.160156 L 38.503906 63.980469 C 38.503906 48.667969 50.917969 36.253906 66.230469 36.253906 Z M 66.230469 36.253906 " clip-rule="nonzero"/></clipPath><clipPath id="c56e242c03"><path d="M 0.503906 0.253906 L 506.730469 0.253906 L 506.730469 768.964844 L 0.503906 768.964844 Z M 0.503906 0.253906 " clip-rule="nonzero"/></clipPath><clipPath id="87f949f29d"><path d="M 28.230469 0.253906 L 479.003906 0.253906 C 494.316406 0.253906 506.730469 12.667969 506.730469 27.980469 L 506.730469 741.160156 C 506.730469 756.472656 494.316406 768.886719 479.003906 768.886719 L 28.230469 768.886719 C 12.917969 768.886719 0.503906 756.472656 0.503906 741.160156 L 0.503906 27.980469 C 0.503906 12.667969 12.917969 0.253906 28.230469 0.253906 Z M 28.230469 0.253906 " clip-rule="nonzero"/></clipPath><clipPath id="c652707123"><rect x="0" width="507" y="0" height="769"/></clipPath><clipPath id="4c83a37c41"><path d="M 38.503906 36.273438 L 545 36.273438 L 545 804.253906 L 38.503906 804.253906 Z M 38.503906 36.273438 " clip-rule="nonzero"/></clipPath><clipPath id="8346f0622d"><path d="M 66.226562 36.273438 L 516.976562 36.273438 C 532.289062 36.273438 544.699219 48.6875 544.699219 63.996094 L 544.699219 777.136719 C 544.699219 792.449219 532.289062 804.863281 516.976562 804.863281 L 66.226562 804.863281 C 50.917969 804.863281 38.503906 792.449219 38.503906 777.136719 L 38.503906 63.996094 C 38.503906 48.6875 50.917969 36.273438 66.226562 36.273438 Z M 66.226562 36.273438 " clip-rule="nonzero"/></clipPath><clipPath id="237600eb28"><path d="M 117.9375 235.648438 L 464.960938 235.648438 L 464.960938 582.667969 L 117.9375 582.667969 Z M 117.9375 235.648438 " clip-rule="nonzero"/></clipPath><clipPath id="7c3d529ec7"><path d="M 291.449219 235.648438 C 195.621094 235.648438 117.9375 313.332031 117.9375 409.160156 C 117.9375 504.988281 195.621094 582.667969 291.449219 582.667969 C 387.277344 582.667969 464.960938 504.988281 464.960938 409.160156 C 464.960938 313.332031 387.277344 235.648438 291.449219 235.648438 Z M 291.449219 235.648438 " clip-rule="nonzero"/></clipPath><clipPath id="fb5e652542"><path d="M 0.9375 0.648438 L 347.960938 0.648438 L 347.960938 347.667969 L 0.9375 347.667969 Z M 0.9375 0.648438 " clip-rule="nonzero"/></clipPath><clipPath id="7ac479e14f"><path d="M 174.449219 0.648438 C 78.621094 0.648438 0.9375 78.332031 0.9375 174.160156 C 0.9375 269.988281 78.621094 347.667969 174.449219 347.667969 C 270.277344 347.667969 347.960938 269.988281 347.960938 174.160156 C 347.960938 78.332031 270.277344 0.648438 174.449219 0.648438 Z M 174.449219 0.648438 " clip-rule="nonzero"/></clipPath><clipPath id="7de3415304"><rect x="0" width="348" y="0" height="348"/></clipPath><clipPath id="aa623775d3"><path d="M 433.089844 610.75 L 488.296875 610.75 L 488.296875 665.953125 L 433.089844 665.953125 Z M 433.089844 610.75 " clip-rule="nonzero"/></clipPath><clipPath id="3cf2c20d34"><path d="M 460.691406 610.75 C 445.449219 610.75 433.089844 623.105469 433.089844 638.351562 C 433.089844 653.597656 445.449219 665.953125 460.691406 665.953125 C 475.9375 665.953125 488.296875 653.597656 488.296875 638.351562 C 488.296875 623.105469 475.9375 610.75 460.691406 610.75 Z M 460.691406 610.75 " clip-rule="nonzero"/></clipPath><clipPath id="4e254253aa"><path d="M 0.0898438 0.75 L 55.296875 0.75 L 55.296875 55.953125 L 0.0898438 55.953125 Z M 0.0898438 0.75 " clip-rule="nonzero"/></clipPath><clipPath id="2d70f37dd4"><path d="M 27.691406 0.75 C 12.449219 0.75 0.0898438 13.105469 0.0898438 28.351562 C 0.0898438 43.597656 12.449219 55.953125 27.691406 55.953125 C 42.9375 55.953125 55.296875 43.597656 55.296875 28.351562 C 55.296875 13.105469 42.9375 0.75 27.691406 0.75 Z M 27.691406 0.75 " clip-rule="nonzero"/></clipPath><clipPath id="a14ec8fe07"><rect x="0" width="56" y="0" height="56"/></clipPath><clipPath id="0abee9f98e"><path d="M 90.335938 158.84375 L 145.539062 158.84375 L 145.539062 214.046875 L 90.335938 214.046875 Z M 90.335938 158.84375 " clip-rule="nonzero"/></clipPath><clipPath id="f581fee2bd"><path d="M 117.9375 158.84375 C 102.695312 158.84375 90.335938 171.199219 90.335938 186.445312 C 90.335938 201.691406 102.695312 214.046875 117.9375 214.046875 C 133.183594 214.046875 145.539062 201.691406 145.539062 186.445312 C 145.539062 171.199219 133.183594 158.84375 117.9375 158.84375 Z M 117.9375 158.84375 " clip-rule="nonzero"/></clipPath><clipPath id="d3d955406c"><path d="M 0.335938 0.84375 L 55.539062 0.84375 L 55.539062 56.046875 L 0.335938 56.046875 Z M 0.335938 0.84375 " clip-rule="nonzero"/></clipPath><clipPath id="03ee6f4c70"><path d="M 27.9375 0.84375 C 12.695312 0.84375 0.335938 13.199219 0.335938 28.445312 C 0.335938 43.691406 12.695312 56.046875 27.9375 56.046875 C 43.183594 56.046875 55.539062 43.691406 55.539062 28.445312 C 55.539062 13.199219 43.183594 0.84375 27.9375 0.84375 Z M 27.9375 0.84375 " clip-rule="nonzero"/></clipPath><clipPath id="580d21634d"><rect x="0" width="56" y="0" height="57"/></clipPath><clipPath id="ec14c92c09"><rect x="0" width="583" y="0" height="842"/></clipPath></defs><g clip-path="url(#3e04bd9a30)"><path fill="#ffffff" d="M 0.246094 0 L 595.214844 0 L 595.214844 841.5 L 0.246094 841.5 Z M 0.246094 0 " fill-opacity="1" fill-rule="nonzero"/><path fill="#ffffff" d="M 0.246094 0 L 595.214844 0 L 595.214844 841.5 L 0.246094 841.5 Z M 0.246094 0 " fill-opacity="1" fill-rule="nonzero"/></g><g clip-path="url(#556cd91ce1)"><g transform="matrix(1, 0, 0, 1, 6, 0)"><g clip-path="url(#ec14c92c09)"><g clip-path="url(#44eb481533)"><g clip-path="url(#c985af4415)"><g transform="matrix(1, 0, 0, 1, -0.000000000000001776, 0)"><g clip-path="url(#fe6a59c0d8)"><g clip-path="url(#0aeeb434d1)"><g clip-path="url(#68ad2a9407)"><path fill="#ffffff" d="M 0.464844 0 L 582.773438 0 L 582.773438 841.617188 L 0.464844 841.617188 Z M 0.464844 0 " fill-opacity="1" fill-rule="nonzero"/></g></g></g></g></g></g><g clip-path="url(#6394d18510)"><g clip-path="url(#ccf6fa00c1)"><g transform="matrix(1, 0, 0, 1, 38, 36)"><g clip-path="url(#c652707123)"><g clip-path="url(#c56e242c03)"><g clip-path="url(#87f949f29d)"><path fill="#ffffff" d="M 0.503906 0.253906 L 506.730469 0.253906 L 506.730469 769.480469 L 0.503906 769.480469 Z M 0.503906 0.253906 " fill-opacity="1" fill-rule="nonzero"/></g></g></g></g></g></g><g clip-path="url(#4c83a37c41)"><g clip-path="url(#8346f0622d)"><path stroke-linecap="butt" transform="matrix(2.509805, 0, 0, 2.509805, 38.504697, 36.273706)" fill="none" stroke-linejoin="miter" d="M 11.045425 -0.000107011 L 190.64103 -0.000107011 C 196.742101 -0.000107011 201.68677 4.946118 201.68677 11.045633 L 201.68677 295.187445 C 201.68677 301.288516 196.742101 306.234741 190.64103 306.234741 L 11.045425 306.234741 C 4.94591 306.234741 -0.000314955 301.288516 -0.000314955 295.187445 L -0.000314955 11.045633 C -0.000314955 4.946118 4.94591 -0.000107011 11.045425 -0.000107011 Z M 11.045425 -0.000107011 " stroke="#6b1510" stroke-width="2.985621" stroke-opacity="1" stroke-miterlimit="4"/></g></g><g clip-path="url(#237600eb28)"><g clip-path="url(#7c3d529ec7)"><g transform="matrix(1, 0, 0, 1, 117, 235)"><g clip-path="url(#7de3415304)"><g clip-path="url(#fb5e652542)"><g clip-path="url(#7ac479e14f)"><path fill="#6b1510" d="M 0.9375 0.648438 L 347.960938 0.648438 L 347.960938 347.667969 L 0.9375 347.667969 Z M 0.9375 0.648438 " fill-opacity="1" fill-rule="nonzero"/></g></g></g></g></g></g><g fill="#6b1510" fill-opacity="1"><g transform="translate(98.755387, 145.502137)"><g><path d="M 25.28125 0.546875 C 23.789062 0.546875 22.382812 0.28125 21.0625 -0.25 C 19.738281 -0.78125 18.460938 -1.390625 17.234375 -2.078125 C 16.015625 -2.773438 14.800781 -3.394531 13.59375 -3.9375 C 12.382812 -4.488281 11.148438 -4.765625 9.890625 -4.765625 C 8.398438 -4.765625 7.253906 -4.226562 6.453125 -3.15625 C 5.660156 -2.082031 5.179688 -1.03125 5.015625 0 L 2.734375 0 C 2.734375 -5.425781 3.21875 -10.160156 4.1875 -14.203125 C 5.164062 -18.242188 6.425781 -21.8125 7.96875 -24.90625 C 9.507812 -28.007812 11.148438 -30.800781 12.890625 -33.28125 C 14.628906 -35.769531 16.257812 -38.140625 17.78125 -40.390625 C 19.3125 -42.640625 20.5625 -44.945312 21.53125 -47.3125 C 22.507812 -49.6875 23 -52.332031 23 -55.25 C 23 -57.957031 22.757812 -60.269531 22.28125 -62.1875 C 21.800781 -64.113281 21.0625 -65.585938 20.0625 -66.609375 C 19.070312 -67.640625 17.832031 -68.15625 16.34375 -68.15625 C 15.25 -68.15625 14.210938 -67.941406 13.234375 -67.515625 C 12.265625 -67.085938 11.472656 -66.539062 10.859375 -65.875 C 10.242188 -65.207031 9.9375 -64.492188 9.9375 -63.734375 C 9.9375 -63.078125 10.179688 -62.382812 10.671875 -61.65625 C 11.171875 -60.925781 11.671875 -60.117188 12.171875 -59.234375 C 12.671875 -58.359375 12.921875 -57.34375 12.921875 -56.1875 C 12.921875 -54.332031 12.476562 -52.960938 11.59375 -52.078125 C 10.71875 -51.203125 9.601562 -50.765625 8.25 -50.765625 C 6.820312 -50.765625 5.671875 -51.296875 4.796875 -52.359375 C 3.921875 -53.421875 3.484375 -55.078125 3.484375 -57.328125 C 3.484375 -59.773438 4.066406 -62 5.234375 -64 C 6.410156 -66.007812 8.09375 -67.617188 10.28125 -68.828125 C 12.46875 -70.035156 15.085938 -70.640625 18.140625 -70.640625 C 19.921875 -70.640625 21.769531 -70.390625 23.6875 -69.890625 C 25.613281 -69.398438 27.390625 -68.539062 29.015625 -67.3125 C 30.640625 -66.09375 31.945312 -64.421875 32.9375 -62.296875 C 33.925781 -60.179688 34.421875 -57.484375 34.421875 -54.203125 C 34.421875 -50.691406 33.945312 -47.6875 33 -45.1875 C 32.0625 -42.6875 30.8125 -40.507812 29.25 -38.65625 C 27.695312 -36.800781 25.96875 -35.101562 24.0625 -33.5625 C 22.164062 -32.019531 20.226562 -30.46875 18.25 -28.90625 C 16.28125 -27.351562 14.425781 -25.609375 12.6875 -23.671875 C 10.945312 -21.734375 9.457031 -19.445312 8.21875 -16.8125 C 6.976562 -14.175781 6.160156 -11.023438 5.765625 -7.359375 C 6.160156 -8.546875 6.910156 -9.578125 8.015625 -10.453125 C 9.128906 -11.335938 10.414062 -12.019531 11.875 -12.5 C 13.332031 -12.976562 14.773438 -13.21875 16.203125 -13.21875 C 18.085938 -13.21875 19.75 -12.976562 21.1875 -12.5 C 22.625 -12.019531 23.914062 -11.535156 25.0625 -11.046875 C 26.207031 -10.566406 27.257812 -10.328125 28.21875 -10.328125 C 29.570312 -10.328125 30.585938 -10.695312 31.265625 -11.4375 C 31.953125 -12.1875 32.296875 -13.242188 32.296875 -14.609375 L 34.53125 -14.609375 L 34.53125 -12.46875 C 34.53125 -10.445312 34.25 -8.429688 33.6875 -6.421875 C 33.125 -4.421875 32.171875 -2.757812 30.828125 -1.4375 C 29.484375 -0.113281 27.632812 0.546875 25.28125 0.546875 Z M 25.28125 0.546875 "/></g></g></g><g fill="#6b1510" fill-opacity="1"><g transform="translate(484.129205, 686.965601)"><g><path d="M -25.28125 -0.546875 C -23.789062 -0.546875 -22.382812 -0.28125 -21.0625 0.25 C -19.738281 0.78125 -18.460938 1.390625 -17.234375 2.078125 C -16.015625 2.773438 -14.800781 3.394531 -13.59375 3.9375 C -12.382812 4.488281 -11.148438 4.765625 -9.890625 4.765625 C -8.398438 4.765625 -7.253906 4.226562 -6.453125 3.15625 C -5.660156 2.082031 -5.179688 1.03125 -5.015625 0 L -2.734375 0 C -2.734375 5.425781 -3.21875 10.160156 -4.1875 14.203125 C -5.164062 18.242188 -6.425781 21.8125 -7.96875 24.90625 C -9.507812 28.007812 -11.148438 30.800781 -12.890625 33.28125 C -14.628906 35.769531 -16.257812 38.140625 -17.78125 40.390625 C -19.3125 42.640625 -20.5625 44.945312 -21.53125 47.3125 C -22.507812 49.6875 -23 52.332031 -23 55.25 C -23 57.957031 -22.757812 60.269531 -22.28125 62.1875 C -21.800781 64.113281 -21.0625 65.585938 -20.0625 66.609375 C -19.070312 67.640625 -17.832031 68.15625 -16.34375 68.15625 C -15.25 68.15625 -14.210938 67.941406 -13.234375 67.515625 C -12.265625 67.085938 -11.472656 66.539062 -10.859375 65.875 C -10.242188 65.207031 -9.9375 64.492188 -9.9375 63.734375 C -9.9375 63.078125 -10.179688 62.382812 -10.671875 61.65625 C -11.171875 60.925781 -11.671875 60.117188 -12.171875 59.234375 C -12.671875 58.359375 -12.921875 57.34375 -12.921875 56.1875 C -12.921875 54.332031 -12.476562 52.960938 -11.59375 52.078125 C -10.71875 51.203125 -9.601562 50.765625 -8.25 50.765625 C -6.820312 50.765625 -5.671875 51.296875 -4.796875 52.359375 C -3.921875 53.421875 -3.484375 55.078125 -3.484375 57.328125 C -3.484375 59.773438 -4.066406 62 -5.234375 64 C -6.410156 66.007812 -8.09375 67.617188 -10.28125 68.828125 C -12.46875 70.035156 -15.085938 70.640625 -18.140625 70.640625 C -19.921875 70.640625 -21.769531 70.390625 -23.6875 69.890625 C -25.613281 69.398438 -27.390625 68.539062 -29.015625 67.3125 C -30.640625 66.09375 -31.945312 64.421875 -32.9375 62.296875 C -33.925781 60.179688 -34.421875 57.484375 -34.421875 54.203125 C -34.421875 50.691406 -33.945312 47.6875 -33 45.1875 C -32.0625 42.6875 -30.8125 40.507812 -29.25 38.65625 C -27.695312 36.800781 -25.96875 35.101562 -24.0625 33.5625 C -22.164062 32.019531 -20.226562 30.46875 -18.25 28.90625 C -16.28125 27.351562 -14.425781 25.609375 -12.6875 23.671875 C -10.945312 21.734375 -9.457031 19.445312 -8.21875 16.8125 C -6.976562 14.175781 -6.160156 11.023438 -5.765625 7.359375 C -6.160156 8.546875 -6.910156 9.578125 -8.015625 10.453125 C -9.128906 11.335938 -10.414062 12.019531 -11.875 12.5 C -13.332031 12.976562 -14.773438 13.21875 -16.203125 13.21875 C -18.085938 13.21875 -19.75 12.976562 -21.1875 12.5 C -22.625 12.019531 -23.914062 11.535156 -25.0625 11.046875 C -26.207031 10.566406 -27.257812 10.328125 -28.21875 10.328125 C -29.570312 10.328125 -30.585938 10.695312 -31.265625 11.4375 C -31.953125 12.1875 -32.296875 13.242188 -32.296875 14.609375 L -34.53125 14.609375 L -34.53125 12.46875 C -34.53125 10.445312 -34.25 8.429688 -33.6875 6.421875 C -33.125 4.421875 -32.171875 2.757812 -30.828125 1.4375 C -29.484375 0.113281 -27.632812 -0.546875 -25.28125 -0.546875 Z M -25.28125 -0.546875 "/></g></g></g><g clip-path="url(#aa623775d3)"><g clip-path="url(#3cf2c20d34)"><g transform="matrix(1, 0, 0, 1, 433, 610)"><g clip-path="url(#a14ec8fe07)"><g clip-path="url(#4e254253aa)"><g clip-path="url(#2d70f37dd4)"><path fill="#6b1510" d="M 0.0898438 0.75 L 55.296875 0.75 L 55.296875 55.953125 L 0.0898438 55.953125 Z M 0.0898438 0.75 " fill-opacity="1" fill-rule="nonzero"/></g></g></g></g></g></g><g clip-path="url(#0abee9f98e)"><g clip-path="url(#f581fee2bd)"><g transform="matrix(1, 0, 0, 1, 90, 158)"><g clip-path="url(#580d21634d)"><g clip-path="url(#d3d955406c)"><g clip-path="url(#03ee6f4c70)"><path fill="#6b1510" d="M 0.335938 0.84375 L 55.539062 0.84375 L 55.539062 56.046875 L 0.335938 56.046875 Z M 0.335938 0.84375 " fill-opacity="1" fill-rule="nonzero"/></g></g></g></g></g></g></g></g></g></svg>