<svg xmlns="http://www.w3.org/2000/svg" xmlns:xlink="http://www.w3.org/1999/xlink" width="794" zoomAndPan="magnify" viewBox="0 0 594.95996 842.24997" height="1123" preserveAspectRatio="xMidYMid meet" version="1.0"><defs><g/><clipPath id="d2061ad163"><path d="M 0.246094 0 L 594.675781 0 L 594.675781 841.5 L 0.246094 841.5 Z M 0.246094 0 " clip-rule="nonzero"/></clipPath><clipPath id="961b790dcc"><path d="M 6 0 L 589 0 L 589 841.5 L 6 841.5 Z M 6 0 " clip-rule="nonzero"/></clipPath><clipPath id="006295ac0c"><path d="M 0.464844 0 L 582.773438 0 L 582.773438 841.5 L 0.464844 841.5 Z M 0.464844 0 " clip-rule="nonzero"/></clipPath><clipPath id="d9c90c2216"><path d="M 28.1875 0 L 555.046875 0 C 570.359375 0 582.773438 12.414062 582.773438 27.726562 L 582.773438 813.414062 C 582.773438 828.726562 570.359375 841.140625 555.046875 841.140625 L 28.1875 841.140625 C 12.875 841.140625 0.464844 828.726562 0.464844 813.414062 L 0.464844 27.726562 C 0.464844 12.414062 12.875 0 28.1875 0 Z M 28.1875 0 " clip-rule="nonzero"/></clipPath><clipPath id="aec81682fc"><path d="M 0.464844 0 L 582.773438 0 L 582.773438 841.171875 L 0.464844 841.171875 Z M 0.464844 0 " clip-rule="nonzero"/></clipPath><clipPath id="75560ec038"><path d="M 28.1875 0 L 555.046875 0 C 570.359375 0 582.773438 12.414062 582.773438 27.726562 L 582.773438 813.414062 C 582.773438 828.726562 570.359375 841.140625 555.046875 841.140625 L 28.1875 841.140625 C 12.875 841.140625 0.464844 828.726562 0.464844 813.414062 L 0.464844 27.726562 C 0.464844 12.414062 12.875 0 28.1875 0 Z M 28.1875 0 " clip-rule="nonzero"/></clipPath><clipPath id="23e9434e67"><rect x="0" width="583" y="0" height="842"/></clipPath><clipPath id="434ee636ea"><path d="M 38.503906 36.253906 L 544.730469 36.253906 L 544.730469 805 L 38.503906 805 Z M 38.503906 36.253906 " clip-rule="nonzero"/></clipPath><clipPath id="f201920bdb"><path d="M 66.230469 36.253906 L 517.003906 36.253906 C 532.316406 36.253906 544.730469 48.667969 544.730469 63.980469 L 544.730469 777.160156 C 544.730469 792.472656 532.316406 804.886719 517.003906 804.886719 L 66.230469 804.886719 C 50.917969 804.886719 38.503906 792.472656 38.503906 777.160156 L 38.503906 63.980469 C 38.503906 48.667969 50.917969 36.253906 66.230469 36.253906 Z M 66.230469 36.253906 " clip-rule="nonzero"/></clipPath><clipPath id="7c2309d15f"><path d="M 0.503906 0.253906 L 506.730469 0.253906 L 506.730469 768.964844 L 0.503906 768.964844 Z M 0.503906 0.253906 " clip-rule="nonzero"/></clipPath><clipPath id="36eff8d067"><path d="M 28.230469 0.253906 L 479.003906 0.253906 C 494.316406 0.253906 506.730469 12.667969 506.730469 27.980469 L 506.730469 741.160156 C 506.730469 756.472656 494.316406 768.886719 479.003906 768.886719 L 28.230469 768.886719 C 12.917969 768.886719 0.503906 756.472656 0.503906 741.160156 L 0.503906 27.980469 C 0.503906 12.667969 12.917969 0.253906 28.230469 0.253906 Z M 28.230469 0.253906 " clip-rule="nonzero"/></clipPath><clipPath id="f8cf451a07"><rect x="0" width="507" y="0" height="769"/></clipPath><clipPath id="b4986f272d"><path d="M 38.503906 36.273438 L 545 36.273438 L 545 804.253906 L 38.503906 804.253906 Z M 38.503906 36.273438 " clip-rule="nonzero"/></clipPath><clipPath id="e89d3e8205"><path d="M 66.226562 36.273438 L 516.976562 36.273438 C 532.289062 36.273438 544.699219 48.6875 544.699219 63.996094 L 544.699219 777.136719 C 544.699219 792.449219 532.289062 804.863281 516.976562 804.863281 L 66.226562 804.863281 C 50.917969 804.863281 38.503906 792.449219 38.503906 777.136719 L 38.503906 63.996094 C 38.503906 48.6875 50.917969 36.273438 66.226562 36.273438 Z M 66.226562 36.273438 " clip-rule="nonzero"/></clipPath><clipPath id="30897e5d51"><path d="M 117.9375 235.648438 L 464.960938 235.648438 L 464.960938 582.667969 L 117.9375 582.667969 Z M 117.9375 235.648438 " clip-rule="nonzero"/></clipPath><clipPath id="ad4ffb53ba"><path d="M 291.449219 235.648438 C 195.621094 235.648438 117.9375 313.332031 117.9375 409.160156 C 117.9375 504.988281 195.621094 582.667969 291.449219 582.667969 C 387.277344 582.667969 464.960938 504.988281 464.960938 409.160156 C 464.960938 313.332031 387.277344 235.648438 291.449219 235.648438 Z M 291.449219 235.648438 " clip-rule="nonzero"/></clipPath><clipPath id="68b08b924b"><path d="M 0.9375 0.648438 L 347.960938 0.648438 L 347.960938 347.667969 L 0.9375 347.667969 Z M 0.9375 0.648438 " clip-rule="nonzero"/></clipPath><clipPath id="bbeb9bd70a"><path d="M 174.449219 0.648438 C 78.621094 0.648438 0.9375 78.332031 0.9375 174.160156 C 0.9375 269.988281 78.621094 347.667969 174.449219 347.667969 C 270.277344 347.667969 347.960938 269.988281 347.960938 174.160156 C 347.960938 78.332031 270.277344 0.648438 174.449219 0.648438 Z M 174.449219 0.648438 " clip-rule="nonzero"/></clipPath><clipPath id="efdfa18e83"><rect x="0" width="348" y="0" height="348"/></clipPath><clipPath id="a5af396537"><path d="M 433.089844 610.75 L 488.296875 610.75 L 488.296875 665.953125 L 433.089844 665.953125 Z M 433.089844 610.75 " clip-rule="nonzero"/></clipPath><clipPath id="8ad7bb384f"><path d="M 460.691406 610.75 C 445.449219 610.75 433.089844 623.105469 433.089844 638.351562 C 433.089844 653.597656 445.449219 665.953125 460.691406 665.953125 C 475.9375 665.953125 488.296875 653.597656 488.296875 638.351562 C 488.296875 623.105469 475.9375 610.75 460.691406 610.75 Z M 460.691406 610.75 " clip-rule="nonzero"/></clipPath><clipPath id="dbd40c9c5f"><path d="M 0.0898438 0.75 L 55.296875 0.75 L 55.296875 55.953125 L 0.0898438 55.953125 Z M 0.0898438 0.75 " clip-rule="nonzero"/></clipPath><clipPath id="7e229deec2"><path d="M 27.691406 0.75 C 12.449219 0.75 0.0898438 13.105469 0.0898438 28.351562 C 0.0898438 43.597656 12.449219 55.953125 27.691406 55.953125 C 42.9375 55.953125 55.296875 43.597656 55.296875 28.351562 C 55.296875 13.105469 42.9375 0.75 27.691406 0.75 Z M 27.691406 0.75 " clip-rule="nonzero"/></clipPath><clipPath id="c959f25709"><rect x="0" width="56" y="0" height="56"/></clipPath><clipPath id="e2512fbf99"><path d="M 90.335938 158.84375 L 145.539062 158.84375 L 145.539062 214.046875 L 90.335938 214.046875 Z M 90.335938 158.84375 " clip-rule="nonzero"/></clipPath><clipPath id="334c4d04c1"><path d="M 117.9375 158.84375 C 102.695312 158.84375 90.335938 171.199219 90.335938 186.445312 C 90.335938 201.691406 102.695312 214.046875 117.9375 214.046875 C 133.183594 214.046875 145.539062 201.691406 145.539062 186.445312 C 145.539062 171.199219 133.183594 158.84375 117.9375 158.84375 Z M 117.9375 158.84375 " clip-rule="nonzero"/></clipPath><clipPath id="93263b5f58"><path d="M 0.335938 0.84375 L 55.539062 0.84375 L 55.539062 56.046875 L 0.335938 56.046875 Z M 0.335938 0.84375 " clip-rule="nonzero"/></clipPath><clipPath id="354d0040a8"><path d="M 27.9375 0.84375 C 12.695312 0.84375 0.335938 13.199219 0.335938 28.445312 C 0.335938 43.691406 12.695312 56.046875 27.9375 56.046875 C 43.183594 56.046875 55.539062 43.691406 55.539062 28.445312 C 55.539062 13.199219 43.183594 0.84375 27.9375 0.84375 Z M 27.9375 0.84375 " clip-rule="nonzero"/></clipPath><clipPath id="c5a8eac99e"><rect x="0" width="56" y="0" height="57"/></clipPath><clipPath id="261717a5c3"><rect x="0" width="583" y="0" height="842"/></clipPath></defs><g clip-path="url(#d2061ad163)"><path fill="#ffffff" d="M 0.246094 0 L 595.214844 0 L 595.214844 841.5 L 0.246094 841.5 Z M 0.246094 0 " fill-opacity="1" fill-rule="nonzero"/><path fill="#ffffff" d="M 0.246094 0 L 595.214844 0 L 595.214844 841.5 L 0.246094 841.5 Z M 0.246094 0 " fill-opacity="1" fill-rule="nonzero"/></g><g clip-path="url(#961b790dcc)"><g transform="matrix(1, 0, 0, 1, 6, 0)"><g clip-path="url(#261717a5c3)"><g clip-path="url(#006295ac0c)"><g clip-path="url(#d9c90c2216)"><g transform="matrix(1, 0, 0, 1, -0.000000000000001776, 0)"><g clip-path="url(#23e9434e67)"><g clip-path="url(#aec81682fc)"><g clip-path="url(#75560ec038)"><path fill="#ffffff" d="M 0.464844 0 L 582.773438 0 L 582.773438 841.617188 L 0.464844 841.617188 Z M 0.464844 0 " fill-opacity="1" fill-rule="nonzero"/></g></g></g></g></g></g><g clip-path="url(#434ee636ea)"><g clip-path="url(#f201920bdb)"><g transform="matrix(1, 0, 0, 1, 38, 36)"><g clip-path="url(#f8cf451a07)"><g clip-path="url(#7c2309d15f)"><g clip-path="url(#36eff8d067)"><path fill="#ffffff" d="M 0.503906 0.253906 L 506.730469 0.253906 L 506.730469 769.480469 L 0.503906 769.480469 Z M 0.503906 0.253906 " fill-opacity="1" fill-rule="nonzero"/></g></g></g></g></g></g><g clip-path="url(#b4986f272d)"><g clip-path="url(#e89d3e8205)"><path stroke-linecap="butt" transform="matrix(2.509805, 0, 0, 2.509805, 38.504697, 36.273706)" fill="none" stroke-linejoin="miter" d="M 11.045425 -0.000107011 L 190.64103 -0.000107011 C 196.742101 -0.000107011 201.68677 4.946118 201.68677 11.045633 L 201.68677 295.187445 C 201.68677 301.288516 196.742101 306.234741 190.64103 306.234741 L 11.045425 306.234741 C 4.94591 306.234741 -0.000314955 301.288516 -0.000314955 295.187445 L -0.000314955 11.045633 C -0.000314955 4.946118 4.94591 -0.000107011 11.045425 -0.000107011 Z M 11.045425 -0.000107011 " stroke="#6b1510" stroke-width="2.985621" stroke-opacity="1" stroke-miterlimit="4"/></g></g><g clip-path="url(#30897e5d51)"><g clip-path="url(#ad4ffb53ba)"><g transform="matrix(1, 0, 0, 1, 117, 235)"><g clip-path="url(#efdfa18e83)"><g clip-path="url(#68b08b924b)"><g clip-path="url(#bbeb9bd70a)"><path fill="#6b1510" d="M 0.9375 0.648438 L 347.960938 0.648438 L 347.960938 347.667969 L 0.9375 347.667969 Z M 0.9375 0.648438 " fill-opacity="1" fill-rule="nonzero"/></g></g></g></g></g></g><g fill="#6b1510" fill-opacity="1"><g transform="translate(103.225978, 145.502137)"><g><path d="M 4.03125 0 L 4.03125 -2.578125 L 8.640625 -2.578125 L 8.640625 -56.03125 C 8.410156 -55.800781 8.019531 -55.550781 7.46875 -55.28125 C 6.925781 -55.019531 6.347656 -54.789062 5.734375 -54.59375 C 5.117188 -54.394531 4.566406 -54.265625 4.078125 -54.203125 L 4.078125 -57.234375 C 5.203125 -57.492188 6.453125 -57.992188 7.828125 -58.734375 C 9.203125 -59.484375 10.554688 -60.472656 11.890625 -61.703125 C 13.234375 -62.929688 14.453125 -64.375 15.546875 -66.03125 C 16.640625 -67.6875 17.453125 -69.554688 17.984375 -71.640625 L 20.5625 -71.640625 L 20.5625 -2.578125 L 25.34375 -2.578125 L 25.34375 0 Z M 4.03125 0 "/></g></g></g><g fill="#6b1510" fill-opacity="1"><g transform="translate(479.658615, 686.965601)"><g><path d="M -4.03125 0 L -4.03125 2.578125 L -8.640625 2.578125 L -8.640625 56.03125 C -8.410156 55.800781 -8.019531 55.550781 -7.46875 55.28125 C -6.925781 55.019531 -6.347656 54.789062 -5.734375 54.59375 C -5.117188 54.394531 -4.566406 54.265625 -4.078125 54.203125 L -4.078125 57.234375 C -5.203125 57.492188 -6.453125 57.992188 -7.828125 58.734375 C -9.203125 59.484375 -10.554688 60.472656 -11.890625 61.703125 C -13.234375 62.929688 -14.453125 64.375 -15.546875 66.03125 C -16.640625 67.6875 -17.453125 69.554688 -17.984375 71.640625 L -20.5625 71.640625 L -20.5625 2.578125 L -25.34375 2.578125 L -25.34375 0 Z M -4.03125 0 "/></g></g></g><g clip-path="url(#a5af396537)"><g clip-path="url(#8ad7bb384f)"><g transform="matrix(1, 0, 0, 1, 433, 610)"><g clip-path="url(#c959f25709)"><g clip-path="url(#dbd40c9c5f)"><g clip-path="url(#7e229deec2)"><path fill="#6b1510" d="M 0.0898438 0.75 L 55.296875 0.75 L 55.296875 55.953125 L 0.0898438 55.953125 Z M 0.0898438 0.75 " fill-opacity="1" fill-rule="nonzero"/></g></g></g></g></g></g><g clip-path="url(#e2512fbf99)"><g clip-path="url(#334c4d04c1)"><g transform="matrix(1, 0, 0, 1, 90, 158)"><g clip-path="url(#c5a8eac99e)"><g clip-path="url(#93263b5f58)"><g clip-path="url(#354d0040a8)"><path fill="#6b1510" d="M 0.335938 0.84375 L 55.539062 0.84375 L 55.539062 56.046875 L 0.335938 56.046875 Z M 0.335938 0.84375 " fill-opacity="1" fill-rule="nonzero"/></g></g></g></g></g></g></g></g></g></svg>