<svg xmlns="http://www.w3.org/2000/svg" xmlns:xlink="http://www.w3.org/1999/xlink" width="794" zoomAndPan="magnify" viewBox="0 0 594.95996 842.24997" height="1123" preserveAspectRatio="xMidYMid meet" version="1.0"><defs><g/><clipPath id="bc9f3d73cd"><path d="M 0.246094 0 L 594.675781 0 L 594.675781 841.5 L 0.246094 841.5 Z M 0.246094 0 " clip-rule="nonzero"/></clipPath><clipPath id="a4564ed197"><path d="M 6 0 L 589 0 L 589 841.5 L 6 841.5 Z M 6 0 " clip-rule="nonzero"/></clipPath><clipPath id="b4891403a1"><path d="M 0.464844 0 L 582.773438 0 L 582.773438 841.5 L 0.464844 841.5 Z M 0.464844 0 " clip-rule="nonzero"/></clipPath><clipPath id="87961021ab"><path d="M 28.1875 0 L 555.046875 0 C 570.359375 0 582.773438 12.414062 582.773438 27.726562 L 582.773438 813.414062 C 582.773438 828.726562 570.359375 841.140625 555.046875 841.140625 L 28.1875 841.140625 C 12.875 841.140625 0.464844 828.726562 0.464844 813.414062 L 0.464844 27.726562 C 0.464844 12.414062 12.875 0 28.1875 0 Z M 28.1875 0 " clip-rule="nonzero"/></clipPath><clipPath id="93367162f5"><path d="M 0.464844 0 L 582.773438 0 L 582.773438 841.171875 L 0.464844 841.171875 Z M 0.464844 0 " clip-rule="nonzero"/></clipPath><clipPath id="0297de6c35"><path d="M 28.1875 0 L 555.046875 0 C 570.359375 0 582.773438 12.414062 582.773438 27.726562 L 582.773438 813.414062 C 582.773438 828.726562 570.359375 841.140625 555.046875 841.140625 L 28.1875 841.140625 C 12.875 841.140625 0.464844 828.726562 0.464844 813.414062 L 0.464844 27.726562 C 0.464844 12.414062 12.875 0 28.1875 0 Z M 28.1875 0 " clip-rule="nonzero"/></clipPath><clipPath id="351c39e7e0"><rect x="0" width="583" y="0" height="842"/></clipPath><clipPath id="5feb5231a6"><path d="M 38.503906 36.253906 L 544.730469 36.253906 L 544.730469 805 L 38.503906 805 Z M 38.503906 36.253906 " clip-rule="nonzero"/></clipPath><clipPath id="be5babb917"><path d="M 66.230469 36.253906 L 517.003906 36.253906 C 532.316406 36.253906 544.730469 48.667969 544.730469 63.980469 L 544.730469 777.160156 C 544.730469 792.472656 532.316406 804.886719 517.003906 804.886719 L 66.230469 804.886719 C 50.917969 804.886719 38.503906 792.472656 38.503906 777.160156 L 38.503906 63.980469 C 38.503906 48.667969 50.917969 36.253906 66.230469 36.253906 Z M 66.230469 36.253906 " clip-rule="nonzero"/></clipPath><clipPath id="00c1ff330f"><path d="M 0.503906 0.253906 L 506.730469 0.253906 L 506.730469 768.964844 L 0.503906 768.964844 Z M 0.503906 0.253906 " clip-rule="nonzero"/></clipPath><clipPath id="6dd3962a21"><path d="M 28.230469 0.253906 L 479.003906 0.253906 C 494.316406 0.253906 506.730469 12.667969 506.730469 27.980469 L 506.730469 741.160156 C 506.730469 756.472656 494.316406 768.886719 479.003906 768.886719 L 28.230469 768.886719 C 12.917969 768.886719 0.503906 756.472656 0.503906 741.160156 L 0.503906 27.980469 C 0.503906 12.667969 12.917969 0.253906 28.230469 0.253906 Z M 28.230469 0.253906 " clip-rule="nonzero"/></clipPath><clipPath id="b522cb478a"><rect x="0" width="507" y="0" height="769"/></clipPath><clipPath id="751c40da8d"><path d="M 38.503906 36.273438 L 545 36.273438 L 545 804.253906 L 38.503906 804.253906 Z M 38.503906 36.273438 " clip-rule="nonzero"/></clipPath><clipPath id="3a46999559"><path d="M 66.226562 36.273438 L 516.976562 36.273438 C 532.289062 36.273438 544.699219 48.6875 544.699219 63.996094 L 544.699219 777.136719 C 544.699219 792.449219 532.289062 804.863281 516.976562 804.863281 L 66.226562 804.863281 C 50.917969 804.863281 38.503906 792.449219 38.503906 777.136719 L 38.503906 63.996094 C 38.503906 48.6875 50.917969 36.273438 66.226562 36.273438 Z M 66.226562 36.273438 " clip-rule="nonzero"/></clipPath><clipPath id="3cc4538c62"><path d="M 117.9375 235.648438 L 464.960938 235.648438 L 464.960938 582.667969 L 117.9375 582.667969 Z M 117.9375 235.648438 " clip-rule="nonzero"/></clipPath><clipPath id="53fa1d6ee0"><path d="M 291.449219 235.648438 C 195.621094 235.648438 117.9375 313.332031 117.9375 409.160156 C 117.9375 504.988281 195.621094 582.667969 291.449219 582.667969 C 387.277344 582.667969 464.960938 504.988281 464.960938 409.160156 C 464.960938 313.332031 387.277344 235.648438 291.449219 235.648438 Z M 291.449219 235.648438 " clip-rule="nonzero"/></clipPath><clipPath id="45b93c93a0"><path d="M 0.9375 0.648438 L 347.960938 0.648438 L 347.960938 347.667969 L 0.9375 347.667969 Z M 0.9375 0.648438 " clip-rule="nonzero"/></clipPath><clipPath id="5e38ef5c84"><path d="M 174.449219 0.648438 C 78.621094 0.648438 0.9375 78.332031 0.9375 174.160156 C 0.9375 269.988281 78.621094 347.667969 174.449219 347.667969 C 270.277344 347.667969 347.960938 269.988281 347.960938 174.160156 C 347.960938 78.332031 270.277344 0.648438 174.449219 0.648438 Z M 174.449219 0.648438 " clip-rule="nonzero"/></clipPath><clipPath id="9e02f7ecce"><rect x="0" width="348" y="0" height="348"/></clipPath><clipPath id="9096dfa376"><path d="M 433.089844 610.75 L 488.296875 610.75 L 488.296875 665.953125 L 433.089844 665.953125 Z M 433.089844 610.75 " clip-rule="nonzero"/></clipPath><clipPath id="126e80f0cf"><path d="M 460.691406 610.75 C 445.449219 610.75 433.089844 623.105469 433.089844 638.351562 C 433.089844 653.597656 445.449219 665.953125 460.691406 665.953125 C 475.9375 665.953125 488.296875 653.597656 488.296875 638.351562 C 488.296875 623.105469 475.9375 610.75 460.691406 610.75 Z M 460.691406 610.75 " clip-rule="nonzero"/></clipPath><clipPath id="68e37c3bbb"><path d="M 0.0898438 0.75 L 55.296875 0.75 L 55.296875 55.953125 L 0.0898438 55.953125 Z M 0.0898438 0.75 " clip-rule="nonzero"/></clipPath><clipPath id="91063a292d"><path d="M 27.691406 0.75 C 12.449219 0.75 0.0898438 13.105469 0.0898438 28.351562 C 0.0898438 43.597656 12.449219 55.953125 27.691406 55.953125 C 42.9375 55.953125 55.296875 43.597656 55.296875 28.351562 C 55.296875 13.105469 42.9375 0.75 27.691406 0.75 Z M 27.691406 0.75 " clip-rule="nonzero"/></clipPath><clipPath id="ff56bf3ecd"><rect x="0" width="56" y="0" height="56"/></clipPath><clipPath id="6da6bf81c9"><path d="M 90.335938 158.84375 L 145.539062 158.84375 L 145.539062 214.046875 L 90.335938 214.046875 Z M 90.335938 158.84375 " clip-rule="nonzero"/></clipPath><clipPath id="ef2dcef56d"><path d="M 117.9375 158.84375 C 102.695312 158.84375 90.335938 171.199219 90.335938 186.445312 C 90.335938 201.691406 102.695312 214.046875 117.9375 214.046875 C 133.183594 214.046875 145.539062 201.691406 145.539062 186.445312 C 145.539062 171.199219 133.183594 158.84375 117.9375 158.84375 Z M 117.9375 158.84375 " clip-rule="nonzero"/></clipPath><clipPath id="78d574dbfc"><path d="M 0.335938 0.84375 L 55.539062 0.84375 L 55.539062 56.046875 L 0.335938 56.046875 Z M 0.335938 0.84375 " clip-rule="nonzero"/></clipPath><clipPath id="13dc6537ec"><path d="M 27.9375 0.84375 C 12.695312 0.84375 0.335938 13.199219 0.335938 28.445312 C 0.335938 43.691406 12.695312 56.046875 27.9375 56.046875 C 43.183594 56.046875 55.539062 43.691406 55.539062 28.445312 C 55.539062 13.199219 43.183594 0.84375 27.9375 0.84375 Z M 27.9375 0.84375 " clip-rule="nonzero"/></clipPath><clipPath id="14b3d8f82b"><rect x="0" width="56" y="0" height="57"/></clipPath><clipPath id="535efc3726"><rect x="0" width="583" y="0" height="842"/></clipPath></defs><g clip-path="url(#bc9f3d73cd)"><path fill="#ffffff" d="M 0.246094 0 L 595.214844 0 L 595.214844 841.5 L 0.246094 841.5 Z M 0.246094 0 " fill-opacity="1" fill-rule="nonzero"/><path fill="#ffffff" d="M 0.246094 0 L 595.214844 0 L 595.214844 841.5 L 0.246094 841.5 Z M 0.246094 0 " fill-opacity="1" fill-rule="nonzero"/></g><g clip-path="url(#a4564ed197)"><g transform="matrix(1, 0, 0, 1, 6, 0)"><g clip-path="url(#535efc3726)"><g clip-path="url(#b4891403a1)"><g clip-path="url(#87961021ab)"><g transform="matrix(1, 0, 0, 1, -0.000000000000001776, 0)"><g clip-path="url(#351c39e7e0)"><g clip-path="url(#93367162f5)"><g clip-path="url(#0297de6c35)"><path fill="#ffffff" d="M 0.464844 0 L 582.773438 0 L 582.773438 841.617188 L 0.464844 841.617188 Z M 0.464844 0 " fill-opacity="1" fill-rule="nonzero"/></g></g></g></g></g></g><g clip-path="url(#5feb5231a6)"><g clip-path="url(#be5babb917)"><g transform="matrix(1, 0, 0, 1, 38, 36)"><g clip-path="url(#b522cb478a)"><g clip-path="url(#00c1ff330f)"><g clip-path="url(#6dd3962a21)"><path fill="#ffffff" d="M 0.503906 0.253906 L 506.730469 0.253906 L 506.730469 769.480469 L 0.503906 769.480469 Z M 0.503906 0.253906 " fill-opacity="1" fill-rule="nonzero"/></g></g></g></g></g></g><g clip-path="url(#751c40da8d)"><g clip-path="url(#3a46999559)"><path stroke-linecap="butt" transform="matrix(2.509805, 0, 0, 2.509805, 38.504697, 36.273706)" fill="none" stroke-linejoin="miter" d="M 11.045425 -0.000107011 L 190.64103 -0.000107011 C 196.742101 -0.000107011 201.68677 4.946118 201.68677 11.045633 L 201.68677 295.187445 C 201.68677 301.288516 196.742101 306.234741 190.64103 306.234741 L 11.045425 306.234741 C 4.94591 306.234741 -0.000314955 301.288516 -0.000314955 295.187445 L -0.000314955 11.045633 C -0.000314955 4.946118 4.94591 -0.000107011 11.045425 -0.000107011 Z M 11.045425 -0.000107011 " stroke="#6b1510" stroke-width="2.985621" stroke-opacity="1" stroke-miterlimit="4"/></g></g><g clip-path="url(#3cc4538c62)"><g clip-path="url(#53fa1d6ee0)"><g transform="matrix(1, 0, 0, 1, 117, 235)"><g clip-path="url(#9e02f7ecce)"><g clip-path="url(#45b93c93a0)"><g clip-path="url(#5e38ef5c84)"><path fill="#6b1510" d="M 0.9375 0.648438 L 347.960938 0.648438 L 347.960938 347.667969 L 0.9375 347.667969 Z M 0.9375 0.648438 " fill-opacity="1" fill-rule="nonzero"/></g></g></g></g></g></g><g fill="#6b1510" fill-opacity="1"><g transform="translate(96.637739, 145.502137)"><g><path d="M 20.515625 1 C 18.796875 1 16.941406 0.691406 14.953125 0.078125 C 12.960938 -0.535156 11.082031 -1.535156 9.3125 -2.921875 C 7.539062 -4.316406 6.097656 -6.164062 4.984375 -8.46875 C 3.878906 -10.769531 3.328125 -13.628906 3.328125 -17.046875 C 3.328125 -20.148438 3.859375 -22.796875 4.921875 -24.984375 C 5.984375 -27.171875 7.257812 -28.957031 8.75 -30.34375 C 10.238281 -31.738281 11.675781 -32.816406 13.0625 -33.578125 C 14.457031 -34.335938 15.484375 -34.851562 16.140625 -35.125 L 18.671875 -33.328125 C 17.679688 -32.703125 16.710938 -31.785156 15.765625 -30.578125 C 14.828125 -29.367188 14.039062 -27.710938 13.40625 -25.609375 C 12.78125 -23.503906 12.46875 -20.832031 12.46875 -17.59375 C 12.46875 -12.382812 13.203125 -8.414062 14.671875 -5.6875 C 16.148438 -2.957031 18.113281 -1.59375 20.5625 -1.59375 C 23.050781 -1.59375 24.972656 -2.59375 26.328125 -4.59375 C 27.679688 -6.59375 28.359375 -9.332031 28.359375 -12.8125 C 28.359375 -15.226562 27.867188 -17.394531 26.890625 -19.3125 C 25.921875 -21.238281 24.570312 -23.085938 22.84375 -24.859375 C 21.125 -26.628906 19.109375 -28.492188 16.796875 -30.453125 C 14.441406 -32.335938 12.378906 -34.445312 10.609375 -36.78125 C 8.835938 -39.125 7.445312 -41.6875 6.4375 -44.46875 C 5.425781 -47.25 4.921875 -50.242188 4.921875 -53.453125 C 4.921875 -57.398438 5.707031 -60.644531 7.28125 -63.1875 C 8.851562 -65.738281 10.863281 -67.632812 13.3125 -68.875 C 15.757812 -70.125 18.328125 -70.75 21.015625 -70.75 C 23.660156 -70.75 26.140625 -70.179688 28.453125 -69.046875 C 30.773438 -67.921875 32.65625 -66.222656 34.09375 -63.953125 C 35.539062 -61.691406 36.265625 -58.804688 36.265625 -55.296875 C 36.265625 -52.578125 35.804688 -50.210938 34.890625 -48.203125 C 33.984375 -46.203125 32.859375 -44.523438 31.515625 -43.171875 C 30.179688 -41.816406 28.859375 -40.734375 27.546875 -39.921875 C 26.234375 -39.109375 25.179688 -38.535156 24.390625 -38.203125 L 22.90625 -39.640625 C 23.632812 -40.035156 24.484375 -40.910156 25.453125 -42.265625 C 26.429688 -43.628906 27.289062 -45.425781 28.03125 -47.65625 C 28.78125 -49.894531 29.15625 -52.507812 29.15625 -55.5 C 29.15625 -57.976562 28.859375 -60.175781 28.265625 -62.09375 C 27.671875 -64.019531 26.785156 -65.535156 25.609375 -66.640625 C 24.429688 -67.753906 22.929688 -68.3125 21.109375 -68.3125 C 19.585938 -68.3125 18.207031 -67.851562 16.96875 -66.9375 C 15.726562 -66.03125 14.742188 -64.75 14.015625 -63.09375 C 13.285156 -61.4375 12.921875 -59.515625 12.921875 -57.328125 C 12.921875 -55.015625 13.503906 -52.765625 14.671875 -50.578125 C 15.847656 -48.390625 17.3125 -46.390625 19.0625 -44.578125 C 20.820312 -42.773438 22.550781 -41.265625 24.25 -40.046875 C 25.769531 -38.984375 27.363281 -37.75 29.03125 -36.34375 C 30.707031 -34.9375 32.265625 -33.351562 33.703125 -31.59375 C 35.148438 -29.84375 36.316406 -27.875 37.203125 -25.6875 C 38.097656 -23.5 38.546875 -21.0625 38.546875 -18.375 C 38.546875 -14.9375 38 -11.988281 36.90625 -9.53125 C 35.8125 -7.082031 34.367188 -5.078125 32.578125 -3.515625 C 30.796875 -1.960938 28.84375 -0.820312 26.71875 -0.09375 C 24.601562 0.632812 22.535156 1 20.515625 1 Z M 20.515625 1 "/></g></g></g><g fill="#6b1510" fill-opacity="1"><g transform="translate(486.246853, 686.965601)"><g><path d="M -20.515625 -1 C -18.796875 -1 -16.941406 -0.691406 -14.953125 -0.078125 C -12.960938 0.535156 -11.082031 1.535156 -9.3125 2.921875 C -7.539062 4.316406 -6.097656 6.164062 -4.984375 8.46875 C -3.878906 10.769531 -3.328125 13.628906 -3.328125 17.046875 C -3.328125 20.148438 -3.859375 22.796875 -4.921875 24.984375 C -5.984375 27.171875 -7.257812 28.957031 -8.75 30.34375 C -10.238281 31.738281 -11.675781 32.816406 -13.0625 33.578125 C -14.457031 34.335938 -15.484375 34.851562 -16.140625 35.125 L -18.671875 33.328125 C -17.679688 32.703125 -16.710938 31.785156 -15.765625 30.578125 C -14.828125 29.367188 -14.039062 27.710938 -13.40625 25.609375 C -12.78125 23.503906 -12.46875 20.832031 -12.46875 17.59375 C -12.46875 12.382812 -13.203125 8.414062 -14.671875 5.6875 C -16.148438 2.957031 -18.113281 1.59375 -20.5625 1.59375 C -23.050781 1.59375 -24.972656 2.59375 -26.328125 4.59375 C -27.679688 6.59375 -28.359375 9.332031 -28.359375 12.8125 C -28.359375 15.226562 -27.867188 17.394531 -26.890625 19.3125 C -25.921875 21.238281 -24.570312 23.085938 -22.84375 24.859375 C -21.125 26.628906 -19.109375 28.492188 -16.796875 30.453125 C -14.441406 32.335938 -12.378906 34.445312 -10.609375 36.78125 C -8.835938 39.125 -7.445312 41.6875 -6.4375 44.46875 C -5.425781 47.25 -4.921875 50.242188 -4.921875 53.453125 C -4.921875 57.398438 -5.707031 60.644531 -7.28125 63.1875 C -8.851562 65.738281 -10.863281 67.632812 -13.3125 68.875 C -15.757812 70.125 -18.328125 70.75 -21.015625 70.75 C -23.660156 70.75 -26.140625 70.179688 -28.453125 69.046875 C -30.773438 67.921875 -32.65625 66.222656 -34.09375 63.953125 C -35.539062 61.691406 -36.265625 58.804688 -36.265625 55.296875 C -36.265625 52.578125 -35.804688 50.210938 -34.890625 48.203125 C -33.984375 46.203125 -32.859375 44.523438 -31.515625 43.171875 C -30.179688 41.816406 -28.859375 40.734375 -27.546875 39.921875 C -26.234375 39.109375 -25.179688 38.535156 -24.390625 38.203125 L -22.90625 39.640625 C -23.632812 40.035156 -24.484375 40.910156 -25.453125 42.265625 C -26.429688 43.628906 -27.289062 45.425781 -28.03125 47.65625 C -28.78125 49.894531 -29.15625 52.507812 -29.15625 55.5 C -29.15625 57.976562 -28.859375 60.175781 -28.265625 62.09375 C -27.671875 64.019531 -26.785156 65.535156 -25.609375 66.640625 C -24.429688 67.753906 -22.929688 68.3125 -21.109375 68.3125 C -19.585938 68.3125 -18.207031 67.851562 -16.96875 66.9375 C -15.726562 66.03125 -14.742188 64.75 -14.015625 63.09375 C -13.285156 61.4375 -12.921875 59.515625 -12.921875 57.328125 C -12.921875 55.015625 -13.503906 52.765625 -14.671875 50.578125 C -15.847656 48.390625 -17.3125 46.390625 -19.0625 44.578125 C -20.820312 42.773438 -22.550781 41.265625 -24.25 40.046875 C -25.769531 38.984375 -27.363281 37.75 -29.03125 36.34375 C -30.707031 34.9375 -32.265625 33.351562 -33.703125 31.59375 C -35.148438 29.84375 -36.316406 27.875 -37.203125 25.6875 C -38.097656 23.5 -38.546875 21.0625 -38.546875 18.375 C -38.546875 14.9375 -38 11.988281 -36.90625 9.53125 C -35.8125 7.082031 -34.367188 5.078125 -32.578125 3.515625 C -30.796875 1.960938 -28.84375 0.820312 -26.71875 0.09375 C -24.601562 -0.632812 -22.535156 -1 -20.515625 -1 Z M -20.515625 -1 "/></g></g></g><g clip-path="url(#9096dfa376)"><g clip-path="url(#126e80f0cf)"><g transform="matrix(1, 0, 0, 1, 433, 610)"><g clip-path="url(#ff56bf3ecd)"><g clip-path="url(#68e37c3bbb)"><g clip-path="url(#91063a292d)"><path fill="#6b1510" d="M 0.0898438 0.75 L 55.296875 0.75 L 55.296875 55.953125 L 0.0898438 55.953125 Z M 0.0898438 0.75 " fill-opacity="1" fill-rule="nonzero"/></g></g></g></g></g></g><g clip-path="url(#6da6bf81c9)"><g clip-path="url(#ef2dcef56d)"><g transform="matrix(1, 0, 0, 1, 90, 158)"><g clip-path="url(#14b3d8f82b)"><g clip-path="url(#78d574dbfc)"><g clip-path="url(#13dc6537ec)"><path fill="#6b1510" d="M 0.335938 0.84375 L 55.539062 0.84375 L 55.539062 56.046875 L 0.335938 56.046875 Z M 0.335938 0.84375 " fill-opacity="1" fill-rule="nonzero"/></g></g></g></g></g></g></g></g></g></svg>