<svg xmlns="http://www.w3.org/2000/svg" xmlns:xlink="http://www.w3.org/1999/xlink" width="794" zoomAndPan="magnify" viewBox="0 0 594.95996 842.24997" height="1123" preserveAspectRatio="xMidYMid meet" version="1.0"><defs><g/><clipPath id="c754b88549"><path d="M 0.246094 0 L 594.675781 0 L 594.675781 841.5 L 0.246094 841.5 Z M 0.246094 0 " clip-rule="nonzero"/></clipPath><clipPath id="add57fe5de"><path d="M 6 0 L 589 0 L 589 841.5 L 6 841.5 Z M 6 0 " clip-rule="nonzero"/></clipPath><clipPath id="e6c9560d41"><path d="M 0.464844 0 L 582.773438 0 L 582.773438 841.5 L 0.464844 841.5 Z M 0.464844 0 " clip-rule="nonzero"/></clipPath><clipPath id="7fc6f3c15f"><path d="M 28.1875 0 L 555.046875 0 C 570.359375 0 582.773438 12.414062 582.773438 27.726562 L 582.773438 813.414062 C 582.773438 828.726562 570.359375 841.140625 555.046875 841.140625 L 28.1875 841.140625 C 12.875 841.140625 0.464844 828.726562 0.464844 813.414062 L 0.464844 27.726562 C 0.464844 12.414062 12.875 0 28.1875 0 Z M 28.1875 0 " clip-rule="nonzero"/></clipPath><clipPath id="4805d0ac81"><path d="M 0.464844 0 L 582.773438 0 L 582.773438 841.171875 L 0.464844 841.171875 Z M 0.464844 0 " clip-rule="nonzero"/></clipPath><clipPath id="3ef9944753"><path d="M 28.1875 0 L 555.046875 0 C 570.359375 0 582.773438 12.414062 582.773438 27.726562 L 582.773438 813.414062 C 582.773438 828.726562 570.359375 841.140625 555.046875 841.140625 L 28.1875 841.140625 C 12.875 841.140625 0.464844 828.726562 0.464844 813.414062 L 0.464844 27.726562 C 0.464844 12.414062 12.875 0 28.1875 0 Z M 28.1875 0 " clip-rule="nonzero"/></clipPath><clipPath id="51d0a3d59a"><rect x="0" width="583" y="0" height="842"/></clipPath><clipPath id="299c38d39a"><path d="M 38.503906 36.253906 L 544.730469 36.253906 L 544.730469 805 L 38.503906 805 Z M 38.503906 36.253906 " clip-rule="nonzero"/></clipPath><clipPath id="3ee0d1dc63"><path d="M 66.230469 36.253906 L 517.003906 36.253906 C 532.316406 36.253906 544.730469 48.667969 544.730469 63.980469 L 544.730469 777.160156 C 544.730469 792.472656 532.316406 804.886719 517.003906 804.886719 L 66.230469 804.886719 C 50.917969 804.886719 38.503906 792.472656 38.503906 777.160156 L 38.503906 63.980469 C 38.503906 48.667969 50.917969 36.253906 66.230469 36.253906 Z M 66.230469 36.253906 " clip-rule="nonzero"/></clipPath><clipPath id="1644beedbf"><path d="M 0.503906 0.253906 L 506.730469 0.253906 L 506.730469 768.964844 L 0.503906 768.964844 Z M 0.503906 0.253906 " clip-rule="nonzero"/></clipPath><clipPath id="e4ba525acc"><path d="M 28.230469 0.253906 L 479.003906 0.253906 C 494.316406 0.253906 506.730469 12.667969 506.730469 27.980469 L 506.730469 741.160156 C 506.730469 756.472656 494.316406 768.886719 479.003906 768.886719 L 28.230469 768.886719 C 12.917969 768.886719 0.503906 756.472656 0.503906 741.160156 L 0.503906 27.980469 C 0.503906 12.667969 12.917969 0.253906 28.230469 0.253906 Z M 28.230469 0.253906 " clip-rule="nonzero"/></clipPath><clipPath id="9353b09834"><rect x="0" width="507" y="0" height="769"/></clipPath><clipPath id="b86afc1083"><path d="M 38.503906 36.273438 L 545 36.273438 L 545 804.253906 L 38.503906 804.253906 Z M 38.503906 36.273438 " clip-rule="nonzero"/></clipPath><clipPath id="edb8ba767e"><path d="M 66.226562 36.273438 L 516.976562 36.273438 C 532.289062 36.273438 544.699219 48.6875 544.699219 63.996094 L 544.699219 777.136719 C 544.699219 792.449219 532.289062 804.863281 516.976562 804.863281 L 66.226562 804.863281 C 50.917969 804.863281 38.503906 792.449219 38.503906 777.136719 L 38.503906 63.996094 C 38.503906 48.6875 50.917969 36.273438 66.226562 36.273438 Z M 66.226562 36.273438 " clip-rule="nonzero"/></clipPath><clipPath id="761cb07f52"><path d="M 226.382812 235.648438 L 356.515625 235.648438 L 356.515625 344.09375 L 226.382812 344.09375 Z M 117.9375 344.09375 L 464.960938 344.09375 L 464.960938 474.226562 L 117.9375 474.226562 Z M 226.382812 474.226562 L 356.515625 474.226562 L 356.515625 582.667969 L 226.382812 582.667969 Z M 226.382812 474.226562 " clip-rule="nonzero"/></clipPath><clipPath id="30a836e538"><path d="M 109.382812 0.648438 L 239.515625 0.648438 L 239.515625 109.09375 L 109.382812 109.09375 Z M 0.9375 109.09375 L 347.960938 109.09375 L 347.960938 239.226562 L 0.9375 239.226562 Z M 109.382812 239.226562 L 239.515625 239.226562 L 239.515625 347.667969 L 109.382812 347.667969 Z M 109.382812 239.226562 " clip-rule="nonzero"/></clipPath><clipPath id="b09d991a32"><rect x="0" width="348" y="0" height="348"/></clipPath><clipPath id="0876662130"><path d="M 450.339844 610.75 L 471.042969 610.75 L 471.042969 628 L 450.339844 628 Z M 433.089844 628 L 488.296875 628 L 488.296875 648.703125 L 433.089844 648.703125 Z M 450.339844 648.703125 L 471.042969 648.703125 L 471.042969 665.953125 L 450.339844 665.953125 Z M 450.339844 648.703125 " clip-rule="nonzero"/></clipPath><clipPath id="f88bc4d690"><path d="M 17.339844 0.75 L 38.042969 0.75 L 38.042969 18 L 17.339844 18 Z M 0.0898438 18 L 55.296875 18 L 55.296875 38.703125 L 0.0898438 38.703125 Z M 17.339844 38.703125 L 38.042969 38.703125 L 38.042969 55.953125 L 17.339844 55.953125 Z M 17.339844 38.703125 " clip-rule="nonzero"/></clipPath><clipPath id="a6297c0065"><rect x="0" width="56" y="0" height="56"/></clipPath><clipPath id="1ec05790c2"><path d="M 107.585938 158.84375 L 128.289062 158.84375 L 128.289062 176.09375 L 107.585938 176.09375 Z M 90.335938 176.09375 L 145.539062 176.09375 L 145.539062 196.796875 L 90.335938 196.796875 Z M 107.585938 196.796875 L 128.289062 196.796875 L 128.289062 214.046875 L 107.585938 214.046875 Z M 107.585938 196.796875 " clip-rule="nonzero"/></clipPath><clipPath id="41d617b57c"><path d="M 17.585938 0.84375 L 38.289062 0.84375 L 38.289062 18.09375 L 17.585938 18.09375 Z M 0.335938 18.09375 L 55.539062 18.09375 L 55.539062 38.796875 L 0.335938 38.796875 Z M 17.585938 38.796875 L 38.289062 38.796875 L 38.289062 56.046875 L 17.585938 56.046875 Z M 17.585938 38.796875 " clip-rule="nonzero"/></clipPath><clipPath id="20bbb91cf6"><rect x="0" width="56" y="0" height="57"/></clipPath><clipPath id="948c4d4500"><rect x="0" width="583" y="0" height="842"/></clipPath></defs><g clip-path="url(#c754b88549)"><path fill="#ffffff" d="M 0.246094 0 L 595.214844 0 L 595.214844 841.5 L 0.246094 841.5 Z M 0.246094 0 " fill-opacity="1" fill-rule="nonzero"/><path fill="#ffffff" d="M 0.246094 0 L 595.214844 0 L 595.214844 841.5 L 0.246094 841.5 Z M 0.246094 0 " fill-opacity="1" fill-rule="nonzero"/></g><g clip-path="url(#add57fe5de)"><g transform="matrix(1, 0, 0, 1, 6, 0)"><g clip-path="url(#948c4d4500)"><g clip-path="url(#e6c9560d41)"><g clip-path="url(#7fc6f3c15f)"><g transform="matrix(1, 0, 0, 1, -0.000000000000001776, 0)"><g clip-path="url(#51d0a3d59a)"><g clip-path="url(#4805d0ac81)"><g clip-path="url(#3ef9944753)"><path fill="#ffffff" d="M 0.464844 0 L 582.773438 0 L 582.773438 841.617188 L 0.464844 841.617188 Z M 0.464844 0 " fill-opacity="1" fill-rule="nonzero"/></g></g></g></g></g></g><g clip-path="url(#299c38d39a)"><g clip-path="url(#3ee0d1dc63)"><g transform="matrix(1, 0, 0, 1, 38, 36)"><g clip-path="url(#9353b09834)"><g clip-path="url(#1644beedbf)"><g clip-path="url(#e4ba525acc)"><path fill="#ffffff" d="M 0.503906 0.253906 L 506.730469 0.253906 L 506.730469 769.480469 L 0.503906 769.480469 Z M 0.503906 0.253906 " fill-opacity="1" fill-rule="nonzero"/></g></g></g></g></g></g><g clip-path="url(#b86afc1083)"><g clip-path="url(#edb8ba767e)"><path stroke-linecap="butt" transform="matrix(2.509805, 0, 0, 2.509805, 38.504697, 36.273706)" fill="none" stroke-linejoin="miter" d="M 11.045425 -0.000107011 L 190.64103 -0.000107011 C 196.742101 -0.000107011 201.68677 4.946118 201.68677 11.045633 L 201.68677 295.187445 C 201.68677 301.288516 196.742101 306.234741 190.64103 306.234741 L 11.045425 306.234741 C 4.94591 306.234741 -0.000314955 301.288516 -0.000314955 295.187445 L -0.000314955 11.045633 C -0.000314955 4.946118 4.94591 -0.000107011 11.045425 -0.000107011 Z M 11.045425 -0.000107011 " stroke="#6b1510" stroke-width="2.985621" stroke-opacity="1" stroke-miterlimit="4"/></g></g><g clip-path="url(#761cb07f52)"><g transform="matrix(1, 0, 0, 1, 117, 235)"><g clip-path="url(#b09d991a32)"><g clip-path="url(#30a836e538)"><path fill="#6b1510" d="M 0.9375 0.648438 L 347.960938 0.648438 L 347.960938 347.667969 L 0.9375 347.667969 Z M 0.9375 0.648438 " fill-opacity="1" fill-rule="nonzero"/></g></g></g></g><g fill="#6b1510" fill-opacity="1"><g transform="translate(100.088721, 145.502137)"><g><path d="M 17.046875 1 C 15.785156 1 14.628906 0.675781 13.578125 0.03125 C 12.535156 -0.613281 11.707031 -1.75 11.09375 -3.375 C 10.488281 -5 10.1875 -7.234375 10.1875 -10.078125 C 10.1875 -14.953125 10.847656 -19.53125 12.171875 -23.8125 C 13.492188 -28.101562 15.125 -32.175781 17.0625 -36.03125 C 19 -39.894531 20.941406 -43.585938 22.890625 -47.109375 C 24.847656 -50.640625 26.484375 -54.078125 27.796875 -57.421875 C 29.109375 -60.773438 29.765625 -64.109375 29.765625 -67.421875 C 29.523438 -66.160156 28.972656 -65.015625 28.109375 -63.984375 C 27.253906 -62.960938 26.164062 -62.160156 24.84375 -61.578125 C 23.519531 -60.992188 22.03125 -60.703125 20.375 -60.703125 C 18.675781 -60.703125 17.320312 -60.851562 16.3125 -61.15625 C 15.300781 -61.457031 14.398438 -61.765625 13.609375 -62.078125 C 12.816406 -62.390625 11.941406 -62.546875 10.984375 -62.546875 C 10.085938 -62.546875 9.316406 -62.351562 8.671875 -61.96875 C 8.023438 -61.59375 7.519531 -60.957031 7.15625 -60.0625 C 6.789062 -59.164062 6.554688 -57.925781 6.453125 -56.34375 L 3.921875 -56.34375 L 3.921875 -69.546875 L 32.4375 -69.546875 C 32.4375 -68.191406 32.335938 -66.890625 32.140625 -65.640625 C 31.941406 -64.398438 31.691406 -63.148438 31.390625 -61.890625 C 31.097656 -60.640625 30.753906 -59.332031 30.359375 -57.96875 C 29.960938 -56.613281 29.539062 -55.148438 29.09375 -53.578125 C 28.644531 -52.003906 28.1875 -50.273438 27.71875 -48.390625 C 27.351562 -46.796875 26.992188 -45.128906 26.640625 -43.390625 C 26.296875 -41.648438 25.960938 -39.820312 25.640625 -37.90625 C 25.003906 -34.03125 24.507812 -29.804688 24.15625 -25.234375 C 23.8125 -20.660156 23.640625 -15.609375 23.640625 -10.078125 C 23.640625 -7.234375 23.347656 -5 22.765625 -3.375 C 22.191406 -1.75 21.40625 -0.613281 20.40625 0.03125 C 19.414062 0.675781 18.296875 1 17.046875 1 Z M 17.046875 1 "/></g></g></g><g fill="#6b1510" fill-opacity="1"><g transform="translate(482.795871, 686.965601)"><g><path d="M -17.046875 -1 C -15.785156 -1 -14.628906 -0.675781 -13.578125 -0.03125 C -12.535156 0.613281 -11.707031 1.75 -11.09375 3.375 C -10.488281 5 -10.1875 7.234375 -10.1875 10.078125 C -10.1875 14.953125 -10.847656 19.53125 -12.171875 23.8125 C -13.492188 28.101562 -15.125 32.175781 -17.0625 36.03125 C -19 39.894531 -20.941406 43.585938 -22.890625 47.109375 C -24.847656 50.640625 -26.484375 54.078125 -27.796875 57.421875 C -29.109375 60.773438 -29.765625 64.109375 -29.765625 67.421875 C -29.523438 66.160156 -28.972656 65.015625 -28.109375 63.984375 C -27.253906 62.960938 -26.164062 62.160156 -24.84375 61.578125 C -23.519531 60.992188 -22.03125 60.703125 -20.375 60.703125 C -18.675781 60.703125 -17.320312 60.851562 -16.3125 61.15625 C -15.300781 61.457031 -14.398438 61.765625 -13.609375 62.078125 C -12.816406 62.390625 -11.941406 62.546875 -10.984375 62.546875 C -10.085938 62.546875 -9.316406 62.351562 -8.671875 61.96875 C -8.023438 61.59375 -7.519531 60.957031 -7.15625 60.0625 C -6.789062 59.164062 -6.554688 57.925781 -6.453125 56.34375 L -3.921875 56.34375 L -3.921875 69.546875 L -32.4375 69.546875 C -32.4375 68.191406 -32.335938 66.890625 -32.140625 65.640625 C -31.941406 64.398438 -31.691406 63.148438 -31.390625 61.890625 C -31.097656 60.640625 -30.753906 59.332031 -30.359375 57.96875 C -29.960938 56.613281 -29.539062 55.148438 -29.09375 53.578125 C -28.644531 52.003906 -28.1875 50.273438 -27.71875 48.390625 C -27.351562 46.796875 -26.992188 45.128906 -26.640625 43.390625 C -26.296875 41.648438 -25.960938 39.820312 -25.640625 37.90625 C -25.003906 34.03125 -24.507812 29.804688 -24.15625 25.234375 C -23.8125 20.660156 -23.640625 15.609375 -23.640625 10.078125 C -23.640625 7.234375 -23.347656 5 -22.765625 3.375 C -22.191406 1.75 -21.40625 0.613281 -20.40625 -0.03125 C -19.414062 -0.675781 -18.296875 -1 -17.046875 -1 Z M -17.046875 -1 "/></g></g></g><g clip-path="url(#0876662130)"><g transform="matrix(1, 0, 0, 1, 433, 610)"><g clip-path="url(#a6297c0065)"><g clip-path="url(#f88bc4d690)"><path fill="#6b1510" d="M 0.0898438 0.75 L 55.296875 0.75 L 55.296875 55.953125 L 0.0898438 55.953125 Z M 0.0898438 0.75 " fill-opacity="1" fill-rule="nonzero"/></g></g></g></g><g clip-path="url(#1ec05790c2)"><g transform="matrix(1, 0, 0, 1, 90, 158)"><g clip-path="url(#20bbb91cf6)"><g clip-path="url(#41d617b57c)"><path fill="#6b1510" d="M 0.335938 0.84375 L 55.539062 0.84375 L 55.539062 56.046875 L 0.335938 56.046875 Z M 0.335938 0.84375 " fill-opacity="1" fill-rule="nonzero"/></g></g></g></g></g></g></g></svg>