<svg xmlns="http://www.w3.org/2000/svg" xmlns:xlink="http://www.w3.org/1999/xlink" width="794" zoomAndPan="magnify" viewBox="0 0 594.95996 842.24997" height="1123" preserveAspectRatio="xMidYMid meet" version="1.0"><defs><g/><clipPath id="8390916909"><path d="M 0.246094 0 L 594.675781 0 L 594.675781 841.5 L 0.246094 841.5 Z M 0.246094 0 " clip-rule="nonzero"/></clipPath><clipPath id="8c5c0fff75"><path d="M 6 0 L 589 0 L 589 841.5 L 6 841.5 Z M 6 0 " clip-rule="nonzero"/></clipPath><clipPath id="8e5271f621"><path d="M 0.464844 0 L 582.773438 0 L 582.773438 841.5 L 0.464844 841.5 Z M 0.464844 0 " clip-rule="nonzero"/></clipPath><clipPath id="e22149dee8"><path d="M 28.1875 0 L 555.046875 0 C 570.359375 0 582.773438 12.414062 582.773438 27.726562 L 582.773438 813.414062 C 582.773438 828.726562 570.359375 841.140625 555.046875 841.140625 L 28.1875 841.140625 C 12.875 841.140625 0.464844 828.726562 0.464844 813.414062 L 0.464844 27.726562 C 0.464844 12.414062 12.875 0 28.1875 0 Z M 28.1875 0 " clip-rule="nonzero"/></clipPath><clipPath id="2809b6ef4d"><path d="M 0.464844 0 L 582.773438 0 L 582.773438 841.171875 L 0.464844 841.171875 Z M 0.464844 0 " clip-rule="nonzero"/></clipPath><clipPath id="21ef7519b8"><path d="M 28.1875 0 L 555.046875 0 C 570.359375 0 582.773438 12.414062 582.773438 27.726562 L 582.773438 813.414062 C 582.773438 828.726562 570.359375 841.140625 555.046875 841.140625 L 28.1875 841.140625 C 12.875 841.140625 0.464844 828.726562 0.464844 813.414062 L 0.464844 27.726562 C 0.464844 12.414062 12.875 0 28.1875 0 Z M 28.1875 0 " clip-rule="nonzero"/></clipPath><clipPath id="3be99dbc24"><rect x="0" width="583" y="0" height="842"/></clipPath><clipPath id="5c052ada23"><path d="M 38.503906 36.253906 L 544.730469 36.253906 L 544.730469 805 L 38.503906 805 Z M 38.503906 36.253906 " clip-rule="nonzero"/></clipPath><clipPath id="18da8d389b"><path d="M 66.230469 36.253906 L 517.003906 36.253906 C 532.316406 36.253906 544.730469 48.667969 544.730469 63.980469 L 544.730469 777.160156 C 544.730469 792.472656 532.316406 804.886719 517.003906 804.886719 L 66.230469 804.886719 C 50.917969 804.886719 38.503906 792.472656 38.503906 777.160156 L 38.503906 63.980469 C 38.503906 48.667969 50.917969 36.253906 66.230469 36.253906 Z M 66.230469 36.253906 " clip-rule="nonzero"/></clipPath><clipPath id="69e940737c"><path d="M 0.503906 0.253906 L 506.730469 0.253906 L 506.730469 768.964844 L 0.503906 768.964844 Z M 0.503906 0.253906 " clip-rule="nonzero"/></clipPath><clipPath id="174b6397b6"><path d="M 28.230469 0.253906 L 479.003906 0.253906 C 494.316406 0.253906 506.730469 12.667969 506.730469 27.980469 L 506.730469 741.160156 C 506.730469 756.472656 494.316406 768.886719 479.003906 768.886719 L 28.230469 768.886719 C 12.917969 768.886719 0.503906 756.472656 0.503906 741.160156 L 0.503906 27.980469 C 0.503906 12.667969 12.917969 0.253906 28.230469 0.253906 Z M 28.230469 0.253906 " clip-rule="nonzero"/></clipPath><clipPath id="96e2af4033"><rect x="0" width="507" y="0" height="769"/></clipPath><clipPath id="3cd15f2d97"><path d="M 38.503906 36.273438 L 545 36.273438 L 545 804.253906 L 38.503906 804.253906 Z M 38.503906 36.273438 " clip-rule="nonzero"/></clipPath><clipPath id="1fabd3b684"><path d="M 66.226562 36.273438 L 516.976562 36.273438 C 532.289062 36.273438 544.699219 48.6875 544.699219 63.996094 L 544.699219 777.136719 C 544.699219 792.449219 532.289062 804.863281 516.976562 804.863281 L 66.226562 804.863281 C 50.917969 804.863281 38.503906 792.449219 38.503906 777.136719 L 38.503906 63.996094 C 38.503906 48.6875 50.917969 36.273438 66.226562 36.273438 Z M 66.226562 36.273438 " clip-rule="nonzero"/></clipPath><clipPath id="b4c90b31e5"><path d="M 226.382812 235.648438 L 356.515625 235.648438 L 356.515625 344.09375 L 226.382812 344.09375 Z M 117.9375 344.09375 L 464.960938 344.09375 L 464.960938 474.226562 L 117.9375 474.226562 Z M 226.382812 474.226562 L 356.515625 474.226562 L 356.515625 582.667969 L 226.382812 582.667969 Z M 226.382812 474.226562 " clip-rule="nonzero"/></clipPath><clipPath id="d6fe177837"><path d="M 109.382812 0.648438 L 239.515625 0.648438 L 239.515625 109.09375 L 109.382812 109.09375 Z M 0.9375 109.09375 L 347.960938 109.09375 L 347.960938 239.226562 L 0.9375 239.226562 Z M 109.382812 239.226562 L 239.515625 239.226562 L 239.515625 347.667969 L 109.382812 347.667969 Z M 109.382812 239.226562 " clip-rule="nonzero"/></clipPath><clipPath id="8423bf8d62"><rect x="0" width="348" y="0" height="348"/></clipPath><clipPath id="4c2f54bc30"><path d="M 450.339844 610.75 L 471.042969 610.75 L 471.042969 628 L 450.339844 628 Z M 433.089844 628 L 488.296875 628 L 488.296875 648.703125 L 433.089844 648.703125 Z M 450.339844 648.703125 L 471.042969 648.703125 L 471.042969 665.953125 L 450.339844 665.953125 Z M 450.339844 648.703125 " clip-rule="nonzero"/></clipPath><clipPath id="c71add9ecb"><path d="M 17.339844 0.75 L 38.042969 0.75 L 38.042969 18 L 17.339844 18 Z M 0.0898438 18 L 55.296875 18 L 55.296875 38.703125 L 0.0898438 38.703125 Z M 17.339844 38.703125 L 38.042969 38.703125 L 38.042969 55.953125 L 17.339844 55.953125 Z M 17.339844 38.703125 " clip-rule="nonzero"/></clipPath><clipPath id="176bc237ce"><rect x="0" width="56" y="0" height="56"/></clipPath><clipPath id="0b9851ab74"><path d="M 107.585938 158.84375 L 128.289062 158.84375 L 128.289062 176.09375 L 107.585938 176.09375 Z M 90.335938 176.09375 L 145.539062 176.09375 L 145.539062 196.796875 L 90.335938 196.796875 Z M 107.585938 196.796875 L 128.289062 196.796875 L 128.289062 214.046875 L 107.585938 214.046875 Z M 107.585938 196.796875 " clip-rule="nonzero"/></clipPath><clipPath id="2b5f03248f"><path d="M 17.585938 0.84375 L 38.289062 0.84375 L 38.289062 18.09375 L 17.585938 18.09375 Z M 0.335938 18.09375 L 55.539062 18.09375 L 55.539062 38.796875 L 0.335938 38.796875 Z M 17.585938 38.796875 L 38.289062 38.796875 L 38.289062 56.046875 L 17.585938 56.046875 Z M 17.585938 38.796875 " clip-rule="nonzero"/></clipPath><clipPath id="fec230c06b"><rect x="0" width="56" y="0" height="57"/></clipPath><clipPath id="97f4663531"><rect x="0" width="583" y="0" height="842"/></clipPath></defs><g clip-path="url(#8390916909)"><path fill="#ffffff" d="M 0.246094 0 L 595.214844 0 L 595.214844 841.5 L 0.246094 841.5 Z M 0.246094 0 " fill-opacity="1" fill-rule="nonzero"/><path fill="#ffffff" d="M 0.246094 0 L 595.214844 0 L 595.214844 841.5 L 0.246094 841.5 Z M 0.246094 0 " fill-opacity="1" fill-rule="nonzero"/></g><g clip-path="url(#8c5c0fff75)"><g transform="matrix(1, 0, 0, 1, 6, 0)"><g clip-path="url(#97f4663531)"><g clip-path="url(#8e5271f621)"><g clip-path="url(#e22149dee8)"><g transform="matrix(1, 0, 0, 1, -0.000000000000001776, 0)"><g clip-path="url(#3be99dbc24)"><g clip-path="url(#2809b6ef4d)"><g clip-path="url(#21ef7519b8)"><path fill="#ffffff" d="M 0.464844 0 L 582.773438 0 L 582.773438 841.617188 L 0.464844 841.617188 Z M 0.464844 0 " fill-opacity="1" fill-rule="nonzero"/></g></g></g></g></g></g><g clip-path="url(#5c052ada23)"><g clip-path="url(#18da8d389b)"><g transform="matrix(1, 0, 0, 1, 38, 36)"><g clip-path="url(#96e2af4033)"><g clip-path="url(#69e940737c)"><g clip-path="url(#174b6397b6)"><path fill="#ffffff" d="M 0.503906 0.253906 L 506.730469 0.253906 L 506.730469 769.480469 L 0.503906 769.480469 Z M 0.503906 0.253906 " fill-opacity="1" fill-rule="nonzero"/></g></g></g></g></g></g><g clip-path="url(#3cd15f2d97)"><g clip-path="url(#1fabd3b684)"><path stroke-linecap="butt" transform="matrix(2.509805, 0, 0, 2.509805, 38.504697, 36.273706)" fill="none" stroke-linejoin="miter" d="M 11.045425 -0.000107011 L 190.64103 -0.000107011 C 196.742101 -0.000107011 201.68677 4.946118 201.68677 11.045633 L 201.68677 295.187445 C 201.68677 301.288516 196.742101 306.234741 190.64103 306.234741 L 11.045425 306.234741 C 4.94591 306.234741 -0.000314955 301.288516 -0.000314955 295.187445 L -0.000314955 11.045633 C -0.000314955 4.946118 4.94591 -0.000107011 11.045425 -0.000107011 Z M 11.045425 -0.000107011 " stroke="#6b1510" stroke-width="2.985621" stroke-opacity="1" stroke-miterlimit="4"/></g></g><g clip-path="url(#b4c90b31e5)"><g transform="matrix(1, 0, 0, 1, 117, 235)"><g clip-path="url(#8423bf8d62)"><g clip-path="url(#d6fe177837)"><path fill="#6b1510" d="M 0.9375 0.648438 L 347.960938 0.648438 L 347.960938 347.667969 L 0.9375 347.667969 Z M 0.9375 0.648438 " fill-opacity="1" fill-rule="nonzero"/></g></g></g></g><g fill="#6b1510" fill-opacity="1"><g transform="translate(103.225978, 144.926137)"><g><path d="M 4.03125 0 L 4.03125 -2.578125 L 8.640625 -2.578125 L 8.640625 -56.03125 C 8.410156 -55.800781 8.019531 -55.550781 7.46875 -55.28125 C 6.925781 -55.019531 6.347656 -54.789062 5.734375 -54.59375 C 5.117188 -54.394531 4.566406 -54.265625 4.078125 -54.203125 L 4.078125 -57.234375 C 5.203125 -57.492188 6.453125 -57.992188 7.828125 -58.734375 C 9.203125 -59.484375 10.554688 -60.472656 11.890625 -61.703125 C 13.234375 -62.929688 14.453125 -64.375 15.546875 -66.03125 C 16.640625 -67.6875 17.453125 -69.554688 17.984375 -71.640625 L 20.5625 -71.640625 L 20.5625 -2.578125 L 25.34375 -2.578125 L 25.34375 0 Z M 4.03125 0 "/></g></g></g><g fill="#6b1510" fill-opacity="1"><g transform="translate(492.992301, 685.466168)"><g><path d="M -4.03125 0 L -4.03125 2.578125 L -8.640625 2.578125 L -8.640625 56.03125 C -8.410156 55.800781 -8.019531 55.550781 -7.46875 55.28125 C -6.925781 55.019531 -6.347656 54.789062 -5.734375 54.59375 C -5.117188 54.394531 -4.566406 54.265625 -4.078125 54.203125 L -4.078125 57.234375 C -5.203125 57.492188 -6.453125 57.992188 -7.828125 58.734375 C -9.203125 59.484375 -10.554688 60.472656 -11.890625 61.703125 C -13.234375 62.929688 -14.453125 64.375 -15.546875 66.03125 C -16.640625 67.6875 -17.453125 69.554688 -17.984375 71.640625 L -20.5625 71.640625 L -20.5625 2.578125 L -25.34375 2.578125 L -25.34375 0 Z M -4.03125 0 "/></g></g></g><g clip-path="url(#4c2f54bc30)"><g transform="matrix(1, 0, 0, 1, 433, 610)"><g clip-path="url(#176bc237ce)"><g clip-path="url(#c71add9ecb)"><path fill="#6b1510" d="M 0.0898438 0.75 L 55.296875 0.75 L 55.296875 55.953125 L 0.0898438 55.953125 Z M 0.0898438 0.75 " fill-opacity="1" fill-rule="nonzero"/></g></g></g></g><g clip-path="url(#0b9851ab74)"><g transform="matrix(1, 0, 0, 1, 90, 158)"><g clip-path="url(#fec230c06b)"><g clip-path="url(#2b5f03248f)"><path fill="#6b1510" d="M 0.335938 0.84375 L 55.539062 0.84375 L 55.539062 56.046875 L 0.335938 56.046875 Z M 0.335938 0.84375 " fill-opacity="1" fill-rule="nonzero"/></g></g></g></g></g></g></g></svg>