<svg xmlns="http://www.w3.org/2000/svg" xmlns:xlink="http://www.w3.org/1999/xlink" width="794" zoomAndPan="magnify" viewBox="0 0 594.95996 842.24997" height="1123" preserveAspectRatio="xMidYMid meet" version="1.0"><defs><g/><clipPath id="15228bdad6"><path d="M 0.246094 0 L 594.675781 0 L 594.675781 841.5 L 0.246094 841.5 Z M 0.246094 0 " clip-rule="nonzero"/></clipPath><clipPath id="de3f1fb937"><path d="M 6 0 L 589 0 L 589 841.5 L 6 841.5 Z M 6 0 " clip-rule="nonzero"/></clipPath><clipPath id="d88028c4d9"><path d="M 0.464844 0 L 582.773438 0 L 582.773438 841.5 L 0.464844 841.5 Z M 0.464844 0 " clip-rule="nonzero"/></clipPath><clipPath id="0837f7fd6b"><path d="M 28.1875 0 L 555.046875 0 C 570.359375 0 582.773438 12.414062 582.773438 27.726562 L 582.773438 813.414062 C 582.773438 828.726562 570.359375 841.140625 555.046875 841.140625 L 28.1875 841.140625 C 12.875 841.140625 0.464844 828.726562 0.464844 813.414062 L 0.464844 27.726562 C 0.464844 12.414062 12.875 0 28.1875 0 Z M 28.1875 0 " clip-rule="nonzero"/></clipPath><clipPath id="6c651ac286"><path d="M 0.464844 0 L 582.773438 0 L 582.773438 841.171875 L 0.464844 841.171875 Z M 0.464844 0 " clip-rule="nonzero"/></clipPath><clipPath id="4b174415ad"><path d="M 28.1875 0 L 555.046875 0 C 570.359375 0 582.773438 12.414062 582.773438 27.726562 L 582.773438 813.414062 C 582.773438 828.726562 570.359375 841.140625 555.046875 841.140625 L 28.1875 841.140625 C 12.875 841.140625 0.464844 828.726562 0.464844 813.414062 L 0.464844 27.726562 C 0.464844 12.414062 12.875 0 28.1875 0 Z M 28.1875 0 " clip-rule="nonzero"/></clipPath><clipPath id="2b76ba13fa"><rect x="0" width="583" y="0" height="842"/></clipPath><clipPath id="cf1efe5ad9"><path d="M 38.503906 36.253906 L 544.730469 36.253906 L 544.730469 805 L 38.503906 805 Z M 38.503906 36.253906 " clip-rule="nonzero"/></clipPath><clipPath id="edf4a166c7"><path d="M 66.230469 36.253906 L 517.003906 36.253906 C 532.316406 36.253906 544.730469 48.667969 544.730469 63.980469 L 544.730469 777.160156 C 544.730469 792.472656 532.316406 804.886719 517.003906 804.886719 L 66.230469 804.886719 C 50.917969 804.886719 38.503906 792.472656 38.503906 777.160156 L 38.503906 63.980469 C 38.503906 48.667969 50.917969 36.253906 66.230469 36.253906 Z M 66.230469 36.253906 " clip-rule="nonzero"/></clipPath><clipPath id="8a00df00b4"><path d="M 0.503906 0.253906 L 506.730469 0.253906 L 506.730469 768.964844 L 0.503906 768.964844 Z M 0.503906 0.253906 " clip-rule="nonzero"/></clipPath><clipPath id="07eec702ab"><path d="M 28.230469 0.253906 L 479.003906 0.253906 C 494.316406 0.253906 506.730469 12.667969 506.730469 27.980469 L 506.730469 741.160156 C 506.730469 756.472656 494.316406 768.886719 479.003906 768.886719 L 28.230469 768.886719 C 12.917969 768.886719 0.503906 756.472656 0.503906 741.160156 L 0.503906 27.980469 C 0.503906 12.667969 12.917969 0.253906 28.230469 0.253906 Z M 28.230469 0.253906 " clip-rule="nonzero"/></clipPath><clipPath id="420c5016de"><rect x="0" width="507" y="0" height="769"/></clipPath><clipPath id="7046bfc053"><path d="M 38.503906 36.273438 L 545 36.273438 L 545 804.253906 L 38.503906 804.253906 Z M 38.503906 36.273438 " clip-rule="nonzero"/></clipPath><clipPath id="bfae69b765"><path d="M 66.226562 36.273438 L 516.976562 36.273438 C 532.289062 36.273438 544.699219 48.6875 544.699219 63.996094 L 544.699219 777.136719 C 544.699219 792.449219 532.289062 804.863281 516.976562 804.863281 L 66.226562 804.863281 C 50.917969 804.863281 38.503906 792.449219 38.503906 777.136719 L 38.503906 63.996094 C 38.503906 48.6875 50.917969 36.273438 66.226562 36.273438 Z M 66.226562 36.273438 " clip-rule="nonzero"/></clipPath><clipPath id="af754bc60d"><path d="M 117.9375 235.648438 L 465 235.648438 L 465 566.402344 L 117.9375 566.402344 Z M 117.9375 235.648438 " clip-rule="nonzero"/></clipPath><clipPath id="784f5bf378"><path d="M 291.449219 235.648438 L 332.410156 361.984375 L 464.960938 361.984375 L 357.722656 440.066406 L 398.683594 566.402344 L 291.449219 488.324219 L 184.214844 566.402344 L 225.171875 440.066406 L 117.9375 361.984375 L 250.488281 361.984375 Z M 291.449219 235.648438 " clip-rule="nonzero"/></clipPath><clipPath id="33584629e5"><path d="M 0.9375 0.648438 L 348 0.648438 L 348 331.402344 L 0.9375 331.402344 Z M 0.9375 0.648438 " clip-rule="nonzero"/></clipPath><clipPath id="6b406820cb"><path d="M 174.449219 0.648438 L 215.410156 126.984375 L 347.960938 126.984375 L 240.722656 205.066406 L 281.683594 331.402344 L 174.449219 253.324219 L 67.214844 331.402344 L 108.171875 205.066406 L 0.9375 126.984375 L 133.488281 126.984375 Z M 174.449219 0.648438 " clip-rule="nonzero"/></clipPath><clipPath id="4442637a35"><rect x="0" width="348" y="0" height="332"/></clipPath><clipPath id="b125ce6555"><path d="M 433 610.71875 L 488.265625 610.71875 L 488.265625 663.335938 L 433 663.335938 Z M 433 610.71875 " clip-rule="nonzero"/></clipPath><clipPath id="99e8c76bee"><path d="M 460.664062 663.335938 L 454.148438 643.238281 L 433.0625 643.238281 L 450.121094 630.816406 L 443.605469 610.71875 L 460.664062 623.140625 L 477.722656 610.71875 L 471.207031 630.816406 L 488.265625 643.238281 L 467.179688 643.238281 Z M 460.664062 663.335938 " clip-rule="nonzero"/></clipPath><clipPath id="1a1ebc0738"><path d="M 0.0546875 0.71875 L 55.265625 0.71875 L 55.265625 53.335938 L 0.0546875 53.335938 Z M 0.0546875 0.71875 " clip-rule="nonzero"/></clipPath><clipPath id="115424156a"><path d="M 27.664062 53.335938 L 21.148438 33.238281 L 0.0625 33.238281 L 17.121094 20.816406 L 10.605469 0.71875 L 27.664062 13.140625 L 44.722656 0.71875 L 38.207031 20.816406 L 55.265625 33.238281 L 34.179688 33.238281 Z M 27.664062 53.335938 " clip-rule="nonzero"/></clipPath><clipPath id="20cac91e0f"><rect x="0" width="56" y="0" height="54"/></clipPath><clipPath id="a5b32e296a"><path d="M 90.335938 158.84375 L 145.625 158.84375 L 145.625 211.460938 L 90.335938 211.460938 Z M 90.335938 158.84375 " clip-rule="nonzero"/></clipPath><clipPath id="7ac13cfd95"><path d="M 117.9375 158.84375 L 124.453125 178.941406 L 145.539062 178.941406 L 128.480469 191.363281 L 134.996094 211.460938 L 117.9375 199.039062 L 100.878906 211.460938 L 107.394531 191.363281 L 90.335938 178.941406 L 111.421875 178.941406 Z M 117.9375 158.84375 " clip-rule="nonzero"/></clipPath><clipPath id="dc709d0ee5"><path d="M 0.335938 0.84375 L 55.550781 0.84375 L 55.550781 53.460938 L 0.335938 53.460938 Z M 0.335938 0.84375 " clip-rule="nonzero"/></clipPath><clipPath id="9050384106"><path d="M 27.9375 0.84375 L 34.453125 20.941406 L 55.539062 20.941406 L 38.480469 33.363281 L 44.996094 53.460938 L 27.9375 41.039062 L 10.878906 53.460938 L 17.394531 33.363281 L 0.335938 20.941406 L 21.421875 20.941406 Z M 27.9375 0.84375 " clip-rule="nonzero"/></clipPath><clipPath id="c8af5c402d"><rect x="0" width="56" y="0" height="54"/></clipPath><clipPath id="a65c796370"><rect x="0" width="11" y="0" height="29"/></clipPath><clipPath id="ea2e4da66b"><rect x="0" width="11" y="0" height="29"/></clipPath><clipPath id="41d873fed6"><rect x="0" width="583" y="0" height="842"/></clipPath></defs><g clip-path="url(#15228bdad6)"><path fill="#ffffff" d="M 0.246094 0 L 595.214844 0 L 595.214844 841.5 L 0.246094 841.5 Z M 0.246094 0 " fill-opacity="1" fill-rule="nonzero"/><path fill="#ffffff" d="M 0.246094 0 L 595.214844 0 L 595.214844 841.5 L 0.246094 841.5 Z M 0.246094 0 " fill-opacity="1" fill-rule="nonzero"/></g><g clip-path="url(#de3f1fb937)"><g transform="matrix(1, 0, 0, 1, 6, 0)"><g clip-path="url(#41d873fed6)"><g clip-path="url(#d88028c4d9)"><g clip-path="url(#0837f7fd6b)"><g transform="matrix(1, 0, 0, 1, -0.000000000000001776, 0)"><g clip-path="url(#2b76ba13fa)"><g clip-path="url(#6c651ac286)"><g clip-path="url(#4b174415ad)"><path fill="#ffffff" d="M 0.464844 0 L 582.773438 0 L 582.773438 841.617188 L 0.464844 841.617188 Z M 0.464844 0 " fill-opacity="1" fill-rule="nonzero"/></g></g></g></g></g></g><g clip-path="url(#cf1efe5ad9)"><g clip-path="url(#edf4a166c7)"><g transform="matrix(1, 0, 0, 1, 38, 36)"><g clip-path="url(#420c5016de)"><g clip-path="url(#8a00df00b4)"><g clip-path="url(#07eec702ab)"><path fill="#ffffff" d="M 0.503906 0.253906 L 506.730469 0.253906 L 506.730469 769.480469 L 0.503906 769.480469 Z M 0.503906 0.253906 " fill-opacity="1" fill-rule="nonzero"/></g></g></g></g></g></g><g clip-path="url(#7046bfc053)"><g clip-path="url(#bfae69b765)"><path stroke-linecap="butt" transform="matrix(2.509805, 0, 0, 2.509805, 38.504697, 36.273706)" fill="none" stroke-linejoin="miter" d="M 11.045425 -0.000107011 L 190.64103 -0.000107011 C 196.742101 -0.000107011 201.68677 4.946118 201.68677 11.045633 L 201.68677 295.187445 C 201.68677 301.288516 196.742101 306.234741 190.64103 306.234741 L 11.045425 306.234741 C 4.94591 306.234741 -0.000314955 301.288516 -0.000314955 295.187445 L -0.000314955 11.045633 C -0.000314955 4.946118 4.94591 -0.000107011 11.045425 -0.000107011 Z M 11.045425 -0.000107011 " stroke="#6b1510" stroke-width="2.985621" stroke-opacity="1" stroke-miterlimit="4"/></g></g><g clip-path="url(#af754bc60d)"><g clip-path="url(#784f5bf378)"><g transform="matrix(1, 0, 0, 1, 117, 235)"><g clip-path="url(#4442637a35)"><g clip-path="url(#33584629e5)"><g clip-path="url(#6b406820cb)"><path fill="#6b1510" d="M 0.9375 0.648438 L 348.488281 0.648438 L 348.488281 331.402344 L 0.9375 331.402344 Z M 0.9375 0.648438 " fill-opacity="1" fill-rule="nonzero"/></g></g></g></g></g></g><g fill="#6b1510" fill-opacity="1"><g transform="translate(99.931858, 145.502137)"><g><path d="M 9.890625 0 L 9.890625 -2.578125 L 14.5625 -2.578125 L 14.5625 -18.078125 L 2.03125 -18.078125 L 2.03125 -20.671875 L 14.609375 -61.703125 C 16.628906 -62.859375 18.390625 -64.226562 19.890625 -65.8125 C 21.398438 -67.40625 22.785156 -69.234375 24.046875 -71.296875 L 26.484375 -71.296875 L 26.484375 -20.671875 L 27.125 -20.671875 C 28.414062 -20.671875 29.34375 -21.519531 29.90625 -23.21875 C 30.46875 -24.925781 30.75 -26.988281 30.75 -29.40625 L 33.140625 -29.40625 L 33.140625 -18.078125 L 26.484375 -18.078125 L 26.484375 -2.578125 L 31.046875 -2.578125 L 31.046875 0 Z M 4.671875 -20.171875 L 4.21875 -20.671875 L 14.65625 -20.671875 L 14.65625 -54.890625 L 14.796875 -53.15625 Z M 4.671875 -20.171875 "/></g></g></g><g fill="#6b1510" fill-opacity="1"><g transform="translate(482.952734, 686.965601)"><g><path d="M -9.890625 0 L -9.890625 2.578125 L -14.5625 2.578125 L -14.5625 18.078125 L -2.03125 18.078125 L -2.03125 20.671875 L -14.609375 61.703125 C -16.628906 62.859375 -18.390625 64.226562 -19.890625 65.8125 C -21.398438 67.40625 -22.785156 69.234375 -24.046875 71.296875 L -26.484375 71.296875 L -26.484375 20.671875 L -27.125 20.671875 C -28.414062 20.671875 -29.34375 21.519531 -29.90625 23.21875 C -30.46875 24.925781 -30.75 26.988281 -30.75 29.40625 L -33.140625 29.40625 L -33.140625 18.078125 L -26.484375 18.078125 L -26.484375 2.578125 L -31.046875 2.578125 L -31.046875 0 Z M -4.671875 20.171875 L -4.21875 20.671875 L -14.65625 20.671875 L -14.65625 54.890625 L -14.796875 53.15625 Z M -4.671875 20.171875 "/></g></g></g><g clip-path="url(#b125ce6555)"><g clip-path="url(#99e8c76bee)"><g transform="matrix(1, 0, 0, 1, 433, 610)"><g clip-path="url(#20cac91e0f)"><g clip-path="url(#1a1ebc0738)"><g clip-path="url(#115424156a)"><path fill="#6b1510" d="M 55.265625 53.335938 L -0.0234375 53.335938 L -0.0234375 0.71875 L 55.265625 0.71875 Z M 55.265625 53.335938 " fill-opacity="1" fill-rule="nonzero"/></g></g></g></g></g></g><g clip-path="url(#a5b32e296a)"><g clip-path="url(#7ac13cfd95)"><g transform="matrix(1, 0, 0, 1, 90, 158)"><g clip-path="url(#c8af5c402d)"><g clip-path="url(#dc709d0ee5)"><g clip-path="url(#9050384106)"><path fill="#6b1510" d="M 0.335938 0.84375 L 55.625 0.84375 L 55.625 53.460938 L 0.335938 53.460938 Z M 0.335938 0.84375 " fill-opacity="1" fill-rule="nonzero"/></g></g></g></g></g></g><g transform="matrix(1, 0, 0, 1, 113, 171)"><g clip-path="url(#a65c796370)"><g fill="#ffffff" fill-opacity="1"><g transform="translate(0.70737, 21.960021)"><g><path d="M 4.21875 0.234375 C 3.84375 0.234375 3.457031 0.160156 3.0625 0.015625 C 2.664062 -0.128906 2.300781 -0.359375 1.96875 -0.671875 C 1.632812 -0.984375 1.359375 -1.398438 1.140625 -1.921875 C 0.929688 -2.453125 0.828125 -3.09375 0.828125 -3.84375 C 0.828125 -4.59375 0.9375 -5.238281 1.15625 -5.78125 C 1.375 -6.332031 1.640625 -6.796875 1.953125 -7.171875 C 2.265625 -7.546875 2.570312 -7.84375 2.875 -8.0625 C 3.175781 -8.28125 3.40625 -8.429688 3.5625 -8.515625 L 4.03125 -8.15625 C 3.800781 -7.976562 3.550781 -7.722656 3.28125 -7.390625 C 3.007812 -7.066406 2.769531 -6.628906 2.5625 -6.078125 C 2.363281 -5.535156 2.265625 -4.84375 2.265625 -4 C 2.265625 -2.738281 2.453125 -1.804688 2.828125 -1.203125 C 3.203125 -0.597656 3.675781 -0.296875 4.25 -0.296875 C 4.832031 -0.296875 5.304688 -0.550781 5.671875 -1.0625 C 6.046875 -1.570312 6.234375 -2.332031 6.234375 -3.34375 C 6.234375 -4.007812 6.140625 -4.578125 5.953125 -5.046875 C 5.765625 -5.523438 5.476562 -5.972656 5.09375 -6.390625 C 4.707031 -6.816406 4.222656 -7.289062 3.640625 -7.8125 C 3.203125 -8.195312 2.796875 -8.644531 2.421875 -9.15625 C 2.054688 -9.664062 1.757812 -10.226562 1.53125 -10.84375 C 1.300781 -11.46875 1.1875 -12.140625 1.1875 -12.859375 C 1.1875 -13.648438 1.332031 -14.328125 1.625 -14.890625 C 1.914062 -15.460938 2.296875 -15.898438 2.765625 -16.203125 C 3.242188 -16.515625 3.769531 -16.671875 4.34375 -16.671875 C 4.863281 -16.671875 5.351562 -16.546875 5.8125 -16.296875 C 6.269531 -16.046875 6.640625 -15.65625 6.921875 -15.125 C 7.203125 -14.601562 7.34375 -13.925781 7.34375 -13.09375 C 7.34375 -12.445312 7.242188 -11.878906 7.046875 -11.390625 C 6.859375 -10.910156 6.625 -10.492188 6.34375 -10.140625 C 6.0625 -9.785156 5.78125 -9.5 5.5 -9.28125 C 5.226562 -9.0625 5.007812 -8.90625 4.84375 -8.8125 L 4.5 -9.140625 C 4.675781 -9.253906 4.894531 -9.476562 5.15625 -9.8125 C 5.414062 -10.144531 5.648438 -10.585938 5.859375 -11.140625 C 6.066406 -11.691406 6.171875 -12.351562 6.171875 -13.125 C 6.171875 -13.675781 6.101562 -14.179688 5.96875 -14.640625 C 5.84375 -15.097656 5.644531 -15.460938 5.375 -15.734375 C 5.113281 -16.015625 4.78125 -16.15625 4.375 -16.15625 C 4 -16.15625 3.671875 -16.03125 3.390625 -15.78125 C 3.109375 -15.53125 2.890625 -15.191406 2.734375 -14.765625 C 2.578125 -14.335938 2.5 -13.859375 2.5 -13.328125 C 2.5 -12.765625 2.613281 -12.222656 2.84375 -11.703125 C 3.082031 -11.179688 3.378906 -10.703125 3.734375 -10.265625 C 4.085938 -9.828125 4.453125 -9.453125 4.828125 -9.140625 C 5.160156 -8.878906 5.5 -8.585938 5.84375 -8.265625 C 6.195312 -7.941406 6.519531 -7.578125 6.8125 -7.171875 C 7.113281 -6.765625 7.351562 -6.304688 7.53125 -5.796875 C 7.71875 -5.285156 7.8125 -4.707031 7.8125 -4.0625 C 7.8125 -3.320312 7.707031 -2.679688 7.5 -2.140625 C 7.300781 -1.597656 7.023438 -1.148438 6.671875 -0.796875 C 6.328125 -0.453125 5.941406 -0.191406 5.515625 -0.015625 C 5.097656 0.148438 4.664062 0.234375 4.21875 0.234375 Z M 4.21875 0.234375 "/></g></g></g></g></g><g transform="matrix(1, 0, 0, 1, 455, 621)"><g clip-path="url(#ea2e4da66b)"><g fill="#ffffff" fill-opacity="1"><g transform="translate(10.458225, 6.743437)"><g><path d="M -4.21875 -0.234375 C -3.84375 -0.234375 -3.457031 -0.160156 -3.0625 -0.015625 C -2.664062 0.128906 -2.300781 0.359375 -1.96875 0.671875 C -1.632812 0.984375 -1.359375 1.398438 -1.140625 1.921875 C -0.929688 2.453125 -0.828125 3.09375 -0.828125 3.84375 C -0.828125 4.59375 -0.9375 5.238281 -1.15625 5.78125 C -1.375 6.332031 -1.640625 6.796875 -1.953125 7.171875 C -2.265625 7.546875 -2.570312 7.84375 -2.875 8.0625 C -3.175781 8.28125 -3.40625 8.429688 -3.5625 8.515625 L -4.03125 8.15625 C -3.800781 7.976562 -3.550781 7.722656 -3.28125 7.390625 C -3.007812 7.066406 -2.769531 6.628906 -2.5625 6.078125 C -2.363281 5.535156 -2.265625 4.84375 -2.265625 4 C -2.265625 2.738281 -2.453125 1.804688 -2.828125 1.203125 C -3.203125 0.597656 -3.675781 0.296875 -4.25 0.296875 C -4.832031 0.296875 -5.304688 0.550781 -5.671875 1.0625 C -6.046875 1.570312 -6.234375 2.332031 -6.234375 3.34375 C -6.234375 4.007812 -6.140625 4.578125 -5.953125 5.046875 C -5.765625 5.523438 -5.476562 5.972656 -5.09375 6.390625 C -4.707031 6.816406 -4.222656 7.289062 -3.640625 7.8125 C -3.203125 8.195312 -2.796875 8.644531 -2.421875 9.15625 C -2.054688 9.664062 -1.757812 10.226562 -1.53125 10.84375 C -1.300781 11.46875 -1.1875 12.140625 -1.1875 12.859375 C -1.1875 13.648438 -1.332031 14.328125 -1.625 14.890625 C -1.914062 15.460938 -2.296875 15.898438 -2.765625 16.203125 C -3.242188 16.515625 -3.769531 16.671875 -4.34375 16.671875 C -4.863281 16.671875 -5.351562 16.546875 -5.8125 16.296875 C -6.269531 16.046875 -6.640625 15.65625 -6.921875 15.125 C -7.203125 14.601562 -7.34375 13.925781 -7.34375 13.09375 C -7.34375 12.445312 -7.242188 11.878906 -7.046875 11.390625 C -6.859375 10.910156 -6.625 10.492188 -6.34375 10.140625 C -6.0625 9.785156 -5.78125 9.5 -5.5 9.28125 C -5.226562 9.0625 -5.007812 8.90625 -4.84375 8.8125 L -4.5 9.140625 C -4.675781 9.253906 -4.894531 9.476562 -5.15625 9.8125 C -5.414062 10.144531 -5.648438 10.585938 -5.859375 11.140625 C -6.066406 11.691406 -6.171875 12.351562 -6.171875 13.125 C -6.171875 13.675781 -6.101562 14.179688 -5.96875 14.640625 C -5.84375 15.097656 -5.644531 15.460938 -5.375 15.734375 C -5.113281 16.015625 -4.78125 16.15625 -4.375 16.15625 C -4 16.15625 -3.671875 16.03125 -3.390625 15.78125 C -3.109375 15.53125 -2.890625 15.191406 -2.734375 14.765625 C -2.578125 14.335938 -2.5 13.859375 -2.5 13.328125 C -2.5 12.765625 -2.613281 12.222656 -2.84375 11.703125 C -3.082031 11.179688 -3.378906 10.703125 -3.734375 10.265625 C -4.085938 9.828125 -4.453125 9.453125 -4.828125 9.140625 C -5.160156 8.878906 -5.5 8.585938 -5.84375 8.265625 C -6.195312 7.941406 -6.519531 7.578125 -6.8125 7.171875 C -7.113281 6.765625 -7.351562 6.304688 -7.53125 5.796875 C -7.71875 5.285156 -7.8125 4.707031 -7.8125 4.0625 C -7.8125 3.320312 -7.707031 2.679688 -7.5 2.140625 C -7.300781 1.597656 -7.023438 1.148438 -6.671875 0.796875 C -6.328125 0.453125 -5.941406 0.191406 -5.515625 0.015625 C -5.097656 -0.148438 -4.664062 -0.234375 -4.21875 -0.234375 Z M -4.21875 -0.234375 "/></g></g></g></g></g></g></g></g></svg>