<svg xmlns="http://www.w3.org/2000/svg" xmlns:xlink="http://www.w3.org/1999/xlink" width="794" zoomAndPan="magnify" viewBox="0 0 594.95996 842.24997" height="1123" preserveAspectRatio="xMidYMid meet" version="1.0"><defs><g/><clipPath id="7df5c31f9b"><path d="M 0.246094 0 L 594.675781 0 L 594.675781 841.5 L 0.246094 841.5 Z M 0.246094 0 " clip-rule="nonzero"/></clipPath><clipPath id="2085aed184"><path d="M 6 0 L 589 0 L 589 841.5 L 6 841.5 Z M 6 0 " clip-rule="nonzero"/></clipPath><clipPath id="4f830dd1f4"><path d="M 0.464844 0 L 582.773438 0 L 582.773438 841.5 L 0.464844 841.5 Z M 0.464844 0 " clip-rule="nonzero"/></clipPath><clipPath id="356300cb65"><path d="M 28.1875 0 L 555.046875 0 C 570.359375 0 582.773438 12.414062 582.773438 27.726562 L 582.773438 813.414062 C 582.773438 828.726562 570.359375 841.140625 555.046875 841.140625 L 28.1875 841.140625 C 12.875 841.140625 0.464844 828.726562 0.464844 813.414062 L 0.464844 27.726562 C 0.464844 12.414062 12.875 0 28.1875 0 Z M 28.1875 0 " clip-rule="nonzero"/></clipPath><clipPath id="97e4640be5"><path d="M 0.464844 0 L 582.773438 0 L 582.773438 841.171875 L 0.464844 841.171875 Z M 0.464844 0 " clip-rule="nonzero"/></clipPath><clipPath id="52e6bb60cf"><path d="M 28.1875 0 L 555.046875 0 C 570.359375 0 582.773438 12.414062 582.773438 27.726562 L 582.773438 813.414062 C 582.773438 828.726562 570.359375 841.140625 555.046875 841.140625 L 28.1875 841.140625 C 12.875 841.140625 0.464844 828.726562 0.464844 813.414062 L 0.464844 27.726562 C 0.464844 12.414062 12.875 0 28.1875 0 Z M 28.1875 0 " clip-rule="nonzero"/></clipPath><clipPath id="1526ef784a"><rect x="0" width="583" y="0" height="842"/></clipPath><clipPath id="6ce198369e"><path d="M 38.503906 36.253906 L 544.730469 36.253906 L 544.730469 805 L 38.503906 805 Z M 38.503906 36.253906 " clip-rule="nonzero"/></clipPath><clipPath id="bc2e6e6062"><path d="M 66.230469 36.253906 L 517.003906 36.253906 C 532.316406 36.253906 544.730469 48.667969 544.730469 63.980469 L 544.730469 777.160156 C 544.730469 792.472656 532.316406 804.886719 517.003906 804.886719 L 66.230469 804.886719 C 50.917969 804.886719 38.503906 792.472656 38.503906 777.160156 L 38.503906 63.980469 C 38.503906 48.667969 50.917969 36.253906 66.230469 36.253906 Z M 66.230469 36.253906 " clip-rule="nonzero"/></clipPath><clipPath id="7324aff13f"><path d="M 0.503906 0.253906 L 506.730469 0.253906 L 506.730469 768.964844 L 0.503906 768.964844 Z M 0.503906 0.253906 " clip-rule="nonzero"/></clipPath><clipPath id="bab5631e13"><path d="M 28.230469 0.253906 L 479.003906 0.253906 C 494.316406 0.253906 506.730469 12.667969 506.730469 27.980469 L 506.730469 741.160156 C 506.730469 756.472656 494.316406 768.886719 479.003906 768.886719 L 28.230469 768.886719 C 12.917969 768.886719 0.503906 756.472656 0.503906 741.160156 L 0.503906 27.980469 C 0.503906 12.667969 12.917969 0.253906 28.230469 0.253906 Z M 28.230469 0.253906 " clip-rule="nonzero"/></clipPath><clipPath id="6bd68de335"><rect x="0" width="507" y="0" height="769"/></clipPath><clipPath id="ccd69caff2"><path d="M 38.503906 36.273438 L 545 36.273438 L 545 804.253906 L 38.503906 804.253906 Z M 38.503906 36.273438 " clip-rule="nonzero"/></clipPath><clipPath id="b392e2f2a2"><path d="M 66.226562 36.273438 L 516.976562 36.273438 C 532.289062 36.273438 544.699219 48.6875 544.699219 63.996094 L 544.699219 777.136719 C 544.699219 792.449219 532.289062 804.863281 516.976562 804.863281 L 66.226562 804.863281 C 50.917969 804.863281 38.503906 792.449219 38.503906 777.136719 L 38.503906 63.996094 C 38.503906 48.6875 50.917969 36.273438 66.226562 36.273438 Z M 66.226562 36.273438 " clip-rule="nonzero"/></clipPath><clipPath id="743a1c10b8"><path d="M 117.9375 235.648438 L 465 235.648438 L 465 566.402344 L 117.9375 566.402344 Z M 117.9375 235.648438 " clip-rule="nonzero"/></clipPath><clipPath id="c1c839580a"><path d="M 291.449219 235.648438 L 332.410156 361.984375 L 464.960938 361.984375 L 357.722656 440.066406 L 398.683594 566.402344 L 291.449219 488.324219 L 184.214844 566.402344 L 225.171875 440.066406 L 117.9375 361.984375 L 250.488281 361.984375 Z M 291.449219 235.648438 " clip-rule="nonzero"/></clipPath><clipPath id="0e00dc14ab"><path d="M 0.9375 0.648438 L 348 0.648438 L 348 331.402344 L 0.9375 331.402344 Z M 0.9375 0.648438 " clip-rule="nonzero"/></clipPath><clipPath id="a2935556f9"><path d="M 174.449219 0.648438 L 215.410156 126.984375 L 347.960938 126.984375 L 240.722656 205.066406 L 281.683594 331.402344 L 174.449219 253.324219 L 67.214844 331.402344 L 108.171875 205.066406 L 0.9375 126.984375 L 133.488281 126.984375 Z M 174.449219 0.648438 " clip-rule="nonzero"/></clipPath><clipPath id="3e5ca39fb3"><rect x="0" width="348" y="0" height="332"/></clipPath><clipPath id="36a1aeb51d"><path d="M 433 610.71875 L 488.265625 610.71875 L 488.265625 663.335938 L 433 663.335938 Z M 433 610.71875 " clip-rule="nonzero"/></clipPath><clipPath id="616f0ecf4b"><path d="M 460.664062 663.335938 L 454.148438 643.238281 L 433.0625 643.238281 L 450.121094 630.816406 L 443.605469 610.71875 L 460.664062 623.140625 L 477.722656 610.71875 L 471.207031 630.816406 L 488.265625 643.238281 L 467.179688 643.238281 Z M 460.664062 663.335938 " clip-rule="nonzero"/></clipPath><clipPath id="861dfd8ba4"><path d="M 0.0546875 0.71875 L 55.265625 0.71875 L 55.265625 53.335938 L 0.0546875 53.335938 Z M 0.0546875 0.71875 " clip-rule="nonzero"/></clipPath><clipPath id="006f856d5d"><path d="M 27.664062 53.335938 L 21.148438 33.238281 L 0.0625 33.238281 L 17.121094 20.816406 L 10.605469 0.71875 L 27.664062 13.140625 L 44.722656 0.71875 L 38.207031 20.816406 L 55.265625 33.238281 L 34.179688 33.238281 Z M 27.664062 53.335938 " clip-rule="nonzero"/></clipPath><clipPath id="8dcced7db9"><rect x="0" width="56" y="0" height="54"/></clipPath><clipPath id="487297f7d5"><path d="M 90.335938 158.84375 L 145.625 158.84375 L 145.625 211.460938 L 90.335938 211.460938 Z M 90.335938 158.84375 " clip-rule="nonzero"/></clipPath><clipPath id="c62f72909f"><path d="M 117.9375 158.84375 L 124.453125 178.941406 L 145.539062 178.941406 L 128.480469 191.363281 L 134.996094 211.460938 L 117.9375 199.039062 L 100.878906 211.460938 L 107.394531 191.363281 L 90.335938 178.941406 L 111.421875 178.941406 Z M 117.9375 158.84375 " clip-rule="nonzero"/></clipPath><clipPath id="c47db3805f"><path d="M 0.335938 0.84375 L 55.550781 0.84375 L 55.550781 53.460938 L 0.335938 53.460938 Z M 0.335938 0.84375 " clip-rule="nonzero"/></clipPath><clipPath id="a07799e75c"><path d="M 27.9375 0.84375 L 34.453125 20.941406 L 55.539062 20.941406 L 38.480469 33.363281 L 44.996094 53.460938 L 27.9375 41.039062 L 10.878906 53.460938 L 17.394531 33.363281 L 0.335938 20.941406 L 21.421875 20.941406 Z M 27.9375 0.84375 " clip-rule="nonzero"/></clipPath><clipPath id="c8139c4bfb"><rect x="0" width="56" y="0" height="54"/></clipPath><clipPath id="6ecb04fe8d"><rect x="0" width="9" y="0" height="28"/></clipPath><clipPath id="34d370e79a"><path d="M 2 5 L 8.988281 5 L 8.988281 23 L 2 23 Z M 2 5 " clip-rule="nonzero"/></clipPath><clipPath id="87e8524e3c"><rect x="0" width="9" y="0" height="28"/></clipPath><clipPath id="7b8e119950"><rect x="0" width="583" y="0" height="842"/></clipPath></defs><g clip-path="url(#7df5c31f9b)"><path fill="#ffffff" d="M 0.246094 0 L 595.214844 0 L 595.214844 841.5 L 0.246094 841.5 Z M 0.246094 0 " fill-opacity="1" fill-rule="nonzero"/><path fill="#ffffff" d="M 0.246094 0 L 595.214844 0 L 595.214844 841.5 L 0.246094 841.5 Z M 0.246094 0 " fill-opacity="1" fill-rule="nonzero"/></g><g clip-path="url(#2085aed184)"><g transform="matrix(1, 0, 0, 1, 6, 0)"><g clip-path="url(#7b8e119950)"><g clip-path="url(#4f830dd1f4)"><g clip-path="url(#356300cb65)"><g transform="matrix(1, 0, 0, 1, -0.000000000000001776, 0)"><g clip-path="url(#1526ef784a)"><g clip-path="url(#97e4640be5)"><g clip-path="url(#52e6bb60cf)"><path fill="#ffffff" d="M 0.464844 0 L 582.773438 0 L 582.773438 841.617188 L 0.464844 841.617188 Z M 0.464844 0 " fill-opacity="1" fill-rule="nonzero"/></g></g></g></g></g></g><g clip-path="url(#6ce198369e)"><g clip-path="url(#bc2e6e6062)"><g transform="matrix(1, 0, 0, 1, 38, 36)"><g clip-path="url(#6bd68de335)"><g clip-path="url(#7324aff13f)"><g clip-path="url(#bab5631e13)"><path fill="#ffffff" d="M 0.503906 0.253906 L 506.730469 0.253906 L 506.730469 769.480469 L 0.503906 769.480469 Z M 0.503906 0.253906 " fill-opacity="1" fill-rule="nonzero"/></g></g></g></g></g></g><g clip-path="url(#ccd69caff2)"><g clip-path="url(#b392e2f2a2)"><path stroke-linecap="butt" transform="matrix(2.509805, 0, 0, 2.509805, 38.504697, 36.273706)" fill="none" stroke-linejoin="miter" d="M 11.045425 -0.000107011 L 190.64103 -0.000107011 C 196.742101 -0.000107011 201.68677 4.946118 201.68677 11.045633 L 201.68677 295.187445 C 201.68677 301.288516 196.742101 306.234741 190.64103 306.234741 L 11.045425 306.234741 C 4.94591 306.234741 -0.000314955 301.288516 -0.000314955 295.187445 L -0.000314955 11.045633 C -0.000314955 4.946118 4.94591 -0.000107011 11.045425 -0.000107011 Z M 11.045425 -0.000107011 " stroke="#6b1510" stroke-width="2.985621" stroke-opacity="1" stroke-miterlimit="4"/></g></g><g clip-path="url(#743a1c10b8)"><g clip-path="url(#c1c839580a)"><g transform="matrix(1, 0, 0, 1, 117, 235)"><g clip-path="url(#3e5ca39fb3)"><g clip-path="url(#0e00dc14ab)"><g clip-path="url(#a2935556f9)"><path fill="#6b1510" d="M 0.9375 0.648438 L 348.488281 0.648438 L 348.488281 331.402344 L 0.9375 331.402344 Z M 0.9375 0.648438 " fill-opacity="1" fill-rule="nonzero"/></g></g></g></g></g></g><g fill="#6b1510" fill-opacity="1"><g transform="translate(98.755387, 145.502137)"><g><path d="M 25.28125 0.546875 C 23.789062 0.546875 22.382812 0.28125 21.0625 -0.25 C 19.738281 -0.78125 18.460938 -1.390625 17.234375 -2.078125 C 16.015625 -2.773438 14.800781 -3.394531 13.59375 -3.9375 C 12.382812 -4.488281 11.148438 -4.765625 9.890625 -4.765625 C 8.398438 -4.765625 7.253906 -4.226562 6.453125 -3.15625 C 5.660156 -2.082031 5.179688 -1.03125 5.015625 0 L 2.734375 0 C 2.734375 -5.425781 3.21875 -10.160156 4.1875 -14.203125 C 5.164062 -18.242188 6.425781 -21.8125 7.96875 -24.90625 C 9.507812 -28.007812 11.148438 -30.800781 12.890625 -33.28125 C 14.628906 -35.769531 16.257812 -38.140625 17.78125 -40.390625 C 19.3125 -42.640625 20.5625 -44.945312 21.53125 -47.3125 C 22.507812 -49.6875 23 -52.332031 23 -55.25 C 23 -57.957031 22.757812 -60.269531 22.28125 -62.1875 C 21.800781 -64.113281 21.0625 -65.585938 20.0625 -66.609375 C 19.070312 -67.640625 17.832031 -68.15625 16.34375 -68.15625 C 15.25 -68.15625 14.210938 -67.941406 13.234375 -67.515625 C 12.265625 -67.085938 11.472656 -66.539062 10.859375 -65.875 C 10.242188 -65.207031 9.9375 -64.492188 9.9375 -63.734375 C 9.9375 -63.078125 10.179688 -62.382812 10.671875 -61.65625 C 11.171875 -60.925781 11.671875 -60.117188 12.171875 -59.234375 C 12.671875 -58.359375 12.921875 -57.34375 12.921875 -56.1875 C 12.921875 -54.332031 12.476562 -52.960938 11.59375 -52.078125 C 10.71875 -51.203125 9.601562 -50.765625 8.25 -50.765625 C 6.820312 -50.765625 5.671875 -51.296875 4.796875 -52.359375 C 3.921875 -53.421875 3.484375 -55.078125 3.484375 -57.328125 C 3.484375 -59.773438 4.066406 -62 5.234375 -64 C 6.410156 -66.007812 8.09375 -67.617188 10.28125 -68.828125 C 12.46875 -70.035156 15.085938 -70.640625 18.140625 -70.640625 C 19.921875 -70.640625 21.769531 -70.390625 23.6875 -69.890625 C 25.613281 -69.398438 27.390625 -68.539062 29.015625 -67.3125 C 30.640625 -66.09375 31.945312 -64.421875 32.9375 -62.296875 C 33.925781 -60.179688 34.421875 -57.484375 34.421875 -54.203125 C 34.421875 -50.691406 33.945312 -47.6875 33 -45.1875 C 32.0625 -42.6875 30.8125 -40.507812 29.25 -38.65625 C 27.695312 -36.800781 25.96875 -35.101562 24.0625 -33.5625 C 22.164062 -32.019531 20.226562 -30.46875 18.25 -28.90625 C 16.28125 -27.351562 14.425781 -25.609375 12.6875 -23.671875 C 10.945312 -21.734375 9.457031 -19.445312 8.21875 -16.8125 C 6.976562 -14.175781 6.160156 -11.023438 5.765625 -7.359375 C 6.160156 -8.546875 6.910156 -9.578125 8.015625 -10.453125 C 9.128906 -11.335938 10.414062 -12.019531 11.875 -12.5 C 13.332031 -12.976562 14.773438 -13.21875 16.203125 -13.21875 C 18.085938 -13.21875 19.75 -12.976562 21.1875 -12.5 C 22.625 -12.019531 23.914062 -11.535156 25.0625 -11.046875 C 26.207031 -10.566406 27.257812 -10.328125 28.21875 -10.328125 C 29.570312 -10.328125 30.585938 -10.695312 31.265625 -11.4375 C 31.953125 -12.1875 32.296875 -13.242188 32.296875 -14.609375 L 34.53125 -14.609375 L 34.53125 -12.46875 C 34.53125 -10.445312 34.25 -8.429688 33.6875 -6.421875 C 33.125 -4.421875 32.171875 -2.757812 30.828125 -1.4375 C 29.484375 -0.113281 27.632812 0.546875 25.28125 0.546875 Z M 25.28125 0.546875 "/></g></g></g><g fill="#6b1510" fill-opacity="1"><g transform="translate(484.129205, 686.965601)"><g><path d="M -25.28125 -0.546875 C -23.789062 -0.546875 -22.382812 -0.28125 -21.0625 0.25 C -19.738281 0.78125 -18.460938 1.390625 -17.234375 2.078125 C -16.015625 2.773438 -14.800781 3.394531 -13.59375 3.9375 C -12.382812 4.488281 -11.148438 4.765625 -9.890625 4.765625 C -8.398438 4.765625 -7.253906 4.226562 -6.453125 3.15625 C -5.660156 2.082031 -5.179688 1.03125 -5.015625 0 L -2.734375 0 C -2.734375 5.425781 -3.21875 10.160156 -4.1875 14.203125 C -5.164062 18.242188 -6.425781 21.8125 -7.96875 24.90625 C -9.507812 28.007812 -11.148438 30.800781 -12.890625 33.28125 C -14.628906 35.769531 -16.257812 38.140625 -17.78125 40.390625 C -19.3125 42.640625 -20.5625 44.945312 -21.53125 47.3125 C -22.507812 49.6875 -23 52.332031 -23 55.25 C -23 57.957031 -22.757812 60.269531 -22.28125 62.1875 C -21.800781 64.113281 -21.0625 65.585938 -20.0625 66.609375 C -19.070312 67.640625 -17.832031 68.15625 -16.34375 68.15625 C -15.25 68.15625 -14.210938 67.941406 -13.234375 67.515625 C -12.265625 67.085938 -11.472656 66.539062 -10.859375 65.875 C -10.242188 65.207031 -9.9375 64.492188 -9.9375 63.734375 C -9.9375 63.078125 -10.179688 62.382812 -10.671875 61.65625 C -11.171875 60.925781 -11.671875 60.117188 -12.171875 59.234375 C -12.671875 58.359375 -12.921875 57.34375 -12.921875 56.1875 C -12.921875 54.332031 -12.476562 52.960938 -11.59375 52.078125 C -10.71875 51.203125 -9.601562 50.765625 -8.25 50.765625 C -6.820312 50.765625 -5.671875 51.296875 -4.796875 52.359375 C -3.921875 53.421875 -3.484375 55.078125 -3.484375 57.328125 C -3.484375 59.773438 -4.066406 62 -5.234375 64 C -6.410156 66.007812 -8.09375 67.617188 -10.28125 68.828125 C -12.46875 70.035156 -15.085938 70.640625 -18.140625 70.640625 C -19.921875 70.640625 -21.769531 70.390625 -23.6875 69.890625 C -25.613281 69.398438 -27.390625 68.539062 -29.015625 67.3125 C -30.640625 66.09375 -31.945312 64.421875 -32.9375 62.296875 C -33.925781 60.179688 -34.421875 57.484375 -34.421875 54.203125 C -34.421875 50.691406 -33.945312 47.6875 -33 45.1875 C -32.0625 42.6875 -30.8125 40.507812 -29.25 38.65625 C -27.695312 36.800781 -25.96875 35.101562 -24.0625 33.5625 C -22.164062 32.019531 -20.226562 30.46875 -18.25 28.90625 C -16.28125 27.351562 -14.425781 25.609375 -12.6875 23.671875 C -10.945312 21.734375 -9.457031 19.445312 -8.21875 16.8125 C -6.976562 14.175781 -6.160156 11.023438 -5.765625 7.359375 C -6.160156 8.546875 -6.910156 9.578125 -8.015625 10.453125 C -9.128906 11.335938 -10.414062 12.019531 -11.875 12.5 C -13.332031 12.976562 -14.773438 13.21875 -16.203125 13.21875 C -18.085938 13.21875 -19.75 12.976562 -21.1875 12.5 C -22.625 12.019531 -23.914062 11.535156 -25.0625 11.046875 C -26.207031 10.566406 -27.257812 10.328125 -28.21875 10.328125 C -29.570312 10.328125 -30.585938 10.695312 -31.265625 11.4375 C -31.953125 12.1875 -32.296875 13.242188 -32.296875 14.609375 L -34.53125 14.609375 L -34.53125 12.46875 C -34.53125 10.445312 -34.25 8.429688 -33.6875 6.421875 C -33.125 4.421875 -32.171875 2.757812 -30.828125 1.4375 C -29.484375 0.113281 -27.632812 -0.546875 -25.28125 -0.546875 Z M -25.28125 -0.546875 "/></g></g></g><g clip-path="url(#36a1aeb51d)"><g clip-path="url(#616f0ecf4b)"><g transform="matrix(1, 0, 0, 1, 433, 610)"><g clip-path="url(#8dcced7db9)"><g clip-path="url(#861dfd8ba4)"><g clip-path="url(#006f856d5d)"><path fill="#6b1510" d="M 55.265625 53.335938 L -0.0234375 53.335938 L -0.0234375 0.71875 L 55.265625 0.71875 Z M 55.265625 53.335938 " fill-opacity="1" fill-rule="nonzero"/></g></g></g></g></g></g><g clip-path="url(#487297f7d5)"><g clip-path="url(#c62f72909f)"><g transform="matrix(1, 0, 0, 1, 90, 158)"><g clip-path="url(#c8139c4bfb)"><g clip-path="url(#c47db3805f)"><g clip-path="url(#a07799e75c)"><path fill="#6b1510" d="M 0.335938 0.84375 L 55.625 0.84375 L 55.625 53.460938 L 0.335938 53.460938 Z M 0.335938 0.84375 " fill-opacity="1" fill-rule="nonzero"/></g></g></g></g></g></g><g transform="matrix(1, 0, 0, 1, 113, 173)"><g clip-path="url(#6ecb04fe8d)"><g fill="#ffffff" fill-opacity="1"><g transform="translate(0.678992, 22.003051)"><g><path d="M 2.34375 0 L 2.34375 -0.546875 L 3.5 -0.546875 L 3.5 -4.375 L 0.484375 -4.375 L 0.484375 -4.921875 L 3.34375 -14.6875 C 3.632812 -14.976562 3.890625 -15.296875 4.109375 -15.640625 C 4.335938 -15.992188 4.546875 -16.367188 4.734375 -16.765625 L 5.265625 -16.765625 L 5.265625 -4.921875 L 5.515625 -4.921875 C 5.753906 -4.921875 5.925781 -5.078125 6.03125 -5.390625 C 6.132812 -5.710938 6.1875 -6.140625 6.1875 -6.671875 L 6.6875 -6.671875 L 6.6875 -4.375 L 5.265625 -4.375 L 5.265625 -0.546875 L 6.40625 -0.546875 L 6.40625 0 Z M 1.03125 -4.8125 L 0.953125 -4.921875 L 3.53125 -4.921875 L 3.53125 -13.5625 L 3.3125 -12.5 Z M 1.03125 -4.8125 "/></g></g></g></g></g><g transform="matrix(1, 0, 0, 1, 455, 621)"><g clip-path="url(#87e8524e3c)"><g clip-path="url(#34d370e79a)"><g fill="#ffffff" fill-opacity="1"><g transform="translate(8.844993, 5.922157)"><g><path d="M -2.34375 0 L -2.34375 0.546875 L -3.5 0.546875 L -3.5 4.375 L -0.484375 4.375 L -0.484375 4.921875 L -3.34375 14.6875 C -3.632812 14.976562 -3.890625 15.296875 -4.109375 15.640625 C -4.335938 15.992188 -4.546875 16.367188 -4.734375 16.765625 L -5.265625 16.765625 L -5.265625 4.921875 L -5.515625 4.921875 C -5.753906 4.921875 -5.925781 5.078125 -6.03125 5.390625 C -6.132812 5.710938 -6.1875 6.140625 -6.1875 6.671875 L -6.6875 6.671875 L -6.6875 4.375 L -5.265625 4.375 L -5.265625 0.546875 L -6.40625 0.546875 L -6.40625 0 Z M -1.03125 4.8125 L -0.953125 4.921875 L -3.53125 4.921875 L -3.53125 13.5625 L -3.3125 12.5 Z M -1.03125 4.8125 "/></g></g></g></g></g></g></g></g></g></svg>