<svg xmlns="http://www.w3.org/2000/svg" xmlns:xlink="http://www.w3.org/1999/xlink" width="794" zoomAndPan="magnify" viewBox="0 0 594.95996 842.24997" height="1123" preserveAspectRatio="xMidYMid meet" version="1.0"><defs><g/><clipPath id="4756c42d49"><path d="M 0.246094 0 L 594.675781 0 L 594.675781 841.5 L 0.246094 841.5 Z M 0.246094 0 " clip-rule="nonzero"/></clipPath><clipPath id="265d586d84"><path d="M 6 0 L 589 0 L 589 841.5 L 6 841.5 Z M 6 0 " clip-rule="nonzero"/></clipPath><clipPath id="ca70ead018"><path d="M 0.464844 0 L 582.773438 0 L 582.773438 841.5 L 0.464844 841.5 Z M 0.464844 0 " clip-rule="nonzero"/></clipPath><clipPath id="2686cd27d3"><path d="M 28.1875 0 L 555.046875 0 C 570.359375 0 582.773438 12.414062 582.773438 27.726562 L 582.773438 813.414062 C 582.773438 828.726562 570.359375 841.140625 555.046875 841.140625 L 28.1875 841.140625 C 12.875 841.140625 0.464844 828.726562 0.464844 813.414062 L 0.464844 27.726562 C 0.464844 12.414062 12.875 0 28.1875 0 Z M 28.1875 0 " clip-rule="nonzero"/></clipPath><clipPath id="312c94ddda"><path d="M 0.464844 0 L 582.773438 0 L 582.773438 841.171875 L 0.464844 841.171875 Z M 0.464844 0 " clip-rule="nonzero"/></clipPath><clipPath id="d3c6b1eee1"><path d="M 28.1875 0 L 555.046875 0 C 570.359375 0 582.773438 12.414062 582.773438 27.726562 L 582.773438 813.414062 C 582.773438 828.726562 570.359375 841.140625 555.046875 841.140625 L 28.1875 841.140625 C 12.875 841.140625 0.464844 828.726562 0.464844 813.414062 L 0.464844 27.726562 C 0.464844 12.414062 12.875 0 28.1875 0 Z M 28.1875 0 " clip-rule="nonzero"/></clipPath><clipPath id="7223cc2662"><rect x="0" width="583" y="0" height="842"/></clipPath><clipPath id="69d74b6430"><path d="M 38.503906 36.253906 L 544.730469 36.253906 L 544.730469 805 L 38.503906 805 Z M 38.503906 36.253906 " clip-rule="nonzero"/></clipPath><clipPath id="6ec1c2927f"><path d="M 66.230469 36.253906 L 517.003906 36.253906 C 532.316406 36.253906 544.730469 48.667969 544.730469 63.980469 L 544.730469 777.160156 C 544.730469 792.472656 532.316406 804.886719 517.003906 804.886719 L 66.230469 804.886719 C 50.917969 804.886719 38.503906 792.472656 38.503906 777.160156 L 38.503906 63.980469 C 38.503906 48.667969 50.917969 36.253906 66.230469 36.253906 Z M 66.230469 36.253906 " clip-rule="nonzero"/></clipPath><clipPath id="81413ec3af"><path d="M 0.503906 0.253906 L 506.730469 0.253906 L 506.730469 768.964844 L 0.503906 768.964844 Z M 0.503906 0.253906 " clip-rule="nonzero"/></clipPath><clipPath id="765435a0d2"><path d="M 28.230469 0.253906 L 479.003906 0.253906 C 494.316406 0.253906 506.730469 12.667969 506.730469 27.980469 L 506.730469 741.160156 C 506.730469 756.472656 494.316406 768.886719 479.003906 768.886719 L 28.230469 768.886719 C 12.917969 768.886719 0.503906 756.472656 0.503906 741.160156 L 0.503906 27.980469 C 0.503906 12.667969 12.917969 0.253906 28.230469 0.253906 Z M 28.230469 0.253906 " clip-rule="nonzero"/></clipPath><clipPath id="dedc6114d1"><rect x="0" width="507" y="0" height="769"/></clipPath><clipPath id="93daa097cf"><path d="M 38.503906 36.273438 L 545 36.273438 L 545 804.253906 L 38.503906 804.253906 Z M 38.503906 36.273438 " clip-rule="nonzero"/></clipPath><clipPath id="26dd0eedd1"><path d="M 66.226562 36.273438 L 516.976562 36.273438 C 532.289062 36.273438 544.699219 48.6875 544.699219 63.996094 L 544.699219 777.136719 C 544.699219 792.449219 532.289062 804.863281 516.976562 804.863281 L 66.226562 804.863281 C 50.917969 804.863281 38.503906 792.449219 38.503906 777.136719 L 38.503906 63.996094 C 38.503906 48.6875 50.917969 36.273438 66.226562 36.273438 Z M 66.226562 36.273438 " clip-rule="nonzero"/></clipPath><clipPath id="18cf942568"><path d="M 117.9375 235.648438 L 465 235.648438 L 465 566.402344 L 117.9375 566.402344 Z M 117.9375 235.648438 " clip-rule="nonzero"/></clipPath><clipPath id="e41890cecc"><path d="M 291.449219 235.648438 L 332.410156 361.984375 L 464.960938 361.984375 L 357.722656 440.066406 L 398.683594 566.402344 L 291.449219 488.324219 L 184.214844 566.402344 L 225.171875 440.066406 L 117.9375 361.984375 L 250.488281 361.984375 Z M 291.449219 235.648438 " clip-rule="nonzero"/></clipPath><clipPath id="43c1d9a41e"><path d="M 0.9375 0.648438 L 348 0.648438 L 348 331.402344 L 0.9375 331.402344 Z M 0.9375 0.648438 " clip-rule="nonzero"/></clipPath><clipPath id="9ff59138ea"><path d="M 174.449219 0.648438 L 215.410156 126.984375 L 347.960938 126.984375 L 240.722656 205.066406 L 281.683594 331.402344 L 174.449219 253.324219 L 67.214844 331.402344 L 108.171875 205.066406 L 0.9375 126.984375 L 133.488281 126.984375 Z M 174.449219 0.648438 " clip-rule="nonzero"/></clipPath><clipPath id="2a0f5611be"><rect x="0" width="348" y="0" height="332"/></clipPath><clipPath id="d10d0ed61a"><path d="M 433 610.71875 L 488.265625 610.71875 L 488.265625 663.335938 L 433 663.335938 Z M 433 610.71875 " clip-rule="nonzero"/></clipPath><clipPath id="3d09b7dd85"><path d="M 460.664062 663.335938 L 454.148438 643.238281 L 433.0625 643.238281 L 450.121094 630.816406 L 443.605469 610.71875 L 460.664062 623.140625 L 477.722656 610.71875 L 471.207031 630.816406 L 488.265625 643.238281 L 467.179688 643.238281 Z M 460.664062 663.335938 " clip-rule="nonzero"/></clipPath><clipPath id="232c8c8efc"><path d="M 0.0546875 0.71875 L 55.265625 0.71875 L 55.265625 53.335938 L 0.0546875 53.335938 Z M 0.0546875 0.71875 " clip-rule="nonzero"/></clipPath><clipPath id="2982489327"><path d="M 27.664062 53.335938 L 21.148438 33.238281 L 0.0625 33.238281 L 17.121094 20.816406 L 10.605469 0.71875 L 27.664062 13.140625 L 44.722656 0.71875 L 38.207031 20.816406 L 55.265625 33.238281 L 34.179688 33.238281 Z M 27.664062 53.335938 " clip-rule="nonzero"/></clipPath><clipPath id="727a1b82d3"><rect x="0" width="56" y="0" height="54"/></clipPath><clipPath id="c719edfaf9"><path d="M 90.335938 158.84375 L 145.625 158.84375 L 145.625 211.460938 L 90.335938 211.460938 Z M 90.335938 158.84375 " clip-rule="nonzero"/></clipPath><clipPath id="4bcdc68869"><path d="M 117.9375 158.84375 L 124.453125 178.941406 L 145.539062 178.941406 L 128.480469 191.363281 L 134.996094 211.460938 L 117.9375 199.039062 L 100.878906 211.460938 L 107.394531 191.363281 L 90.335938 178.941406 L 111.421875 178.941406 Z M 117.9375 158.84375 " clip-rule="nonzero"/></clipPath><clipPath id="dabb31ddc9"><path d="M 0.335938 0.84375 L 55.550781 0.84375 L 55.550781 53.460938 L 0.335938 53.460938 Z M 0.335938 0.84375 " clip-rule="nonzero"/></clipPath><clipPath id="f898b46ffb"><path d="M 27.9375 0.84375 L 34.453125 20.941406 L 55.539062 20.941406 L 38.480469 33.363281 L 44.996094 53.460938 L 27.9375 41.039062 L 10.878906 53.460938 L 17.394531 33.363281 L 0.335938 20.941406 L 21.421875 20.941406 Z M 27.9375 0.84375 " clip-rule="nonzero"/></clipPath><clipPath id="df7bfefd13"><rect x="0" width="56" y="0" height="54"/></clipPath><clipPath id="ff740a33e1"><rect x="0" width="11" y="0" height="28"/></clipPath><clipPath id="e52a56eba5"><rect x="0" width="11" y="0" height="28"/></clipPath><clipPath id="1bd8807efd"><rect x="0" width="7" y="0" height="29"/></clipPath><clipPath id="9dbbcac73f"><rect x="0" width="7" y="0" height="29"/></clipPath><clipPath id="b7670f9ce4"><rect x="0" width="583" y="0" height="842"/></clipPath></defs><g clip-path="url(#4756c42d49)"><path fill="#ffffff" d="M 0.246094 0 L 595.214844 0 L 595.214844 841.5 L 0.246094 841.5 Z M 0.246094 0 " fill-opacity="1" fill-rule="nonzero"/><path fill="#ffffff" d="M 0.246094 0 L 595.214844 0 L 595.214844 841.5 L 0.246094 841.5 Z M 0.246094 0 " fill-opacity="1" fill-rule="nonzero"/></g><g clip-path="url(#265d586d84)"><g transform="matrix(1, 0, 0, 1, 6, 0)"><g clip-path="url(#b7670f9ce4)"><g clip-path="url(#ca70ead018)"><g clip-path="url(#2686cd27d3)"><g transform="matrix(1, 0, 0, 1, -0.000000000000001776, 0)"><g clip-path="url(#7223cc2662)"><g clip-path="url(#312c94ddda)"><g clip-path="url(#d3c6b1eee1)"><path fill="#ffffff" d="M 0.464844 0 L 582.773438 0 L 582.773438 841.617188 L 0.464844 841.617188 Z M 0.464844 0 " fill-opacity="1" fill-rule="nonzero"/></g></g></g></g></g></g><g clip-path="url(#69d74b6430)"><g clip-path="url(#6ec1c2927f)"><g transform="matrix(1, 0, 0, 1, 38, 36)"><g clip-path="url(#dedc6114d1)"><g clip-path="url(#81413ec3af)"><g clip-path="url(#765435a0d2)"><path fill="#ffffff" d="M 0.503906 0.253906 L 506.730469 0.253906 L 506.730469 769.480469 L 0.503906 769.480469 Z M 0.503906 0.253906 " fill-opacity="1" fill-rule="nonzero"/></g></g></g></g></g></g><g clip-path="url(#93daa097cf)"><g clip-path="url(#26dd0eedd1)"><path stroke-linecap="butt" transform="matrix(2.509805, 0, 0, 2.509805, 38.504697, 36.273706)" fill="none" stroke-linejoin="miter" d="M 11.045425 -0.000107011 L 190.64103 -0.000107011 C 196.742101 -0.000107011 201.68677 4.946118 201.68677 11.045633 L 201.68677 295.187445 C 201.68677 301.288516 196.742101 306.234741 190.64103 306.234741 L 11.045425 306.234741 C 4.94591 306.234741 -0.000314955 301.288516 -0.000314955 295.187445 L -0.000314955 11.045633 C -0.000314955 4.946118 4.94591 -0.000107011 11.045425 -0.000107011 Z M 11.045425 -0.000107011 " stroke="#6b1510" stroke-width="2.985621" stroke-opacity="1" stroke-miterlimit="4"/></g></g><g clip-path="url(#18cf942568)"><g clip-path="url(#e41890cecc)"><g transform="matrix(1, 0, 0, 1, 117, 235)"><g clip-path="url(#2a0f5611be)"><g clip-path="url(#43c1d9a41e)"><g clip-path="url(#9ff59138ea)"><path fill="#6b1510" d="M 0.9375 0.648438 L 348.488281 0.648438 L 348.488281 331.402344 L 0.9375 331.402344 Z M 0.9375 0.648438 " fill-opacity="1" fill-rule="nonzero"/></g></g></g></g></g></g><g fill="#6b1510" fill-opacity="1"><g transform="translate(98.559309, 145.502137)"><g><path d="M 17.640625 1.1875 C 14.953125 1.1875 12.554688 0.582031 10.453125 -0.625 C 8.347656 -1.832031 6.695312 -3.453125 5.5 -5.484375 C 4.3125 -7.523438 3.71875 -9.785156 3.71875 -12.265625 C 3.71875 -14.484375 4.296875 -16.1875 5.453125 -17.375 C 6.617188 -18.570312 7.898438 -19.171875 9.296875 -19.171875 C 10.617188 -19.171875 11.660156 -18.75 12.421875 -17.90625 C 13.179688 -17.0625 13.5625 -15.796875 13.5625 -14.109375 C 13.5625 -12.878906 13.285156 -11.867188 12.734375 -11.078125 C 12.191406 -10.285156 11.644531 -9.488281 11.09375 -8.6875 C 10.550781 -7.894531 10.28125 -6.90625 10.28125 -5.71875 C 10.28125 -4.59375 10.859375 -3.601562 12.015625 -2.75 C 13.179688 -1.90625 14.578125 -1.484375 16.203125 -1.484375 C 17.453125 -1.484375 18.539062 -1.976562 19.46875 -2.96875 C 20.394531 -3.96875 21.113281 -5.648438 21.625 -8.015625 C 22.144531 -10.390625 22.40625 -13.660156 22.40625 -17.828125 C 22.40625 -21.609375 22.179688 -24.640625 21.734375 -26.921875 C 21.285156 -29.210938 20.679688 -30.9375 19.921875 -32.09375 C 19.160156 -33.25 18.289062 -34.023438 17.3125 -34.421875 C 16.332031 -34.828125 15.316406 -35.03125 14.265625 -35.03125 L 14.265625 -37.75 C 15.316406 -37.75 16.363281 -37.898438 17.40625 -38.203125 C 18.457031 -38.503906 19.40625 -39.179688 20.25 -40.234375 C 21.09375 -41.296875 21.753906 -42.960938 22.234375 -45.234375 C 22.710938 -47.503906 22.953125 -50.625 22.953125 -54.59375 C 22.953125 -58.90625 22.390625 -62.210938 21.265625 -64.515625 C 20.140625 -66.816406 18.515625 -67.96875 16.390625 -67.96875 C 14.765625 -67.96875 13.347656 -67.566406 12.140625 -66.765625 C 10.929688 -65.972656 10.328125 -65.015625 10.328125 -63.890625 C 10.328125 -62.660156 10.609375 -61.648438 11.171875 -60.859375 C 11.734375 -60.066406 12.285156 -59.265625 12.828125 -58.453125 C 13.378906 -57.640625 13.65625 -56.617188 13.65625 -55.390625 C 13.65625 -53.703125 13.273438 -52.4375 12.515625 -51.59375 C 11.753906 -50.75 10.695312 -50.328125 9.34375 -50.328125 C 7.945312 -50.328125 6.675781 -50.929688 5.53125 -52.140625 C 4.394531 -53.347656 3.828125 -55.078125 3.828125 -57.328125 C 3.828125 -59.773438 4.429688 -62 5.640625 -64 C 6.847656 -66.007812 8.535156 -67.617188 10.703125 -68.828125 C 12.867188 -70.035156 15.347656 -70.640625 18.140625 -70.640625 C 20.921875 -70.640625 23.5625 -70.050781 26.0625 -68.875 C 28.5625 -67.707031 30.585938 -65.90625 32.140625 -63.46875 C 33.703125 -61.03125 34.484375 -57.957031 34.484375 -54.25 C 34.484375 -50.9375 33.9375 -48.15625 32.84375 -45.90625 C 31.75 -43.65625 30.375 -41.84375 28.71875 -40.46875 C 27.0625 -39.09375 25.394531 -38.082031 23.71875 -37.4375 C 22.050781 -36.789062 20.632812 -36.429688 19.46875 -36.359375 C 20.632812 -36.191406 22.082031 -35.769531 23.8125 -35.09375 C 25.550781 -34.414062 27.28125 -33.378906 29 -31.984375 C 30.726562 -30.597656 32.171875 -28.769531 33.328125 -26.5 C 34.492188 -24.226562 35.078125 -21.441406 35.078125 -18.140625 C 35.078125 -14.265625 34.363281 -10.875 32.9375 -7.96875 C 31.507812 -5.070312 29.492188 -2.820312 26.890625 -1.21875 C 24.296875 0.382812 21.210938 1.1875 17.640625 1.1875 Z M 17.640625 1.1875 "/></g></g></g><g fill="#6b1510" fill-opacity="1"><g transform="translate(484.325284, 686.965601)"><g><path d="M -17.640625 -1.1875 C -14.953125 -1.1875 -12.554688 -0.582031 -10.453125 0.625 C -8.347656 1.832031 -6.695312 3.453125 -5.5 5.484375 C -4.3125 7.523438 -3.71875 9.785156 -3.71875 12.265625 C -3.71875 14.484375 -4.296875 16.1875 -5.453125 17.375 C -6.617188 18.570312 -7.898438 19.171875 -9.296875 19.171875 C -10.617188 19.171875 -11.660156 18.75 -12.421875 17.90625 C -13.179688 17.0625 -13.5625 15.796875 -13.5625 14.109375 C -13.5625 12.878906 -13.285156 11.867188 -12.734375 11.078125 C -12.191406 10.285156 -11.644531 9.488281 -11.09375 8.6875 C -10.550781 7.894531 -10.28125 6.90625 -10.28125 5.71875 C -10.28125 4.59375 -10.859375 3.601562 -12.015625 2.75 C -13.179688 1.90625 -14.578125 1.484375 -16.203125 1.484375 C -17.453125 1.484375 -18.539062 1.976562 -19.46875 2.96875 C -20.394531 3.96875 -21.113281 5.648438 -21.625 8.015625 C -22.144531 10.390625 -22.40625 13.660156 -22.40625 17.828125 C -22.40625 21.609375 -22.179688 24.640625 -21.734375 26.921875 C -21.285156 29.210938 -20.679688 30.9375 -19.921875 32.09375 C -19.160156 33.25 -18.289062 34.023438 -17.3125 34.421875 C -16.332031 34.828125 -15.316406 35.03125 -14.265625 35.03125 L -14.265625 37.75 C -15.316406 37.75 -16.363281 37.898438 -17.40625 38.203125 C -18.457031 38.503906 -19.40625 39.179688 -20.25 40.234375 C -21.09375 41.296875 -21.753906 42.960938 -22.234375 45.234375 C -22.710938 47.503906 -22.953125 50.625 -22.953125 54.59375 C -22.953125 58.90625 -22.390625 62.210938 -21.265625 64.515625 C -20.140625 66.816406 -18.515625 67.96875 -16.390625 67.96875 C -14.765625 67.96875 -13.347656 67.566406 -12.140625 66.765625 C -10.929688 65.972656 -10.328125 65.015625 -10.328125 63.890625 C -10.328125 62.660156 -10.609375 61.648438 -11.171875 60.859375 C -11.734375 60.066406 -12.285156 59.265625 -12.828125 58.453125 C -13.378906 57.640625 -13.65625 56.617188 -13.65625 55.390625 C -13.65625 53.703125 -13.273438 52.4375 -12.515625 51.59375 C -11.753906 50.75 -10.695312 50.328125 -9.34375 50.328125 C -7.945312 50.328125 -6.675781 50.929688 -5.53125 52.140625 C -4.394531 53.347656 -3.828125 55.078125 -3.828125 57.328125 C -3.828125 59.773438 -4.429688 62 -5.640625 64 C -6.847656 66.007812 -8.535156 67.617188 -10.703125 68.828125 C -12.867188 70.035156 -15.347656 70.640625 -18.140625 70.640625 C -20.921875 70.640625 -23.5625 70.050781 -26.0625 68.875 C -28.5625 67.707031 -30.585938 65.90625 -32.140625 63.46875 C -33.703125 61.03125 -34.484375 57.957031 -34.484375 54.25 C -34.484375 50.9375 -33.9375 48.15625 -32.84375 45.90625 C -31.75 43.65625 -30.375 41.84375 -28.71875 40.46875 C -27.0625 39.09375 -25.394531 38.082031 -23.71875 37.4375 C -22.050781 36.789062 -20.632812 36.429688 -19.46875 36.359375 C -20.632812 36.191406 -22.082031 35.769531 -23.8125 35.09375 C -25.550781 34.414062 -27.28125 33.378906 -29 31.984375 C -30.726562 30.597656 -32.171875 28.769531 -33.328125 26.5 C -34.492188 24.226562 -35.078125 21.441406 -35.078125 18.140625 C -35.078125 14.265625 -34.363281 10.875 -32.9375 7.96875 C -31.507812 5.070312 -29.492188 2.820312 -26.890625 1.21875 C -24.296875 -0.382812 -21.210938 -1.1875 -17.640625 -1.1875 Z M -17.640625 -1.1875 "/></g></g></g><g clip-path="url(#d10d0ed61a)"><g clip-path="url(#3d09b7dd85)"><g transform="matrix(1, 0, 0, 1, 433, 610)"><g clip-path="url(#727a1b82d3)"><g clip-path="url(#232c8c8efc)"><g clip-path="url(#2982489327)"><path fill="#6b1510" d="M 55.265625 53.335938 L -0.0234375 53.335938 L -0.0234375 0.71875 L 55.265625 0.71875 Z M 55.265625 53.335938 " fill-opacity="1" fill-rule="nonzero"/></g></g></g></g></g></g><g clip-path="url(#c719edfaf9)"><g clip-path="url(#4bcdc68869)"><g transform="matrix(1, 0, 0, 1, 90, 158)"><g clip-path="url(#df7bfefd13)"><g clip-path="url(#dabb31ddc9)"><g clip-path="url(#f898b46ffb)"><path fill="#6b1510" d="M 0.335938 0.84375 L 55.625 0.84375 L 55.625 53.460938 L 0.335938 53.460938 Z M 0.335938 0.84375 " fill-opacity="1" fill-rule="nonzero"/></g></g></g></g></g></g><g transform="matrix(1, 0, 0, 1, 113, 170)"><g clip-path="url(#ff740a33e1)"><g fill="#ffffff" fill-opacity="1"><g transform="translate(0.322964, 21.492998)"><g><path d="M 4.46875 0.28125 C 3.8125 0.28125 3.265625 0.0664062 2.828125 -0.359375 C 2.390625 -0.785156 2.035156 -1.378906 1.765625 -2.140625 C 1.503906 -2.898438 1.316406 -3.773438 1.203125 -4.765625 C 1.085938 -5.753906 1.03125 -6.820312 1.03125 -7.96875 C 1.03125 -9 1.097656 -10.023438 1.234375 -11.046875 C 1.378906 -12.078125 1.601562 -13.015625 1.90625 -13.859375 C 2.207031 -14.703125 2.597656 -15.378906 3.078125 -15.890625 C 3.566406 -16.398438 4.15625 -16.65625 4.84375 -16.65625 C 5.300781 -16.65625 5.707031 -16.515625 6.0625 -16.234375 C 6.425781 -15.953125 6.710938 -15.582031 6.921875 -15.125 C 7.128906 -14.664062 7.234375 -14.164062 7.234375 -13.625 C 7.234375 -13.164062 7.160156 -12.84375 7.015625 -12.65625 C 6.867188 -12.476562 6.6875 -12.390625 6.46875 -12.390625 C 6.25 -12.390625 6.066406 -12.476562 5.921875 -12.65625 C 5.785156 -12.832031 5.71875 -13.09375 5.71875 -13.4375 C 5.71875 -13.675781 5.742188 -13.867188 5.796875 -14.015625 C 5.847656 -14.160156 5.894531 -14.300781 5.9375 -14.4375 C 5.988281 -14.582031 6.015625 -14.765625 6.015625 -14.984375 C 6.015625 -15.171875 5.960938 -15.347656 5.859375 -15.515625 C 5.765625 -15.691406 5.625 -15.832031 5.4375 -15.9375 C 5.257812 -16.050781 5.039062 -16.109375 4.78125 -16.109375 C 4.425781 -16.109375 4.128906 -15.957031 3.890625 -15.65625 C 3.660156 -15.363281 3.472656 -14.960938 3.328125 -14.453125 C 3.191406 -13.941406 3.085938 -13.367188 3.015625 -12.734375 C 2.953125 -12.097656 2.90625 -11.4375 2.875 -10.75 C 2.851562 -10.070312 2.84375 -9.410156 2.84375 -8.765625 C 2.875 -8.929688 2.972656 -9.140625 3.140625 -9.390625 C 3.304688 -9.640625 3.539062 -9.863281 3.84375 -10.0625 C 4.144531 -10.257812 4.507812 -10.359375 4.9375 -10.359375 C 5.300781 -10.359375 5.65625 -10.253906 6 -10.046875 C 6.34375 -9.847656 6.65625 -9.539062 6.9375 -9.125 C 7.21875 -8.707031 7.4375 -8.175781 7.59375 -7.53125 C 7.757812 -6.882812 7.84375 -6.113281 7.84375 -5.21875 C 7.84375 -4.375 7.757812 -3.609375 7.59375 -2.921875 C 7.4375 -2.242188 7.203125 -1.664062 6.890625 -1.1875 C 6.585938 -0.71875 6.234375 -0.351562 5.828125 -0.09375 C 5.421875 0.15625 4.96875 0.28125 4.46875 0.28125 Z M 4.453125 -0.25 C 4.773438 -0.25 5.050781 -0.394531 5.28125 -0.6875 C 5.519531 -0.988281 5.695312 -1.5 5.8125 -2.21875 C 5.9375 -2.9375 6 -3.929688 6 -5.203125 C 6 -6.296875 5.953125 -7.164062 5.859375 -7.8125 C 5.773438 -8.46875 5.625 -8.9375 5.40625 -9.21875 C 5.195312 -9.5 4.914062 -9.640625 4.5625 -9.640625 C 4.257812 -9.640625 3.988281 -9.53125 3.75 -9.3125 C 3.507812 -9.09375 3.3125 -8.796875 3.15625 -8.421875 C 3 -8.054688 2.898438 -7.648438 2.859375 -7.203125 C 2.859375 -6.066406 2.882812 -5.0625 2.9375 -4.1875 C 2.988281 -3.320312 3.070312 -2.597656 3.1875 -2.015625 C 3.300781 -1.429688 3.460938 -0.988281 3.671875 -0.6875 C 3.878906 -0.394531 4.140625 -0.25 4.453125 -0.25 Z M 4.453125 -0.25 "/></g></g></g></g></g><g transform="matrix(1, 0, 0, 1, 454, 623)"><g clip-path="url(#e52a56eba5)"><g fill="#ffffff" fill-opacity="1"><g transform="translate(10.861481, 6.210432)"><g><path d="M -4.46875 -0.28125 C -3.8125 -0.28125 -3.265625 -0.0664062 -2.828125 0.359375 C -2.390625 0.785156 -2.035156 1.378906 -1.765625 2.140625 C -1.503906 2.898438 -1.316406 3.773438 -1.203125 4.765625 C -1.085938 5.753906 -1.03125 6.820312 -1.03125 7.96875 C -1.03125 9 -1.097656 10.023438 -1.234375 11.046875 C -1.378906 12.078125 -1.601562 13.015625 -1.90625 13.859375 C -2.207031 14.703125 -2.597656 15.378906 -3.078125 15.890625 C -3.566406 16.398438 -4.15625 16.65625 -4.84375 16.65625 C -5.300781 16.65625 -5.707031 16.515625 -6.0625 16.234375 C -6.425781 15.953125 -6.710938 15.582031 -6.921875 15.125 C -7.128906 14.664062 -7.234375 14.164062 -7.234375 13.625 C -7.234375 13.164062 -7.160156 12.84375 -7.015625 12.65625 C -6.867188 12.476562 -6.6875 12.390625 -6.46875 12.390625 C -6.25 12.390625 -6.066406 12.476562 -5.921875 12.65625 C -5.785156 12.832031 -5.71875 13.09375 -5.71875 13.4375 C -5.71875 13.675781 -5.742188 13.867188 -5.796875 14.015625 C -5.847656 14.160156 -5.894531 14.300781 -5.9375 14.4375 C -5.988281 14.582031 -6.015625 14.765625 -6.015625 14.984375 C -6.015625 15.171875 -5.960938 15.347656 -5.859375 15.515625 C -5.765625 15.691406 -5.625 15.832031 -5.4375 15.9375 C -5.257812 16.050781 -5.039062 16.109375 -4.78125 16.109375 C -4.425781 16.109375 -4.128906 15.957031 -3.890625 15.65625 C -3.660156 15.363281 -3.472656 14.960938 -3.328125 14.453125 C -3.191406 13.941406 -3.085938 13.367188 -3.015625 12.734375 C -2.953125 12.097656 -2.90625 11.4375 -2.875 10.75 C -2.851562 10.070312 -2.84375 9.410156 -2.84375 8.765625 C -2.875 8.929688 -2.972656 9.140625 -3.140625 9.390625 C -3.304688 9.640625 -3.539062 9.863281 -3.84375 10.0625 C -4.144531 10.257812 -4.507812 10.359375 -4.9375 10.359375 C -5.300781 10.359375 -5.65625 10.253906 -6 10.046875 C -6.34375 9.847656 -6.65625 9.539062 -6.9375 9.125 C -7.21875 8.707031 -7.4375 8.175781 -7.59375 7.53125 C -7.757812 6.882812 -7.84375 6.113281 -7.84375 5.21875 C -7.84375 4.375 -7.757812 3.609375 -7.59375 2.921875 C -7.4375 2.242188 -7.203125 1.664062 -6.890625 1.1875 C -6.585938 0.71875 -6.234375 0.351562 -5.828125 0.09375 C -5.421875 -0.15625 -4.96875 -0.28125 -4.46875 -0.28125 Z M -4.453125 0.25 C -4.773438 0.25 -5.050781 0.394531 -5.28125 0.6875 C -5.519531 0.988281 -5.695312 1.5 -5.8125 2.21875 C -5.9375 2.9375 -6 3.929688 -6 5.203125 C -6 6.296875 -5.953125 7.164062 -5.859375 7.8125 C -5.773438 8.46875 -5.625 8.9375 -5.40625 9.21875 C -5.195312 9.5 -4.914062 9.640625 -4.5625 9.640625 C -4.257812 9.640625 -3.988281 9.53125 -3.75 9.3125 C -3.507812 9.09375 -3.3125 8.796875 -3.15625 8.421875 C -3 8.054688 -2.898438 7.648438 -2.859375 7.203125 C -2.859375 6.066406 -2.882812 5.0625 -2.9375 4.1875 C -2.988281 3.320312 -3.070312 2.597656 -3.1875 2.015625 C -3.300781 1.429688 -3.460938 0.988281 -3.671875 0.6875 C -3.878906 0.394531 -4.140625 0.25 -4.453125 0.25 Z M -4.453125 0.25 "/></g></g></g></g></g><g transform="matrix(1, 0, 0, 1, 457, 618)"><g clip-path="url(#1bd8807efd)"><g fill="#ffffff" fill-opacity="1"><g transform="translate(5.299356, 6.692717)"><g><path d="M -1.75 -0.265625 C -1.40625 -0.265625 -1.113281 -0.144531 -0.875 0.09375 C -0.644531 0.332031 -0.53125 0.617188 -0.53125 0.953125 C -0.53125 1.296875 -0.644531 1.582031 -0.875 1.8125 C -1.113281 2.050781 -1.40625 2.171875 -1.75 2.171875 C -2.070312 2.171875 -2.351562 2.050781 -2.59375 1.8125 C -2.84375 1.582031 -2.96875 1.296875 -2.96875 0.953125 C -2.96875 0.617188 -2.84375 0.332031 -2.59375 0.09375 C -2.351562 -0.144531 -2.070312 -0.265625 -1.75 -0.265625 Z M -1.75 -0.265625 "/></g></g></g></g></g><g transform="matrix(1, 0, 0, 1, 114, 187)"><g clip-path="url(#9dbbcac73f)"><g fill="#ffffff" fill-opacity="1"><g transform="translate(5.545147, 6.829805)"><g><path d="M -1.75 -0.265625 C -1.40625 -0.265625 -1.113281 -0.144531 -0.875 0.09375 C -0.644531 0.332031 -0.53125 0.617188 -0.53125 0.953125 C -0.53125 1.296875 -0.644531 1.582031 -0.875 1.8125 C -1.113281 2.050781 -1.40625 2.171875 -1.75 2.171875 C -2.070312 2.171875 -2.351562 2.050781 -2.59375 1.8125 C -2.84375 1.582031 -2.96875 1.296875 -2.96875 0.953125 C -2.96875 0.617188 -2.84375 0.332031 -2.59375 0.09375 C -2.351562 -0.144531 -2.070312 -0.265625 -1.75 -0.265625 Z M -1.75 -0.265625 "/></g></g></g></g></g></g></g></g></svg>