<svg xmlns="http://www.w3.org/2000/svg" xmlns:xlink="http://www.w3.org/1999/xlink" width="794" zoomAndPan="magnify" viewBox="0 0 594.95996 842.24997" height="1123" preserveAspectRatio="xMidYMid meet" version="1.0"><defs><g/><clipPath id="55c96023d7"><path d="M 0.246094 0 L 594.675781 0 L 594.675781 841.5 L 0.246094 841.5 Z M 0.246094 0 " clip-rule="nonzero"/></clipPath><clipPath id="11fd83f3c9"><path d="M 6 0 L 589 0 L 589 841.5 L 6 841.5 Z M 6 0 " clip-rule="nonzero"/></clipPath><clipPath id="35dc107b80"><path d="M 0.464844 0 L 582.773438 0 L 582.773438 841.5 L 0.464844 841.5 Z M 0.464844 0 " clip-rule="nonzero"/></clipPath><clipPath id="ce6c2b2a74"><path d="M 28.1875 0 L 555.046875 0 C 570.359375 0 582.773438 12.414062 582.773438 27.726562 L 582.773438 813.414062 C 582.773438 828.726562 570.359375 841.140625 555.046875 841.140625 L 28.1875 841.140625 C 12.875 841.140625 0.464844 828.726562 0.464844 813.414062 L 0.464844 27.726562 C 0.464844 12.414062 12.875 0 28.1875 0 Z M 28.1875 0 " clip-rule="nonzero"/></clipPath><clipPath id="bcce64dbc1"><path d="M 0.464844 0 L 582.773438 0 L 582.773438 841.171875 L 0.464844 841.171875 Z M 0.464844 0 " clip-rule="nonzero"/></clipPath><clipPath id="848f97a153"><path d="M 28.1875 0 L 555.046875 0 C 570.359375 0 582.773438 12.414062 582.773438 27.726562 L 582.773438 813.414062 C 582.773438 828.726562 570.359375 841.140625 555.046875 841.140625 L 28.1875 841.140625 C 12.875 841.140625 0.464844 828.726562 0.464844 813.414062 L 0.464844 27.726562 C 0.464844 12.414062 12.875 0 28.1875 0 Z M 28.1875 0 " clip-rule="nonzero"/></clipPath><clipPath id="267596b7cc"><rect x="0" width="583" y="0" height="842"/></clipPath><clipPath id="a3530c37d9"><path d="M 38.503906 36.253906 L 544.730469 36.253906 L 544.730469 805 L 38.503906 805 Z M 38.503906 36.253906 " clip-rule="nonzero"/></clipPath><clipPath id="77f2d9a1e7"><path d="M 66.230469 36.253906 L 517.003906 36.253906 C 532.316406 36.253906 544.730469 48.667969 544.730469 63.980469 L 544.730469 777.160156 C 544.730469 792.472656 532.316406 804.886719 517.003906 804.886719 L 66.230469 804.886719 C 50.917969 804.886719 38.503906 792.472656 38.503906 777.160156 L 38.503906 63.980469 C 38.503906 48.667969 50.917969 36.253906 66.230469 36.253906 Z M 66.230469 36.253906 " clip-rule="nonzero"/></clipPath><clipPath id="4738d3ec94"><path d="M 0.503906 0.253906 L 506.730469 0.253906 L 506.730469 768.964844 L 0.503906 768.964844 Z M 0.503906 0.253906 " clip-rule="nonzero"/></clipPath><clipPath id="5f1d59f746"><path d="M 28.230469 0.253906 L 479.003906 0.253906 C 494.316406 0.253906 506.730469 12.667969 506.730469 27.980469 L 506.730469 741.160156 C 506.730469 756.472656 494.316406 768.886719 479.003906 768.886719 L 28.230469 768.886719 C 12.917969 768.886719 0.503906 756.472656 0.503906 741.160156 L 0.503906 27.980469 C 0.503906 12.667969 12.917969 0.253906 28.230469 0.253906 Z M 28.230469 0.253906 " clip-rule="nonzero"/></clipPath><clipPath id="62c2d4a909"><rect x="0" width="507" y="0" height="769"/></clipPath><clipPath id="222572abce"><path d="M 38.503906 36.273438 L 545 36.273438 L 545 804.253906 L 38.503906 804.253906 Z M 38.503906 36.273438 " clip-rule="nonzero"/></clipPath><clipPath id="8ce4eda313"><path d="M 66.226562 36.273438 L 516.976562 36.273438 C 532.289062 36.273438 544.699219 48.6875 544.699219 63.996094 L 544.699219 777.136719 C 544.699219 792.449219 532.289062 804.863281 516.976562 804.863281 L 66.226562 804.863281 C 50.917969 804.863281 38.503906 792.449219 38.503906 777.136719 L 38.503906 63.996094 C 38.503906 48.6875 50.917969 36.273438 66.226562 36.273438 Z M 66.226562 36.273438 " clip-rule="nonzero"/></clipPath><clipPath id="cb2a1710f3"><path d="M 117.9375 235.648438 L 465 235.648438 L 465 566.402344 L 117.9375 566.402344 Z M 117.9375 235.648438 " clip-rule="nonzero"/></clipPath><clipPath id="8b3baf596c"><path d="M 291.449219 235.648438 L 332.410156 361.984375 L 464.960938 361.984375 L 357.722656 440.066406 L 398.683594 566.402344 L 291.449219 488.324219 L 184.214844 566.402344 L 225.171875 440.066406 L 117.9375 361.984375 L 250.488281 361.984375 Z M 291.449219 235.648438 " clip-rule="nonzero"/></clipPath><clipPath id="0ca075df6f"><path d="M 0.9375 0.648438 L 348 0.648438 L 348 331.402344 L 0.9375 331.402344 Z M 0.9375 0.648438 " clip-rule="nonzero"/></clipPath><clipPath id="0704f42d8c"><path d="M 174.449219 0.648438 L 215.410156 126.984375 L 347.960938 126.984375 L 240.722656 205.066406 L 281.683594 331.402344 L 174.449219 253.324219 L 67.214844 331.402344 L 108.171875 205.066406 L 0.9375 126.984375 L 133.488281 126.984375 Z M 174.449219 0.648438 " clip-rule="nonzero"/></clipPath><clipPath id="100f3a9a15"><rect x="0" width="348" y="0" height="332"/></clipPath><clipPath id="1982cada2d"><path d="M 433 610.71875 L 488.265625 610.71875 L 488.265625 663.335938 L 433 663.335938 Z M 433 610.71875 " clip-rule="nonzero"/></clipPath><clipPath id="b9be43a773"><path d="M 460.664062 663.335938 L 454.148438 643.238281 L 433.0625 643.238281 L 450.121094 630.816406 L 443.605469 610.71875 L 460.664062 623.140625 L 477.722656 610.71875 L 471.207031 630.816406 L 488.265625 643.238281 L 467.179688 643.238281 Z M 460.664062 663.335938 " clip-rule="nonzero"/></clipPath><clipPath id="064585e511"><path d="M 0.0546875 0.71875 L 55.265625 0.71875 L 55.265625 53.335938 L 0.0546875 53.335938 Z M 0.0546875 0.71875 " clip-rule="nonzero"/></clipPath><clipPath id="c874711a2c"><path d="M 27.664062 53.335938 L 21.148438 33.238281 L 0.0625 33.238281 L 17.121094 20.816406 L 10.605469 0.71875 L 27.664062 13.140625 L 44.722656 0.71875 L 38.207031 20.816406 L 55.265625 33.238281 L 34.179688 33.238281 Z M 27.664062 53.335938 " clip-rule="nonzero"/></clipPath><clipPath id="51a5b4aaf6"><rect x="0" width="56" y="0" height="54"/></clipPath><clipPath id="dc54403b31"><path d="M 90.335938 158.84375 L 145.625 158.84375 L 145.625 211.460938 L 90.335938 211.460938 Z M 90.335938 158.84375 " clip-rule="nonzero"/></clipPath><clipPath id="66ea94588b"><path d="M 117.9375 158.84375 L 124.453125 178.941406 L 145.539062 178.941406 L 128.480469 191.363281 L 134.996094 211.460938 L 117.9375 199.039062 L 100.878906 211.460938 L 107.394531 191.363281 L 90.335938 178.941406 L 111.421875 178.941406 Z M 117.9375 158.84375 " clip-rule="nonzero"/></clipPath><clipPath id="2a20422f16"><path d="M 0.335938 0.84375 L 55.550781 0.84375 L 55.550781 53.460938 L 0.335938 53.460938 Z M 0.335938 0.84375 " clip-rule="nonzero"/></clipPath><clipPath id="f0c8d58c79"><path d="M 27.9375 0.84375 L 34.453125 20.941406 L 55.539062 20.941406 L 38.480469 33.363281 L 44.996094 53.460938 L 27.9375 41.039062 L 10.878906 53.460938 L 17.394531 33.363281 L 0.335938 20.941406 L 21.421875 20.941406 Z M 27.9375 0.84375 " clip-rule="nonzero"/></clipPath><clipPath id="b456c48720"><rect x="0" width="56" y="0" height="54"/></clipPath><clipPath id="8ce12f2c8a"><rect x="0" width="19" y="0" height="28"/></clipPath><clipPath id="6d2cfd4e85"><rect x="0" width="19" y="0" height="29"/></clipPath><clipPath id="fafdd93e7b"><rect x="0" width="583" y="0" height="842"/></clipPath></defs><g clip-path="url(#55c96023d7)"><path fill="#ffffff" d="M 0.246094 0 L 595.214844 0 L 595.214844 841.5 L 0.246094 841.5 Z M 0.246094 0 " fill-opacity="1" fill-rule="nonzero"/><path fill="#ffffff" d="M 0.246094 0 L 595.214844 0 L 595.214844 841.5 L 0.246094 841.5 Z M 0.246094 0 " fill-opacity="1" fill-rule="nonzero"/></g><g clip-path="url(#11fd83f3c9)"><g transform="matrix(1, 0, 0, 1, 6, 0)"><g clip-path="url(#fafdd93e7b)"><g clip-path="url(#35dc107b80)"><g clip-path="url(#ce6c2b2a74)"><g transform="matrix(1, 0, 0, 1, -0.000000000000001776, 0)"><g clip-path="url(#267596b7cc)"><g clip-path="url(#bcce64dbc1)"><g clip-path="url(#848f97a153)"><path fill="#ffffff" d="M 0.464844 0 L 582.773438 0 L 582.773438 841.617188 L 0.464844 841.617188 Z M 0.464844 0 " fill-opacity="1" fill-rule="nonzero"/></g></g></g></g></g></g><g clip-path="url(#a3530c37d9)"><g clip-path="url(#77f2d9a1e7)"><g transform="matrix(1, 0, 0, 1, 38, 36)"><g clip-path="url(#62c2d4a909)"><g clip-path="url(#4738d3ec94)"><g clip-path="url(#5f1d59f746)"><path fill="#ffffff" d="M 0.503906 0.253906 L 506.730469 0.253906 L 506.730469 769.480469 L 0.503906 769.480469 Z M 0.503906 0.253906 " fill-opacity="1" fill-rule="nonzero"/></g></g></g></g></g></g><g clip-path="url(#222572abce)"><g clip-path="url(#8ce4eda313)"><path stroke-linecap="butt" transform="matrix(2.509805, 0, 0, 2.509805, 38.504697, 36.273706)" fill="none" stroke-linejoin="miter" d="M 11.045425 -0.000107011 L 190.64103 -0.000107011 C 196.742101 -0.000107011 201.68677 4.946118 201.68677 11.045633 L 201.68677 295.187445 C 201.68677 301.288516 196.742101 306.234741 190.64103 306.234741 L 11.045425 306.234741 C 4.94591 306.234741 -0.000314955 301.288516 -0.000314955 295.187445 L -0.000314955 11.045633 C -0.000314955 4.946118 4.94591 -0.000107011 11.045425 -0.000107011 Z M 11.045425 -0.000107011 " stroke="#6b1510" stroke-width="2.985621" stroke-opacity="1" stroke-miterlimit="4"/></g></g><g clip-path="url(#cb2a1710f3)"><g clip-path="url(#8b3baf596c)"><g transform="matrix(1, 0, 0, 1, 117, 235)"><g clip-path="url(#100f3a9a15)"><g clip-path="url(#0ca075df6f)"><g clip-path="url(#0704f42d8c)"><path fill="#6b1510" d="M 0.9375 0.648438 L 348.488281 0.648438 L 348.488281 331.402344 L 0.9375 331.402344 Z M 0.9375 0.648438 " fill-opacity="1" fill-rule="nonzero"/></g></g></g></g></g></g><g fill="#6b1510" fill-opacity="1"><g transform="translate(96.637739, 145.502137)"><g><path d="M 20.515625 1 C 18.796875 1 16.941406 0.691406 14.953125 0.078125 C 12.960938 -0.535156 11.082031 -1.535156 9.3125 -2.921875 C 7.539062 -4.316406 6.097656 -6.164062 4.984375 -8.46875 C 3.878906 -10.769531 3.328125 -13.628906 3.328125 -17.046875 C 3.328125 -20.148438 3.859375 -22.796875 4.921875 -24.984375 C 5.984375 -27.171875 7.257812 -28.957031 8.75 -30.34375 C 10.238281 -31.738281 11.675781 -32.816406 13.0625 -33.578125 C 14.457031 -34.335938 15.484375 -34.851562 16.140625 -35.125 L 18.671875 -33.328125 C 17.679688 -32.703125 16.710938 -31.785156 15.765625 -30.578125 C 14.828125 -29.367188 14.039062 -27.710938 13.40625 -25.609375 C 12.78125 -23.503906 12.46875 -20.832031 12.46875 -17.59375 C 12.46875 -12.382812 13.203125 -8.414062 14.671875 -5.6875 C 16.148438 -2.957031 18.113281 -1.59375 20.5625 -1.59375 C 23.050781 -1.59375 24.972656 -2.59375 26.328125 -4.59375 C 27.679688 -6.59375 28.359375 -9.332031 28.359375 -12.8125 C 28.359375 -15.226562 27.867188 -17.394531 26.890625 -19.3125 C 25.921875 -21.238281 24.570312 -23.085938 22.84375 -24.859375 C 21.125 -26.628906 19.109375 -28.492188 16.796875 -30.453125 C 14.441406 -32.335938 12.378906 -34.445312 10.609375 -36.78125 C 8.835938 -39.125 7.445312 -41.6875 6.4375 -44.46875 C 5.425781 -47.25 4.921875 -50.242188 4.921875 -53.453125 C 4.921875 -57.398438 5.707031 -60.644531 7.28125 -63.1875 C 8.851562 -65.738281 10.863281 -67.632812 13.3125 -68.875 C 15.757812 -70.125 18.328125 -70.75 21.015625 -70.75 C 23.660156 -70.75 26.140625 -70.179688 28.453125 -69.046875 C 30.773438 -67.921875 32.65625 -66.222656 34.09375 -63.953125 C 35.539062 -61.691406 36.265625 -58.804688 36.265625 -55.296875 C 36.265625 -52.578125 35.804688 -50.210938 34.890625 -48.203125 C 33.984375 -46.203125 32.859375 -44.523438 31.515625 -43.171875 C 30.179688 -41.816406 28.859375 -40.734375 27.546875 -39.921875 C 26.234375 -39.109375 25.179688 -38.535156 24.390625 -38.203125 L 22.90625 -39.640625 C 23.632812 -40.035156 24.484375 -40.910156 25.453125 -42.265625 C 26.429688 -43.628906 27.289062 -45.425781 28.03125 -47.65625 C 28.78125 -49.894531 29.15625 -52.507812 29.15625 -55.5 C 29.15625 -57.976562 28.859375 -60.175781 28.265625 -62.09375 C 27.671875 -64.019531 26.785156 -65.535156 25.609375 -66.640625 C 24.429688 -67.753906 22.929688 -68.3125 21.109375 -68.3125 C 19.585938 -68.3125 18.207031 -67.851562 16.96875 -66.9375 C 15.726562 -66.03125 14.742188 -64.75 14.015625 -63.09375 C 13.285156 -61.4375 12.921875 -59.515625 12.921875 -57.328125 C 12.921875 -55.015625 13.503906 -52.765625 14.671875 -50.578125 C 15.847656 -48.390625 17.3125 -46.390625 19.0625 -44.578125 C 20.820312 -42.773438 22.550781 -41.265625 24.25 -40.046875 C 25.769531 -38.984375 27.363281 -37.75 29.03125 -36.34375 C 30.707031 -34.9375 32.265625 -33.351562 33.703125 -31.59375 C 35.148438 -29.84375 36.316406 -27.875 37.203125 -25.6875 C 38.097656 -23.5 38.546875 -21.0625 38.546875 -18.375 C 38.546875 -14.9375 38 -11.988281 36.90625 -9.53125 C 35.8125 -7.082031 34.367188 -5.078125 32.578125 -3.515625 C 30.796875 -1.960938 28.84375 -0.820312 26.71875 -0.09375 C 24.601562 0.632812 22.535156 1 20.515625 1 Z M 20.515625 1 "/></g></g></g><g fill="#6b1510" fill-opacity="1"><g transform="translate(486.246853, 686.965601)"><g><path d="M -20.515625 -1 C -18.796875 -1 -16.941406 -0.691406 -14.953125 -0.078125 C -12.960938 0.535156 -11.082031 1.535156 -9.3125 2.921875 C -7.539062 4.316406 -6.097656 6.164062 -4.984375 8.46875 C -3.878906 10.769531 -3.328125 13.628906 -3.328125 17.046875 C -3.328125 20.148438 -3.859375 22.796875 -4.921875 24.984375 C -5.984375 27.171875 -7.257812 28.957031 -8.75 30.34375 C -10.238281 31.738281 -11.675781 32.816406 -13.0625 33.578125 C -14.457031 34.335938 -15.484375 34.851562 -16.140625 35.125 L -18.671875 33.328125 C -17.679688 32.703125 -16.710938 31.785156 -15.765625 30.578125 C -14.828125 29.367188 -14.039062 27.710938 -13.40625 25.609375 C -12.78125 23.503906 -12.46875 20.832031 -12.46875 17.59375 C -12.46875 12.382812 -13.203125 8.414062 -14.671875 5.6875 C -16.148438 2.957031 -18.113281 1.59375 -20.5625 1.59375 C -23.050781 1.59375 -24.972656 2.59375 -26.328125 4.59375 C -27.679688 6.59375 -28.359375 9.332031 -28.359375 12.8125 C -28.359375 15.226562 -27.867188 17.394531 -26.890625 19.3125 C -25.921875 21.238281 -24.570312 23.085938 -22.84375 24.859375 C -21.125 26.628906 -19.109375 28.492188 -16.796875 30.453125 C -14.441406 32.335938 -12.378906 34.445312 -10.609375 36.78125 C -8.835938 39.125 -7.445312 41.6875 -6.4375 44.46875 C -5.425781 47.25 -4.921875 50.242188 -4.921875 53.453125 C -4.921875 57.398438 -5.707031 60.644531 -7.28125 63.1875 C -8.851562 65.738281 -10.863281 67.632812 -13.3125 68.875 C -15.757812 70.125 -18.328125 70.75 -21.015625 70.75 C -23.660156 70.75 -26.140625 70.179688 -28.453125 69.046875 C -30.773438 67.921875 -32.65625 66.222656 -34.09375 63.953125 C -35.539062 61.691406 -36.265625 58.804688 -36.265625 55.296875 C -36.265625 52.578125 -35.804688 50.210938 -34.890625 48.203125 C -33.984375 46.203125 -32.859375 44.523438 -31.515625 43.171875 C -30.179688 41.816406 -28.859375 40.734375 -27.546875 39.921875 C -26.234375 39.109375 -25.179688 38.535156 -24.390625 38.203125 L -22.90625 39.640625 C -23.632812 40.035156 -24.484375 40.910156 -25.453125 42.265625 C -26.429688 43.628906 -27.289062 45.425781 -28.03125 47.65625 C -28.78125 49.894531 -29.15625 52.507812 -29.15625 55.5 C -29.15625 57.976562 -28.859375 60.175781 -28.265625 62.09375 C -27.671875 64.019531 -26.785156 65.535156 -25.609375 66.640625 C -24.429688 67.753906 -22.929688 68.3125 -21.109375 68.3125 C -19.585938 68.3125 -18.207031 67.851562 -16.96875 66.9375 C -15.726562 66.03125 -14.742188 64.75 -14.015625 63.09375 C -13.285156 61.4375 -12.921875 59.515625 -12.921875 57.328125 C -12.921875 55.015625 -13.503906 52.765625 -14.671875 50.578125 C -15.847656 48.390625 -17.3125 46.390625 -19.0625 44.578125 C -20.820312 42.773438 -22.550781 41.265625 -24.25 40.046875 C -25.769531 38.984375 -27.363281 37.75 -29.03125 36.34375 C -30.707031 34.9375 -32.265625 33.351562 -33.703125 31.59375 C -35.148438 29.84375 -36.316406 27.875 -37.203125 25.6875 C -38.097656 23.5 -38.546875 21.0625 -38.546875 18.375 C -38.546875 14.9375 -38 11.988281 -36.90625 9.53125 C -35.8125 7.082031 -34.367188 5.078125 -32.578125 3.515625 C -30.796875 1.960938 -28.84375 0.820312 -26.71875 0.09375 C -24.601562 -0.632812 -22.535156 -1 -20.515625 -1 Z M -20.515625 -1 "/></g></g></g><g clip-path="url(#1982cada2d)"><g clip-path="url(#b9be43a773)"><g transform="matrix(1, 0, 0, 1, 433, 610)"><g clip-path="url(#51a5b4aaf6)"><g clip-path="url(#064585e511)"><g clip-path="url(#c874711a2c)"><path fill="#6b1510" d="M 55.265625 53.335938 L -0.0234375 53.335938 L -0.0234375 0.71875 L 55.265625 0.71875 Z M 55.265625 53.335938 " fill-opacity="1" fill-rule="nonzero"/></g></g></g></g></g></g><g clip-path="url(#dc54403b31)"><g clip-path="url(#66ea94588b)"><g transform="matrix(1, 0, 0, 1, 90, 158)"><g clip-path="url(#b456c48720)"><g clip-path="url(#2a20422f16)"><g clip-path="url(#f0c8d58c79)"><path fill="#6b1510" d="M 0.335938 0.84375 L 55.625 0.84375 L 55.625 53.460938 L 0.335938 53.460938 Z M 0.335938 0.84375 " fill-opacity="1" fill-rule="nonzero"/></g></g></g></g></g></g><g transform="matrix(1, 0, 0, 1, 110, 176)"><g clip-path="url(#8ce12f2c8a)"><g fill="#ffffff" fill-opacity="1"><g transform="translate(0.488269, 21.690726)"><g><path d="M 1 0 L 1 -0.546875 L 2.140625 -0.546875 L 2.140625 -14.046875 C 2.097656 -13.972656 2.003906 -13.890625 1.859375 -13.796875 C 1.722656 -13.703125 1.566406 -13.617188 1.390625 -13.546875 C 1.222656 -13.472656 1.078125 -13.421875 0.953125 -13.390625 L 0.953125 -14.0625 C 1.203125 -14.144531 1.445312 -14.253906 1.6875 -14.390625 C 1.925781 -14.535156 2.15625 -14.722656 2.375 -14.953125 C 2.601562 -15.191406 2.800781 -15.46875 2.96875 -15.78125 C 3.132812 -16.09375 3.257812 -16.460938 3.34375 -16.890625 L 3.90625 -16.890625 L 3.90625 -0.546875 L 5.078125 -0.546875 L 5.078125 0 Z M 1 0 "/></g></g></g><g fill="#ffffff" fill-opacity="1"><g transform="translate(6.590562, 21.690726)"><g><path d="M 4.46875 0.28125 C 3.8125 0.28125 3.265625 0.0664062 2.828125 -0.359375 C 2.390625 -0.785156 2.035156 -1.378906 1.765625 -2.140625 C 1.503906 -2.898438 1.316406 -3.773438 1.203125 -4.765625 C 1.085938 -5.753906 1.03125 -6.820312 1.03125 -7.96875 C 1.03125 -9 1.097656 -10.023438 1.234375 -11.046875 C 1.378906 -12.078125 1.601562 -13.015625 1.90625 -13.859375 C 2.207031 -14.703125 2.597656 -15.378906 3.078125 -15.890625 C 3.566406 -16.398438 4.15625 -16.65625 4.84375 -16.65625 C 5.300781 -16.65625 5.707031 -16.515625 6.0625 -16.234375 C 6.425781 -15.953125 6.710938 -15.582031 6.921875 -15.125 C 7.128906 -14.664062 7.234375 -14.164062 7.234375 -13.625 C 7.234375 -13.164062 7.160156 -12.84375 7.015625 -12.65625 C 6.867188 -12.476562 6.6875 -12.390625 6.46875 -12.390625 C 6.25 -12.390625 6.066406 -12.476562 5.921875 -12.65625 C 5.785156 -12.832031 5.71875 -13.09375 5.71875 -13.4375 C 5.71875 -13.675781 5.742188 -13.867188 5.796875 -14.015625 C 5.847656 -14.160156 5.894531 -14.300781 5.9375 -14.4375 C 5.988281 -14.582031 6.015625 -14.765625 6.015625 -14.984375 C 6.015625 -15.171875 5.960938 -15.347656 5.859375 -15.515625 C 5.765625 -15.691406 5.625 -15.832031 5.4375 -15.9375 C 5.257812 -16.050781 5.039062 -16.109375 4.78125 -16.109375 C 4.425781 -16.109375 4.128906 -15.957031 3.890625 -15.65625 C 3.660156 -15.363281 3.472656 -14.960938 3.328125 -14.453125 C 3.191406 -13.941406 3.085938 -13.367188 3.015625 -12.734375 C 2.953125 -12.097656 2.90625 -11.4375 2.875 -10.75 C 2.851562 -10.070312 2.84375 -9.410156 2.84375 -8.765625 C 2.875 -8.929688 2.972656 -9.140625 3.140625 -9.390625 C 3.304688 -9.640625 3.539062 -9.863281 3.84375 -10.0625 C 4.144531 -10.257812 4.507812 -10.359375 4.9375 -10.359375 C 5.300781 -10.359375 5.65625 -10.253906 6 -10.046875 C 6.34375 -9.847656 6.65625 -9.539062 6.9375 -9.125 C 7.21875 -8.707031 7.4375 -8.175781 7.59375 -7.53125 C 7.757812 -6.882812 7.84375 -6.113281 7.84375 -5.21875 C 7.84375 -4.375 7.757812 -3.609375 7.59375 -2.921875 C 7.4375 -2.242188 7.203125 -1.664062 6.890625 -1.1875 C 6.585938 -0.71875 6.234375 -0.351562 5.828125 -0.09375 C 5.421875 0.15625 4.96875 0.28125 4.46875 0.28125 Z M 4.453125 -0.25 C 4.773438 -0.25 5.050781 -0.394531 5.28125 -0.6875 C 5.519531 -0.988281 5.695312 -1.5 5.8125 -2.21875 C 5.9375 -2.9375 6 -3.929688 6 -5.203125 C 6 -6.296875 5.953125 -7.164062 5.859375 -7.8125 C 5.773438 -8.46875 5.625 -8.9375 5.40625 -9.21875 C 5.195312 -9.5 4.914062 -9.640625 4.5625 -9.640625 C 4.257812 -9.640625 3.988281 -9.53125 3.75 -9.3125 C 3.507812 -9.09375 3.3125 -8.796875 3.15625 -8.421875 C 3 -8.054688 2.898438 -7.648438 2.859375 -7.203125 C 2.859375 -6.066406 2.882812 -5.0625 2.9375 -4.1875 C 2.988281 -3.320312 3.070312 -2.597656 3.1875 -2.015625 C 3.300781 -1.429688 3.460938 -0.988281 3.671875 -0.6875 C 3.878906 -0.394531 4.140625 -0.25 4.453125 -0.25 Z M 4.453125 -0.25 "/></g></g></g></g></g><g transform="matrix(1, 0, 0, 1, 449, 618)"><g clip-path="url(#6d2cfd4e85)"><g fill="#ffffff" fill-opacity="1"><g transform="translate(18.551907, 6.97477)"><g><path d="M -1 0 L -1 0.546875 L -2.140625 0.546875 L -2.140625 14.046875 C -2.097656 13.972656 -2.003906 13.890625 -1.859375 13.796875 C -1.722656 13.703125 -1.566406 13.617188 -1.390625 13.546875 C -1.222656 13.472656 -1.078125 13.421875 -0.953125 13.390625 L -0.953125 14.0625 C -1.203125 14.144531 -1.445312 14.253906 -1.6875 14.390625 C -1.925781 14.535156 -2.15625 14.722656 -2.375 14.953125 C -2.601562 15.191406 -2.800781 15.46875 -2.96875 15.78125 C -3.132812 16.09375 -3.257812 16.460938 -3.34375 16.890625 L -3.90625 16.890625 L -3.90625 0.546875 L -5.078125 0.546875 L -5.078125 0 Z M -1 0 "/></g></g></g><g fill="#ffffff" fill-opacity="1"><g transform="translate(12.449614, 6.97477)"><g><path d="M -4.46875 -0.28125 C -3.8125 -0.28125 -3.265625 -0.0664062 -2.828125 0.359375 C -2.390625 0.785156 -2.035156 1.378906 -1.765625 2.140625 C -1.503906 2.898438 -1.316406 3.773438 -1.203125 4.765625 C -1.085938 5.753906 -1.03125 6.820312 -1.03125 7.96875 C -1.03125 9 -1.097656 10.023438 -1.234375 11.046875 C -1.378906 12.078125 -1.601562 13.015625 -1.90625 13.859375 C -2.207031 14.703125 -2.597656 15.378906 -3.078125 15.890625 C -3.566406 16.398438 -4.15625 16.65625 -4.84375 16.65625 C -5.300781 16.65625 -5.707031 16.515625 -6.0625 16.234375 C -6.425781 15.953125 -6.710938 15.582031 -6.921875 15.125 C -7.128906 14.664062 -7.234375 14.164062 -7.234375 13.625 C -7.234375 13.164062 -7.160156 12.84375 -7.015625 12.65625 C -6.867188 12.476562 -6.6875 12.390625 -6.46875 12.390625 C -6.25 12.390625 -6.066406 12.476562 -5.921875 12.65625 C -5.785156 12.832031 -5.71875 13.09375 -5.71875 13.4375 C -5.71875 13.675781 -5.742188 13.867188 -5.796875 14.015625 C -5.847656 14.160156 -5.894531 14.300781 -5.9375 14.4375 C -5.988281 14.582031 -6.015625 14.765625 -6.015625 14.984375 C -6.015625 15.171875 -5.960938 15.347656 -5.859375 15.515625 C -5.765625 15.691406 -5.625 15.832031 -5.4375 15.9375 C -5.257812 16.050781 -5.039062 16.109375 -4.78125 16.109375 C -4.425781 16.109375 -4.128906 15.957031 -3.890625 15.65625 C -3.660156 15.363281 -3.472656 14.960938 -3.328125 14.453125 C -3.191406 13.941406 -3.085938 13.367188 -3.015625 12.734375 C -2.953125 12.097656 -2.90625 11.4375 -2.875 10.75 C -2.851562 10.070312 -2.84375 9.410156 -2.84375 8.765625 C -2.875 8.929688 -2.972656 9.140625 -3.140625 9.390625 C -3.304688 9.640625 -3.539062 9.863281 -3.84375 10.0625 C -4.144531 10.257812 -4.507812 10.359375 -4.9375 10.359375 C -5.300781 10.359375 -5.65625 10.253906 -6 10.046875 C -6.34375 9.847656 -6.65625 9.539062 -6.9375 9.125 C -7.21875 8.707031 -7.4375 8.175781 -7.59375 7.53125 C -7.757812 6.882812 -7.84375 6.113281 -7.84375 5.21875 C -7.84375 4.375 -7.757812 3.609375 -7.59375 2.921875 C -7.4375 2.242188 -7.203125 1.664062 -6.890625 1.1875 C -6.585938 0.71875 -6.234375 0.351562 -5.828125 0.09375 C -5.421875 -0.15625 -4.96875 -0.28125 -4.46875 -0.28125 Z M -4.453125 0.25 C -4.773438 0.25 -5.050781 0.394531 -5.28125 0.6875 C -5.519531 0.988281 -5.695312 1.5 -5.8125 2.21875 C -5.9375 2.9375 -6 3.929688 -6 5.203125 C -6 6.296875 -5.953125 7.164062 -5.859375 7.8125 C -5.773438 8.46875 -5.625 8.9375 -5.40625 9.21875 C -5.195312 9.5 -4.914062 9.640625 -4.5625 9.640625 C -4.257812 9.640625 -3.988281 9.53125 -3.75 9.3125 C -3.507812 9.09375 -3.3125 8.796875 -3.15625 8.421875 C -3 8.054688 -2.898438 7.648438 -2.859375 7.203125 C -2.859375 6.066406 -2.882812 5.0625 -2.9375 4.1875 C -2.988281 3.320312 -3.070312 2.597656 -3.1875 2.015625 C -3.300781 1.429688 -3.460938 0.988281 -3.671875 0.6875 C -3.878906 0.394531 -4.140625 0.25 -4.453125 0.25 Z M -4.453125 0.25 "/></g></g></g></g></g></g></g></g></svg>