<svg xmlns="http://www.w3.org/2000/svg" xmlns:xlink="http://www.w3.org/1999/xlink" width="794" zoomAndPan="magnify" viewBox="0 0 594.95996 842.24997" height="1123" preserveAspectRatio="xMidYMid meet" version="1.0"><defs><g/><clipPath id="a0d66e1c52"><path d="M 0.246094 0 L 594.675781 0 L 594.675781 841.5 L 0.246094 841.5 Z M 0.246094 0 " clip-rule="nonzero"/></clipPath><clipPath id="b87c40743b"><path d="M 6 0 L 589 0 L 589 841.5 L 6 841.5 Z M 6 0 " clip-rule="nonzero"/></clipPath><clipPath id="146e7000ad"><path d="M 0.464844 0 L 582.773438 0 L 582.773438 841.5 L 0.464844 841.5 Z M 0.464844 0 " clip-rule="nonzero"/></clipPath><clipPath id="5412b9b5a0"><path d="M 28.1875 0 L 555.046875 0 C 570.359375 0 582.773438 12.414062 582.773438 27.726562 L 582.773438 813.414062 C 582.773438 828.726562 570.359375 841.140625 555.046875 841.140625 L 28.1875 841.140625 C 12.875 841.140625 0.464844 828.726562 0.464844 813.414062 L 0.464844 27.726562 C 0.464844 12.414062 12.875 0 28.1875 0 Z M 28.1875 0 " clip-rule="nonzero"/></clipPath><clipPath id="90bd2cc2d3"><path d="M 0.464844 0 L 582.773438 0 L 582.773438 841.171875 L 0.464844 841.171875 Z M 0.464844 0 " clip-rule="nonzero"/></clipPath><clipPath id="d16e5c1678"><path d="M 28.1875 0 L 555.046875 0 C 570.359375 0 582.773438 12.414062 582.773438 27.726562 L 582.773438 813.414062 C 582.773438 828.726562 570.359375 841.140625 555.046875 841.140625 L 28.1875 841.140625 C 12.875 841.140625 0.464844 828.726562 0.464844 813.414062 L 0.464844 27.726562 C 0.464844 12.414062 12.875 0 28.1875 0 Z M 28.1875 0 " clip-rule="nonzero"/></clipPath><clipPath id="23a9c0c636"><rect x="0" width="583" y="0" height="842"/></clipPath><clipPath id="51b4c9dd7e"><path d="M 38.503906 36.253906 L 544.730469 36.253906 L 544.730469 805 L 38.503906 805 Z M 38.503906 36.253906 " clip-rule="nonzero"/></clipPath><clipPath id="83d77fba1e"><path d="M 66.230469 36.253906 L 517.003906 36.253906 C 532.316406 36.253906 544.730469 48.667969 544.730469 63.980469 L 544.730469 777.160156 C 544.730469 792.472656 532.316406 804.886719 517.003906 804.886719 L 66.230469 804.886719 C 50.917969 804.886719 38.503906 792.472656 38.503906 777.160156 L 38.503906 63.980469 C 38.503906 48.667969 50.917969 36.253906 66.230469 36.253906 Z M 66.230469 36.253906 " clip-rule="nonzero"/></clipPath><clipPath id="244ba9afa7"><path d="M 0.503906 0.253906 L 506.730469 0.253906 L 506.730469 768.964844 L 0.503906 768.964844 Z M 0.503906 0.253906 " clip-rule="nonzero"/></clipPath><clipPath id="d5ea6c8288"><path d="M 28.230469 0.253906 L 479.003906 0.253906 C 494.316406 0.253906 506.730469 12.667969 506.730469 27.980469 L 506.730469 741.160156 C 506.730469 756.472656 494.316406 768.886719 479.003906 768.886719 L 28.230469 768.886719 C 12.917969 768.886719 0.503906 756.472656 0.503906 741.160156 L 0.503906 27.980469 C 0.503906 12.667969 12.917969 0.253906 28.230469 0.253906 Z M 28.230469 0.253906 " clip-rule="nonzero"/></clipPath><clipPath id="5abdfa5b2c"><rect x="0" width="507" y="0" height="769"/></clipPath><clipPath id="537d873534"><path d="M 38.503906 36.273438 L 545 36.273438 L 545 804.253906 L 38.503906 804.253906 Z M 38.503906 36.273438 " clip-rule="nonzero"/></clipPath><clipPath id="a2f9aa0933"><path d="M 66.226562 36.273438 L 516.976562 36.273438 C 532.289062 36.273438 544.699219 48.6875 544.699219 63.996094 L 544.699219 777.136719 C 544.699219 792.449219 532.289062 804.863281 516.976562 804.863281 L 66.226562 804.863281 C 50.917969 804.863281 38.503906 792.449219 38.503906 777.136719 L 38.503906 63.996094 C 38.503906 48.6875 50.917969 36.273438 66.226562 36.273438 Z M 66.226562 36.273438 " clip-rule="nonzero"/></clipPath><clipPath id="02e6331178"><path d="M 117.9375 235.648438 L 465 235.648438 L 465 566.402344 L 117.9375 566.402344 Z M 117.9375 235.648438 " clip-rule="nonzero"/></clipPath><clipPath id="b7a988a0de"><path d="M 291.449219 235.648438 L 332.410156 361.984375 L 464.960938 361.984375 L 357.722656 440.066406 L 398.683594 566.402344 L 291.449219 488.324219 L 184.214844 566.402344 L 225.171875 440.066406 L 117.9375 361.984375 L 250.488281 361.984375 Z M 291.449219 235.648438 " clip-rule="nonzero"/></clipPath><clipPath id="6bce781b4f"><path d="M 0.9375 0.648438 L 348 0.648438 L 348 331.402344 L 0.9375 331.402344 Z M 0.9375 0.648438 " clip-rule="nonzero"/></clipPath><clipPath id="d5df754060"><path d="M 174.449219 0.648438 L 215.410156 126.984375 L 347.960938 126.984375 L 240.722656 205.066406 L 281.683594 331.402344 L 174.449219 253.324219 L 67.214844 331.402344 L 108.171875 205.066406 L 0.9375 126.984375 L 133.488281 126.984375 Z M 174.449219 0.648438 " clip-rule="nonzero"/></clipPath><clipPath id="4f0922fc22"><rect x="0" width="348" y="0" height="332"/></clipPath><clipPath id="26cf505bd8"><path d="M 433 610.71875 L 488.265625 610.71875 L 488.265625 663.335938 L 433 663.335938 Z M 433 610.71875 " clip-rule="nonzero"/></clipPath><clipPath id="e19b1a88a6"><path d="M 460.664062 663.335938 L 454.148438 643.238281 L 433.0625 643.238281 L 450.121094 630.816406 L 443.605469 610.71875 L 460.664062 623.140625 L 477.722656 610.71875 L 471.207031 630.816406 L 488.265625 643.238281 L 467.179688 643.238281 Z M 460.664062 663.335938 " clip-rule="nonzero"/></clipPath><clipPath id="0a85d8fe8c"><path d="M 0.0546875 0.71875 L 55.265625 0.71875 L 55.265625 53.335938 L 0.0546875 53.335938 Z M 0.0546875 0.71875 " clip-rule="nonzero"/></clipPath><clipPath id="86e24af876"><path d="M 27.664062 53.335938 L 21.148438 33.238281 L 0.0625 33.238281 L 17.121094 20.816406 L 10.605469 0.71875 L 27.664062 13.140625 L 44.722656 0.71875 L 38.207031 20.816406 L 55.265625 33.238281 L 34.179688 33.238281 Z M 27.664062 53.335938 " clip-rule="nonzero"/></clipPath><clipPath id="e86d8024a4"><rect x="0" width="56" y="0" height="54"/></clipPath><clipPath id="685bf65b90"><path d="M 90.335938 158.84375 L 145.625 158.84375 L 145.625 211.460938 L 90.335938 211.460938 Z M 90.335938 158.84375 " clip-rule="nonzero"/></clipPath><clipPath id="131e0fba36"><path d="M 117.9375 158.84375 L 124.453125 178.941406 L 145.539062 178.941406 L 128.480469 191.363281 L 134.996094 211.460938 L 117.9375 199.039062 L 100.878906 211.460938 L 107.394531 191.363281 L 90.335938 178.941406 L 111.421875 178.941406 Z M 117.9375 158.84375 " clip-rule="nonzero"/></clipPath><clipPath id="c2f0597835"><path d="M 0.335938 0.84375 L 55.550781 0.84375 L 55.550781 53.460938 L 0.335938 53.460938 Z M 0.335938 0.84375 " clip-rule="nonzero"/></clipPath><clipPath id="b3e023ed1d"><path d="M 27.9375 0.84375 L 34.453125 20.941406 L 55.539062 20.941406 L 38.480469 33.363281 L 44.996094 53.460938 L 27.9375 41.039062 L 10.878906 53.460938 L 17.394531 33.363281 L 0.335938 20.941406 L 21.421875 20.941406 Z M 27.9375 0.84375 " clip-rule="nonzero"/></clipPath><clipPath id="ead4d72440"><rect x="0" width="56" y="0" height="54"/></clipPath><clipPath id="182adf3687"><rect x="0" width="17" y="0" height="28"/></clipPath><clipPath id="52da58cfdb"><rect x="0" width="16" y="0" height="29"/></clipPath><clipPath id="194be78437"><rect x="0" width="583" y="0" height="842"/></clipPath></defs><g clip-path="url(#a0d66e1c52)"><path fill="#ffffff" d="M 0.246094 0 L 595.214844 0 L 595.214844 841.5 L 0.246094 841.5 Z M 0.246094 0 " fill-opacity="1" fill-rule="nonzero"/><path fill="#ffffff" d="M 0.246094 0 L 595.214844 0 L 595.214844 841.5 L 0.246094 841.5 Z M 0.246094 0 " fill-opacity="1" fill-rule="nonzero"/></g><g clip-path="url(#b87c40743b)"><g transform="matrix(1, 0, 0, 1, 6, 0)"><g clip-path="url(#194be78437)"><g clip-path="url(#146e7000ad)"><g clip-path="url(#5412b9b5a0)"><g transform="matrix(1, 0, 0, 1, -0.000000000000001776, 0)"><g clip-path="url(#23a9c0c636)"><g clip-path="url(#90bd2cc2d3)"><g clip-path="url(#d16e5c1678)"><path fill="#ffffff" d="M 0.464844 0 L 582.773438 0 L 582.773438 841.617188 L 0.464844 841.617188 Z M 0.464844 0 " fill-opacity="1" fill-rule="nonzero"/></g></g></g></g></g></g><g clip-path="url(#51b4c9dd7e)"><g clip-path="url(#83d77fba1e)"><g transform="matrix(1, 0, 0, 1, 38, 36)"><g clip-path="url(#5abdfa5b2c)"><g clip-path="url(#244ba9afa7)"><g clip-path="url(#d5ea6c8288)"><path fill="#ffffff" d="M 0.503906 0.253906 L 506.730469 0.253906 L 506.730469 769.480469 L 0.503906 769.480469 Z M 0.503906 0.253906 " fill-opacity="1" fill-rule="nonzero"/></g></g></g></g></g></g><g clip-path="url(#537d873534)"><g clip-path="url(#a2f9aa0933)"><path stroke-linecap="butt" transform="matrix(2.509805, 0, 0, 2.509805, 38.504697, 36.273706)" fill="none" stroke-linejoin="miter" d="M 11.045425 -0.000107011 L 190.64103 -0.000107011 C 196.742101 -0.000107011 201.68677 4.946118 201.68677 11.045633 L 201.68677 295.187445 C 201.68677 301.288516 196.742101 306.234741 190.64103 306.234741 L 11.045425 306.234741 C 4.94591 306.234741 -0.000314955 301.288516 -0.000314955 295.187445 L -0.000314955 11.045633 C -0.000314955 4.946118 4.94591 -0.000107011 11.045425 -0.000107011 Z M 11.045425 -0.000107011 " stroke="#6b1510" stroke-width="2.985621" stroke-opacity="1" stroke-miterlimit="4"/></g></g><g clip-path="url(#02e6331178)"><g clip-path="url(#b7a988a0de)"><g transform="matrix(1, 0, 0, 1, 117, 235)"><g clip-path="url(#4f0922fc22)"><g clip-path="url(#6bce781b4f)"><g clip-path="url(#d5df754060)"><path fill="#6b1510" d="M 0.9375 0.648438 L 348.488281 0.648438 L 348.488281 331.402344 L 0.9375 331.402344 Z M 0.9375 0.648438 " fill-opacity="1" fill-rule="nonzero"/></g></g></g></g></g></g><g fill="#6b1510" fill-opacity="1"><g transform="translate(100.088721, 145.502137)"><g><path d="M 17.046875 1 C 15.785156 1 14.628906 0.675781 13.578125 0.03125 C 12.535156 -0.613281 11.707031 -1.75 11.09375 -3.375 C 10.488281 -5 10.1875 -7.234375 10.1875 -10.078125 C 10.1875 -14.953125 10.847656 -19.53125 12.171875 -23.8125 C 13.492188 -28.101562 15.125 -32.175781 17.0625 -36.03125 C 19 -39.894531 20.941406 -43.585938 22.890625 -47.109375 C 24.847656 -50.640625 26.484375 -54.078125 27.796875 -57.421875 C 29.109375 -60.773438 29.765625 -64.109375 29.765625 -67.421875 C 29.523438 -66.160156 28.972656 -65.015625 28.109375 -63.984375 C 27.253906 -62.960938 26.164062 -62.160156 24.84375 -61.578125 C 23.519531 -60.992188 22.03125 -60.703125 20.375 -60.703125 C 18.675781 -60.703125 17.320312 -60.851562 16.3125 -61.15625 C 15.300781 -61.457031 14.398438 -61.765625 13.609375 -62.078125 C 12.816406 -62.390625 11.941406 -62.546875 10.984375 -62.546875 C 10.085938 -62.546875 9.316406 -62.351562 8.671875 -61.96875 C 8.023438 -61.59375 7.519531 -60.957031 7.15625 -60.0625 C 6.789062 -59.164062 6.554688 -57.925781 6.453125 -56.34375 L 3.921875 -56.34375 L 3.921875 -69.546875 L 32.4375 -69.546875 C 32.4375 -68.191406 32.335938 -66.890625 32.140625 -65.640625 C 31.941406 -64.398438 31.691406 -63.148438 31.390625 -61.890625 C 31.097656 -60.640625 30.753906 -59.332031 30.359375 -57.96875 C 29.960938 -56.613281 29.539062 -55.148438 29.09375 -53.578125 C 28.644531 -52.003906 28.1875 -50.273438 27.71875 -48.390625 C 27.351562 -46.796875 26.992188 -45.128906 26.640625 -43.390625 C 26.296875 -41.648438 25.960938 -39.820312 25.640625 -37.90625 C 25.003906 -34.03125 24.507812 -29.804688 24.15625 -25.234375 C 23.8125 -20.660156 23.640625 -15.609375 23.640625 -10.078125 C 23.640625 -7.234375 23.347656 -5 22.765625 -3.375 C 22.191406 -1.75 21.40625 -0.613281 20.40625 0.03125 C 19.414062 0.675781 18.296875 1 17.046875 1 Z M 17.046875 1 "/></g></g></g><g fill="#6b1510" fill-opacity="1"><g transform="translate(482.795871, 686.965601)"><g><path d="M -17.046875 -1 C -15.785156 -1 -14.628906 -0.675781 -13.578125 -0.03125 C -12.535156 0.613281 -11.707031 1.75 -11.09375 3.375 C -10.488281 5 -10.1875 7.234375 -10.1875 10.078125 C -10.1875 14.953125 -10.847656 19.53125 -12.171875 23.8125 C -13.492188 28.101562 -15.125 32.175781 -17.0625 36.03125 C -19 39.894531 -20.941406 43.585938 -22.890625 47.109375 C -24.847656 50.640625 -26.484375 54.078125 -27.796875 57.421875 C -29.109375 60.773438 -29.765625 64.109375 -29.765625 67.421875 C -29.523438 66.160156 -28.972656 65.015625 -28.109375 63.984375 C -27.253906 62.960938 -26.164062 62.160156 -24.84375 61.578125 C -23.519531 60.992188 -22.03125 60.703125 -20.375 60.703125 C -18.675781 60.703125 -17.320312 60.851562 -16.3125 61.15625 C -15.300781 61.457031 -14.398438 61.765625 -13.609375 62.078125 C -12.816406 62.390625 -11.941406 62.546875 -10.984375 62.546875 C -10.085938 62.546875 -9.316406 62.351562 -8.671875 61.96875 C -8.023438 61.59375 -7.519531 60.957031 -7.15625 60.0625 C -6.789062 59.164062 -6.554688 57.925781 -6.453125 56.34375 L -3.921875 56.34375 L -3.921875 69.546875 L -32.4375 69.546875 C -32.4375 68.191406 -32.335938 66.890625 -32.140625 65.640625 C -31.941406 64.398438 -31.691406 63.148438 -31.390625 61.890625 C -31.097656 60.640625 -30.753906 59.332031 -30.359375 57.96875 C -29.960938 56.613281 -29.539062 55.148438 -29.09375 53.578125 C -28.644531 52.003906 -28.1875 50.273438 -27.71875 48.390625 C -27.351562 46.796875 -26.992188 45.128906 -26.640625 43.390625 C -26.296875 41.648438 -25.960938 39.820312 -25.640625 37.90625 C -25.003906 34.03125 -24.507812 29.804688 -24.15625 25.234375 C -23.8125 20.660156 -23.640625 15.609375 -23.640625 10.078125 C -23.640625 7.234375 -23.347656 5 -22.765625 3.375 C -22.191406 1.75 -21.40625 0.613281 -20.40625 -0.03125 C -19.414062 -0.675781 -18.296875 -1 -17.046875 -1 Z M -17.046875 -1 "/></g></g></g><g clip-path="url(#26cf505bd8)"><g clip-path="url(#e19b1a88a6)"><g transform="matrix(1, 0, 0, 1, 433, 610)"><g clip-path="url(#e86d8024a4)"><g clip-path="url(#0a85d8fe8c)"><g clip-path="url(#86e24af876)"><path fill="#6b1510" d="M 55.265625 53.335938 L -0.0234375 53.335938 L -0.0234375 0.71875 L 55.265625 0.71875 Z M 55.265625 53.335938 " fill-opacity="1" fill-rule="nonzero"/></g></g></g></g></g></g><g clip-path="url(#685bf65b90)"><g clip-path="url(#131e0fba36)"><g transform="matrix(1, 0, 0, 1, 90, 158)"><g clip-path="url(#ead4d72440)"><g clip-path="url(#c2f0597835)"><g clip-path="url(#b3e023ed1d)"><path fill="#6b1510" d="M 0.335938 0.84375 L 55.625 0.84375 L 55.625 53.460938 L 0.335938 53.460938 Z M 0.335938 0.84375 " fill-opacity="1" fill-rule="nonzero"/></g></g></g></g></g></g><g transform="matrix(1, 0, 0, 1, 110, 176)"><g clip-path="url(#182adf3687)"><g fill="#ffffff" fill-opacity="1"><g transform="translate(0.413379, 21.690726)"><g><path d="M 1 0 L 1 -0.546875 L 2.140625 -0.546875 L 2.140625 -14.046875 C 2.097656 -13.972656 2.003906 -13.890625 1.859375 -13.796875 C 1.722656 -13.703125 1.566406 -13.617188 1.390625 -13.546875 C 1.222656 -13.472656 1.078125 -13.421875 0.953125 -13.390625 L 0.953125 -14.0625 C 1.203125 -14.144531 1.445312 -14.253906 1.6875 -14.390625 C 1.925781 -14.535156 2.15625 -14.722656 2.375 -14.953125 C 2.601562 -15.191406 2.800781 -15.46875 2.96875 -15.78125 C 3.132812 -16.09375 3.257812 -16.460938 3.34375 -16.890625 L 3.90625 -16.890625 L 3.90625 -0.546875 L 5.078125 -0.546875 L 5.078125 0 Z M 1 0 "/></g></g></g><g fill="#ffffff" fill-opacity="1"><g transform="translate(6.515672, 21.690726)"><g><path d="M 2.34375 0 L 2.34375 -0.546875 L 3.5 -0.546875 L 3.5 -4.375 L 0.484375 -4.375 L 0.484375 -4.921875 L 3.34375 -14.6875 C 3.632812 -14.976562 3.890625 -15.296875 4.109375 -15.640625 C 4.335938 -15.992188 4.546875 -16.367188 4.734375 -16.765625 L 5.265625 -16.765625 L 5.265625 -4.921875 L 5.515625 -4.921875 C 5.753906 -4.921875 5.925781 -5.078125 6.03125 -5.390625 C 6.132812 -5.710938 6.1875 -6.140625 6.1875 -6.671875 L 6.6875 -6.671875 L 6.6875 -4.375 L 5.265625 -4.375 L 5.265625 -0.546875 L 6.40625 -0.546875 L 6.40625 0 Z M 1.03125 -4.8125 L 0.953125 -4.921875 L 3.53125 -4.921875 L 3.53125 -13.5625 L 3.3125 -12.5 Z M 1.03125 -4.8125 "/></g></g></g></g></g><g transform="matrix(1, 0, 0, 1, 451, 618)"><g clip-path="url(#52da58cfdb)"><g fill="#ffffff" fill-opacity="1"><g transform="translate(15.657801, 6.97477)"><g><path d="M -1 0 L -1 0.546875 L -2.140625 0.546875 L -2.140625 14.046875 C -2.097656 13.972656 -2.003906 13.890625 -1.859375 13.796875 C -1.722656 13.703125 -1.566406 13.617188 -1.390625 13.546875 C -1.222656 13.472656 -1.078125 13.421875 -0.953125 13.390625 L -0.953125 14.0625 C -1.203125 14.144531 -1.445312 14.253906 -1.6875 14.390625 C -1.925781 14.535156 -2.15625 14.722656 -2.375 14.953125 C -2.601562 15.191406 -2.800781 15.46875 -2.96875 15.78125 C -3.132812 16.09375 -3.257812 16.460938 -3.34375 16.890625 L -3.90625 16.890625 L -3.90625 0.546875 L -5.078125 0.546875 L -5.078125 0 Z M -1 0 "/></g></g></g><g fill="#ffffff" fill-opacity="1"><g transform="translate(9.555508, 6.97477)"><g><path d="M -2.34375 0 L -2.34375 0.546875 L -3.5 0.546875 L -3.5 4.375 L -0.484375 4.375 L -0.484375 4.921875 L -3.34375 14.6875 C -3.632812 14.976562 -3.890625 15.296875 -4.109375 15.640625 C -4.335938 15.992188 -4.546875 16.367188 -4.734375 16.765625 L -5.265625 16.765625 L -5.265625 4.921875 L -5.515625 4.921875 C -5.753906 4.921875 -5.925781 5.078125 -6.03125 5.390625 C -6.132812 5.710938 -6.1875 6.140625 -6.1875 6.671875 L -6.6875 6.671875 L -6.6875 4.375 L -5.265625 4.375 L -5.265625 0.546875 L -6.40625 0.546875 L -6.40625 0 Z M -1.03125 4.8125 L -0.953125 4.921875 L -3.53125 4.921875 L -3.53125 13.5625 L -3.3125 12.5 Z M -1.03125 4.8125 "/></g></g></g></g></g></g></g></g></svg>