<svg xmlns="http://www.w3.org/2000/svg" xmlns:xlink="http://www.w3.org/1999/xlink" width="794" zoomAndPan="magnify" viewBox="0 0 594.95996 842.24997" height="1123" preserveAspectRatio="xMidYMid meet" version="1.0"><defs><g/><clipPath id="4254335be3"><path d="M 0.246094 0 L 594.675781 0 L 594.675781 841.5 L 0.246094 841.5 Z M 0.246094 0 " clip-rule="nonzero"/></clipPath><clipPath id="70f17e7d19"><path d="M 6 0 L 589 0 L 589 841.5 L 6 841.5 Z M 6 0 " clip-rule="nonzero"/></clipPath><clipPath id="4aec706b5d"><path d="M 0.464844 0 L 582.773438 0 L 582.773438 841.5 L 0.464844 841.5 Z M 0.464844 0 " clip-rule="nonzero"/></clipPath><clipPath id="8b584120ba"><path d="M 28.1875 0 L 555.046875 0 C 570.359375 0 582.773438 12.414062 582.773438 27.726562 L 582.773438 813.414062 C 582.773438 828.726562 570.359375 841.140625 555.046875 841.140625 L 28.1875 841.140625 C 12.875 841.140625 0.464844 828.726562 0.464844 813.414062 L 0.464844 27.726562 C 0.464844 12.414062 12.875 0 28.1875 0 Z M 28.1875 0 " clip-rule="nonzero"/></clipPath><clipPath id="eeb75de0b4"><path d="M 0.464844 0 L 582.773438 0 L 582.773438 841.171875 L 0.464844 841.171875 Z M 0.464844 0 " clip-rule="nonzero"/></clipPath><clipPath id="123dc08ce5"><path d="M 28.1875 0 L 555.046875 0 C 570.359375 0 582.773438 12.414062 582.773438 27.726562 L 582.773438 813.414062 C 582.773438 828.726562 570.359375 841.140625 555.046875 841.140625 L 28.1875 841.140625 C 12.875 841.140625 0.464844 828.726562 0.464844 813.414062 L 0.464844 27.726562 C 0.464844 12.414062 12.875 0 28.1875 0 Z M 28.1875 0 " clip-rule="nonzero"/></clipPath><clipPath id="20b8a36f86"><rect x="0" width="583" y="0" height="842"/></clipPath><clipPath id="b12ad434d6"><path d="M 38.503906 36.253906 L 544.730469 36.253906 L 544.730469 805 L 38.503906 805 Z M 38.503906 36.253906 " clip-rule="nonzero"/></clipPath><clipPath id="73833fe97f"><path d="M 66.230469 36.253906 L 517.003906 36.253906 C 532.316406 36.253906 544.730469 48.667969 544.730469 63.980469 L 544.730469 777.160156 C 544.730469 792.472656 532.316406 804.886719 517.003906 804.886719 L 66.230469 804.886719 C 50.917969 804.886719 38.503906 792.472656 38.503906 777.160156 L 38.503906 63.980469 C 38.503906 48.667969 50.917969 36.253906 66.230469 36.253906 Z M 66.230469 36.253906 " clip-rule="nonzero"/></clipPath><clipPath id="d22d030a44"><path d="M 0.503906 0.253906 L 506.730469 0.253906 L 506.730469 768.964844 L 0.503906 768.964844 Z M 0.503906 0.253906 " clip-rule="nonzero"/></clipPath><clipPath id="a2df6b0b8d"><path d="M 28.230469 0.253906 L 479.003906 0.253906 C 494.316406 0.253906 506.730469 12.667969 506.730469 27.980469 L 506.730469 741.160156 C 506.730469 756.472656 494.316406 768.886719 479.003906 768.886719 L 28.230469 768.886719 C 12.917969 768.886719 0.503906 756.472656 0.503906 741.160156 L 0.503906 27.980469 C 0.503906 12.667969 12.917969 0.253906 28.230469 0.253906 Z M 28.230469 0.253906 " clip-rule="nonzero"/></clipPath><clipPath id="5813851bab"><rect x="0" width="507" y="0" height="769"/></clipPath><clipPath id="3d8391aa87"><path d="M 38.503906 36.273438 L 545 36.273438 L 545 804.253906 L 38.503906 804.253906 Z M 38.503906 36.273438 " clip-rule="nonzero"/></clipPath><clipPath id="eb2d35bea8"><path d="M 66.226562 36.273438 L 516.976562 36.273438 C 532.289062 36.273438 544.699219 48.6875 544.699219 63.996094 L 544.699219 777.136719 C 544.699219 792.449219 532.289062 804.863281 516.976562 804.863281 L 66.226562 804.863281 C 50.917969 804.863281 38.503906 792.449219 38.503906 777.136719 L 38.503906 63.996094 C 38.503906 48.6875 50.917969 36.273438 66.226562 36.273438 Z M 66.226562 36.273438 " clip-rule="nonzero"/></clipPath><clipPath id="b67ef7417b"><path d="M 117.9375 235.648438 L 465 235.648438 L 465 566.402344 L 117.9375 566.402344 Z M 117.9375 235.648438 " clip-rule="nonzero"/></clipPath><clipPath id="02e66e1af0"><path d="M 291.449219 235.648438 L 332.410156 361.984375 L 464.960938 361.984375 L 357.722656 440.066406 L 398.683594 566.402344 L 291.449219 488.324219 L 184.214844 566.402344 L 225.171875 440.066406 L 117.9375 361.984375 L 250.488281 361.984375 Z M 291.449219 235.648438 " clip-rule="nonzero"/></clipPath><clipPath id="9a8d1efbe3"><path d="M 0.9375 0.648438 L 348 0.648438 L 348 331.402344 L 0.9375 331.402344 Z M 0.9375 0.648438 " clip-rule="nonzero"/></clipPath><clipPath id="499f8d783e"><path d="M 174.449219 0.648438 L 215.410156 126.984375 L 347.960938 126.984375 L 240.722656 205.066406 L 281.683594 331.402344 L 174.449219 253.324219 L 67.214844 331.402344 L 108.171875 205.066406 L 0.9375 126.984375 L 133.488281 126.984375 Z M 174.449219 0.648438 " clip-rule="nonzero"/></clipPath><clipPath id="1805e0e640"><rect x="0" width="348" y="0" height="332"/></clipPath><clipPath id="4dc86796d5"><path d="M 433 610.71875 L 488.265625 610.71875 L 488.265625 663.335938 L 433 663.335938 Z M 433 610.71875 " clip-rule="nonzero"/></clipPath><clipPath id="249e83a39c"><path d="M 460.664062 663.335938 L 454.148438 643.238281 L 433.0625 643.238281 L 450.121094 630.816406 L 443.605469 610.71875 L 460.664062 623.140625 L 477.722656 610.71875 L 471.207031 630.816406 L 488.265625 643.238281 L 467.179688 643.238281 Z M 460.664062 663.335938 " clip-rule="nonzero"/></clipPath><clipPath id="1af360b353"><path d="M 0.0546875 0.71875 L 55.265625 0.71875 L 55.265625 53.335938 L 0.0546875 53.335938 Z M 0.0546875 0.71875 " clip-rule="nonzero"/></clipPath><clipPath id="4c673d4c37"><path d="M 27.664062 53.335938 L 21.148438 33.238281 L 0.0625 33.238281 L 17.121094 20.816406 L 10.605469 0.71875 L 27.664062 13.140625 L 44.722656 0.71875 L 38.207031 20.816406 L 55.265625 33.238281 L 34.179688 33.238281 Z M 27.664062 53.335938 " clip-rule="nonzero"/></clipPath><clipPath id="0938c1f9bb"><rect x="0" width="56" y="0" height="54"/></clipPath><clipPath id="992b0f267a"><path d="M 90.335938 158.84375 L 145.625 158.84375 L 145.625 211.460938 L 90.335938 211.460938 Z M 90.335938 158.84375 " clip-rule="nonzero"/></clipPath><clipPath id="ffccb63cdf"><path d="M 117.9375 158.84375 L 124.453125 178.941406 L 145.539062 178.941406 L 128.480469 191.363281 L 134.996094 211.460938 L 117.9375 199.039062 L 100.878906 211.460938 L 107.394531 191.363281 L 90.335938 178.941406 L 111.421875 178.941406 Z M 117.9375 158.84375 " clip-rule="nonzero"/></clipPath><clipPath id="f66b405f7b"><path d="M 0.335938 0.84375 L 55.550781 0.84375 L 55.550781 53.460938 L 0.335938 53.460938 Z M 0.335938 0.84375 " clip-rule="nonzero"/></clipPath><clipPath id="8577cc9320"><path d="M 27.9375 0.84375 L 34.453125 20.941406 L 55.539062 20.941406 L 38.480469 33.363281 L 44.996094 53.460938 L 27.9375 41.039062 L 10.878906 53.460938 L 17.394531 33.363281 L 0.335938 20.941406 L 21.421875 20.941406 Z M 27.9375 0.84375 " clip-rule="nonzero"/></clipPath><clipPath id="ff88edd135"><rect x="0" width="56" y="0" height="54"/></clipPath><clipPath id="d6695c75d8"><path d="M 0.136719 5 L 8 5 L 8 23 L 0.136719 23 Z M 0.136719 5 " clip-rule="nonzero"/></clipPath><clipPath id="3f8474a2a9"><rect x="0" width="11" y="0" height="29"/></clipPath><clipPath id="6cd93d3a0d"><rect x="0" width="11" y="0" height="28"/></clipPath><clipPath id="578c6f168d"><rect x="0" width="583" y="0" height="842"/></clipPath></defs><g clip-path="url(#4254335be3)"><path fill="#ffffff" d="M 0.246094 0 L 595.214844 0 L 595.214844 841.5 L 0.246094 841.5 Z M 0.246094 0 " fill-opacity="1" fill-rule="nonzero"/><path fill="#ffffff" d="M 0.246094 0 L 595.214844 0 L 595.214844 841.5 L 0.246094 841.5 Z M 0.246094 0 " fill-opacity="1" fill-rule="nonzero"/></g><g clip-path="url(#70f17e7d19)"><g transform="matrix(1, 0, 0, 1, 6, 0)"><g clip-path="url(#578c6f168d)"><g clip-path="url(#4aec706b5d)"><g clip-path="url(#8b584120ba)"><g transform="matrix(1, 0, 0, 1, -0.000000000000001776, 0)"><g clip-path="url(#20b8a36f86)"><g clip-path="url(#eeb75de0b4)"><g clip-path="url(#123dc08ce5)"><path fill="#ffffff" d="M 0.464844 0 L 582.773438 0 L 582.773438 841.617188 L 0.464844 841.617188 Z M 0.464844 0 " fill-opacity="1" fill-rule="nonzero"/></g></g></g></g></g></g><g clip-path="url(#b12ad434d6)"><g clip-path="url(#73833fe97f)"><g transform="matrix(1, 0, 0, 1, 38, 36)"><g clip-path="url(#5813851bab)"><g clip-path="url(#d22d030a44)"><g clip-path="url(#a2df6b0b8d)"><path fill="#ffffff" d="M 0.503906 0.253906 L 506.730469 0.253906 L 506.730469 769.480469 L 0.503906 769.480469 Z M 0.503906 0.253906 " fill-opacity="1" fill-rule="nonzero"/></g></g></g></g></g></g><g clip-path="url(#3d8391aa87)"><g clip-path="url(#eb2d35bea8)"><path stroke-linecap="butt" transform="matrix(2.509805, 0, 0, 2.509805, 38.504697, 36.273706)" fill="none" stroke-linejoin="miter" d="M 11.045425 -0.000107011 L 190.64103 -0.000107011 C 196.742101 -0.000107011 201.68677 4.946118 201.68677 11.045633 L 201.68677 295.187445 C 201.68677 301.288516 196.742101 306.234741 190.64103 306.234741 L 11.045425 306.234741 C 4.94591 306.234741 -0.000314955 301.288516 -0.000314955 295.187445 L -0.000314955 11.045633 C -0.000314955 4.946118 4.94591 -0.000107011 11.045425 -0.000107011 Z M 11.045425 -0.000107011 " stroke="#6b1510" stroke-width="2.985621" stroke-opacity="1" stroke-miterlimit="4"/></g></g><g clip-path="url(#b67ef7417b)"><g clip-path="url(#02e66e1af0)"><g transform="matrix(1, 0, 0, 1, 117, 235)"><g clip-path="url(#1805e0e640)"><g clip-path="url(#9a8d1efbe3)"><g clip-path="url(#499f8d783e)"><path fill="#6b1510" d="M 0.9375 0.648438 L 348.488281 0.648438 L 348.488281 331.402344 L 0.9375 331.402344 Z M 0.9375 0.648438 " fill-opacity="1" fill-rule="nonzero"/></g></g></g></g></g></g><g fill="#6b1510" fill-opacity="1"><g transform="translate(103.225978, 144.926137)"><g><path d="M 4.03125 0 L 4.03125 -2.578125 L 8.640625 -2.578125 L 8.640625 -56.03125 C 8.410156 -55.800781 8.019531 -55.550781 7.46875 -55.28125 C 6.925781 -55.019531 6.347656 -54.789062 5.734375 -54.59375 C 5.117188 -54.394531 4.566406 -54.265625 4.078125 -54.203125 L 4.078125 -57.234375 C 5.203125 -57.492188 6.453125 -57.992188 7.828125 -58.734375 C 9.203125 -59.484375 10.554688 -60.472656 11.890625 -61.703125 C 13.234375 -62.929688 14.453125 -64.375 15.546875 -66.03125 C 16.640625 -67.6875 17.453125 -69.554688 17.984375 -71.640625 L 20.5625 -71.640625 L 20.5625 -2.578125 L 25.34375 -2.578125 L 25.34375 0 Z M 4.03125 0 "/></g></g></g><g fill="#6b1510" fill-opacity="1"><g transform="translate(492.992301, 685.466168)"><g><path d="M -4.03125 0 L -4.03125 2.578125 L -8.640625 2.578125 L -8.640625 56.03125 C -8.410156 55.800781 -8.019531 55.550781 -7.46875 55.28125 C -6.925781 55.019531 -6.347656 54.789062 -5.734375 54.59375 C -5.117188 54.394531 -4.566406 54.265625 -4.078125 54.203125 L -4.078125 57.234375 C -5.203125 57.492188 -6.453125 57.992188 -7.828125 58.734375 C -9.203125 59.484375 -10.554688 60.472656 -11.890625 61.703125 C -13.234375 62.929688 -14.453125 64.375 -15.546875 66.03125 C -16.640625 67.6875 -17.453125 69.554688 -17.984375 71.640625 L -20.5625 71.640625 L -20.5625 2.578125 L -25.34375 2.578125 L -25.34375 0 Z M -4.03125 0 "/></g></g></g><g clip-path="url(#4dc86796d5)"><g clip-path="url(#249e83a39c)"><g transform="matrix(1, 0, 0, 1, 433, 610)"><g clip-path="url(#0938c1f9bb)"><g clip-path="url(#1af360b353)"><g clip-path="url(#4c673d4c37)"><path fill="#6b1510" d="M 55.265625 53.335938 L -0.0234375 53.335938 L -0.0234375 0.71875 L 55.265625 0.71875 Z M 55.265625 53.335938 " fill-opacity="1" fill-rule="nonzero"/></g></g></g></g></g></g><g clip-path="url(#992b0f267a)"><g clip-path="url(#ffccb63cdf)"><g transform="matrix(1, 0, 0, 1, 90, 158)"><g clip-path="url(#ff88edd135)"><g clip-path="url(#f66b405f7b)"><g clip-path="url(#8577cc9320)"><path fill="#6b1510" d="M 0.335938 0.84375 L 55.625 0.84375 L 55.625 53.460938 L 0.335938 53.460938 Z M 0.335938 0.84375 " fill-opacity="1" fill-rule="nonzero"/></g></g></g></g></g></g><g transform="matrix(1, 0, 0, 1, 114, 171)"><g clip-path="url(#3f8474a2a9)"><g clip-path="url(#d6695c75d8)"><g fill="#ffffff" fill-opacity="1"><g transform="translate(0.304092, 21.960021)"><g><path d="M 5.234375 0.125 C 4.941406 0.125 4.671875 0.078125 4.421875 -0.015625 C 4.171875 -0.117188 3.9375 -0.238281 3.71875 -0.375 C 3.5 -0.507812 3.273438 -0.628906 3.046875 -0.734375 C 2.816406 -0.835938 2.578125 -0.890625 2.328125 -0.890625 C 2.003906 -0.890625 1.742188 -0.785156 1.546875 -0.578125 C 1.359375 -0.378906 1.238281 -0.1875 1.1875 0 L 0.6875 0 C 0.6875 -1.238281 0.796875 -2.328125 1.015625 -3.265625 C 1.242188 -4.210938 1.535156 -5.046875 1.890625 -5.765625 C 2.242188 -6.492188 2.617188 -7.15625 3.015625 -7.75 C 3.421875 -8.34375 3.800781 -8.910156 4.15625 -9.453125 C 4.519531 -9.992188 4.8125 -10.546875 5.03125 -11.109375 C 5.25 -11.671875 5.359375 -12.289062 5.359375 -12.96875 C 5.359375 -13.71875 5.285156 -14.320312 5.140625 -14.78125 C 4.992188 -15.238281 4.785156 -15.570312 4.515625 -15.78125 C 4.242188 -16 3.925781 -16.109375 3.5625 -16.109375 C 3.257812 -16.109375 2.988281 -16.039062 2.75 -15.90625 C 2.507812 -15.78125 2.316406 -15.617188 2.171875 -15.421875 C 2.035156 -15.234375 1.96875 -15.039062 1.96875 -14.84375 C 1.96875 -14.6875 2 -14.535156 2.0625 -14.390625 C 2.125 -14.253906 2.1875 -14.109375 2.25 -13.953125 C 2.320312 -13.796875 2.359375 -13.613281 2.359375 -13.40625 C 2.359375 -13.0625 2.285156 -12.816406 2.140625 -12.671875 C 2.003906 -12.523438 1.828125 -12.453125 1.609375 -12.453125 C 1.378906 -12.453125 1.191406 -12.539062 1.046875 -12.71875 C 0.910156 -12.894531 0.84375 -13.195312 0.84375 -13.625 C 0.84375 -14.164062 0.957031 -14.664062 1.1875 -15.125 C 1.414062 -15.582031 1.753906 -15.953125 2.203125 -16.234375 C 2.648438 -16.515625 3.203125 -16.65625 3.859375 -16.65625 C 4.222656 -16.65625 4.59375 -16.597656 4.96875 -16.484375 C 5.351562 -16.367188 5.707031 -16.171875 6.03125 -15.890625 C 6.351562 -15.617188 6.613281 -15.238281 6.8125 -14.75 C 7.007812 -14.269531 7.109375 -13.648438 7.109375 -12.890625 C 7.109375 -12.128906 7.007812 -11.460938 6.8125 -10.890625 C 6.625 -10.328125 6.367188 -9.820312 6.046875 -9.375 C 5.734375 -8.925781 5.382812 -8.5 5 -8.09375 C 4.613281 -7.6875 4.21875 -7.269531 3.8125 -6.84375 C 3.414062 -6.414062 3.039062 -5.941406 2.6875 -5.421875 C 2.34375 -4.910156 2.046875 -4.316406 1.796875 -3.640625 C 1.546875 -2.960938 1.390625 -2.164062 1.328125 -1.25 C 1.378906 -1.425781 1.492188 -1.59375 1.671875 -1.75 C 1.847656 -1.90625 2.0625 -2.023438 2.3125 -2.109375 C 2.570312 -2.203125 2.84375 -2.25 3.125 -2.25 C 3.457031 -2.25 3.769531 -2.191406 4.0625 -2.078125 C 4.351562 -1.960938 4.625 -1.847656 4.875 -1.734375 C 5.132812 -1.617188 5.367188 -1.5625 5.578125 -1.5625 C 5.890625 -1.5625 6.128906 -1.660156 6.296875 -1.859375 C 6.472656 -2.066406 6.5625 -2.421875 6.5625 -2.921875 L 7.078125 -2.921875 L 7.078125 -2.5 C 7.078125 -2.03125 7.015625 -1.59375 6.890625 -1.1875 C 6.765625 -0.789062 6.566406 -0.472656 6.296875 -0.234375 C 6.023438 0.00390625 5.671875 0.125 5.234375 0.125 Z M 5.234375 0.125 "/></g></g></g></g></g></g><g transform="matrix(1, 0, 0, 1, 454, 620)"><g clip-path="url(#6cd93d3a0d)"><g fill="#ffffff" fill-opacity="1"><g transform="translate(10.504992, 6.346166)"><g><path d="M -5.234375 -0.125 C -4.941406 -0.125 -4.671875 -0.078125 -4.421875 0.015625 C -4.171875 0.117188 -3.9375 0.238281 -3.71875 0.375 C -3.5 0.507812 -3.273438 0.628906 -3.046875 0.734375 C -2.816406 0.835938 -2.578125 0.890625 -2.328125 0.890625 C -2.003906 0.890625 -1.742188 0.785156 -1.546875 0.578125 C -1.359375 0.378906 -1.238281 0.1875 -1.1875 0 L -0.6875 0 C -0.6875 1.238281 -0.796875 2.328125 -1.015625 3.265625 C -1.242188 4.210938 -1.535156 5.046875 -1.890625 5.765625 C -2.242188 6.492188 -2.617188 7.15625 -3.015625 7.75 C -3.421875 8.34375 -3.800781 8.910156 -4.15625 9.453125 C -4.519531 9.992188 -4.8125 10.546875 -5.03125 11.109375 C -5.25 11.671875 -5.359375 12.289062 -5.359375 12.96875 C -5.359375 13.71875 -5.285156 14.320312 -5.140625 14.78125 C -4.992188 15.238281 -4.785156 15.570312 -4.515625 15.78125 C -4.242188 16 -3.925781 16.109375 -3.5625 16.109375 C -3.257812 16.109375 -2.988281 16.039062 -2.75 15.90625 C -2.507812 15.78125 -2.316406 15.617188 -2.171875 15.421875 C -2.035156 15.234375 -1.96875 15.039062 -1.96875 14.84375 C -1.96875 14.6875 -2 14.535156 -2.0625 14.390625 C -2.125 14.253906 -2.1875 14.109375 -2.25 13.953125 C -2.320312 13.796875 -2.359375 13.613281 -2.359375 13.40625 C -2.359375 13.0625 -2.285156 12.816406 -2.140625 12.671875 C -2.003906 12.523438 -1.828125 12.453125 -1.609375 12.453125 C -1.378906 12.453125 -1.191406 12.539062 -1.046875 12.71875 C -0.910156 12.894531 -0.84375 13.195312 -0.84375 13.625 C -0.84375 14.164062 -0.957031 14.664062 -1.1875 15.125 C -1.414062 15.582031 -1.753906 15.953125 -2.203125 16.234375 C -2.648438 16.515625 -3.203125 16.65625 -3.859375 16.65625 C -4.222656 16.65625 -4.59375 16.597656 -4.96875 16.484375 C -5.351562 16.367188 -5.707031 16.171875 -6.03125 15.890625 C -6.351562 15.617188 -6.613281 15.238281 -6.8125 14.75 C -7.007812 14.269531 -7.109375 13.648438 -7.109375 12.890625 C -7.109375 12.128906 -7.007812 11.460938 -6.8125 10.890625 C -6.625 10.328125 -6.367188 9.820312 -6.046875 9.375 C -5.734375 8.925781 -5.382812 8.5 -5 8.09375 C -4.613281 7.6875 -4.21875 7.269531 -3.8125 6.84375 C -3.414062 6.414062 -3.039062 5.941406 -2.6875 5.421875 C -2.34375 4.910156 -2.046875 4.316406 -1.796875 3.640625 C -1.546875 2.960938 -1.390625 2.164062 -1.328125 1.25 C -1.378906 1.425781 -1.492188 1.59375 -1.671875 1.75 C -1.847656 1.90625 -2.0625 2.023438 -2.3125 2.109375 C -2.570312 2.203125 -2.84375 2.25 -3.125 2.25 C -3.457031 2.25 -3.769531 2.191406 -4.0625 2.078125 C -4.351562 1.960938 -4.625 1.847656 -4.875 1.734375 C -5.132812 1.617188 -5.367188 1.5625 -5.578125 1.5625 C -5.890625 1.5625 -6.128906 1.660156 -6.296875 1.859375 C -6.472656 2.066406 -6.5625 2.421875 -6.5625 2.921875 L -7.078125 2.921875 L -7.078125 2.5 C -7.078125 2.03125 -7.015625 1.59375 -6.890625 1.1875 C -6.765625 0.789062 -6.566406 0.472656 -6.296875 0.234375 C -6.023438 -0.00390625 -5.671875 -0.125 -5.234375 -0.125 Z M -5.234375 -0.125 "/></g></g></g></g></g></g></g></g></svg>