<svg xmlns="http://www.w3.org/2000/svg" xmlns:xlink="http://www.w3.org/1999/xlink" width="794" zoomAndPan="magnify" viewBox="0 0 594.95996 842.24997" height="1123" preserveAspectRatio="xMidYMid meet" version="1.0"><defs><g/><clipPath id="8300f604fc"><path d="M 0.246094 0 L 594.675781 0 L 594.675781 841.5 L 0.246094 841.5 Z M 0.246094 0 " clip-rule="nonzero"/></clipPath><clipPath id="75e94e06f0"><path d="M 6 0 L 589 0 L 589 841.5 L 6 841.5 Z M 6 0 " clip-rule="nonzero"/></clipPath><clipPath id="c2ffa39fec"><path d="M 267.511719 179.035156 L 315.195312 179.035156 L 315.195312 226.722656 L 267.511719 226.722656 Z M 267.511719 179.035156 " clip-rule="nonzero"/></clipPath><clipPath id="f74b30a350"><path d="M 0.464844 0 L 582.773438 0 L 582.773438 841.5 L 0.464844 841.5 Z M 0.464844 0 " clip-rule="nonzero"/></clipPath><clipPath id="c0cfc9b124"><path d="M 28.1875 0 L 555.046875 0 C 570.359375 0 582.773438 12.414062 582.773438 27.726562 L 582.773438 813.414062 C 582.773438 828.726562 570.359375 841.140625 555.046875 841.140625 L 28.1875 841.140625 C 12.875 841.140625 0.464844 828.726562 0.464844 813.414062 L 0.464844 27.726562 C 0.464844 12.414062 12.875 0 28.1875 0 Z M 28.1875 0 " clip-rule="nonzero"/></clipPath><clipPath id="2035cf9c48"><path d="M 0.464844 0 L 582.773438 0 L 582.773438 841.171875 L 0.464844 841.171875 Z M 0.464844 0 " clip-rule="nonzero"/></clipPath><clipPath id="3ada6da4d6"><path d="M 28.1875 0 L 555.046875 0 C 570.359375 0 582.773438 12.414062 582.773438 27.726562 L 582.773438 813.414062 C 582.773438 828.726562 570.359375 841.140625 555.046875 841.140625 L 28.1875 841.140625 C 12.875 841.140625 0.464844 828.726562 0.464844 813.414062 L 0.464844 27.726562 C 0.464844 12.414062 12.875 0 28.1875 0 Z M 28.1875 0 " clip-rule="nonzero"/></clipPath><clipPath id="fa4b6d3a98"><rect x="0" width="583" y="0" height="842"/></clipPath><clipPath id="f455f6ea80"><path d="M 38.503906 36.253906 L 544.730469 36.253906 L 544.730469 805 L 38.503906 805 Z M 38.503906 36.253906 " clip-rule="nonzero"/></clipPath><clipPath id="d0b84faa9c"><path d="M 66.230469 36.253906 L 517.003906 36.253906 C 532.316406 36.253906 544.730469 48.667969 544.730469 63.980469 L 544.730469 777.160156 C 544.730469 792.472656 532.316406 804.886719 517.003906 804.886719 L 66.230469 804.886719 C 50.917969 804.886719 38.503906 792.472656 38.503906 777.160156 L 38.503906 63.980469 C 38.503906 48.667969 50.917969 36.253906 66.230469 36.253906 Z M 66.230469 36.253906 " clip-rule="nonzero"/></clipPath><clipPath id="3f40e6cda1"><path d="M 0.503906 0.253906 L 506.730469 0.253906 L 506.730469 768.964844 L 0.503906 768.964844 Z M 0.503906 0.253906 " clip-rule="nonzero"/></clipPath><clipPath id="6fe09cd685"><path d="M 28.230469 0.253906 L 479.003906 0.253906 C 494.316406 0.253906 506.730469 12.667969 506.730469 27.980469 L 506.730469 741.160156 C 506.730469 756.472656 494.316406 768.886719 479.003906 768.886719 L 28.230469 768.886719 C 12.917969 768.886719 0.503906 756.472656 0.503906 741.160156 L 0.503906 27.980469 C 0.503906 12.667969 12.917969 0.253906 28.230469 0.253906 Z M 28.230469 0.253906 " clip-rule="nonzero"/></clipPath><clipPath id="632b6f4bf0"><rect x="0" width="507" y="0" height="769"/></clipPath><clipPath id="070da1b548"><path d="M 38.503906 36.273438 L 545 36.273438 L 545 804.253906 L 38.503906 804.253906 Z M 38.503906 36.273438 " clip-rule="nonzero"/></clipPath><clipPath id="a83ecaa068"><path d="M 66.226562 36.273438 L 516.976562 36.273438 C 532.289062 36.273438 544.699219 48.6875 544.699219 63.996094 L 544.699219 777.136719 C 544.699219 792.449219 532.289062 804.863281 516.976562 804.863281 L 66.226562 804.863281 C 50.917969 804.863281 38.503906 792.449219 38.503906 777.136719 L 38.503906 63.996094 C 38.503906 48.6875 50.917969 36.273438 66.226562 36.273438 Z M 66.226562 36.273438 " clip-rule="nonzero"/></clipPath><clipPath id="6763cb99b3"><path d="M 117.9375 235.648438 L 465 235.648438 L 465 566.402344 L 117.9375 566.402344 Z M 117.9375 235.648438 " clip-rule="nonzero"/></clipPath><clipPath id="0bb587be23"><path d="M 291.449219 235.648438 L 332.410156 361.984375 L 464.960938 361.984375 L 357.722656 440.066406 L 398.683594 566.402344 L 291.449219 488.324219 L 184.214844 566.402344 L 225.171875 440.066406 L 117.9375 361.984375 L 250.488281 361.984375 Z M 291.449219 235.648438 " clip-rule="nonzero"/></clipPath><clipPath id="e65170e042"><path d="M 0.9375 0.648438 L 348 0.648438 L 348 331.402344 L 0.9375 331.402344 Z M 0.9375 0.648438 " clip-rule="nonzero"/></clipPath><clipPath id="39e80d14bb"><path d="M 174.449219 0.648438 L 215.410156 126.984375 L 347.960938 126.984375 L 240.722656 205.066406 L 281.683594 331.402344 L 174.449219 253.324219 L 67.214844 331.402344 L 108.171875 205.066406 L 0.9375 126.984375 L 133.488281 126.984375 Z M 174.449219 0.648438 " clip-rule="nonzero"/></clipPath><clipPath id="19c365b9b9"><rect x="0" width="348" y="0" height="332"/></clipPath><clipPath id="327587635b"><path d="M 433 610.71875 L 488.265625 610.71875 L 488.265625 663.335938 L 433 663.335938 Z M 433 610.71875 " clip-rule="nonzero"/></clipPath><clipPath id="a418ca3853"><path d="M 460.664062 663.335938 L 454.148438 643.238281 L 433.0625 643.238281 L 450.121094 630.816406 L 443.605469 610.71875 L 460.664062 623.140625 L 477.722656 610.71875 L 471.207031 630.816406 L 488.265625 643.238281 L 467.179688 643.238281 Z M 460.664062 663.335938 " clip-rule="nonzero"/></clipPath><clipPath id="af155b74e9"><path d="M 0.0546875 0.71875 L 55.265625 0.71875 L 55.265625 53.335938 L 0.0546875 53.335938 Z M 0.0546875 0.71875 " clip-rule="nonzero"/></clipPath><clipPath id="efc54e4933"><path d="M 27.664062 53.335938 L 21.148438 33.238281 L 0.0625 33.238281 L 17.121094 20.816406 L 10.605469 0.71875 L 27.664062 13.140625 L 44.722656 0.71875 L 38.207031 20.816406 L 55.265625 33.238281 L 34.179688 33.238281 Z M 27.664062 53.335938 " clip-rule="nonzero"/></clipPath><clipPath id="0b8d60fd23"><rect x="0" width="56" y="0" height="54"/></clipPath><clipPath id="e79cd7ad06"><path d="M 90.335938 158.84375 L 145.625 158.84375 L 145.625 211.460938 L 90.335938 211.460938 Z M 90.335938 158.84375 " clip-rule="nonzero"/></clipPath><clipPath id="cbd367504e"><path d="M 117.9375 158.84375 L 124.453125 178.941406 L 145.539062 178.941406 L 128.480469 191.363281 L 134.996094 211.460938 L 117.9375 199.039062 L 100.878906 211.460938 L 107.394531 191.363281 L 90.335938 178.941406 L 111.421875 178.941406 Z M 117.9375 158.84375 " clip-rule="nonzero"/></clipPath><clipPath id="f5ee7b3810"><path d="M 0.335938 0.84375 L 55.550781 0.84375 L 55.550781 53.460938 L 0.335938 53.460938 Z M 0.335938 0.84375 " clip-rule="nonzero"/></clipPath><clipPath id="46d501b7cc"><path d="M 27.9375 0.84375 L 34.453125 20.941406 L 55.539062 20.941406 L 38.480469 33.363281 L 44.996094 53.460938 L 27.9375 41.039062 L 10.878906 53.460938 L 17.394531 33.363281 L 0.335938 20.941406 L 21.421875 20.941406 Z M 27.9375 0.84375 " clip-rule="nonzero"/></clipPath><clipPath id="a99edc260a"><rect x="0" width="56" y="0" height="54"/></clipPath><clipPath id="b9f7cf2679"><rect x="0" width="18" y="0" height="29"/></clipPath><clipPath id="c6471c3083"><rect x="0" width="19" y="0" height="28"/></clipPath><clipPath id="31bc5b25ef"><rect x="0" width="583" y="0" height="842"/></clipPath></defs><g clip-path="url(#8300f604fc)"><path fill="#ffffff" d="M 0.246094 0 L 595.214844 0 L 595.214844 841.5 L 0.246094 841.5 Z M 0.246094 0 " fill-opacity="1" fill-rule="nonzero"/><path fill="#ffffff" d="M 0.246094 0 L 595.214844 0 L 595.214844 841.5 L 0.246094 841.5 Z M 0.246094 0 " fill-opacity="1" fill-rule="nonzero"/></g><g clip-path="url(#75e94e06f0)"><g transform="matrix(1, 0, 0, 1, 6, 0)"><g clip-path="url(#31bc5b25ef)"><g clip-path="url(#c2ffa39fec)"><path fill="#ffffff" d="M 283.765625 206.382812 L 274.566406 220.171875 L 288.359375 210.984375 L 291.613281 227.230469 L 294.859375 210.980469 L 308.648438 220.171875 L 299.457031 206.382812 L 315.707031 203.132812 L 299.457031 199.882812 L 308.648438 186.09375 L 294.859375 195.289062 L 291.613281 179.035156 L 288.359375 195.289062 L 274.566406 186.09375 L 283.765625 199.882812 L 267.511719 203.132812 Z M 283.765625 206.382812 " fill-opacity="1" fill-rule="nonzero"/></g><g clip-path="url(#f74b30a350)"><g clip-path="url(#c0cfc9b124)"><g transform="matrix(1, 0, 0, 1, -0.000000000000001776, 0)"><g clip-path="url(#fa4b6d3a98)"><g clip-path="url(#2035cf9c48)"><g clip-path="url(#3ada6da4d6)"><path fill="#ffffff" d="M 0.464844 0 L 582.773438 0 L 582.773438 841.617188 L 0.464844 841.617188 Z M 0.464844 0 " fill-opacity="1" fill-rule="nonzero"/></g></g></g></g></g></g><g clip-path="url(#f455f6ea80)"><g clip-path="url(#d0b84faa9c)"><g transform="matrix(1, 0, 0, 1, 38, 36)"><g clip-path="url(#632b6f4bf0)"><g clip-path="url(#3f40e6cda1)"><g clip-path="url(#6fe09cd685)"><path fill="#ffffff" d="M 0.503906 0.253906 L 506.730469 0.253906 L 506.730469 769.480469 L 0.503906 769.480469 Z M 0.503906 0.253906 " fill-opacity="1" fill-rule="nonzero"/></g></g></g></g></g></g><g clip-path="url(#070da1b548)"><g clip-path="url(#a83ecaa068)"><path stroke-linecap="butt" transform="matrix(2.509805, 0, 0, 2.509805, 38.504697, 36.273706)" fill="none" stroke-linejoin="miter" d="M 11.045425 -0.000107011 L 190.64103 -0.000107011 C 196.742101 -0.000107011 201.68677 4.946118 201.68677 11.045633 L 201.68677 295.187445 C 201.68677 301.288516 196.742101 306.234741 190.64103 306.234741 L 11.045425 306.234741 C 4.94591 306.234741 -0.000314955 301.288516 -0.000314955 295.187445 L -0.000314955 11.045633 C -0.000314955 4.946118 4.94591 -0.000107011 11.045425 -0.000107011 Z M 11.045425 -0.000107011 " stroke="#6b1510" stroke-width="2.985621" stroke-opacity="1" stroke-miterlimit="4"/></g></g><g clip-path="url(#6763cb99b3)"><g clip-path="url(#0bb587be23)"><g transform="matrix(1, 0, 0, 1, 117, 235)"><g clip-path="url(#19c365b9b9)"><g clip-path="url(#e65170e042)"><g clip-path="url(#39e80d14bb)"><path fill="#6b1510" d="M 0.9375 0.648438 L 348.488281 0.648438 L 348.488281 331.402344 L 0.9375 331.402344 Z M 0.9375 0.648438 " fill-opacity="1" fill-rule="nonzero"/></g></g></g></g></g></g><g fill="#6b1510" fill-opacity="1"><g transform="translate(97.461269, 145.502137)"><g><path d="M 17.640625 1.1875 C 14.953125 1.1875 12.640625 0.582031 10.703125 -0.625 C 8.765625 -1.832031 7.28125 -3.453125 6.25 -5.484375 C 5.226562 -7.523438 4.71875 -9.785156 4.71875 -12.265625 C 4.71875 -14.554688 5.226562 -16.28125 6.25 -17.4375 C 7.28125 -18.59375 8.476562 -19.171875 9.84375 -19.171875 C 11.195312 -19.171875 12.296875 -18.710938 13.140625 -17.796875 C 13.984375 -16.890625 14.40625 -15.492188 14.40625 -13.609375 C 14.40625 -12.484375 14.125 -11.515625 13.5625 -10.703125 C 13 -9.890625 12.425781 -9.109375 11.84375 -8.359375 C 11.269531 -7.617188 10.984375 -6.753906 10.984375 -5.765625 C 10.984375 -5.035156 11.164062 -4.332031 11.53125 -3.65625 C 11.894531 -2.976562 12.472656 -2.429688 13.265625 -2.015625 C 14.054688 -1.597656 15.097656 -1.390625 16.390625 -1.390625 C 18.242188 -1.390625 19.660156 -2.242188 20.640625 -3.953125 C 21.617188 -5.660156 22.28125 -8.007812 22.625 -11 C 22.976562 -14 23.15625 -17.40625 23.15625 -21.21875 C 23.15625 -25.414062 23.003906 -28.804688 22.703125 -31.390625 C 22.398438 -33.972656 21.972656 -35.953125 21.421875 -37.328125 C 20.878906 -38.703125 20.242188 -39.640625 19.515625 -40.140625 C 18.796875 -40.640625 18.003906 -40.890625 17.140625 -40.890625 C 15.710938 -40.890625 14.484375 -40.523438 13.453125 -39.796875 C 12.429688 -39.066406 11.570312 -38.117188 10.875 -36.953125 C 10.1875 -35.796875 9.609375 -34.570312 9.140625 -33.28125 L 6.515625 -33.6875 L 10.03125 -69.546875 L 12.421875 -69.546875 C 12.648438 -68.890625 13.394531 -68.257812 14.65625 -67.65625 C 15.914062 -67.0625 17.363281 -66.570312 19 -66.1875 C 20.644531 -65.8125 22.175781 -65.625 23.59375 -65.625 C 26.144531 -65.625 28.234375 -66.035156 29.859375 -66.859375 C 31.484375 -67.691406 32.3125 -68.585938 32.34375 -69.546875 L 34.375 -69.546875 C 34.375 -67.523438 34 -65.492188 33.25 -63.453125 C 32.507812 -61.421875 31.351562 -59.734375 29.78125 -58.390625 C 28.207031 -57.054688 26.179688 -56.390625 23.703125 -56.390625 C 21.847656 -56.390625 20.210938 -56.726562 18.796875 -57.40625 C 17.390625 -58.082031 16.222656 -58.898438 15.296875 -59.859375 C 14.367188 -60.828125 13.65625 -61.753906 13.15625 -62.640625 C 12.664062 -63.535156 12.367188 -64.203125 12.265625 -64.640625 L 9.734375 -38.109375 C 10.097656 -39.035156 10.6875 -39.9375 11.5 -40.8125 C 12.3125 -41.6875 13.394531 -42.421875 14.75 -43.015625 C 16.113281 -43.617188 17.722656 -43.921875 19.578125 -43.921875 C 21.359375 -43.921875 23.175781 -43.546875 25.03125 -42.796875 C 26.894531 -42.054688 28.613281 -40.832031 30.1875 -39.125 C 31.757812 -37.414062 33.023438 -35.128906 33.984375 -32.265625 C 34.941406 -29.398438 35.421875 -25.832031 35.421875 -21.5625 C 35.421875 -16.851562 34.875 -13.007812 33.78125 -10.03125 C 32.6875 -7.050781 31.242188 -4.75 29.453125 -3.125 C 27.671875 -1.507812 25.742188 -0.390625 23.671875 0.234375 C 21.597656 0.867188 19.585938 1.1875 17.640625 1.1875 Z M 17.640625 1.1875 "/></g></g></g><g fill="#6b1510" fill-opacity="1"><g transform="translate(485.423324, 686.965601)"><g><path d="M -17.640625 -1.1875 C -14.953125 -1.1875 -12.640625 -0.582031 -10.703125 0.625 C -8.765625 1.832031 -7.28125 3.453125 -6.25 5.484375 C -5.226562 7.523438 -4.71875 9.785156 -4.71875 12.265625 C -4.71875 14.554688 -5.226562 16.28125 -6.25 17.4375 C -7.28125 18.59375 -8.476562 19.171875 -9.84375 19.171875 C -11.195312 19.171875 -12.296875 18.710938 -13.140625 17.796875 C -13.984375 16.890625 -14.40625 15.492188 -14.40625 13.609375 C -14.40625 12.484375 -14.125 11.515625 -13.5625 10.703125 C -13 9.890625 -12.425781 9.109375 -11.84375 8.359375 C -11.269531 7.617188 -10.984375 6.753906 -10.984375 5.765625 C -10.984375 5.035156 -11.164062 4.332031 -11.53125 3.65625 C -11.894531 2.976562 -12.472656 2.429688 -13.265625 2.015625 C -14.054688 1.597656 -15.097656 1.390625 -16.390625 1.390625 C -18.242188 1.390625 -19.660156 2.242188 -20.640625 3.953125 C -21.617188 5.660156 -22.28125 8.007812 -22.625 11 C -22.976562 14 -23.15625 17.40625 -23.15625 21.21875 C -23.15625 25.414062 -23.003906 28.804688 -22.703125 31.390625 C -22.398438 33.972656 -21.972656 35.953125 -21.421875 37.328125 C -20.878906 38.703125 -20.242188 39.640625 -19.515625 40.140625 C -18.796875 40.640625 -18.003906 40.890625 -17.140625 40.890625 C -15.710938 40.890625 -14.484375 40.523438 -13.453125 39.796875 C -12.429688 39.066406 -11.570312 38.117188 -10.875 36.953125 C -10.1875 35.796875 -9.609375 34.570312 -9.140625 33.28125 L -6.515625 33.6875 L -10.03125 69.546875 L -12.421875 69.546875 C -12.648438 68.890625 -13.394531 68.257812 -14.65625 67.65625 C -15.914062 67.0625 -17.363281 66.570312 -19 66.1875 C -20.644531 65.8125 -22.175781 65.625 -23.59375 65.625 C -26.144531 65.625 -28.234375 66.035156 -29.859375 66.859375 C -31.484375 67.691406 -32.3125 68.585938 -32.34375 69.546875 L -34.375 69.546875 C -34.375 67.523438 -34 65.492188 -33.25 63.453125 C -32.507812 61.421875 -31.351562 59.734375 -29.78125 58.390625 C -28.207031 57.054688 -26.179688 56.390625 -23.703125 56.390625 C -21.847656 56.390625 -20.210938 56.726562 -18.796875 57.40625 C -17.390625 58.082031 -16.222656 58.898438 -15.296875 59.859375 C -14.367188 60.828125 -13.65625 61.753906 -13.15625 62.640625 C -12.664062 63.535156 -12.367188 64.203125 -12.265625 64.640625 L -9.734375 38.109375 C -10.097656 39.035156 -10.6875 39.9375 -11.5 40.8125 C -12.3125 41.6875 -13.394531 42.421875 -14.75 43.015625 C -16.113281 43.617188 -17.722656 43.921875 -19.578125 43.921875 C -21.359375 43.921875 -23.175781 43.546875 -25.03125 42.796875 C -26.894531 42.054688 -28.613281 40.832031 -30.1875 39.125 C -31.757812 37.414062 -33.023438 35.128906 -33.984375 32.265625 C -34.941406 29.398438 -35.421875 25.832031 -35.421875 21.5625 C -35.421875 16.851562 -34.875 13.007812 -33.78125 10.03125 C -32.6875 7.050781 -31.242188 4.75 -29.453125 3.125 C -27.671875 1.507812 -25.742188 0.390625 -23.671875 -0.234375 C -21.597656 -0.867188 -19.585938 -1.1875 -17.640625 -1.1875 Z M -17.640625 -1.1875 "/></g></g></g><g clip-path="url(#327587635b)"><g clip-path="url(#a418ca3853)"><g transform="matrix(1, 0, 0, 1, 433, 610)"><g clip-path="url(#0b8d60fd23)"><g clip-path="url(#af155b74e9)"><g clip-path="url(#efc54e4933)"><path fill="#6b1510" d="M 55.265625 53.335938 L -0.0234375 53.335938 L -0.0234375 0.71875 L 55.265625 0.71875 Z M 55.265625 53.335938 " fill-opacity="1" fill-rule="nonzero"/></g></g></g></g></g></g><g clip-path="url(#e79cd7ad06)"><g clip-path="url(#cbd367504e)"><g transform="matrix(1, 0, 0, 1, 90, 158)"><g clip-path="url(#a99edc260a)"><g clip-path="url(#f5ee7b3810)"><g clip-path="url(#46d501b7cc)"><path fill="#6b1510" d="M 0.335938 0.84375 L 55.625 0.84375 L 55.625 53.460938 L 0.335938 53.460938 Z M 0.335938 0.84375 " fill-opacity="1" fill-rule="nonzero"/></g></g></g></g></g></g><g transform="matrix(1, 0, 0, 1, 110, 172)"><g clip-path="url(#b9f7cf2679)"><g fill="#ffffff" fill-opacity="1"><g transform="translate(0.236635, 22.427016)"><g><path d="M 1 0 L 1 -0.546875 L 2.140625 -0.546875 L 2.140625 -14.046875 C 2.097656 -13.972656 2.003906 -13.890625 1.859375 -13.796875 C 1.722656 -13.703125 1.566406 -13.617188 1.390625 -13.546875 C 1.222656 -13.472656 1.078125 -13.421875 0.953125 -13.390625 L 0.953125 -14.0625 C 1.203125 -14.144531 1.445312 -14.253906 1.6875 -14.390625 C 1.925781 -14.535156 2.15625 -14.722656 2.375 -14.953125 C 2.601562 -15.191406 2.800781 -15.46875 2.96875 -15.78125 C 3.132812 -16.09375 3.257812 -16.460938 3.34375 -16.890625 L 3.90625 -16.890625 L 3.90625 -0.546875 L 5.078125 -0.546875 L 5.078125 0 Z M 1 0 "/></g></g></g><g fill="#ffffff" fill-opacity="1"><g transform="translate(6.338928, 22.427016)"><g><path d="M 4.65625 0.265625 C 4.050781 0.265625 3.484375 -0.03125 2.953125 -0.625 C 2.429688 -1.226562 2.015625 -2.148438 1.703125 -3.390625 C 1.390625 -4.640625 1.234375 -6.234375 1.234375 -8.171875 C 1.234375 -10.117188 1.390625 -11.71875 1.703125 -12.96875 C 2.015625 -14.21875 2.429688 -15.144531 2.953125 -15.75 C 3.472656 -16.351562 4.039062 -16.65625 4.65625 -16.65625 C 5.25 -16.65625 5.804688 -16.351562 6.328125 -15.75 C 6.847656 -15.144531 7.265625 -14.21875 7.578125 -12.96875 C 7.898438 -11.71875 8.0625 -10.117188 8.0625 -8.171875 C 8.0625 -6.234375 7.898438 -4.640625 7.578125 -3.390625 C 7.265625 -2.148438 6.847656 -1.226562 6.328125 -0.625 C 5.804688 -0.03125 5.25 0.265625 4.65625 0.265625 Z M 4.65625 -0.3125 C 4.882812 -0.3125 5.097656 -0.507812 5.296875 -0.90625 C 5.492188 -1.300781 5.671875 -1.851562 5.828125 -2.5625 C 5.984375 -3.28125 6.101562 -4.113281 6.1875 -5.0625 C 6.28125 -6.019531 6.328125 -7.054688 6.328125 -8.171875 C 6.328125 -9.285156 6.28125 -10.320312 6.1875 -11.28125 C 6.101562 -12.25 5.984375 -13.09375 5.828125 -13.8125 C 5.671875 -14.53125 5.492188 -15.09375 5.296875 -15.5 C 5.097656 -15.90625 4.882812 -16.109375 4.65625 -16.109375 C 4.40625 -16.109375 4.175781 -15.90625 3.96875 -15.5 C 3.769531 -15.101562 3.59375 -14.546875 3.4375 -13.828125 C 3.289062 -13.109375 3.175781 -12.269531 3.09375 -11.3125 C 3.007812 -10.351562 2.96875 -9.304688 2.96875 -8.171875 C 2.96875 -7.046875 3.007812 -6.003906 3.09375 -5.046875 C 3.175781 -4.097656 3.289062 -3.265625 3.4375 -2.546875 C 3.59375 -1.835938 3.769531 -1.285156 3.96875 -0.890625 C 4.175781 -0.503906 4.40625 -0.3125 4.65625 -0.3125 Z M 4.65625 -0.3125 "/></g></g></g></g></g><g transform="matrix(1, 0, 0, 1, 450, 620)"><g clip-path="url(#c6471c3083)"><g fill="#ffffff" fill-opacity="1"><g transform="translate(18.363411, 6.159828)"><g><path d="M -1 0 L -1 0.546875 L -2.140625 0.546875 L -2.140625 14.046875 C -2.097656 13.972656 -2.003906 13.890625 -1.859375 13.796875 C -1.722656 13.703125 -1.566406 13.617188 -1.390625 13.546875 C -1.222656 13.472656 -1.078125 13.421875 -0.953125 13.390625 L -0.953125 14.0625 C -1.203125 14.144531 -1.445312 14.253906 -1.6875 14.390625 C -1.925781 14.535156 -2.15625 14.722656 -2.375 14.953125 C -2.601562 15.191406 -2.800781 15.46875 -2.96875 15.78125 C -3.132812 16.09375 -3.257812 16.460938 -3.34375 16.890625 L -3.90625 16.890625 L -3.90625 0.546875 L -5.078125 0.546875 L -5.078125 0 Z M -1 0 "/></g></g></g><g fill="#ffffff" fill-opacity="1"><g transform="translate(12.261118, 6.159828)"><g><path d="M -4.65625 -0.265625 C -4.050781 -0.265625 -3.484375 0.03125 -2.953125 0.625 C -2.429688 1.226562 -2.015625 2.148438 -1.703125 3.390625 C -1.390625 4.640625 -1.234375 6.234375 -1.234375 8.171875 C -1.234375 10.117188 -1.390625 11.71875 -1.703125 12.96875 C -2.015625 14.21875 -2.429688 15.144531 -2.953125 15.75 C -3.472656 16.351562 -4.039062 16.65625 -4.65625 16.65625 C -5.25 16.65625 -5.804688 16.351562 -6.328125 15.75 C -6.847656 15.144531 -7.265625 14.21875 -7.578125 12.96875 C -7.898438 11.71875 -8.0625 10.117188 -8.0625 8.171875 C -8.0625 6.234375 -7.898438 4.640625 -7.578125 3.390625 C -7.265625 2.148438 -6.847656 1.226562 -6.328125 0.625 C -5.804688 0.03125 -5.25 -0.265625 -4.65625 -0.265625 Z M -4.65625 0.3125 C -4.882812 0.3125 -5.097656 0.507812 -5.296875 0.90625 C -5.492188 1.300781 -5.671875 1.851562 -5.828125 2.5625 C -5.984375 3.28125 -6.101562 4.113281 -6.1875 5.0625 C -6.28125 6.019531 -6.328125 7.054688 -6.328125 8.171875 C -6.328125 9.285156 -6.28125 10.320312 -6.1875 11.28125 C -6.101562 12.25 -5.984375 13.09375 -5.828125 13.8125 C -5.671875 14.53125 -5.492188 15.09375 -5.296875 15.5 C -5.097656 15.90625 -4.882812 16.109375 -4.65625 16.109375 C -4.40625 16.109375 -4.175781 15.90625 -3.96875 15.5 C -3.769531 15.101562 -3.59375 14.546875 -3.4375 13.828125 C -3.289062 13.109375 -3.175781 12.269531 -3.09375 11.3125 C -3.007812 10.351562 -2.96875 9.304688 -2.96875 8.171875 C -2.96875 7.046875 -3.007812 6.003906 -3.09375 5.046875 C -3.175781 4.097656 -3.289062 3.265625 -3.4375 2.546875 C -3.59375 1.835938 -3.769531 1.285156 -3.96875 0.890625 C -4.175781 0.503906 -4.40625 0.3125 -4.65625 0.3125 Z M -4.65625 0.3125 "/></g></g></g></g></g></g></g></g></svg>