<svg xmlns="http://www.w3.org/2000/svg" xmlns:xlink="http://www.w3.org/1999/xlink" width="794" zoomAndPan="magnify" viewBox="0 0 594.95996 842.24997" height="1123" preserveAspectRatio="xMidYMid meet" version="1.0"><defs><g/><clipPath id="d8fae70f0b"><path d="M 0.246094 0 L 594.675781 0 L 594.675781 841.5 L 0.246094 841.5 Z M 0.246094 0 " clip-rule="nonzero"/></clipPath><clipPath id="4c78e74bb8"><path d="M 6 0 L 589 0 L 589 841.5 L 6 841.5 Z M 6 0 " clip-rule="nonzero"/></clipPath><clipPath id="3c44370829"><path d="M 0.464844 0 L 582.773438 0 L 582.773438 841.5 L 0.464844 841.5 Z M 0.464844 0 " clip-rule="nonzero"/></clipPath><clipPath id="4c51e0573d"><path d="M 28.1875 0 L 555.046875 0 C 570.359375 0 582.773438 12.414062 582.773438 27.726562 L 582.773438 813.414062 C 582.773438 828.726562 570.359375 841.140625 555.046875 841.140625 L 28.1875 841.140625 C 12.875 841.140625 0.464844 828.726562 0.464844 813.414062 L 0.464844 27.726562 C 0.464844 12.414062 12.875 0 28.1875 0 Z M 28.1875 0 " clip-rule="nonzero"/></clipPath><clipPath id="5bd4cb9c2e"><path d="M 0.464844 0 L 582.773438 0 L 582.773438 841.171875 L 0.464844 841.171875 Z M 0.464844 0 " clip-rule="nonzero"/></clipPath><clipPath id="32fa1d121c"><path d="M 28.1875 0 L 555.046875 0 C 570.359375 0 582.773438 12.414062 582.773438 27.726562 L 582.773438 813.414062 C 582.773438 828.726562 570.359375 841.140625 555.046875 841.140625 L 28.1875 841.140625 C 12.875 841.140625 0.464844 828.726562 0.464844 813.414062 L 0.464844 27.726562 C 0.464844 12.414062 12.875 0 28.1875 0 Z M 28.1875 0 " clip-rule="nonzero"/></clipPath><clipPath id="791d584a9c"><rect x="0" width="583" y="0" height="842"/></clipPath><clipPath id="64d67e522c"><path d="M 38.503906 36.253906 L 544.730469 36.253906 L 544.730469 805 L 38.503906 805 Z M 38.503906 36.253906 " clip-rule="nonzero"/></clipPath><clipPath id="7c8d7582fe"><path d="M 66.230469 36.253906 L 517.003906 36.253906 C 532.316406 36.253906 544.730469 48.667969 544.730469 63.980469 L 544.730469 777.160156 C 544.730469 792.472656 532.316406 804.886719 517.003906 804.886719 L 66.230469 804.886719 C 50.917969 804.886719 38.503906 792.472656 38.503906 777.160156 L 38.503906 63.980469 C 38.503906 48.667969 50.917969 36.253906 66.230469 36.253906 Z M 66.230469 36.253906 " clip-rule="nonzero"/></clipPath><clipPath id="fd247ed16b"><path d="M 0.503906 0.253906 L 506.730469 0.253906 L 506.730469 768.964844 L 0.503906 768.964844 Z M 0.503906 0.253906 " clip-rule="nonzero"/></clipPath><clipPath id="783277c308"><path d="M 28.230469 0.253906 L 479.003906 0.253906 C 494.316406 0.253906 506.730469 12.667969 506.730469 27.980469 L 506.730469 741.160156 C 506.730469 756.472656 494.316406 768.886719 479.003906 768.886719 L 28.230469 768.886719 C 12.917969 768.886719 0.503906 756.472656 0.503906 741.160156 L 0.503906 27.980469 C 0.503906 12.667969 12.917969 0.253906 28.230469 0.253906 Z M 28.230469 0.253906 " clip-rule="nonzero"/></clipPath><clipPath id="63aa25e121"><rect x="0" width="507" y="0" height="769"/></clipPath><clipPath id="f238e09a40"><path d="M 38.503906 36.273438 L 545 36.273438 L 545 804.253906 L 38.503906 804.253906 Z M 38.503906 36.273438 " clip-rule="nonzero"/></clipPath><clipPath id="6aa82d3c4b"><path d="M 66.226562 36.273438 L 516.976562 36.273438 C 532.289062 36.273438 544.699219 48.6875 544.699219 63.996094 L 544.699219 777.136719 C 544.699219 792.449219 532.289062 804.863281 516.976562 804.863281 L 66.226562 804.863281 C 50.917969 804.863281 38.503906 792.449219 38.503906 777.136719 L 38.503906 63.996094 C 38.503906 48.6875 50.917969 36.273438 66.226562 36.273438 Z M 66.226562 36.273438 " clip-rule="nonzero"/></clipPath><clipPath id="534dfcc025"><path d="M 117.9375 235.648438 L 465 235.648438 L 465 539.292969 L 117.9375 539.292969 Z M 117.9375 235.648438 " clip-rule="nonzero"/></clipPath><clipPath id="15d713b919"><path d="M 291.449219 235.648438 L 464.960938 539.292969 L 117.9375 539.292969 Z M 291.449219 235.648438 " clip-rule="nonzero"/></clipPath><clipPath id="7b9b62181e"><path d="M 0.9375 0.648438 L 348 0.648438 L 348 304.292969 L 0.9375 304.292969 Z M 0.9375 0.648438 " clip-rule="nonzero"/></clipPath><clipPath id="d08d0654a3"><path d="M 174.449219 0.648438 L 347.960938 304.292969 L 0.9375 304.292969 Z M 174.449219 0.648438 " clip-rule="nonzero"/></clipPath><clipPath id="13aa484601"><rect x="0" width="348" y="0" height="305"/></clipPath><clipPath id="674c1ccbc0"><path d="M 433.089844 610.75 L 488.375 610.75 L 488.375 659.054688 L 433.089844 659.054688 Z M 433.089844 610.75 " clip-rule="nonzero"/></clipPath><clipPath id="289ecb7927"><path d="M 460.691406 659.054688 L 488.296875 610.75 L 433.089844 610.75 Z M 460.691406 659.054688 " clip-rule="nonzero"/></clipPath><clipPath id="da58af579a"><path d="M 0.0898438 0.75 L 55.375 0.75 L 55.375 49.054688 L 0.0898438 49.054688 Z M 0.0898438 0.75 " clip-rule="nonzero"/></clipPath><clipPath id="a9fa94d0e6"><path d="M 27.691406 49.054688 L 55.296875 0.75 L 0.0898438 0.75 Z M 27.691406 49.054688 " clip-rule="nonzero"/></clipPath><clipPath id="e329b4a7f9"><rect x="0" width="56" y="0" height="50"/></clipPath><clipPath id="041aca266a"><path d="M 90.335938 158.84375 L 145.621094 158.84375 L 145.621094 207.148438 L 90.335938 207.148438 Z M 90.335938 158.84375 " clip-rule="nonzero"/></clipPath><clipPath id="0030ab1312"><path d="M 117.9375 158.84375 L 145.539062 207.148438 L 90.335938 207.148438 Z M 117.9375 158.84375 " clip-rule="nonzero"/></clipPath><clipPath id="f709cb34f1"><path d="M 0.335938 0.84375 L 55.550781 0.84375 L 55.550781 49.148438 L 0.335938 49.148438 Z M 0.335938 0.84375 " clip-rule="nonzero"/></clipPath><clipPath id="797ad85f0b"><path d="M 27.9375 0.84375 L 55.539062 49.148438 L 0.335938 49.148438 Z M 27.9375 0.84375 " clip-rule="nonzero"/></clipPath><clipPath id="c3de316162"><rect x="0" width="56" y="0" height="50"/></clipPath><clipPath id="73e5362cc7"><rect x="0" width="583" y="0" height="842"/></clipPath></defs><g clip-path="url(#d8fae70f0b)"><path fill="#ffffff" d="M 0.246094 0 L 595.214844 0 L 595.214844 841.5 L 0.246094 841.5 Z M 0.246094 0 " fill-opacity="1" fill-rule="nonzero"/><path fill="#ffffff" d="M 0.246094 0 L 595.214844 0 L 595.214844 841.5 L 0.246094 841.5 Z M 0.246094 0 " fill-opacity="1" fill-rule="nonzero"/></g><g clip-path="url(#4c78e74bb8)"><g transform="matrix(1, 0, 0, 1, 6, 0)"><g clip-path="url(#73e5362cc7)"><g clip-path="url(#3c44370829)"><g clip-path="url(#4c51e0573d)"><g transform="matrix(1, 0, 0, 1, -0.000000000000001776, 0)"><g clip-path="url(#791d584a9c)"><g clip-path="url(#5bd4cb9c2e)"><g clip-path="url(#32fa1d121c)"><path fill="#ffffff" d="M 0.464844 0 L 582.773438 0 L 582.773438 841.617188 L 0.464844 841.617188 Z M 0.464844 0 " fill-opacity="1" fill-rule="nonzero"/></g></g></g></g></g></g><g clip-path="url(#64d67e522c)"><g clip-path="url(#7c8d7582fe)"><g transform="matrix(1, 0, 0, 1, 38, 36)"><g clip-path="url(#63aa25e121)"><g clip-path="url(#fd247ed16b)"><g clip-path="url(#783277c308)"><path fill="#ffffff" d="M 0.503906 0.253906 L 506.730469 0.253906 L 506.730469 769.480469 L 0.503906 769.480469 Z M 0.503906 0.253906 " fill-opacity="1" fill-rule="nonzero"/></g></g></g></g></g></g><g clip-path="url(#f238e09a40)"><g clip-path="url(#6aa82d3c4b)"><path stroke-linecap="butt" transform="matrix(2.509805, 0, 0, 2.509805, 38.504697, 36.273706)" fill="none" stroke-linejoin="miter" d="M 11.045425 -0.000107011 L 190.64103 -0.000107011 C 196.742101 -0.000107011 201.68677 4.946118 201.68677 11.045633 L 201.68677 295.187445 C 201.68677 301.288516 196.742101 306.234741 190.64103 306.234741 L 11.045425 306.234741 C 4.94591 306.234741 -0.000314955 301.288516 -0.000314955 295.187445 L -0.000314955 11.045633 C -0.000314955 4.946118 4.94591 -0.000107011 11.045425 -0.000107011 Z M 11.045425 -0.000107011 " stroke="#6b1510" stroke-width="2.985621" stroke-opacity="1" stroke-miterlimit="4"/></g></g><g clip-path="url(#534dfcc025)"><g clip-path="url(#15d713b919)"><g transform="matrix(1, 0, 0, 1, 117, 235)"><g clip-path="url(#13aa484601)"><g clip-path="url(#7b9b62181e)"><g clip-path="url(#d08d0654a3)"><path fill="#6b1510" d="M 0.9375 0.648438 L 348.46875 0.648438 L 348.46875 304.292969 L 0.9375 304.292969 Z M 0.9375 0.648438 " fill-opacity="1" fill-rule="nonzero"/></g></g></g></g></g></g><g fill="#6b1510" fill-opacity="1"><g transform="translate(85.265185, 145.502137)"><g><path d="M 4.03125 0 L 4.03125 -2.578125 L 8.640625 -2.578125 L 8.640625 -56.03125 C 8.410156 -55.800781 8.019531 -55.550781 7.46875 -55.28125 C 6.925781 -55.019531 6.347656 -54.789062 5.734375 -54.59375 C 5.117188 -54.394531 4.566406 -54.265625 4.078125 -54.203125 L 4.078125 -57.234375 C 5.203125 -57.492188 6.453125 -57.992188 7.828125 -58.734375 C 9.203125 -59.484375 10.554688 -60.472656 11.890625 -61.703125 C 13.234375 -62.929688 14.453125 -64.375 15.546875 -66.03125 C 16.640625 -67.6875 17.453125 -69.554688 17.984375 -71.640625 L 20.5625 -71.640625 L 20.5625 -2.578125 L 25.34375 -2.578125 L 25.34375 0 Z M 4.03125 0 "/></g></g></g><g fill="#6b1510" fill-opacity="1"><g transform="translate(114.618063, 145.502137)"><g><path d="M 9.890625 0 L 9.890625 -2.578125 L 14.5625 -2.578125 L 14.5625 -18.078125 L 2.03125 -18.078125 L 2.03125 -20.671875 L 14.609375 -61.703125 C 16.628906 -62.859375 18.390625 -64.226562 19.890625 -65.8125 C 21.398438 -67.40625 22.785156 -69.234375 24.046875 -71.296875 L 26.484375 -71.296875 L 26.484375 -20.671875 L 27.125 -20.671875 C 28.414062 -20.671875 29.34375 -21.519531 29.90625 -23.21875 C 30.46875 -24.925781 30.75 -26.988281 30.75 -29.40625 L 33.140625 -29.40625 L 33.140625 -18.078125 L 26.484375 -18.078125 L 26.484375 -2.578125 L 31.046875 -2.578125 L 31.046875 0 Z M 4.671875 -20.171875 L 4.21875 -20.671875 L 14.65625 -20.671875 L 14.65625 -54.890625 L 14.796875 -53.15625 Z M 4.671875 -20.171875 "/></g></g></g><g fill="#6b1510" fill-opacity="1"><g transform="translate(497.619408, 686.965601)"><g><path d="M -4.03125 0 L -4.03125 2.578125 L -8.640625 2.578125 L -8.640625 56.03125 C -8.410156 55.800781 -8.019531 55.550781 -7.46875 55.28125 C -6.925781 55.019531 -6.347656 54.789062 -5.734375 54.59375 C -5.117188 54.394531 -4.566406 54.265625 -4.078125 54.203125 L -4.078125 57.234375 C -5.203125 57.492188 -6.453125 57.992188 -7.828125 58.734375 C -9.203125 59.484375 -10.554688 60.472656 -11.890625 61.703125 C -13.234375 62.929688 -14.453125 64.375 -15.546875 66.03125 C -16.640625 67.6875 -17.453125 69.554688 -17.984375 71.640625 L -20.5625 71.640625 L -20.5625 2.578125 L -25.34375 2.578125 L -25.34375 0 Z M -4.03125 0 "/></g></g></g><g fill="#6b1510" fill-opacity="1"><g transform="translate(468.26653, 686.965601)"><g><path d="M -9.890625 0 L -9.890625 2.578125 L -14.5625 2.578125 L -14.5625 18.078125 L -2.03125 18.078125 L -2.03125 20.671875 L -14.609375 61.703125 C -16.628906 62.859375 -18.390625 64.226562 -19.890625 65.8125 C -21.398438 67.40625 -22.785156 69.234375 -24.046875 71.296875 L -26.484375 71.296875 L -26.484375 20.671875 L -27.125 20.671875 C -28.414062 20.671875 -29.34375 21.519531 -29.90625 23.21875 C -30.46875 24.925781 -30.75 26.988281 -30.75 29.40625 L -33.140625 29.40625 L -33.140625 18.078125 L -26.484375 18.078125 L -26.484375 2.578125 L -31.046875 2.578125 L -31.046875 0 Z M -4.671875 20.171875 L -4.21875 20.671875 L -14.65625 20.671875 L -14.65625 54.890625 L -14.796875 53.15625 Z M -4.671875 20.171875 "/></g></g></g><g clip-path="url(#674c1ccbc0)"><g clip-path="url(#289ecb7927)"><g transform="matrix(1, 0, 0, 1, 433, 610)"><g clip-path="url(#e329b4a7f9)"><g clip-path="url(#da58af579a)"><g clip-path="url(#a9fa94d0e6)"><path fill="#6b1510" d="M 0.0898438 0.75 L 55.375 0.75 L 55.375 49.054688 L 0.0898438 49.054688 Z M 0.0898438 0.75 " fill-opacity="1" fill-rule="nonzero"/></g></g></g></g></g></g><g clip-path="url(#041aca266a)"><g clip-path="url(#0030ab1312)"><g transform="matrix(1, 0, 0, 1, 90, 158)"><g clip-path="url(#c3de316162)"><g clip-path="url(#f709cb34f1)"><g clip-path="url(#797ad85f0b)"><path fill="#6b1510" d="M 0.335938 0.84375 L 55.621094 0.84375 L 55.621094 49.148438 L 0.335938 49.148438 Z M 0.335938 0.84375 " fill-opacity="1" fill-rule="nonzero"/></g></g></g></g></g></g></g></g></g></svg>