<svg xmlns="http://www.w3.org/2000/svg" xmlns:xlink="http://www.w3.org/1999/xlink" width="794" zoomAndPan="magnify" viewBox="0 0 594.95996 842.24997" height="1123" preserveAspectRatio="xMidYMid meet" version="1.0"><defs><g/><clipPath id="ca52fa68ba"><path d="M 0.246094 0 L 594.675781 0 L 594.675781 841.5 L 0.246094 841.5 Z M 0.246094 0 " clip-rule="nonzero"/></clipPath><clipPath id="ae6ef33eaf"><path d="M 6 0 L 589 0 L 589 841.5 L 6 841.5 Z M 6 0 " clip-rule="nonzero"/></clipPath><clipPath id="06c18f63d8"><path d="M 0.464844 0 L 582.773438 0 L 582.773438 841.5 L 0.464844 841.5 Z M 0.464844 0 " clip-rule="nonzero"/></clipPath><clipPath id="481b30e96b"><path d="M 28.1875 0 L 555.046875 0 C 570.359375 0 582.773438 12.414062 582.773438 27.726562 L 582.773438 813.414062 C 582.773438 828.726562 570.359375 841.140625 555.046875 841.140625 L 28.1875 841.140625 C 12.875 841.140625 0.464844 828.726562 0.464844 813.414062 L 0.464844 27.726562 C 0.464844 12.414062 12.875 0 28.1875 0 Z M 28.1875 0 " clip-rule="nonzero"/></clipPath><clipPath id="5704523602"><path d="M 0.464844 0 L 582.773438 0 L 582.773438 841.171875 L 0.464844 841.171875 Z M 0.464844 0 " clip-rule="nonzero"/></clipPath><clipPath id="a9decf18cf"><path d="M 28.1875 0 L 555.046875 0 C 570.359375 0 582.773438 12.414062 582.773438 27.726562 L 582.773438 813.414062 C 582.773438 828.726562 570.359375 841.140625 555.046875 841.140625 L 28.1875 841.140625 C 12.875 841.140625 0.464844 828.726562 0.464844 813.414062 L 0.464844 27.726562 C 0.464844 12.414062 12.875 0 28.1875 0 Z M 28.1875 0 " clip-rule="nonzero"/></clipPath><clipPath id="c66829d27c"><rect x="0" width="583" y="0" height="842"/></clipPath><clipPath id="ae9b61948f"><path d="M 38.503906 36.253906 L 544.730469 36.253906 L 544.730469 805 L 38.503906 805 Z M 38.503906 36.253906 " clip-rule="nonzero"/></clipPath><clipPath id="0a5735dbc0"><path d="M 66.230469 36.253906 L 517.003906 36.253906 C 532.316406 36.253906 544.730469 48.667969 544.730469 63.980469 L 544.730469 777.160156 C 544.730469 792.472656 532.316406 804.886719 517.003906 804.886719 L 66.230469 804.886719 C 50.917969 804.886719 38.503906 792.472656 38.503906 777.160156 L 38.503906 63.980469 C 38.503906 48.667969 50.917969 36.253906 66.230469 36.253906 Z M 66.230469 36.253906 " clip-rule="nonzero"/></clipPath><clipPath id="c63c952eb2"><path d="M 0.503906 0.253906 L 506.730469 0.253906 L 506.730469 768.964844 L 0.503906 768.964844 Z M 0.503906 0.253906 " clip-rule="nonzero"/></clipPath><clipPath id="c99e4df34a"><path d="M 28.230469 0.253906 L 479.003906 0.253906 C 494.316406 0.253906 506.730469 12.667969 506.730469 27.980469 L 506.730469 741.160156 C 506.730469 756.472656 494.316406 768.886719 479.003906 768.886719 L 28.230469 768.886719 C 12.917969 768.886719 0.503906 756.472656 0.503906 741.160156 L 0.503906 27.980469 C 0.503906 12.667969 12.917969 0.253906 28.230469 0.253906 Z M 28.230469 0.253906 " clip-rule="nonzero"/></clipPath><clipPath id="24ce8620c1"><rect x="0" width="507" y="0" height="769"/></clipPath><clipPath id="60824aa688"><path d="M 38.503906 36.273438 L 545 36.273438 L 545 804.253906 L 38.503906 804.253906 Z M 38.503906 36.273438 " clip-rule="nonzero"/></clipPath><clipPath id="476084461c"><path d="M 66.226562 36.273438 L 516.976562 36.273438 C 532.289062 36.273438 544.699219 48.6875 544.699219 63.996094 L 544.699219 777.136719 C 544.699219 792.449219 532.289062 804.863281 516.976562 804.863281 L 66.226562 804.863281 C 50.917969 804.863281 38.503906 792.449219 38.503906 777.136719 L 38.503906 63.996094 C 38.503906 48.6875 50.917969 36.273438 66.226562 36.273438 Z M 66.226562 36.273438 " clip-rule="nonzero"/></clipPath><clipPath id="b8c5174204"><path d="M 117.9375 235.648438 L 465 235.648438 L 465 539.292969 L 117.9375 539.292969 Z M 117.9375 235.648438 " clip-rule="nonzero"/></clipPath><clipPath id="538401858a"><path d="M 291.449219 235.648438 L 464.960938 539.292969 L 117.9375 539.292969 Z M 291.449219 235.648438 " clip-rule="nonzero"/></clipPath><clipPath id="ceaea7f9a3"><path d="M 0.9375 0.648438 L 348 0.648438 L 348 304.292969 L 0.9375 304.292969 Z M 0.9375 0.648438 " clip-rule="nonzero"/></clipPath><clipPath id="09d214f270"><path d="M 174.449219 0.648438 L 347.960938 304.292969 L 0.9375 304.292969 Z M 174.449219 0.648438 " clip-rule="nonzero"/></clipPath><clipPath id="bf42440a58"><rect x="0" width="348" y="0" height="305"/></clipPath><clipPath id="6183a0f708"><path d="M 433.089844 610.75 L 488.375 610.75 L 488.375 659.054688 L 433.089844 659.054688 Z M 433.089844 610.75 " clip-rule="nonzero"/></clipPath><clipPath id="eda49360a6"><path d="M 460.691406 659.054688 L 488.296875 610.75 L 433.089844 610.75 Z M 460.691406 659.054688 " clip-rule="nonzero"/></clipPath><clipPath id="06b6d40419"><path d="M 0.0898438 0.75 L 55.375 0.75 L 55.375 49.054688 L 0.0898438 49.054688 Z M 0.0898438 0.75 " clip-rule="nonzero"/></clipPath><clipPath id="4daecbe359"><path d="M 27.691406 49.054688 L 55.296875 0.75 L 0.0898438 0.75 Z M 27.691406 49.054688 " clip-rule="nonzero"/></clipPath><clipPath id="d715e5e7ea"><rect x="0" width="56" y="0" height="50"/></clipPath><clipPath id="02294bae17"><path d="M 90.335938 158.84375 L 145.621094 158.84375 L 145.621094 207.148438 L 90.335938 207.148438 Z M 90.335938 158.84375 " clip-rule="nonzero"/></clipPath><clipPath id="61f4f89284"><path d="M 117.9375 158.84375 L 145.539062 207.148438 L 90.335938 207.148438 Z M 117.9375 158.84375 " clip-rule="nonzero"/></clipPath><clipPath id="de37d68415"><path d="M 0.335938 0.84375 L 55.550781 0.84375 L 55.550781 49.148438 L 0.335938 49.148438 Z M 0.335938 0.84375 " clip-rule="nonzero"/></clipPath><clipPath id="e7d97bea68"><path d="M 27.9375 0.84375 L 55.539062 49.148438 L 0.335938 49.148438 Z M 27.9375 0.84375 " clip-rule="nonzero"/></clipPath><clipPath id="f77df8a022"><rect x="0" width="56" y="0" height="50"/></clipPath><clipPath id="50baceda34"><rect x="0" width="583" y="0" height="842"/></clipPath></defs><g clip-path="url(#ca52fa68ba)"><path fill="#ffffff" d="M 0.246094 0 L 595.214844 0 L 595.214844 841.5 L 0.246094 841.5 Z M 0.246094 0 " fill-opacity="1" fill-rule="nonzero"/><path fill="#ffffff" d="M 0.246094 0 L 595.214844 0 L 595.214844 841.5 L 0.246094 841.5 Z M 0.246094 0 " fill-opacity="1" fill-rule="nonzero"/></g><g clip-path="url(#ae6ef33eaf)"><g transform="matrix(1, 0, 0, 1, 6, 0)"><g clip-path="url(#50baceda34)"><g clip-path="url(#06c18f63d8)"><g clip-path="url(#481b30e96b)"><g transform="matrix(1, 0, 0, 1, -0.000000000000001776, 0)"><g clip-path="url(#c66829d27c)"><g clip-path="url(#5704523602)"><g clip-path="url(#a9decf18cf)"><path fill="#ffffff" d="M 0.464844 0 L 582.773438 0 L 582.773438 841.617188 L 0.464844 841.617188 Z M 0.464844 0 " fill-opacity="1" fill-rule="nonzero"/></g></g></g></g></g></g><g clip-path="url(#ae9b61948f)"><g clip-path="url(#0a5735dbc0)"><g transform="matrix(1, 0, 0, 1, 38, 36)"><g clip-path="url(#24ce8620c1)"><g clip-path="url(#c63c952eb2)"><g clip-path="url(#c99e4df34a)"><path fill="#ffffff" d="M 0.503906 0.253906 L 506.730469 0.253906 L 506.730469 769.480469 L 0.503906 769.480469 Z M 0.503906 0.253906 " fill-opacity="1" fill-rule="nonzero"/></g></g></g></g></g></g><g clip-path="url(#60824aa688)"><g clip-path="url(#476084461c)"><path stroke-linecap="butt" transform="matrix(2.509805, 0, 0, 2.509805, 38.504697, 36.273706)" fill="none" stroke-linejoin="miter" d="M 11.045425 -0.000107011 L 190.64103 -0.000107011 C 196.742101 -0.000107011 201.68677 4.946118 201.68677 11.045633 L 201.68677 295.187445 C 201.68677 301.288516 196.742101 306.234741 190.64103 306.234741 L 11.045425 306.234741 C 4.94591 306.234741 -0.000314955 301.288516 -0.000314955 295.187445 L -0.000314955 11.045633 C -0.000314955 4.946118 4.94591 -0.000107011 11.045425 -0.000107011 Z M 11.045425 -0.000107011 " stroke="#6b1510" stroke-width="2.985621" stroke-opacity="1" stroke-miterlimit="4"/></g></g><g clip-path="url(#b8c5174204)"><g clip-path="url(#538401858a)"><g transform="matrix(1, 0, 0, 1, 117, 235)"><g clip-path="url(#bf42440a58)"><g clip-path="url(#ceaea7f9a3)"><g clip-path="url(#09d214f270)"><path fill="#6b1510" d="M 0.9375 0.648438 L 348.46875 0.648438 L 348.46875 304.292969 L 0.9375 304.292969 Z M 0.9375 0.648438 " fill-opacity="1" fill-rule="nonzero"/></g></g></g></g></g></g><g fill="#6b1510" fill-opacity="1"><g transform="translate(84.049498, 144.926137)"><g><path d="M 4.03125 0 L 4.03125 -2.578125 L 8.640625 -2.578125 L 8.640625 -56.03125 C 8.410156 -55.800781 8.019531 -55.550781 7.46875 -55.28125 C 6.925781 -55.019531 6.347656 -54.789062 5.734375 -54.59375 C 5.117188 -54.394531 4.566406 -54.265625 4.078125 -54.203125 L 4.078125 -57.234375 C 5.203125 -57.492188 6.453125 -57.992188 7.828125 -58.734375 C 9.203125 -59.484375 10.554688 -60.472656 11.890625 -61.703125 C 13.234375 -62.929688 14.453125 -64.375 15.546875 -66.03125 C 16.640625 -67.6875 17.453125 -69.554688 17.984375 -71.640625 L 20.5625 -71.640625 L 20.5625 -2.578125 L 25.34375 -2.578125 L 25.34375 0 Z M 4.03125 0 "/></g></g></g><g fill="#6b1510" fill-opacity="1"><g transform="translate(113.402376, 144.926137)"><g><path d="M 25.28125 0.546875 C 23.789062 0.546875 22.382812 0.28125 21.0625 -0.25 C 19.738281 -0.78125 18.460938 -1.390625 17.234375 -2.078125 C 16.015625 -2.773438 14.800781 -3.394531 13.59375 -3.9375 C 12.382812 -4.488281 11.148438 -4.765625 9.890625 -4.765625 C 8.398438 -4.765625 7.253906 -4.226562 6.453125 -3.15625 C 5.660156 -2.082031 5.179688 -1.03125 5.015625 0 L 2.734375 0 C 2.734375 -5.425781 3.21875 -10.160156 4.1875 -14.203125 C 5.164062 -18.242188 6.425781 -21.8125 7.96875 -24.90625 C 9.507812 -28.007812 11.148438 -30.800781 12.890625 -33.28125 C 14.628906 -35.769531 16.257812 -38.140625 17.78125 -40.390625 C 19.3125 -42.640625 20.5625 -44.945312 21.53125 -47.3125 C 22.507812 -49.6875 23 -52.332031 23 -55.25 C 23 -57.957031 22.757812 -60.269531 22.28125 -62.1875 C 21.800781 -64.113281 21.0625 -65.585938 20.0625 -66.609375 C 19.070312 -67.640625 17.832031 -68.15625 16.34375 -68.15625 C 15.25 -68.15625 14.210938 -67.941406 13.234375 -67.515625 C 12.265625 -67.085938 11.472656 -66.539062 10.859375 -65.875 C 10.242188 -65.207031 9.9375 -64.492188 9.9375 -63.734375 C 9.9375 -63.078125 10.179688 -62.382812 10.671875 -61.65625 C 11.171875 -60.925781 11.671875 -60.117188 12.171875 -59.234375 C 12.671875 -58.359375 12.921875 -57.34375 12.921875 -56.1875 C 12.921875 -54.332031 12.476562 -52.960938 11.59375 -52.078125 C 10.71875 -51.203125 9.601562 -50.765625 8.25 -50.765625 C 6.820312 -50.765625 5.671875 -51.296875 4.796875 -52.359375 C 3.921875 -53.421875 3.484375 -55.078125 3.484375 -57.328125 C 3.484375 -59.773438 4.066406 -62 5.234375 -64 C 6.410156 -66.007812 8.09375 -67.617188 10.28125 -68.828125 C 12.46875 -70.035156 15.085938 -70.640625 18.140625 -70.640625 C 19.921875 -70.640625 21.769531 -70.390625 23.6875 -69.890625 C 25.613281 -69.398438 27.390625 -68.539062 29.015625 -67.3125 C 30.640625 -66.09375 31.945312 -64.421875 32.9375 -62.296875 C 33.925781 -60.179688 34.421875 -57.484375 34.421875 -54.203125 C 34.421875 -50.691406 33.945312 -47.6875 33 -45.1875 C 32.0625 -42.6875 30.8125 -40.507812 29.25 -38.65625 C 27.695312 -36.800781 25.96875 -35.101562 24.0625 -33.5625 C 22.164062 -32.019531 20.226562 -30.46875 18.25 -28.90625 C 16.28125 -27.351562 14.425781 -25.609375 12.6875 -23.671875 C 10.945312 -21.734375 9.457031 -19.445312 8.21875 -16.8125 C 6.976562 -14.175781 6.160156 -11.023438 5.765625 -7.359375 C 6.160156 -8.546875 6.910156 -9.578125 8.015625 -10.453125 C 9.128906 -11.335938 10.414062 -12.019531 11.875 -12.5 C 13.332031 -12.976562 14.773438 -13.21875 16.203125 -13.21875 C 18.085938 -13.21875 19.75 -12.976562 21.1875 -12.5 C 22.625 -12.019531 23.914062 -11.535156 25.0625 -11.046875 C 26.207031 -10.566406 27.257812 -10.328125 28.21875 -10.328125 C 29.570312 -10.328125 30.585938 -10.695312 31.265625 -11.4375 C 31.953125 -12.1875 32.296875 -13.242188 32.296875 -14.609375 L 34.53125 -14.609375 L 34.53125 -12.46875 C 34.53125 -10.445312 34.25 -8.429688 33.6875 -6.421875 C 33.125 -4.421875 32.171875 -2.757812 30.828125 -1.4375 C 29.484375 -0.113281 27.632812 0.546875 25.28125 0.546875 Z M 25.28125 0.546875 "/></g></g></g><g fill="#6b1510" fill-opacity="1"><g transform="translate(494.568406, 690.971186)"><g><path d="M -4.03125 0 L -4.03125 2.578125 L -8.640625 2.578125 L -8.640625 56.03125 C -8.410156 55.800781 -8.019531 55.550781 -7.46875 55.28125 C -6.925781 55.019531 -6.347656 54.789062 -5.734375 54.59375 C -5.117188 54.394531 -4.566406 54.265625 -4.078125 54.203125 L -4.078125 57.234375 C -5.203125 57.492188 -6.453125 57.992188 -7.828125 58.734375 C -9.203125 59.484375 -10.554688 60.472656 -11.890625 61.703125 C -13.234375 62.929688 -14.453125 64.375 -15.546875 66.03125 C -16.640625 67.6875 -17.453125 69.554688 -17.984375 71.640625 L -20.5625 71.640625 L -20.5625 2.578125 L -25.34375 2.578125 L -25.34375 0 Z M -4.03125 0 "/></g></g></g><g fill="#6b1510" fill-opacity="1"><g transform="translate(465.215528, 690.971186)"><g><path d="M -25.28125 -0.546875 C -23.789062 -0.546875 -22.382812 -0.28125 -21.0625 0.25 C -19.738281 0.78125 -18.460938 1.390625 -17.234375 2.078125 C -16.015625 2.773438 -14.800781 3.394531 -13.59375 3.9375 C -12.382812 4.488281 -11.148438 4.765625 -9.890625 4.765625 C -8.398438 4.765625 -7.253906 4.226562 -6.453125 3.15625 C -5.660156 2.082031 -5.179688 1.03125 -5.015625 0 L -2.734375 0 C -2.734375 5.425781 -3.21875 10.160156 -4.1875 14.203125 C -5.164062 18.242188 -6.425781 21.8125 -7.96875 24.90625 C -9.507812 28.007812 -11.148438 30.800781 -12.890625 33.28125 C -14.628906 35.769531 -16.257812 38.140625 -17.78125 40.390625 C -19.3125 42.640625 -20.5625 44.945312 -21.53125 47.3125 C -22.507812 49.6875 -23 52.332031 -23 55.25 C -23 57.957031 -22.757812 60.269531 -22.28125 62.1875 C -21.800781 64.113281 -21.0625 65.585938 -20.0625 66.609375 C -19.070312 67.640625 -17.832031 68.15625 -16.34375 68.15625 C -15.25 68.15625 -14.210938 67.941406 -13.234375 67.515625 C -12.265625 67.085938 -11.472656 66.539062 -10.859375 65.875 C -10.242188 65.207031 -9.9375 64.492188 -9.9375 63.734375 C -9.9375 63.078125 -10.179688 62.382812 -10.671875 61.65625 C -11.171875 60.925781 -11.671875 60.117188 -12.171875 59.234375 C -12.671875 58.359375 -12.921875 57.34375 -12.921875 56.1875 C -12.921875 54.332031 -12.476562 52.960938 -11.59375 52.078125 C -10.71875 51.203125 -9.601562 50.765625 -8.25 50.765625 C -6.820312 50.765625 -5.671875 51.296875 -4.796875 52.359375 C -3.921875 53.421875 -3.484375 55.078125 -3.484375 57.328125 C -3.484375 59.773438 -4.066406 62 -5.234375 64 C -6.410156 66.007812 -8.09375 67.617188 -10.28125 68.828125 C -12.46875 70.035156 -15.085938 70.640625 -18.140625 70.640625 C -19.921875 70.640625 -21.769531 70.390625 -23.6875 69.890625 C -25.613281 69.398438 -27.390625 68.539062 -29.015625 67.3125 C -30.640625 66.09375 -31.945312 64.421875 -32.9375 62.296875 C -33.925781 60.179688 -34.421875 57.484375 -34.421875 54.203125 C -34.421875 50.691406 -33.945312 47.6875 -33 45.1875 C -32.0625 42.6875 -30.8125 40.507812 -29.25 38.65625 C -27.695312 36.800781 -25.96875 35.101562 -24.0625 33.5625 C -22.164062 32.019531 -20.226562 30.46875 -18.25 28.90625 C -16.28125 27.351562 -14.425781 25.609375 -12.6875 23.671875 C -10.945312 21.734375 -9.457031 19.445312 -8.21875 16.8125 C -6.976562 14.175781 -6.160156 11.023438 -5.765625 7.359375 C -6.160156 8.546875 -6.910156 9.578125 -8.015625 10.453125 C -9.128906 11.335938 -10.414062 12.019531 -11.875 12.5 C -13.332031 12.976562 -14.773438 13.21875 -16.203125 13.21875 C -18.085938 13.21875 -19.75 12.976562 -21.1875 12.5 C -22.625 12.019531 -23.914062 11.535156 -25.0625 11.046875 C -26.207031 10.566406 -27.257812 10.328125 -28.21875 10.328125 C -29.570312 10.328125 -30.585938 10.695312 -31.265625 11.4375 C -31.953125 12.1875 -32.296875 13.242188 -32.296875 14.609375 L -34.53125 14.609375 L -34.53125 12.46875 C -34.53125 10.445312 -34.25 8.429688 -33.6875 6.421875 C -33.125 4.421875 -32.171875 2.757812 -30.828125 1.4375 C -29.484375 0.113281 -27.632812 -0.546875 -25.28125 -0.546875 Z M -25.28125 -0.546875 "/></g></g></g><g clip-path="url(#6183a0f708)"><g clip-path="url(#eda49360a6)"><g transform="matrix(1, 0, 0, 1, 433, 610)"><g clip-path="url(#d715e5e7ea)"><g clip-path="url(#06b6d40419)"><g clip-path="url(#4daecbe359)"><path fill="#6b1510" d="M 0.0898438 0.75 L 55.375 0.75 L 55.375 49.054688 L 0.0898438 49.054688 Z M 0.0898438 0.75 " fill-opacity="1" fill-rule="nonzero"/></g></g></g></g></g></g><g clip-path="url(#02294bae17)"><g clip-path="url(#61f4f89284)"><g transform="matrix(1, 0, 0, 1, 90, 158)"><g clip-path="url(#f77df8a022)"><g clip-path="url(#de37d68415)"><g clip-path="url(#e7d97bea68)"><path fill="#6b1510" d="M 0.335938 0.84375 L 55.621094 0.84375 L 55.621094 49.148438 L 0.335938 49.148438 Z M 0.335938 0.84375 " fill-opacity="1" fill-rule="nonzero"/></g></g></g></g></g></g></g></g></g></svg>