<svg xmlns="http://www.w3.org/2000/svg" xmlns:xlink="http://www.w3.org/1999/xlink" width="794" zoomAndPan="magnify" viewBox="0 0 594.95996 842.24997" height="1123" preserveAspectRatio="xMidYMid meet" version="1.0"><defs><g/><clipPath id="4f28eece6b"><path d="M 0.246094 0 L 594.675781 0 L 594.675781 841.5 L 0.246094 841.5 Z M 0.246094 0 " clip-rule="nonzero"/></clipPath><clipPath id="98289c6a62"><path d="M 6 0 L 589 0 L 589 841.5 L 6 841.5 Z M 6 0 " clip-rule="nonzero"/></clipPath><clipPath id="a19d97fdaf"><path d="M 0.464844 0 L 582.773438 0 L 582.773438 841.5 L 0.464844 841.5 Z M 0.464844 0 " clip-rule="nonzero"/></clipPath><clipPath id="3060d9bf52"><path d="M 28.1875 0 L 555.046875 0 C 570.359375 0 582.773438 12.414062 582.773438 27.726562 L 582.773438 813.414062 C 582.773438 828.726562 570.359375 841.140625 555.046875 841.140625 L 28.1875 841.140625 C 12.875 841.140625 0.464844 828.726562 0.464844 813.414062 L 0.464844 27.726562 C 0.464844 12.414062 12.875 0 28.1875 0 Z M 28.1875 0 " clip-rule="nonzero"/></clipPath><clipPath id="684ae66c4b"><path d="M 0.464844 0 L 582.773438 0 L 582.773438 841.171875 L 0.464844 841.171875 Z M 0.464844 0 " clip-rule="nonzero"/></clipPath><clipPath id="c5628474eb"><path d="M 28.1875 0 L 555.046875 0 C 570.359375 0 582.773438 12.414062 582.773438 27.726562 L 582.773438 813.414062 C 582.773438 828.726562 570.359375 841.140625 555.046875 841.140625 L 28.1875 841.140625 C 12.875 841.140625 0.464844 828.726562 0.464844 813.414062 L 0.464844 27.726562 C 0.464844 12.414062 12.875 0 28.1875 0 Z M 28.1875 0 " clip-rule="nonzero"/></clipPath><clipPath id="a2821100b4"><rect x="0" width="583" y="0" height="842"/></clipPath><clipPath id="cf898f6fec"><path d="M 38.503906 36.253906 L 544.730469 36.253906 L 544.730469 805 L 38.503906 805 Z M 38.503906 36.253906 " clip-rule="nonzero"/></clipPath><clipPath id="a08dfb8329"><path d="M 66.230469 36.253906 L 517.003906 36.253906 C 532.316406 36.253906 544.730469 48.667969 544.730469 63.980469 L 544.730469 777.160156 C 544.730469 792.472656 532.316406 804.886719 517.003906 804.886719 L 66.230469 804.886719 C 50.917969 804.886719 38.503906 792.472656 38.503906 777.160156 L 38.503906 63.980469 C 38.503906 48.667969 50.917969 36.253906 66.230469 36.253906 Z M 66.230469 36.253906 " clip-rule="nonzero"/></clipPath><clipPath id="b5ddd9f52a"><path d="M 0.503906 0.253906 L 506.730469 0.253906 L 506.730469 768.964844 L 0.503906 768.964844 Z M 0.503906 0.253906 " clip-rule="nonzero"/></clipPath><clipPath id="2e03cc10d6"><path d="M 28.230469 0.253906 L 479.003906 0.253906 C 494.316406 0.253906 506.730469 12.667969 506.730469 27.980469 L 506.730469 741.160156 C 506.730469 756.472656 494.316406 768.886719 479.003906 768.886719 L 28.230469 768.886719 C 12.917969 768.886719 0.503906 756.472656 0.503906 741.160156 L 0.503906 27.980469 C 0.503906 12.667969 12.917969 0.253906 28.230469 0.253906 Z M 28.230469 0.253906 " clip-rule="nonzero"/></clipPath><clipPath id="a1dd4f7130"><rect x="0" width="507" y="0" height="769"/></clipPath><clipPath id="bf35ace37d"><path d="M 38.503906 36.273438 L 545 36.273438 L 545 804.253906 L 38.503906 804.253906 Z M 38.503906 36.273438 " clip-rule="nonzero"/></clipPath><clipPath id="388cbd03ed"><path d="M 66.226562 36.273438 L 516.976562 36.273438 C 532.289062 36.273438 544.699219 48.6875 544.699219 63.996094 L 544.699219 777.136719 C 544.699219 792.449219 532.289062 804.863281 516.976562 804.863281 L 66.226562 804.863281 C 50.917969 804.863281 38.503906 792.449219 38.503906 777.136719 L 38.503906 63.996094 C 38.503906 48.6875 50.917969 36.273438 66.226562 36.273438 Z M 66.226562 36.273438 " clip-rule="nonzero"/></clipPath><clipPath id="11935cea72"><path d="M 117.9375 235.648438 L 465 235.648438 L 465 539.292969 L 117.9375 539.292969 Z M 117.9375 235.648438 " clip-rule="nonzero"/></clipPath><clipPath id="76ccae9164"><path d="M 291.449219 235.648438 L 464.960938 539.292969 L 117.9375 539.292969 Z M 291.449219 235.648438 " clip-rule="nonzero"/></clipPath><clipPath id="15a381c85c"><path d="M 0.9375 0.648438 L 348 0.648438 L 348 304.292969 L 0.9375 304.292969 Z M 0.9375 0.648438 " clip-rule="nonzero"/></clipPath><clipPath id="6f52082bef"><path d="M 174.449219 0.648438 L 347.960938 304.292969 L 0.9375 304.292969 Z M 174.449219 0.648438 " clip-rule="nonzero"/></clipPath><clipPath id="72e1cffae4"><rect x="0" width="348" y="0" height="305"/></clipPath><clipPath id="092fb68318"><path d="M 433.089844 610.75 L 488.375 610.75 L 488.375 659.054688 L 433.089844 659.054688 Z M 433.089844 610.75 " clip-rule="nonzero"/></clipPath><clipPath id="c0f22f558a"><path d="M 460.691406 659.054688 L 488.296875 610.75 L 433.089844 610.75 Z M 460.691406 659.054688 " clip-rule="nonzero"/></clipPath><clipPath id="804fd136c7"><path d="M 0.0898438 0.75 L 55.375 0.75 L 55.375 49.054688 L 0.0898438 49.054688 Z M 0.0898438 0.75 " clip-rule="nonzero"/></clipPath><clipPath id="98e7b461ac"><path d="M 27.691406 49.054688 L 55.296875 0.75 L 0.0898438 0.75 Z M 27.691406 49.054688 " clip-rule="nonzero"/></clipPath><clipPath id="698946ebba"><rect x="0" width="56" y="0" height="50"/></clipPath><clipPath id="08e45bbff2"><path d="M 90.335938 158.84375 L 145.621094 158.84375 L 145.621094 207.148438 L 90.335938 207.148438 Z M 90.335938 158.84375 " clip-rule="nonzero"/></clipPath><clipPath id="38c21cfa3d"><path d="M 117.9375 158.84375 L 145.539062 207.148438 L 90.335938 207.148438 Z M 117.9375 158.84375 " clip-rule="nonzero"/></clipPath><clipPath id="661f6ab758"><path d="M 0.335938 0.84375 L 55.550781 0.84375 L 55.550781 49.148438 L 0.335938 49.148438 Z M 0.335938 0.84375 " clip-rule="nonzero"/></clipPath><clipPath id="f2ac50e380"><path d="M 27.9375 0.84375 L 55.539062 49.148438 L 0.335938 49.148438 Z M 27.9375 0.84375 " clip-rule="nonzero"/></clipPath><clipPath id="c66d704684"><rect x="0" width="56" y="0" height="50"/></clipPath><clipPath id="391e14ebef"><rect x="0" width="583" y="0" height="842"/></clipPath></defs><g clip-path="url(#4f28eece6b)"><path fill="#ffffff" d="M 0.246094 0 L 595.214844 0 L 595.214844 841.5 L 0.246094 841.5 Z M 0.246094 0 " fill-opacity="1" fill-rule="nonzero"/><path fill="#ffffff" d="M 0.246094 0 L 595.214844 0 L 595.214844 841.5 L 0.246094 841.5 Z M 0.246094 0 " fill-opacity="1" fill-rule="nonzero"/></g><g clip-path="url(#98289c6a62)"><g transform="matrix(1, 0, 0, 1, 6, 0)"><g clip-path="url(#391e14ebef)"><g clip-path="url(#a19d97fdaf)"><g clip-path="url(#3060d9bf52)"><g transform="matrix(1, 0, 0, 1, -0.000000000000001776, 0)"><g clip-path="url(#a2821100b4)"><g clip-path="url(#684ae66c4b)"><g clip-path="url(#c5628474eb)"><path fill="#ffffff" d="M 0.464844 0 L 582.773438 0 L 582.773438 841.617188 L 0.464844 841.617188 Z M 0.464844 0 " fill-opacity="1" fill-rule="nonzero"/></g></g></g></g></g></g><g clip-path="url(#cf898f6fec)"><g clip-path="url(#a08dfb8329)"><g transform="matrix(1, 0, 0, 1, 38, 36)"><g clip-path="url(#a1dd4f7130)"><g clip-path="url(#b5ddd9f52a)"><g clip-path="url(#2e03cc10d6)"><path fill="#ffffff" d="M 0.503906 0.253906 L 506.730469 0.253906 L 506.730469 769.480469 L 0.503906 769.480469 Z M 0.503906 0.253906 " fill-opacity="1" fill-rule="nonzero"/></g></g></g></g></g></g><g clip-path="url(#bf35ace37d)"><g clip-path="url(#388cbd03ed)"><path stroke-linecap="butt" transform="matrix(2.509805, 0, 0, 2.509805, 38.504697, 36.273706)" fill="none" stroke-linejoin="miter" d="M 11.045425 -0.000107011 L 190.64103 -0.000107011 C 196.742101 -0.000107011 201.68677 4.946118 201.68677 11.045633 L 201.68677 295.187445 C 201.68677 301.288516 196.742101 306.234741 190.64103 306.234741 L 11.045425 306.234741 C 4.94591 306.234741 -0.000314955 301.288516 -0.000314955 295.187445 L -0.000314955 11.045633 C -0.000314955 4.946118 4.94591 -0.000107011 11.045425 -0.000107011 Z M 11.045425 -0.000107011 " stroke="#6b1510" stroke-width="2.985621" stroke-opacity="1" stroke-miterlimit="4"/></g></g><g clip-path="url(#11935cea72)"><g clip-path="url(#76ccae9164)"><g transform="matrix(1, 0, 0, 1, 117, 235)"><g clip-path="url(#72e1cffae4)"><g clip-path="url(#15a381c85c)"><g clip-path="url(#6f52082bef)"><path fill="#6b1510" d="M 0.9375 0.648438 L 348.46875 0.648438 L 348.46875 304.292969 L 0.9375 304.292969 Z M 0.9375 0.648438 " fill-opacity="1" fill-rule="nonzero"/></g></g></g></g></g></g><g fill="#6b1510" fill-opacity="1"><g transform="translate(100.088721, 145.502137)"><g><path d="M 17.046875 1 C 15.785156 1 14.628906 0.675781 13.578125 0.03125 C 12.535156 -0.613281 11.707031 -1.75 11.09375 -3.375 C 10.488281 -5 10.1875 -7.234375 10.1875 -10.078125 C 10.1875 -14.953125 10.847656 -19.53125 12.171875 -23.8125 C 13.492188 -28.101562 15.125 -32.175781 17.0625 -36.03125 C 19 -39.894531 20.941406 -43.585938 22.890625 -47.109375 C 24.847656 -50.640625 26.484375 -54.078125 27.796875 -57.421875 C 29.109375 -60.773438 29.765625 -64.109375 29.765625 -67.421875 C 29.523438 -66.160156 28.972656 -65.015625 28.109375 -63.984375 C 27.253906 -62.960938 26.164062 -62.160156 24.84375 -61.578125 C 23.519531 -60.992188 22.03125 -60.703125 20.375 -60.703125 C 18.675781 -60.703125 17.320312 -60.851562 16.3125 -61.15625 C 15.300781 -61.457031 14.398438 -61.765625 13.609375 -62.078125 C 12.816406 -62.390625 11.941406 -62.546875 10.984375 -62.546875 C 10.085938 -62.546875 9.316406 -62.351562 8.671875 -61.96875 C 8.023438 -61.59375 7.519531 -60.957031 7.15625 -60.0625 C 6.789062 -59.164062 6.554688 -57.925781 6.453125 -56.34375 L 3.921875 -56.34375 L 3.921875 -69.546875 L 32.4375 -69.546875 C 32.4375 -68.191406 32.335938 -66.890625 32.140625 -65.640625 C 31.941406 -64.398438 31.691406 -63.148438 31.390625 -61.890625 C 31.097656 -60.640625 30.753906 -59.332031 30.359375 -57.96875 C 29.960938 -56.613281 29.539062 -55.148438 29.09375 -53.578125 C 28.644531 -52.003906 28.1875 -50.273438 27.71875 -48.390625 C 27.351562 -46.796875 26.992188 -45.128906 26.640625 -43.390625 C 26.296875 -41.648438 25.960938 -39.820312 25.640625 -37.90625 C 25.003906 -34.03125 24.507812 -29.804688 24.15625 -25.234375 C 23.8125 -20.660156 23.640625 -15.609375 23.640625 -10.078125 C 23.640625 -7.234375 23.347656 -5 22.765625 -3.375 C 22.191406 -1.75 21.40625 -0.613281 20.40625 0.03125 C 19.414062 0.675781 18.296875 1 17.046875 1 Z M 17.046875 1 "/></g></g></g><g fill="#6b1510" fill-opacity="1"><g transform="translate(482.795871, 686.965601)"><g><path d="M -17.046875 -1 C -15.785156 -1 -14.628906 -0.675781 -13.578125 -0.03125 C -12.535156 0.613281 -11.707031 1.75 -11.09375 3.375 C -10.488281 5 -10.1875 7.234375 -10.1875 10.078125 C -10.1875 14.953125 -10.847656 19.53125 -12.171875 23.8125 C -13.492188 28.101562 -15.125 32.175781 -17.0625 36.03125 C -19 39.894531 -20.941406 43.585938 -22.890625 47.109375 C -24.847656 50.640625 -26.484375 54.078125 -27.796875 57.421875 C -29.109375 60.773438 -29.765625 64.109375 -29.765625 67.421875 C -29.523438 66.160156 -28.972656 65.015625 -28.109375 63.984375 C -27.253906 62.960938 -26.164062 62.160156 -24.84375 61.578125 C -23.519531 60.992188 -22.03125 60.703125 -20.375 60.703125 C -18.675781 60.703125 -17.320312 60.851562 -16.3125 61.15625 C -15.300781 61.457031 -14.398438 61.765625 -13.609375 62.078125 C -12.816406 62.390625 -11.941406 62.546875 -10.984375 62.546875 C -10.085938 62.546875 -9.316406 62.351562 -8.671875 61.96875 C -8.023438 61.59375 -7.519531 60.957031 -7.15625 60.0625 C -6.789062 59.164062 -6.554688 57.925781 -6.453125 56.34375 L -3.921875 56.34375 L -3.921875 69.546875 L -32.4375 69.546875 C -32.4375 68.191406 -32.335938 66.890625 -32.140625 65.640625 C -31.941406 64.398438 -31.691406 63.148438 -31.390625 61.890625 C -31.097656 60.640625 -30.753906 59.332031 -30.359375 57.96875 C -29.960938 56.613281 -29.539062 55.148438 -29.09375 53.578125 C -28.644531 52.003906 -28.1875 50.273438 -27.71875 48.390625 C -27.351562 46.796875 -26.992188 45.128906 -26.640625 43.390625 C -26.296875 41.648438 -25.960938 39.820312 -25.640625 37.90625 C -25.003906 34.03125 -24.507812 29.804688 -24.15625 25.234375 C -23.8125 20.660156 -23.640625 15.609375 -23.640625 10.078125 C -23.640625 7.234375 -23.347656 5 -22.765625 3.375 C -22.191406 1.75 -21.40625 0.613281 -20.40625 -0.03125 C -19.414062 -0.675781 -18.296875 -1 -17.046875 -1 Z M -17.046875 -1 "/></g></g></g><g clip-path="url(#092fb68318)"><g clip-path="url(#c0f22f558a)"><g transform="matrix(1, 0, 0, 1, 433, 610)"><g clip-path="url(#698946ebba)"><g clip-path="url(#804fd136c7)"><g clip-path="url(#98e7b461ac)"><path fill="#6b1510" d="M 0.0898438 0.75 L 55.375 0.75 L 55.375 49.054688 L 0.0898438 49.054688 Z M 0.0898438 0.75 " fill-opacity="1" fill-rule="nonzero"/></g></g></g></g></g></g><g clip-path="url(#08e45bbff2)"><g clip-path="url(#38c21cfa3d)"><g transform="matrix(1, 0, 0, 1, 90, 158)"><g clip-path="url(#c66d704684)"><g clip-path="url(#661f6ab758)"><g clip-path="url(#f2ac50e380)"><path fill="#6b1510" d="M 0.335938 0.84375 L 55.621094 0.84375 L 55.621094 49.148438 L 0.335938 49.148438 Z M 0.335938 0.84375 " fill-opacity="1" fill-rule="nonzero"/></g></g></g></g></g></g></g></g></g></svg>