<svg xmlns="http://www.w3.org/2000/svg" xmlns:xlink="http://www.w3.org/1999/xlink" width="794" zoomAndPan="magnify" viewBox="0 0 594.95996 842.24997" height="1123" preserveAspectRatio="xMidYMid meet" version="1.0"><defs><g/><clipPath id="2a5541b1a8"><path d="M 0.246094 0 L 594.675781 0 L 594.675781 841.5 L 0.246094 841.5 Z M 0.246094 0 " clip-rule="nonzero"/></clipPath><clipPath id="6fa530c4a7"><path d="M 6 0 L 589 0 L 589 841.5 L 6 841.5 Z M 6 0 " clip-rule="nonzero"/></clipPath><clipPath id="26c71ec0fd"><path d="M 0.464844 0 L 582.773438 0 L 582.773438 841.5 L 0.464844 841.5 Z M 0.464844 0 " clip-rule="nonzero"/></clipPath><clipPath id="82b0989a96"><path d="M 28.1875 0 L 555.046875 0 C 570.359375 0 582.773438 12.414062 582.773438 27.726562 L 582.773438 813.414062 C 582.773438 828.726562 570.359375 841.140625 555.046875 841.140625 L 28.1875 841.140625 C 12.875 841.140625 0.464844 828.726562 0.464844 813.414062 L 0.464844 27.726562 C 0.464844 12.414062 12.875 0 28.1875 0 Z M 28.1875 0 " clip-rule="nonzero"/></clipPath><clipPath id="9e4a33905e"><path d="M 0.464844 0 L 582.773438 0 L 582.773438 841.171875 L 0.464844 841.171875 Z M 0.464844 0 " clip-rule="nonzero"/></clipPath><clipPath id="91ee98a81c"><path d="M 28.1875 0 L 555.046875 0 C 570.359375 0 582.773438 12.414062 582.773438 27.726562 L 582.773438 813.414062 C 582.773438 828.726562 570.359375 841.140625 555.046875 841.140625 L 28.1875 841.140625 C 12.875 841.140625 0.464844 828.726562 0.464844 813.414062 L 0.464844 27.726562 C 0.464844 12.414062 12.875 0 28.1875 0 Z M 28.1875 0 " clip-rule="nonzero"/></clipPath><clipPath id="2594401d4d"><rect x="0" width="583" y="0" height="842"/></clipPath><clipPath id="19f237830a"><path d="M 38.503906 36.253906 L 544.730469 36.253906 L 544.730469 805 L 38.503906 805 Z M 38.503906 36.253906 " clip-rule="nonzero"/></clipPath><clipPath id="a47bc77de5"><path d="M 66.230469 36.253906 L 517.003906 36.253906 C 532.316406 36.253906 544.730469 48.667969 544.730469 63.980469 L 544.730469 777.160156 C 544.730469 792.472656 532.316406 804.886719 517.003906 804.886719 L 66.230469 804.886719 C 50.917969 804.886719 38.503906 792.472656 38.503906 777.160156 L 38.503906 63.980469 C 38.503906 48.667969 50.917969 36.253906 66.230469 36.253906 Z M 66.230469 36.253906 " clip-rule="nonzero"/></clipPath><clipPath id="a82bd2f73a"><path d="M 0.503906 0.253906 L 506.730469 0.253906 L 506.730469 768.964844 L 0.503906 768.964844 Z M 0.503906 0.253906 " clip-rule="nonzero"/></clipPath><clipPath id="ecb64323cb"><path d="M 28.230469 0.253906 L 479.003906 0.253906 C 494.316406 0.253906 506.730469 12.667969 506.730469 27.980469 L 506.730469 741.160156 C 506.730469 756.472656 494.316406 768.886719 479.003906 768.886719 L 28.230469 768.886719 C 12.917969 768.886719 0.503906 756.472656 0.503906 741.160156 L 0.503906 27.980469 C 0.503906 12.667969 12.917969 0.253906 28.230469 0.253906 Z M 28.230469 0.253906 " clip-rule="nonzero"/></clipPath><clipPath id="76b57772b8"><rect x="0" width="507" y="0" height="769"/></clipPath><clipPath id="501b8c2fdf"><path d="M 38.503906 36.273438 L 545 36.273438 L 545 804.253906 L 38.503906 804.253906 Z M 38.503906 36.273438 " clip-rule="nonzero"/></clipPath><clipPath id="a64a60191a"><path d="M 66.226562 36.273438 L 516.976562 36.273438 C 532.289062 36.273438 544.699219 48.6875 544.699219 63.996094 L 544.699219 777.136719 C 544.699219 792.449219 532.289062 804.863281 516.976562 804.863281 L 66.226562 804.863281 C 50.917969 804.863281 38.503906 792.449219 38.503906 777.136719 L 38.503906 63.996094 C 38.503906 48.6875 50.917969 36.273438 66.226562 36.273438 Z M 66.226562 36.273438 " clip-rule="nonzero"/></clipPath><clipPath id="d6b2224893"><path d="M 117.9375 235.648438 L 465 235.648438 L 465 539.292969 L 117.9375 539.292969 Z M 117.9375 235.648438 " clip-rule="nonzero"/></clipPath><clipPath id="91e5822924"><path d="M 291.449219 235.648438 L 464.960938 539.292969 L 117.9375 539.292969 Z M 291.449219 235.648438 " clip-rule="nonzero"/></clipPath><clipPath id="e6a665435f"><path d="M 0.9375 0.648438 L 348 0.648438 L 348 304.292969 L 0.9375 304.292969 Z M 0.9375 0.648438 " clip-rule="nonzero"/></clipPath><clipPath id="c13880d123"><path d="M 174.449219 0.648438 L 347.960938 304.292969 L 0.9375 304.292969 Z M 174.449219 0.648438 " clip-rule="nonzero"/></clipPath><clipPath id="0177888c4f"><rect x="0" width="348" y="0" height="305"/></clipPath><clipPath id="9b2cad7a62"><path d="M 433.089844 610.75 L 488.375 610.75 L 488.375 659.054688 L 433.089844 659.054688 Z M 433.089844 610.75 " clip-rule="nonzero"/></clipPath><clipPath id="1887ef408c"><path d="M 460.691406 659.054688 L 488.296875 610.75 L 433.089844 610.75 Z M 460.691406 659.054688 " clip-rule="nonzero"/></clipPath><clipPath id="e4afeba328"><path d="M 0.0898438 0.75 L 55.375 0.75 L 55.375 49.054688 L 0.0898438 49.054688 Z M 0.0898438 0.75 " clip-rule="nonzero"/></clipPath><clipPath id="b93d4656e2"><path d="M 27.691406 49.054688 L 55.296875 0.75 L 0.0898438 0.75 Z M 27.691406 49.054688 " clip-rule="nonzero"/></clipPath><clipPath id="34d7cd7443"><rect x="0" width="56" y="0" height="50"/></clipPath><clipPath id="74d381ef3f"><path d="M 90.335938 158.84375 L 145.621094 158.84375 L 145.621094 207.148438 L 90.335938 207.148438 Z M 90.335938 158.84375 " clip-rule="nonzero"/></clipPath><clipPath id="52fe826e1a"><path d="M 117.9375 158.84375 L 145.539062 207.148438 L 90.335938 207.148438 Z M 117.9375 158.84375 " clip-rule="nonzero"/></clipPath><clipPath id="9a50713b14"><path d="M 0.335938 0.84375 L 55.550781 0.84375 L 55.550781 49.148438 L 0.335938 49.148438 Z M 0.335938 0.84375 " clip-rule="nonzero"/></clipPath><clipPath id="ba69a6080c"><path d="M 27.9375 0.84375 L 55.539062 49.148438 L 0.335938 49.148438 Z M 27.9375 0.84375 " clip-rule="nonzero"/></clipPath><clipPath id="d6209d9421"><rect x="0" width="56" y="0" height="50"/></clipPath><clipPath id="372ea4558c"><rect x="0" width="583" y="0" height="842"/></clipPath></defs><g clip-path="url(#2a5541b1a8)"><path fill="#ffffff" d="M 0.246094 0 L 595.214844 0 L 595.214844 841.5 L 0.246094 841.5 Z M 0.246094 0 " fill-opacity="1" fill-rule="nonzero"/><path fill="#ffffff" d="M 0.246094 0 L 595.214844 0 L 595.214844 841.5 L 0.246094 841.5 Z M 0.246094 0 " fill-opacity="1" fill-rule="nonzero"/></g><g clip-path="url(#6fa530c4a7)"><g transform="matrix(1, 0, 0, 1, 6, 0)"><g clip-path="url(#372ea4558c)"><g clip-path="url(#26c71ec0fd)"><g clip-path="url(#82b0989a96)"><g transform="matrix(1, 0, 0, 1, -0.000000000000001776, 0)"><g clip-path="url(#2594401d4d)"><g clip-path="url(#9e4a33905e)"><g clip-path="url(#91ee98a81c)"><path fill="#ffffff" d="M 0.464844 0 L 582.773438 0 L 582.773438 841.617188 L 0.464844 841.617188 Z M 0.464844 0 " fill-opacity="1" fill-rule="nonzero"/></g></g></g></g></g></g><g clip-path="url(#19f237830a)"><g clip-path="url(#a47bc77de5)"><g transform="matrix(1, 0, 0, 1, 38, 36)"><g clip-path="url(#76b57772b8)"><g clip-path="url(#a82bd2f73a)"><g clip-path="url(#ecb64323cb)"><path fill="#ffffff" d="M 0.503906 0.253906 L 506.730469 0.253906 L 506.730469 769.480469 L 0.503906 769.480469 Z M 0.503906 0.253906 " fill-opacity="1" fill-rule="nonzero"/></g></g></g></g></g></g><g clip-path="url(#501b8c2fdf)"><g clip-path="url(#a64a60191a)"><path stroke-linecap="butt" transform="matrix(2.509805, 0, 0, 2.509805, 38.504697, 36.273706)" fill="none" stroke-linejoin="miter" d="M 11.045425 -0.000107011 L 190.64103 -0.000107011 C 196.742101 -0.000107011 201.68677 4.946118 201.68677 11.045633 L 201.68677 295.187445 C 201.68677 301.288516 196.742101 306.234741 190.64103 306.234741 L 11.045425 306.234741 C 4.94591 306.234741 -0.000314955 301.288516 -0.000314955 295.187445 L -0.000314955 11.045633 C -0.000314955 4.946118 4.94591 -0.000107011 11.045425 -0.000107011 Z M 11.045425 -0.000107011 " stroke="#6b1510" stroke-width="2.985621" stroke-opacity="1" stroke-miterlimit="4"/></g></g><g clip-path="url(#d6b2224893)"><g clip-path="url(#91e5822924)"><g transform="matrix(1, 0, 0, 1, 117, 235)"><g clip-path="url(#0177888c4f)"><g clip-path="url(#e6a665435f)"><g clip-path="url(#c13880d123)"><path fill="#6b1510" d="M 0.9375 0.648438 L 348.46875 0.648438 L 348.46875 304.292969 L 0.9375 304.292969 Z M 0.9375 0.648438 " fill-opacity="1" fill-rule="nonzero"/></g></g></g></g></g></g><g fill="#6b1510" fill-opacity="1"><g transform="translate(97.461269, 145.502137)"><g><path d="M 17.640625 1.1875 C 14.953125 1.1875 12.640625 0.582031 10.703125 -0.625 C 8.765625 -1.832031 7.28125 -3.453125 6.25 -5.484375 C 5.226562 -7.523438 4.71875 -9.785156 4.71875 -12.265625 C 4.71875 -14.554688 5.226562 -16.28125 6.25 -17.4375 C 7.28125 -18.59375 8.476562 -19.171875 9.84375 -19.171875 C 11.195312 -19.171875 12.296875 -18.710938 13.140625 -17.796875 C 13.984375 -16.890625 14.40625 -15.492188 14.40625 -13.609375 C 14.40625 -12.484375 14.125 -11.515625 13.5625 -10.703125 C 13 -9.890625 12.425781 -9.109375 11.84375 -8.359375 C 11.269531 -7.617188 10.984375 -6.753906 10.984375 -5.765625 C 10.984375 -5.035156 11.164062 -4.332031 11.53125 -3.65625 C 11.894531 -2.976562 12.472656 -2.429688 13.265625 -2.015625 C 14.054688 -1.597656 15.097656 -1.390625 16.390625 -1.390625 C 18.242188 -1.390625 19.660156 -2.242188 20.640625 -3.953125 C 21.617188 -5.660156 22.28125 -8.007812 22.625 -11 C 22.976562 -14 23.15625 -17.40625 23.15625 -21.21875 C 23.15625 -25.414062 23.003906 -28.804688 22.703125 -31.390625 C 22.398438 -33.972656 21.972656 -35.953125 21.421875 -37.328125 C 20.878906 -38.703125 20.242188 -39.640625 19.515625 -40.140625 C 18.796875 -40.640625 18.003906 -40.890625 17.140625 -40.890625 C 15.710938 -40.890625 14.484375 -40.523438 13.453125 -39.796875 C 12.429688 -39.066406 11.570312 -38.117188 10.875 -36.953125 C 10.1875 -35.796875 9.609375 -34.570312 9.140625 -33.28125 L 6.515625 -33.6875 L 10.03125 -69.546875 L 12.421875 -69.546875 C 12.648438 -68.890625 13.394531 -68.257812 14.65625 -67.65625 C 15.914062 -67.0625 17.363281 -66.570312 19 -66.1875 C 20.644531 -65.8125 22.175781 -65.625 23.59375 -65.625 C 26.144531 -65.625 28.234375 -66.035156 29.859375 -66.859375 C 31.484375 -67.691406 32.3125 -68.585938 32.34375 -69.546875 L 34.375 -69.546875 C 34.375 -67.523438 34 -65.492188 33.25 -63.453125 C 32.507812 -61.421875 31.351562 -59.734375 29.78125 -58.390625 C 28.207031 -57.054688 26.179688 -56.390625 23.703125 -56.390625 C 21.847656 -56.390625 20.210938 -56.726562 18.796875 -57.40625 C 17.390625 -58.082031 16.222656 -58.898438 15.296875 -59.859375 C 14.367188 -60.828125 13.65625 -61.753906 13.15625 -62.640625 C 12.664062 -63.535156 12.367188 -64.203125 12.265625 -64.640625 L 9.734375 -38.109375 C 10.097656 -39.035156 10.6875 -39.9375 11.5 -40.8125 C 12.3125 -41.6875 13.394531 -42.421875 14.75 -43.015625 C 16.113281 -43.617188 17.722656 -43.921875 19.578125 -43.921875 C 21.359375 -43.921875 23.175781 -43.546875 25.03125 -42.796875 C 26.894531 -42.054688 28.613281 -40.832031 30.1875 -39.125 C 31.757812 -37.414062 33.023438 -35.128906 33.984375 -32.265625 C 34.941406 -29.398438 35.421875 -25.832031 35.421875 -21.5625 C 35.421875 -16.851562 34.875 -13.007812 33.78125 -10.03125 C 32.6875 -7.050781 31.242188 -4.75 29.453125 -3.125 C 27.671875 -1.507812 25.742188 -0.390625 23.671875 0.234375 C 21.597656 0.867188 19.585938 1.1875 17.640625 1.1875 Z M 17.640625 1.1875 "/></g></g></g><g fill="#6b1510" fill-opacity="1"><g transform="translate(485.423324, 686.965601)"><g><path d="M -17.640625 -1.1875 C -14.953125 -1.1875 -12.640625 -0.582031 -10.703125 0.625 C -8.765625 1.832031 -7.28125 3.453125 -6.25 5.484375 C -5.226562 7.523438 -4.71875 9.785156 -4.71875 12.265625 C -4.71875 14.554688 -5.226562 16.28125 -6.25 17.4375 C -7.28125 18.59375 -8.476562 19.171875 -9.84375 19.171875 C -11.195312 19.171875 -12.296875 18.710938 -13.140625 17.796875 C -13.984375 16.890625 -14.40625 15.492188 -14.40625 13.609375 C -14.40625 12.484375 -14.125 11.515625 -13.5625 10.703125 C -13 9.890625 -12.425781 9.109375 -11.84375 8.359375 C -11.269531 7.617188 -10.984375 6.753906 -10.984375 5.765625 C -10.984375 5.035156 -11.164062 4.332031 -11.53125 3.65625 C -11.894531 2.976562 -12.472656 2.429688 -13.265625 2.015625 C -14.054688 1.597656 -15.097656 1.390625 -16.390625 1.390625 C -18.242188 1.390625 -19.660156 2.242188 -20.640625 3.953125 C -21.617188 5.660156 -22.28125 8.007812 -22.625 11 C -22.976562 14 -23.15625 17.40625 -23.15625 21.21875 C -23.15625 25.414062 -23.003906 28.804688 -22.703125 31.390625 C -22.398438 33.972656 -21.972656 35.953125 -21.421875 37.328125 C -20.878906 38.703125 -20.242188 39.640625 -19.515625 40.140625 C -18.796875 40.640625 -18.003906 40.890625 -17.140625 40.890625 C -15.710938 40.890625 -14.484375 40.523438 -13.453125 39.796875 C -12.429688 39.066406 -11.570312 38.117188 -10.875 36.953125 C -10.1875 35.796875 -9.609375 34.570312 -9.140625 33.28125 L -6.515625 33.6875 L -10.03125 69.546875 L -12.421875 69.546875 C -12.648438 68.890625 -13.394531 68.257812 -14.65625 67.65625 C -15.914062 67.0625 -17.363281 66.570312 -19 66.1875 C -20.644531 65.8125 -22.175781 65.625 -23.59375 65.625 C -26.144531 65.625 -28.234375 66.035156 -29.859375 66.859375 C -31.484375 67.691406 -32.3125 68.585938 -32.34375 69.546875 L -34.375 69.546875 C -34.375 67.523438 -34 65.492188 -33.25 63.453125 C -32.507812 61.421875 -31.351562 59.734375 -29.78125 58.390625 C -28.207031 57.054688 -26.179688 56.390625 -23.703125 56.390625 C -21.847656 56.390625 -20.210938 56.726562 -18.796875 57.40625 C -17.390625 58.082031 -16.222656 58.898438 -15.296875 59.859375 C -14.367188 60.828125 -13.65625 61.753906 -13.15625 62.640625 C -12.664062 63.535156 -12.367188 64.203125 -12.265625 64.640625 L -9.734375 38.109375 C -10.097656 39.035156 -10.6875 39.9375 -11.5 40.8125 C -12.3125 41.6875 -13.394531 42.421875 -14.75 43.015625 C -16.113281 43.617188 -17.722656 43.921875 -19.578125 43.921875 C -21.359375 43.921875 -23.175781 43.546875 -25.03125 42.796875 C -26.894531 42.054688 -28.613281 40.832031 -30.1875 39.125 C -31.757812 37.414062 -33.023438 35.128906 -33.984375 32.265625 C -34.941406 29.398438 -35.421875 25.832031 -35.421875 21.5625 C -35.421875 16.851562 -34.875 13.007812 -33.78125 10.03125 C -32.6875 7.050781 -31.242188 4.75 -29.453125 3.125 C -27.671875 1.507812 -25.742188 0.390625 -23.671875 -0.234375 C -21.597656 -0.867188 -19.585938 -1.1875 -17.640625 -1.1875 Z M -17.640625 -1.1875 "/></g></g></g><g clip-path="url(#9b2cad7a62)"><g clip-path="url(#1887ef408c)"><g transform="matrix(1, 0, 0, 1, 433, 610)"><g clip-path="url(#34d7cd7443)"><g clip-path="url(#e4afeba328)"><g clip-path="url(#b93d4656e2)"><path fill="#6b1510" d="M 0.0898438 0.75 L 55.375 0.75 L 55.375 49.054688 L 0.0898438 49.054688 Z M 0.0898438 0.75 " fill-opacity="1" fill-rule="nonzero"/></g></g></g></g></g></g><g clip-path="url(#74d381ef3f)"><g clip-path="url(#52fe826e1a)"><g transform="matrix(1, 0, 0, 1, 90, 158)"><g clip-path="url(#d6209d9421)"><g clip-path="url(#9a50713b14)"><g clip-path="url(#ba69a6080c)"><path fill="#6b1510" d="M 0.335938 0.84375 L 55.621094 0.84375 L 55.621094 49.148438 L 0.335938 49.148438 Z M 0.335938 0.84375 " fill-opacity="1" fill-rule="nonzero"/></g></g></g></g></g></g></g></g></g></svg>