<svg xmlns="http://www.w3.org/2000/svg" xmlns:xlink="http://www.w3.org/1999/xlink" width="794" zoomAndPan="magnify" viewBox="0 0 594.95996 842.24997" height="1123" preserveAspectRatio="xMidYMid meet" version="1.0"><defs><g/><clipPath id="e738c25ebf"><path d="M 0.246094 0 L 594.675781 0 L 594.675781 841.5 L 0.246094 841.5 Z M 0.246094 0 " clip-rule="nonzero"/></clipPath><clipPath id="bd90c0dc1b"><path d="M 6 0 L 589 0 L 589 841.5 L 6 841.5 Z M 6 0 " clip-rule="nonzero"/></clipPath><clipPath id="7fa8359209"><path d="M 0.464844 0 L 582.773438 0 L 582.773438 841.5 L 0.464844 841.5 Z M 0.464844 0 " clip-rule="nonzero"/></clipPath><clipPath id="1190324517"><path d="M 28.1875 0 L 555.046875 0 C 570.359375 0 582.773438 12.414062 582.773438 27.726562 L 582.773438 813.414062 C 582.773438 828.726562 570.359375 841.140625 555.046875 841.140625 L 28.1875 841.140625 C 12.875 841.140625 0.464844 828.726562 0.464844 813.414062 L 0.464844 27.726562 C 0.464844 12.414062 12.875 0 28.1875 0 Z M 28.1875 0 " clip-rule="nonzero"/></clipPath><clipPath id="d17871ba6c"><path d="M 0.464844 0 L 582.773438 0 L 582.773438 841.171875 L 0.464844 841.171875 Z M 0.464844 0 " clip-rule="nonzero"/></clipPath><clipPath id="fcaa2af380"><path d="M 28.1875 0 L 555.046875 0 C 570.359375 0 582.773438 12.414062 582.773438 27.726562 L 582.773438 813.414062 C 582.773438 828.726562 570.359375 841.140625 555.046875 841.140625 L 28.1875 841.140625 C 12.875 841.140625 0.464844 828.726562 0.464844 813.414062 L 0.464844 27.726562 C 0.464844 12.414062 12.875 0 28.1875 0 Z M 28.1875 0 " clip-rule="nonzero"/></clipPath><clipPath id="049ff687da"><rect x="0" width="583" y="0" height="842"/></clipPath><clipPath id="a627a15ee7"><path d="M 38.503906 36.253906 L 544.730469 36.253906 L 544.730469 805 L 38.503906 805 Z M 38.503906 36.253906 " clip-rule="nonzero"/></clipPath><clipPath id="ebe59e81a0"><path d="M 66.230469 36.253906 L 517.003906 36.253906 C 532.316406 36.253906 544.730469 48.667969 544.730469 63.980469 L 544.730469 777.160156 C 544.730469 792.472656 532.316406 804.886719 517.003906 804.886719 L 66.230469 804.886719 C 50.917969 804.886719 38.503906 792.472656 38.503906 777.160156 L 38.503906 63.980469 C 38.503906 48.667969 50.917969 36.253906 66.230469 36.253906 Z M 66.230469 36.253906 " clip-rule="nonzero"/></clipPath><clipPath id="298d93e41a"><path d="M 0.503906 0.253906 L 506.730469 0.253906 L 506.730469 768.964844 L 0.503906 768.964844 Z M 0.503906 0.253906 " clip-rule="nonzero"/></clipPath><clipPath id="3da209e69e"><path d="M 28.230469 0.253906 L 479.003906 0.253906 C 494.316406 0.253906 506.730469 12.667969 506.730469 27.980469 L 506.730469 741.160156 C 506.730469 756.472656 494.316406 768.886719 479.003906 768.886719 L 28.230469 768.886719 C 12.917969 768.886719 0.503906 756.472656 0.503906 741.160156 L 0.503906 27.980469 C 0.503906 12.667969 12.917969 0.253906 28.230469 0.253906 Z M 28.230469 0.253906 " clip-rule="nonzero"/></clipPath><clipPath id="6ec2391e1c"><rect x="0" width="507" y="0" height="769"/></clipPath><clipPath id="2319a9dfd4"><path d="M 38.503906 36.273438 L 545 36.273438 L 545 804.253906 L 38.503906 804.253906 Z M 38.503906 36.273438 " clip-rule="nonzero"/></clipPath><clipPath id="796696b340"><path d="M 66.226562 36.273438 L 516.976562 36.273438 C 532.289062 36.273438 544.699219 48.6875 544.699219 63.996094 L 544.699219 777.136719 C 544.699219 792.449219 532.289062 804.863281 516.976562 804.863281 L 66.226562 804.863281 C 50.917969 804.863281 38.503906 792.449219 38.503906 777.136719 L 38.503906 63.996094 C 38.503906 48.6875 50.917969 36.273438 66.226562 36.273438 Z M 66.226562 36.273438 " clip-rule="nonzero"/></clipPath><clipPath id="65360b0b2a"><path d="M 117.9375 235.648438 L 465 235.648438 L 465 539.292969 L 117.9375 539.292969 Z M 117.9375 235.648438 " clip-rule="nonzero"/></clipPath><clipPath id="95f2d87e4b"><path d="M 291.449219 235.648438 L 464.960938 539.292969 L 117.9375 539.292969 Z M 291.449219 235.648438 " clip-rule="nonzero"/></clipPath><clipPath id="54fa83be0e"><path d="M 0.9375 0.648438 L 348 0.648438 L 348 304.292969 L 0.9375 304.292969 Z M 0.9375 0.648438 " clip-rule="nonzero"/></clipPath><clipPath id="fd15978312"><path d="M 174.449219 0.648438 L 347.960938 304.292969 L 0.9375 304.292969 Z M 174.449219 0.648438 " clip-rule="nonzero"/></clipPath><clipPath id="d81a249b78"><rect x="0" width="348" y="0" height="305"/></clipPath><clipPath id="5872e4a678"><path d="M 433.089844 610.75 L 488.375 610.75 L 488.375 659.054688 L 433.089844 659.054688 Z M 433.089844 610.75 " clip-rule="nonzero"/></clipPath><clipPath id="12f2b23e81"><path d="M 460.691406 659.054688 L 488.296875 610.75 L 433.089844 610.75 Z M 460.691406 659.054688 " clip-rule="nonzero"/></clipPath><clipPath id="8b5ef996db"><path d="M 0.0898438 0.75 L 55.375 0.75 L 55.375 49.054688 L 0.0898438 49.054688 Z M 0.0898438 0.75 " clip-rule="nonzero"/></clipPath><clipPath id="77da399ddb"><path d="M 27.691406 49.054688 L 55.296875 0.75 L 0.0898438 0.75 Z M 27.691406 49.054688 " clip-rule="nonzero"/></clipPath><clipPath id="2bebe3f55f"><rect x="0" width="56" y="0" height="50"/></clipPath><clipPath id="0430ae0aa4"><path d="M 90.335938 158.84375 L 145.621094 158.84375 L 145.621094 207.148438 L 90.335938 207.148438 Z M 90.335938 158.84375 " clip-rule="nonzero"/></clipPath><clipPath id="19e1ac6477"><path d="M 117.9375 158.84375 L 145.539062 207.148438 L 90.335938 207.148438 Z M 117.9375 158.84375 " clip-rule="nonzero"/></clipPath><clipPath id="3c97e92038"><path d="M 0.335938 0.84375 L 55.550781 0.84375 L 55.550781 49.148438 L 0.335938 49.148438 Z M 0.335938 0.84375 " clip-rule="nonzero"/></clipPath><clipPath id="a82b52d969"><path d="M 27.9375 0.84375 L 55.539062 49.148438 L 0.335938 49.148438 Z M 27.9375 0.84375 " clip-rule="nonzero"/></clipPath><clipPath id="f8e5ae82f5"><rect x="0" width="56" y="0" height="50"/></clipPath><clipPath id="99ae4f0815"><rect x="0" width="583" y="0" height="842"/></clipPath></defs><g clip-path="url(#e738c25ebf)"><path fill="#ffffff" d="M 0.246094 0 L 595.214844 0 L 595.214844 841.5 L 0.246094 841.5 Z M 0.246094 0 " fill-opacity="1" fill-rule="nonzero"/><path fill="#ffffff" d="M 0.246094 0 L 595.214844 0 L 595.214844 841.5 L 0.246094 841.5 Z M 0.246094 0 " fill-opacity="1" fill-rule="nonzero"/></g><g clip-path="url(#bd90c0dc1b)"><g transform="matrix(1, 0, 0, 1, 6, 0)"><g clip-path="url(#99ae4f0815)"><g clip-path="url(#7fa8359209)"><g clip-path="url(#1190324517)"><g transform="matrix(1, 0, 0, 1, -0.000000000000001776, 0)"><g clip-path="url(#049ff687da)"><g clip-path="url(#d17871ba6c)"><g clip-path="url(#fcaa2af380)"><path fill="#ffffff" d="M 0.464844 0 L 582.773438 0 L 582.773438 841.617188 L 0.464844 841.617188 Z M 0.464844 0 " fill-opacity="1" fill-rule="nonzero"/></g></g></g></g></g></g><g clip-path="url(#a627a15ee7)"><g clip-path="url(#ebe59e81a0)"><g transform="matrix(1, 0, 0, 1, 38, 36)"><g clip-path="url(#6ec2391e1c)"><g clip-path="url(#298d93e41a)"><g clip-path="url(#3da209e69e)"><path fill="#ffffff" d="M 0.503906 0.253906 L 506.730469 0.253906 L 506.730469 769.480469 L 0.503906 769.480469 Z M 0.503906 0.253906 " fill-opacity="1" fill-rule="nonzero"/></g></g></g></g></g></g><g clip-path="url(#2319a9dfd4)"><g clip-path="url(#796696b340)"><path stroke-linecap="butt" transform="matrix(2.509805, 0, 0, 2.509805, 38.504697, 36.273706)" fill="none" stroke-linejoin="miter" d="M 11.045425 -0.000107011 L 190.64103 -0.000107011 C 196.742101 -0.000107011 201.68677 4.946118 201.68677 11.045633 L 201.68677 295.187445 C 201.68677 301.288516 196.742101 306.234741 190.64103 306.234741 L 11.045425 306.234741 C 4.94591 306.234741 -0.000314955 301.288516 -0.000314955 295.187445 L -0.000314955 11.045633 C -0.000314955 4.946118 4.94591 -0.000107011 11.045425 -0.000107011 Z M 11.045425 -0.000107011 " stroke="#6b1510" stroke-width="2.985621" stroke-opacity="1" stroke-miterlimit="4"/></g></g><g clip-path="url(#65360b0b2a)"><g clip-path="url(#95f2d87e4b)"><g transform="matrix(1, 0, 0, 1, 117, 235)"><g clip-path="url(#d81a249b78)"><g clip-path="url(#54fa83be0e)"><g clip-path="url(#fd15978312)"><path fill="#6b1510" d="M 0.9375 0.648438 L 348.46875 0.648438 L 348.46875 304.292969 L 0.9375 304.292969 Z M 0.9375 0.648438 " fill-opacity="1" fill-rule="nonzero"/></g></g></g></g></g></g><g fill="#6b1510" fill-opacity="1"><g transform="translate(99.931858, 145.502137)"><g><path d="M 9.890625 0 L 9.890625 -2.578125 L 14.5625 -2.578125 L 14.5625 -18.078125 L 2.03125 -18.078125 L 2.03125 -20.671875 L 14.609375 -61.703125 C 16.628906 -62.859375 18.390625 -64.226562 19.890625 -65.8125 C 21.398438 -67.40625 22.785156 -69.234375 24.046875 -71.296875 L 26.484375 -71.296875 L 26.484375 -20.671875 L 27.125 -20.671875 C 28.414062 -20.671875 29.34375 -21.519531 29.90625 -23.21875 C 30.46875 -24.925781 30.75 -26.988281 30.75 -29.40625 L 33.140625 -29.40625 L 33.140625 -18.078125 L 26.484375 -18.078125 L 26.484375 -2.578125 L 31.046875 -2.578125 L 31.046875 0 Z M 4.671875 -20.171875 L 4.21875 -20.671875 L 14.65625 -20.671875 L 14.65625 -54.890625 L 14.796875 -53.15625 Z M 4.671875 -20.171875 "/></g></g></g><g fill="#6b1510" fill-opacity="1"><g transform="translate(482.952734, 686.965601)"><g><path d="M -9.890625 0 L -9.890625 2.578125 L -14.5625 2.578125 L -14.5625 18.078125 L -2.03125 18.078125 L -2.03125 20.671875 L -14.609375 61.703125 C -16.628906 62.859375 -18.390625 64.226562 -19.890625 65.8125 C -21.398438 67.40625 -22.785156 69.234375 -24.046875 71.296875 L -26.484375 71.296875 L -26.484375 20.671875 L -27.125 20.671875 C -28.414062 20.671875 -29.34375 21.519531 -29.90625 23.21875 C -30.46875 24.925781 -30.75 26.988281 -30.75 29.40625 L -33.140625 29.40625 L -33.140625 18.078125 L -26.484375 18.078125 L -26.484375 2.578125 L -31.046875 2.578125 L -31.046875 0 Z M -4.671875 20.171875 L -4.21875 20.671875 L -14.65625 20.671875 L -14.65625 54.890625 L -14.796875 53.15625 Z M -4.671875 20.171875 "/></g></g></g><g clip-path="url(#5872e4a678)"><g clip-path="url(#12f2b23e81)"><g transform="matrix(1, 0, 0, 1, 433, 610)"><g clip-path="url(#2bebe3f55f)"><g clip-path="url(#8b5ef996db)"><g clip-path="url(#77da399ddb)"><path fill="#6b1510" d="M 0.0898438 0.75 L 55.375 0.75 L 55.375 49.054688 L 0.0898438 49.054688 Z M 0.0898438 0.75 " fill-opacity="1" fill-rule="nonzero"/></g></g></g></g></g></g><g clip-path="url(#0430ae0aa4)"><g clip-path="url(#19e1ac6477)"><g transform="matrix(1, 0, 0, 1, 90, 158)"><g clip-path="url(#f8e5ae82f5)"><g clip-path="url(#3c97e92038)"><g clip-path="url(#a82b52d969)"><path fill="#6b1510" d="M 0.335938 0.84375 L 55.621094 0.84375 L 55.621094 49.148438 L 0.335938 49.148438 Z M 0.335938 0.84375 " fill-opacity="1" fill-rule="nonzero"/></g></g></g></g></g></g></g></g></g></svg>