<svg xmlns="http://www.w3.org/2000/svg" xmlns:xlink="http://www.w3.org/1999/xlink" width="794" zoomAndPan="magnify" viewBox="0 0 594.95996 842.24997" height="1123" preserveAspectRatio="xMidYMid meet" version="1.0"><defs><g/><clipPath id="ab98088299"><path d="M 0.246094 0 L 594.675781 0 L 594.675781 841.5 L 0.246094 841.5 Z M 0.246094 0 " clip-rule="nonzero"/></clipPath><clipPath id="4a17e8f46f"><path d="M 6 0 L 589 0 L 589 841.5 L 6 841.5 Z M 6 0 " clip-rule="nonzero"/></clipPath><clipPath id="6ba3f1b70e"><path d="M 0.464844 0 L 582.773438 0 L 582.773438 841.5 L 0.464844 841.5 Z M 0.464844 0 " clip-rule="nonzero"/></clipPath><clipPath id="45fd9b7f75"><path d="M 28.1875 0 L 555.046875 0 C 570.359375 0 582.773438 12.414062 582.773438 27.726562 L 582.773438 813.414062 C 582.773438 828.726562 570.359375 841.140625 555.046875 841.140625 L 28.1875 841.140625 C 12.875 841.140625 0.464844 828.726562 0.464844 813.414062 L 0.464844 27.726562 C 0.464844 12.414062 12.875 0 28.1875 0 Z M 28.1875 0 " clip-rule="nonzero"/></clipPath><clipPath id="59ca5a72fc"><path d="M 0.464844 0 L 582.773438 0 L 582.773438 841.171875 L 0.464844 841.171875 Z M 0.464844 0 " clip-rule="nonzero"/></clipPath><clipPath id="cd70296874"><path d="M 28.1875 0 L 555.046875 0 C 570.359375 0 582.773438 12.414062 582.773438 27.726562 L 582.773438 813.414062 C 582.773438 828.726562 570.359375 841.140625 555.046875 841.140625 L 28.1875 841.140625 C 12.875 841.140625 0.464844 828.726562 0.464844 813.414062 L 0.464844 27.726562 C 0.464844 12.414062 12.875 0 28.1875 0 Z M 28.1875 0 " clip-rule="nonzero"/></clipPath><clipPath id="c8cb5f1fec"><rect x="0" width="583" y="0" height="842"/></clipPath><clipPath id="a17f8aa912"><path d="M 38.503906 36.253906 L 544.730469 36.253906 L 544.730469 805 L 38.503906 805 Z M 38.503906 36.253906 " clip-rule="nonzero"/></clipPath><clipPath id="7c0aee4c5b"><path d="M 66.230469 36.253906 L 517.003906 36.253906 C 532.316406 36.253906 544.730469 48.667969 544.730469 63.980469 L 544.730469 777.160156 C 544.730469 792.472656 532.316406 804.886719 517.003906 804.886719 L 66.230469 804.886719 C 50.917969 804.886719 38.503906 792.472656 38.503906 777.160156 L 38.503906 63.980469 C 38.503906 48.667969 50.917969 36.253906 66.230469 36.253906 Z M 66.230469 36.253906 " clip-rule="nonzero"/></clipPath><clipPath id="d9b391ace5"><path d="M 0.503906 0.253906 L 506.730469 0.253906 L 506.730469 768.964844 L 0.503906 768.964844 Z M 0.503906 0.253906 " clip-rule="nonzero"/></clipPath><clipPath id="e53cb9d065"><path d="M 28.230469 0.253906 L 479.003906 0.253906 C 494.316406 0.253906 506.730469 12.667969 506.730469 27.980469 L 506.730469 741.160156 C 506.730469 756.472656 494.316406 768.886719 479.003906 768.886719 L 28.230469 768.886719 C 12.917969 768.886719 0.503906 756.472656 0.503906 741.160156 L 0.503906 27.980469 C 0.503906 12.667969 12.917969 0.253906 28.230469 0.253906 Z M 28.230469 0.253906 " clip-rule="nonzero"/></clipPath><clipPath id="bf7aeb5906"><rect x="0" width="507" y="0" height="769"/></clipPath><clipPath id="f8c96a5a65"><path d="M 38.503906 36.273438 L 545 36.273438 L 545 804.253906 L 38.503906 804.253906 Z M 38.503906 36.273438 " clip-rule="nonzero"/></clipPath><clipPath id="94844f8d9a"><path d="M 66.226562 36.273438 L 516.976562 36.273438 C 532.289062 36.273438 544.699219 48.6875 544.699219 63.996094 L 544.699219 777.136719 C 544.699219 792.449219 532.289062 804.863281 516.976562 804.863281 L 66.226562 804.863281 C 50.917969 804.863281 38.503906 792.449219 38.503906 777.136719 L 38.503906 63.996094 C 38.503906 48.6875 50.917969 36.273438 66.226562 36.273438 Z M 66.226562 36.273438 " clip-rule="nonzero"/></clipPath><clipPath id="97afdd360b"><rect x="0" width="111" y="0" height="102"/></clipPath><clipPath id="bf61696783"><rect x="0" width="111" y="0" height="102"/></clipPath><clipPath id="ceaae41bba"><rect x="0" width="583" y="0" height="842"/></clipPath></defs><g clip-path="url(#ab98088299)"><path fill="#ffffff" d="M 0.246094 0 L 595.214844 0 L 595.214844 841.5 L 0.246094 841.5 Z M 0.246094 0 " fill-opacity="1" fill-rule="nonzero"/><path fill="#ffffff" d="M 0.246094 0 L 595.214844 0 L 595.214844 841.5 L 0.246094 841.5 Z M 0.246094 0 " fill-opacity="1" fill-rule="nonzero"/></g><g clip-path="url(#4a17e8f46f)"><g transform="matrix(1, 0, 0, 1, 6, 0)"><g clip-path="url(#ceaae41bba)"><g clip-path="url(#6ba3f1b70e)"><g clip-path="url(#45fd9b7f75)"><g transform="matrix(1, 0, 0, 1, -0.000000000000001776, 0)"><g clip-path="url(#c8cb5f1fec)"><g clip-path="url(#59ca5a72fc)"><g clip-path="url(#cd70296874)"><path fill="#ffffff" d="M 0.464844 0 L 582.773438 0 L 582.773438 841.617188 L 0.464844 841.617188 Z M 0.464844 0 " fill-opacity="1" fill-rule="nonzero"/></g></g></g></g></g></g><g clip-path="url(#a17f8aa912)"><g clip-path="url(#7c0aee4c5b)"><g transform="matrix(1, 0, 0, 1, 38, 36)"><g clip-path="url(#bf7aeb5906)"><g clip-path="url(#d9b391ace5)"><g clip-path="url(#e53cb9d065)"><path fill="#ffffff" d="M 0.503906 0.253906 L 506.730469 0.253906 L 506.730469 769.480469 L 0.503906 769.480469 Z M 0.503906 0.253906 " fill-opacity="1" fill-rule="nonzero"/></g></g></g></g></g></g><g clip-path="url(#f8c96a5a65)"><g clip-path="url(#94844f8d9a)"><path stroke-linecap="butt" transform="matrix(2.509805, 0, 0, 2.509805, 38.504697, 36.273706)" fill="none" stroke-linejoin="miter" d="M 11.045425 -0.000107011 L 190.64103 -0.000107011 C 196.742101 -0.000107011 201.68677 4.946118 201.68677 11.045633 L 201.68677 295.187445 C 201.68677 301.288516 196.742101 306.234741 190.64103 306.234741 L 11.045425 306.234741 C 4.94591 306.234741 -0.000314955 301.288516 -0.000314955 295.187445 L -0.000314955 11.045633 C -0.000314955 4.946118 4.94591 -0.000107011 11.045425 -0.000107011 Z M 11.045425 -0.000107011 " stroke="#6b1510" stroke-width="2.985621" stroke-opacity="1" stroke-miterlimit="4"/></g></g><g fill="#6b1510" fill-opacity="1"><g transform="translate(76.520083, 145.502137)"><g><path d="M 25.28125 0.546875 C 23.789062 0.546875 22.382812 0.28125 21.0625 -0.25 C 19.738281 -0.78125 18.460938 -1.390625 17.234375 -2.078125 C 16.015625 -2.773438 14.800781 -3.394531 13.59375 -3.9375 C 12.382812 -4.488281 11.148438 -4.765625 9.890625 -4.765625 C 8.398438 -4.765625 7.253906 -4.226562 6.453125 -3.15625 C 5.660156 -2.082031 5.179688 -1.03125 5.015625 0 L 2.734375 0 C 2.734375 -5.425781 3.21875 -10.160156 4.1875 -14.203125 C 5.164062 -18.242188 6.425781 -21.8125 7.96875 -24.90625 C 9.507812 -28.007812 11.148438 -30.800781 12.890625 -33.28125 C 14.628906 -35.769531 16.257812 -38.140625 17.78125 -40.390625 C 19.3125 -42.640625 20.5625 -44.945312 21.53125 -47.3125 C 22.507812 -49.6875 23 -52.332031 23 -55.25 C 23 -57.957031 22.757812 -60.269531 22.28125 -62.1875 C 21.800781 -64.113281 21.0625 -65.585938 20.0625 -66.609375 C 19.070312 -67.640625 17.832031 -68.15625 16.34375 -68.15625 C 15.25 -68.15625 14.210938 -67.941406 13.234375 -67.515625 C 12.265625 -67.085938 11.472656 -66.539062 10.859375 -65.875 C 10.242188 -65.207031 9.9375 -64.492188 9.9375 -63.734375 C 9.9375 -63.078125 10.179688 -62.382812 10.671875 -61.65625 C 11.171875 -60.925781 11.671875 -60.117188 12.171875 -59.234375 C 12.671875 -58.359375 12.921875 -57.34375 12.921875 -56.1875 C 12.921875 -54.332031 12.476562 -52.960938 11.59375 -52.078125 C 10.71875 -51.203125 9.601562 -50.765625 8.25 -50.765625 C 6.820312 -50.765625 5.671875 -51.296875 4.796875 -52.359375 C 3.921875 -53.421875 3.484375 -55.078125 3.484375 -57.328125 C 3.484375 -59.773438 4.066406 -62 5.234375 -64 C 6.410156 -66.007812 8.09375 -67.617188 10.28125 -68.828125 C 12.46875 -70.035156 15.085938 -70.640625 18.140625 -70.640625 C 19.921875 -70.640625 21.769531 -70.390625 23.6875 -69.890625 C 25.613281 -69.398438 27.390625 -68.539062 29.015625 -67.3125 C 30.640625 -66.09375 31.945312 -64.421875 32.9375 -62.296875 C 33.925781 -60.179688 34.421875 -57.484375 34.421875 -54.203125 C 34.421875 -50.691406 33.945312 -47.6875 33 -45.1875 C 32.0625 -42.6875 30.8125 -40.507812 29.25 -38.65625 C 27.695312 -36.800781 25.96875 -35.101562 24.0625 -33.5625 C 22.164062 -32.019531 20.226562 -30.46875 18.25 -28.90625 C 16.28125 -27.351562 14.425781 -25.609375 12.6875 -23.671875 C 10.945312 -21.734375 9.457031 -19.445312 8.21875 -16.8125 C 6.976562 -14.175781 6.160156 -11.023438 5.765625 -7.359375 C 6.160156 -8.546875 6.910156 -9.578125 8.015625 -10.453125 C 9.128906 -11.335938 10.414062 -12.019531 11.875 -12.5 C 13.332031 -12.976562 14.773438 -13.21875 16.203125 -13.21875 C 18.085938 -13.21875 19.75 -12.976562 21.1875 -12.5 C 22.625 -12.019531 23.914062 -11.535156 25.0625 -11.046875 C 26.207031 -10.566406 27.257812 -10.328125 28.21875 -10.328125 C 29.570312 -10.328125 30.585938 -10.695312 31.265625 -11.4375 C 31.953125 -12.1875 32.296875 -13.242188 32.296875 -14.609375 L 34.53125 -14.609375 L 34.53125 -12.46875 C 34.53125 -10.445312 34.25 -8.429688 33.6875 -6.421875 C 33.125 -4.421875 32.171875 -2.757812 30.828125 -1.4375 C 29.484375 -0.113281 27.632812 0.546875 25.28125 0.546875 Z M 25.28125 0.546875 "/></g></g></g><g fill="#6b1510" fill-opacity="1"><g transform="translate(114.862625, 145.502137)"><g><path d="M 22.25 1.140625 C 19.34375 1.140625 16.601562 -0.125 14.03125 -2.65625 C 11.46875 -5.1875 9.398438 -9.09375 7.828125 -14.375 C 6.253906 -19.664062 5.46875 -26.429688 5.46875 -34.671875 C 5.46875 -42.921875 6.253906 -49.691406 7.828125 -54.984375 C 9.398438 -60.285156 11.46875 -64.21875 14.03125 -66.78125 C 16.601562 -69.351562 19.34375 -70.640625 22.25 -70.640625 C 25.101562 -70.640625 27.800781 -69.351562 30.34375 -66.78125 C 32.894531 -64.21875 34.96875 -60.285156 36.5625 -54.984375 C 38.15625 -49.691406 38.953125 -42.921875 38.953125 -34.671875 C 38.953125 -26.429688 38.15625 -19.664062 36.5625 -14.375 C 34.96875 -9.09375 32.894531 -5.1875 30.34375 -2.65625 C 27.800781 -0.125 25.101562 1.140625 22.25 1.140625 Z M 22.25 -1.484375 C 22.976562 -1.484375 23.640625 -2.421875 24.234375 -4.296875 C 24.835938 -6.171875 25.363281 -8.695312 25.8125 -11.875 C 26.257812 -15.050781 26.597656 -18.609375 26.828125 -22.546875 C 27.054688 -26.492188 27.171875 -30.535156 27.171875 -34.671875 C 27.171875 -38.816406 27.054688 -42.875 26.828125 -46.84375 C 26.597656 -50.820312 26.257812 -54.40625 25.8125 -57.59375 C 25.363281 -60.789062 24.835938 -63.332031 24.234375 -65.21875 C 23.640625 -67.113281 22.976562 -68.0625 22.25 -68.0625 C 21.425781 -68.0625 20.691406 -67.132812 20.046875 -65.28125 C 19.398438 -63.425781 18.867188 -60.914062 18.453125 -57.75 C 18.035156 -54.59375 17.726562 -51.023438 17.53125 -47.046875 C 17.332031 -43.066406 17.234375 -38.941406 17.234375 -34.671875 C 17.234375 -30.429688 17.34375 -26.332031 17.5625 -22.375 C 17.78125 -18.414062 18.09375 -14.863281 18.5 -11.71875 C 18.914062 -8.570312 19.4375 -6.078125 20.0625 -4.234375 C 20.695312 -2.398438 21.425781 -1.484375 22.25 -1.484375 Z M 22.25 -1.484375 "/></g></g></g><g fill="#6b1510" fill-opacity="1"><g transform="translate(506.36451, 686.965601)"><g><path d="M -25.28125 -0.546875 C -23.789062 -0.546875 -22.382812 -0.28125 -21.0625 0.25 C -19.738281 0.78125 -18.460938 1.390625 -17.234375 2.078125 C -16.015625 2.773438 -14.800781 3.394531 -13.59375 3.9375 C -12.382812 4.488281 -11.148438 4.765625 -9.890625 4.765625 C -8.398438 4.765625 -7.253906 4.226562 -6.453125 3.15625 C -5.660156 2.082031 -5.179688 1.03125 -5.015625 0 L -2.734375 0 C -2.734375 5.425781 -3.21875 10.160156 -4.1875 14.203125 C -5.164062 18.242188 -6.425781 21.8125 -7.96875 24.90625 C -9.507812 28.007812 -11.148438 30.800781 -12.890625 33.28125 C -14.628906 35.769531 -16.257812 38.140625 -17.78125 40.390625 C -19.3125 42.640625 -20.5625 44.945312 -21.53125 47.3125 C -22.507812 49.6875 -23 52.332031 -23 55.25 C -23 57.957031 -22.757812 60.269531 -22.28125 62.1875 C -21.800781 64.113281 -21.0625 65.585938 -20.0625 66.609375 C -19.070312 67.640625 -17.832031 68.15625 -16.34375 68.15625 C -15.25 68.15625 -14.210938 67.941406 -13.234375 67.515625 C -12.265625 67.085938 -11.472656 66.539062 -10.859375 65.875 C -10.242188 65.207031 -9.9375 64.492188 -9.9375 63.734375 C -9.9375 63.078125 -10.179688 62.382812 -10.671875 61.65625 C -11.171875 60.925781 -11.671875 60.117188 -12.171875 59.234375 C -12.671875 58.359375 -12.921875 57.34375 -12.921875 56.1875 C -12.921875 54.332031 -12.476562 52.960938 -11.59375 52.078125 C -10.71875 51.203125 -9.601562 50.765625 -8.25 50.765625 C -6.820312 50.765625 -5.671875 51.296875 -4.796875 52.359375 C -3.921875 53.421875 -3.484375 55.078125 -3.484375 57.328125 C -3.484375 59.773438 -4.066406 62 -5.234375 64 C -6.410156 66.007812 -8.09375 67.617188 -10.28125 68.828125 C -12.46875 70.035156 -15.085938 70.640625 -18.140625 70.640625 C -19.921875 70.640625 -21.769531 70.390625 -23.6875 69.890625 C -25.613281 69.398438 -27.390625 68.539062 -29.015625 67.3125 C -30.640625 66.09375 -31.945312 64.421875 -32.9375 62.296875 C -33.925781 60.179688 -34.421875 57.484375 -34.421875 54.203125 C -34.421875 50.691406 -33.945312 47.6875 -33 45.1875 C -32.0625 42.6875 -30.8125 40.507812 -29.25 38.65625 C -27.695312 36.800781 -25.96875 35.101562 -24.0625 33.5625 C -22.164062 32.019531 -20.226562 30.46875 -18.25 28.90625 C -16.28125 27.351562 -14.425781 25.609375 -12.6875 23.671875 C -10.945312 21.734375 -9.457031 19.445312 -8.21875 16.8125 C -6.976562 14.175781 -6.160156 11.023438 -5.765625 7.359375 C -6.160156 8.546875 -6.910156 9.578125 -8.015625 10.453125 C -9.128906 11.335938 -10.414062 12.019531 -11.875 12.5 C -13.332031 12.976562 -14.773438 13.21875 -16.203125 13.21875 C -18.085938 13.21875 -19.75 12.976562 -21.1875 12.5 C -22.625 12.019531 -23.914062 11.535156 -25.0625 11.046875 C -26.207031 10.566406 -27.257812 10.328125 -28.21875 10.328125 C -29.570312 10.328125 -30.585938 10.695312 -31.265625 11.4375 C -31.953125 12.1875 -32.296875 13.242188 -32.296875 14.609375 L -34.53125 14.609375 L -34.53125 12.46875 C -34.53125 10.445312 -34.25 8.429688 -33.6875 6.421875 C -33.125 4.421875 -32.171875 2.757812 -30.828125 1.4375 C -29.484375 0.113281 -27.632812 -0.546875 -25.28125 -0.546875 Z M -25.28125 -0.546875 "/></g></g></g><g fill="#6b1510" fill-opacity="1"><g transform="translate(468.021968, 686.965601)"><g><path d="M -22.25 -1.140625 C -19.34375 -1.140625 -16.601562 0.125 -14.03125 2.65625 C -11.46875 5.1875 -9.398438 9.09375 -7.828125 14.375 C -6.253906 19.664062 -5.46875 26.429688 -5.46875 34.671875 C -5.46875 42.921875 -6.253906 49.691406 -7.828125 54.984375 C -9.398438 60.285156 -11.46875 64.21875 -14.03125 66.78125 C -16.601562 69.351562 -19.34375 70.640625 -22.25 70.640625 C -25.101562 70.640625 -27.800781 69.351562 -30.34375 66.78125 C -32.894531 64.21875 -34.96875 60.285156 -36.5625 54.984375 C -38.15625 49.691406 -38.953125 42.921875 -38.953125 34.671875 C -38.953125 26.429688 -38.15625 19.664062 -36.5625 14.375 C -34.96875 9.09375 -32.894531 5.1875 -30.34375 2.65625 C -27.800781 0.125 -25.101562 -1.140625 -22.25 -1.140625 Z M -22.25 1.484375 C -22.976562 1.484375 -23.640625 2.421875 -24.234375 4.296875 C -24.835938 6.171875 -25.363281 8.695312 -25.8125 11.875 C -26.257812 15.050781 -26.597656 18.609375 -26.828125 22.546875 C -27.054688 26.492188 -27.171875 30.535156 -27.171875 34.671875 C -27.171875 38.816406 -27.054688 42.875 -26.828125 46.84375 C -26.597656 50.820312 -26.257812 54.40625 -25.8125 57.59375 C -25.363281 60.789062 -24.835938 63.332031 -24.234375 65.21875 C -23.640625 67.113281 -22.976562 68.0625 -22.25 68.0625 C -21.425781 68.0625 -20.691406 67.132812 -20.046875 65.28125 C -19.398438 63.425781 -18.867188 60.914062 -18.453125 57.75 C -18.035156 54.59375 -17.726562 51.023438 -17.53125 47.046875 C -17.332031 43.066406 -17.234375 38.941406 -17.234375 34.671875 C -17.234375 30.429688 -17.34375 26.332031 -17.5625 22.375 C -17.78125 18.414062 -18.09375 14.863281 -18.5 11.71875 C -18.914062 8.570312 -19.4375 6.078125 -20.0625 4.234375 C -20.695312 2.398438 -21.425781 1.484375 -22.25 1.484375 Z M -22.25 1.484375 "/></g></g></g><g fill="#6b1510" fill-opacity="1"><g transform="translate(185.070725, 387.002944)"><g><path d="M 19.46875 0.125 L 7.171875 -85.796875 L 0.828125 -85.796875 L 0.828125 -88.78125 L 23.59375 -88.78125 L 23.59375 -85.796875 L 18.203125 -85.796875 L 25.8125 -23.078125 L 24.484375 -19.96875 L 33.484375 -80.65625 L 34.25 -73.375 L 31.890625 -85.796875 L 26.375 -85.796875 L 26.375 -88.78125 L 48.453125 -88.78125 L 48.453125 -85.796875 L 42.484375 -85.796875 L 51.5 -23.65625 L 50.34375 -20.546875 L 58.40625 -85.796875 L 52.890625 -85.796875 L 52.890625 -88.78125 L 67.65625 -88.78125 L 67.65625 -85.796875 L 61.703125 -85.796875 L 49.96875 0.125 L 45.78125 0.125 L 34.375 -72.734375 L 35.765625 -74.640625 L 23.59375 0.125 Z M 19.46875 0.125 "/></g></g></g><g fill="#6b1510" fill-opacity="1"><g transform="translate(252.836993, 387.002944)"><g><path d="M 3.171875 0 L 3.171875 -2.984375 L 9 -2.984375 L 9 -85.796875 L 3.171875 -85.796875 L 3.171875 -88.78125 L 23.34375 -88.78125 L 23.34375 -85.796875 L 18.453125 -85.796875 L 18.453125 -47.25 L 35.0625 -47.25 L 35.0625 -85.796875 L 30.25 -85.796875 L 30.25 -88.78125 L 50.34375 -88.78125 L 50.34375 -85.796875 L 44.390625 -85.796875 L 44.390625 -2.984375 L 50.34375 -2.984375 L 50.34375 0 L 30.25 0 L 30.25 -2.984375 L 35.0625 -2.984375 L 35.0625 -44.203125 L 18.453125 -44.203125 L 18.453125 -2.984375 L 23.34375 -2.984375 L 23.34375 0 Z M 3.171875 0 "/></g></g></g><g fill="#6b1510" fill-opacity="1"><g transform="translate(306.340044, 387.002944)"><g><path d="M 23.265625 1.390625 C 19.253906 1.390625 15.789062 -0.519531 12.875 -4.34375 C 9.957031 -8.164062 7.71875 -13.488281 6.15625 -20.3125 C 4.59375 -27.144531 3.8125 -35.128906 3.8125 -44.265625 C 3.8125 -53.441406 4.59375 -61.460938 6.15625 -68.328125 C 7.71875 -75.203125 9.957031 -80.5625 12.875 -84.40625 C 15.789062 -88.25 19.253906 -90.171875 23.265625 -90.171875 C 27.367188 -90.171875 30.890625 -88.25 33.828125 -84.40625 C 36.765625 -80.5625 39.035156 -75.203125 40.640625 -68.328125 C 42.253906 -61.460938 43.0625 -53.441406 43.0625 -44.265625 C 43.0625 -35.128906 42.253906 -27.144531 40.640625 -20.3125 C 39.035156 -13.488281 36.765625 -8.164062 33.828125 -4.34375 C 30.890625 -0.519531 27.367188 1.390625 23.265625 1.390625 Z M 23.265625 -1.578125 C 25.003906 -1.578125 26.472656 -2.613281 27.671875 -4.6875 C 28.878906 -6.757812 29.875 -9.707031 30.65625 -13.53125 C 31.4375 -17.363281 32.003906 -21.878906 32.359375 -27.078125 C 32.722656 -32.273438 32.90625 -38.003906 32.90625 -44.265625 C 32.90625 -50.515625 32.722656 -56.25 32.359375 -61.46875 C 32.003906 -66.695312 31.4375 -71.234375 30.65625 -75.078125 C 29.875 -78.929688 28.878906 -81.910156 27.671875 -84.015625 C 26.472656 -86.128906 25.003906 -87.1875 23.265625 -87.1875 C 21.617188 -87.1875 20.191406 -86.128906 18.984375 -84.015625 C 17.785156 -81.910156 16.828125 -78.929688 16.109375 -75.078125 C 15.390625 -71.234375 14.847656 -66.695312 14.484375 -61.46875 C 14.128906 -56.25 13.953125 -50.515625 13.953125 -44.265625 C 13.953125 -38.003906 14.128906 -32.273438 14.484375 -27.078125 C 14.847656 -21.878906 15.390625 -17.363281 16.109375 -13.53125 C 16.828125 -9.707031 17.785156 -6.757812 18.984375 -4.6875 C 20.191406 -2.613281 21.617188 -1.578125 23.265625 -1.578125 Z M 23.265625 -1.578125 "/></g></g></g><g fill="#6b1510" fill-opacity="1"><g transform="translate(352.996735, 387.002944)"><g><path d="M 11.484375 0 L 11.484375 -2.984375 L 18.015625 -2.984375 L 18.015625 -85.796875 L 13.640625 -85.796875 C 11.441406 -85.796875 9.757812 -85.253906 8.59375 -84.171875 C 7.425781 -83.097656 6.640625 -81.429688 6.234375 -79.171875 C 5.835938 -76.910156 5.640625 -74.003906 5.640625 -70.453125 L 2.59375 -70.453125 L 2.59375 -88.78125 L 42.796875 -88.78125 L 42.796875 -70.453125 L 39.828125 -70.453125 C 39.828125 -74.003906 39.613281 -76.910156 39.1875 -79.171875 C 38.769531 -81.429688 37.988281 -83.097656 36.84375 -84.171875 C 35.695312 -85.253906 34.023438 -85.796875 31.828125 -85.796875 L 27.453125 -85.796875 L 27.453125 -2.984375 L 34.3125 -2.984375 L 34.3125 0 Z M 11.484375 0 "/></g></g></g><g fill="#6b1510" fill-opacity="1"><g transform="translate(398.482649, 439.788051)"><g><path d="M -19.46875 -0.125 L -7.171875 85.796875 L -0.828125 85.796875 L -0.828125 88.78125 L -23.59375 88.78125 L -23.59375 85.796875 L -18.203125 85.796875 L -25.8125 23.078125 L -24.484375 19.96875 L -33.484375 80.65625 L -34.25 73.375 L -31.890625 85.796875 L -26.375 85.796875 L -26.375 88.78125 L -48.453125 88.78125 L -48.453125 85.796875 L -42.484375 85.796875 L -51.5 23.65625 L -50.34375 20.546875 L -58.40625 85.796875 L -52.890625 85.796875 L -52.890625 88.78125 L -67.65625 88.78125 L -67.65625 85.796875 L -61.703125 85.796875 L -49.96875 -0.125 L -45.78125 -0.125 L -34.375 72.734375 L -35.765625 74.640625 L -23.59375 -0.125 Z M -19.46875 -0.125 "/></g></g></g><g fill="#6b1510" fill-opacity="1"><g transform="translate(330.716381, 439.788051)"><g><path d="M -3.171875 0 L -3.171875 2.984375 L -9 2.984375 L -9 85.796875 L -3.171875 85.796875 L -3.171875 88.78125 L -23.34375 88.78125 L -23.34375 85.796875 L -18.453125 85.796875 L -18.453125 47.25 L -35.0625 47.25 L -35.0625 85.796875 L -30.25 85.796875 L -30.25 88.78125 L -50.34375 88.78125 L -50.34375 85.796875 L -44.390625 85.796875 L -44.390625 2.984375 L -50.34375 2.984375 L -50.34375 0 L -30.25 0 L -30.25 2.984375 L -35.0625 2.984375 L -35.0625 44.203125 L -18.453125 44.203125 L -18.453125 2.984375 L -23.34375 2.984375 L -23.34375 0 Z M -3.171875 0 "/></g></g></g><g fill="#6b1510" fill-opacity="1"><g transform="translate(277.21333, 439.788051)"><g><path d="M -23.265625 -1.390625 C -19.253906 -1.390625 -15.789062 0.519531 -12.875 4.34375 C -9.957031 8.164062 -7.71875 13.488281 -6.15625 20.3125 C -4.59375 27.144531 -3.8125 35.128906 -3.8125 44.265625 C -3.8125 53.441406 -4.59375 61.460938 -6.15625 68.328125 C -7.71875 75.203125 -9.957031 80.5625 -12.875 84.40625 C -15.789062 88.25 -19.253906 90.171875 -23.265625 90.171875 C -27.367188 90.171875 -30.890625 88.25 -33.828125 84.40625 C -36.765625 80.5625 -39.035156 75.203125 -40.640625 68.328125 C -42.253906 61.460938 -43.0625 53.441406 -43.0625 44.265625 C -43.0625 35.128906 -42.253906 27.144531 -40.640625 20.3125 C -39.035156 13.488281 -36.765625 8.164062 -33.828125 4.34375 C -30.890625 0.519531 -27.367188 -1.390625 -23.265625 -1.390625 Z M -23.265625 1.578125 C -25.003906 1.578125 -26.472656 2.613281 -27.671875 4.6875 C -28.878906 6.757812 -29.875 9.707031 -30.65625 13.53125 C -31.4375 17.363281 -32.003906 21.878906 -32.359375 27.078125 C -32.722656 32.273438 -32.90625 38.003906 -32.90625 44.265625 C -32.90625 50.515625 -32.722656 56.25 -32.359375 61.46875 C -32.003906 66.695312 -31.4375 71.234375 -30.65625 75.078125 C -29.875 78.929688 -28.878906 81.910156 -27.671875 84.015625 C -26.472656 86.128906 -25.003906 87.1875 -23.265625 87.1875 C -21.617188 87.1875 -20.191406 86.128906 -18.984375 84.015625 C -17.785156 81.910156 -16.828125 78.929688 -16.109375 75.078125 C -15.390625 71.234375 -14.847656 66.695312 -14.484375 61.46875 C -14.128906 56.25 -13.953125 50.515625 -13.953125 44.265625 C -13.953125 38.003906 -14.128906 32.273438 -14.484375 27.078125 C -14.847656 21.878906 -15.390625 17.363281 -16.109375 13.53125 C -16.828125 9.707031 -17.785156 6.757812 -18.984375 4.6875 C -20.191406 2.613281 -21.617188 1.578125 -23.265625 1.578125 Z M -23.265625 1.578125 "/></g></g></g><g fill="#6b1510" fill-opacity="1"><g transform="translate(230.556639, 439.788051)"><g><path d="M -11.484375 0 L -11.484375 2.984375 L -18.015625 2.984375 L -18.015625 85.796875 L -13.640625 85.796875 C -11.441406 85.796875 -9.757812 85.253906 -8.59375 84.171875 C -7.425781 83.097656 -6.640625 81.429688 -6.234375 79.171875 C -5.835938 76.910156 -5.640625 74.003906 -5.640625 70.453125 L -2.59375 70.453125 L -2.59375 88.78125 L -42.796875 88.78125 L -42.796875 70.453125 L -39.828125 70.453125 C -39.828125 74.003906 -39.613281 76.910156 -39.1875 79.171875 C -38.769531 81.429688 -37.988281 83.097656 -36.84375 84.171875 C -35.695312 85.253906 -34.023438 85.796875 -31.828125 85.796875 L -27.453125 85.796875 L -27.453125 2.984375 L -34.3125 2.984375 L -34.3125 0 Z M -11.484375 0 "/></g></g></g><g transform="matrix(1, 0, 0, 1, 60, 149)"><g clip-path="url(#97afdd360b)"><g fill="#6b1510" fill-opacity="1"><g transform="translate(3.655838, 54.088096)"><g><path d="M 105 -44.9375 C 105.132812 -44.632812 105.25 -44.25 105.34375 -43.78125 C 105.445312 -43.3125 105.5 -42.796875 105.5 -42.234375 C 105.5 -41.796875 105.457031 -41.316406 105.375 -40.796875 C 105.289062 -40.285156 105.128906 -39.742188 104.890625 -39.171875 C 104.628906 -38.671875 104.226562 -38.421875 103.6875 -38.421875 C 103.625 -38.421875 103.554688 -38.425781 103.484375 -38.4375 C 103.421875 -38.457031 103.359375 -38.484375 103.296875 -38.515625 C 102.921875 -38.679688 102.734375 -39.019531 102.734375 -39.53125 C 102.734375 -39.789062 102.800781 -40.039062 102.9375 -40.28125 C 103.3125 -40.914062 103.570312 -41.484375 103.71875 -41.984375 C 103.863281 -42.484375 103.9375 -42.929688 103.9375 -43.328125 C 103.9375 -43.796875 103.878906 -44.179688 103.765625 -44.484375 C 103.648438 -44.785156 103.523438 -45.050781 103.390625 -45.28125 C 102.828125 -46.21875 102.132812 -46.894531 101.3125 -47.3125 C 100.5 -47.726562 99.722656 -47.992188 98.984375 -48.109375 C 98.253906 -48.234375 97.703125 -48.296875 97.328125 -48.296875 C 96.054688 -48.296875 94.96875 -48.132812 94.0625 -47.8125 C 93.164062 -47.5 92.4375 -47.207031 91.875 -46.9375 C 91.84375 -46.9375 91.816406 -46.925781 91.796875 -46.90625 C 91.773438 -46.894531 91.75 -46.890625 91.71875 -46.890625 C 89.851562 -46.054688 87.707031 -44.550781 85.28125 -42.375 C 82.863281 -40.207031 80.148438 -37.003906 77.140625 -32.765625 C 75.910156 -31.023438 74.632812 -29.101562 73.3125 -27 C 71.988281 -24.894531 70.59375 -22.554688 69.125 -19.984375 C 66.351562 -15.003906 63.859375 -10.742188 61.640625 -7.203125 C 59.421875 -3.671875 57.425781 -0.710938 55.65625 1.671875 C 53.882812 4.066406 52.269531 5.972656 50.8125 7.390625 C 49.363281 8.804688 47.992188 9.875 46.703125 10.59375 C 45.421875 11.3125 44.164062 11.785156 42.9375 12.015625 C 42 12.253906 41.078125 12.375 40.171875 12.375 C 39.035156 12.375 38.082031 12.253906 37.3125 12.015625 C 36.550781 11.785156 36.132812 11.65625 36.0625 11.625 C 35.800781 11.519531 35.671875 11.316406 35.671875 11.015625 C 35.671875 10.921875 35.6875 10.835938 35.71875 10.765625 C 35.851562 10.535156 36.035156 10.421875 36.265625 10.421875 C 36.398438 10.421875 36.5 10.4375 36.5625 10.46875 C 36.5625 10.46875 36.65625 10.492188 36.84375 10.546875 C 37.03125 10.597656 37.238281 10.65625 37.46875 10.71875 C 37.601562 10.75 37.757812 10.78125 37.9375 10.8125 C 38.125 10.851562 38.335938 10.875 38.578125 10.875 C 39.242188 10.875 40.039062 10.6875 40.96875 10.3125 C 41.90625 9.945312 42.894531 9.195312 43.9375 8.0625 C 44.800781 7.09375 45.570312 5.863281 46.25 4.375 C 46.9375 2.894531 47.546875 1.335938 48.078125 -0.296875 C 48.617188 -1.929688 49.0625 -3.457031 49.40625 -4.875 C 49.757812 -6.300781 50.039062 -7.429688 50.25 -8.265625 L 50.390625 -8.96875 C 50.753906 -10.4375 51.210938 -12.40625 51.765625 -14.875 C 52.316406 -17.34375 53.007812 -19.945312 53.84375 -22.6875 L 53.84375 -22.890625 C 53.84375 -23.023438 53.78125 -23.09375 53.65625 -23.09375 C 53.613281 -23.09375 53.5625 -23.0625 53.5 -23 C 52.96875 -22.195312 52.441406 -21.398438 51.921875 -20.609375 C 51.398438 -19.828125 50.90625 -19.050781 50.4375 -18.28125 C 49.039062 -15.976562 47.457031 -13.488281 45.6875 -10.8125 C 43.914062 -8.144531 41.757812 -5.25 39.21875 -2.125 C 36.6875 1 33.550781 4.429688 29.8125 8.171875 C 28.34375 9.640625 26.972656 10.679688 25.703125 11.296875 C 24.429688 11.910156 23.160156 12.21875 21.890625 12.21875 C 20.859375 12.21875 19.957031 12.054688 19.1875 11.734375 C 18.414062 11.421875 17.796875 11.113281 17.328125 10.8125 C 17.265625 10.75 17.171875 10.660156 17.046875 10.546875 C 16.929688 10.429688 16.875 10.289062 16.875 10.125 C 16.875 10.050781 16.910156 9.945312 16.984375 9.8125 C 17.078125 9.644531 17.226562 9.5625 17.4375 9.5625 C 17.601562 9.5625 17.742188 9.59375 17.859375 9.65625 C 17.972656 9.726562 18.03125 9.765625 18.03125 9.765625 C 18.164062 9.835938 18.484375 9.988281 18.984375 10.21875 C 19.484375 10.445312 20.082031 10.5625 20.78125 10.5625 C 21.15625 10.5625 21.523438 10.519531 21.890625 10.4375 C 22.253906 10.351562 22.640625 10.195312 23.046875 9.96875 C 24.410156 9.0625 25.816406 7.628906 27.265625 5.671875 C 28.722656 3.722656 30.144531 1.429688 31.53125 -1.203125 C 32.914062 -3.835938 34.179688 -6.632812 35.328125 -9.59375 C 36.484375 -12.550781 37.445312 -15.445312 38.21875 -18.28125 C 38.6875 -20.050781 39.113281 -21.976562 39.5 -24.0625 C 39.882812 -26.15625 40.078125 -28.21875 40.078125 -30.25 C 40.078125 -32.1875 39.832031 -33.984375 39.34375 -35.640625 C 38.863281 -37.296875 38.046875 -38.664062 36.890625 -39.75 C 35.742188 -40.832031 34.132812 -41.472656 32.0625 -41.671875 C 31.863281 -41.710938 31.660156 -41.734375 31.453125 -41.734375 C 31.253906 -41.734375 31.054688 -41.734375 30.859375 -41.734375 C 28.015625 -41.734375 25.234375 -40.894531 22.515625 -39.21875 C 19.796875 -37.550781 17.207031 -35.304688 14.75 -32.484375 C 12.300781 -29.660156 10.039062 -26.476562 7.96875 -22.9375 C 6.5625 -20.539062 5.441406 -18.046875 4.609375 -15.453125 C 3.773438 -12.867188 3.359375 -10.523438 3.359375 -8.421875 C 3.359375 -6.878906 3.625 -5.539062 4.15625 -4.40625 C 4.6875 -3.269531 5.539062 -2.519531 6.71875 -2.15625 C 7.613281 -1.851562 8.460938 -1.703125 9.265625 -1.703125 C 10.703125 -1.703125 12.019531 -2.078125 13.21875 -2.828125 C 14.425781 -3.578125 15.664062 -4.488281 16.9375 -5.5625 C 18.832031 -7.164062 20.503906 -9.050781 21.953125 -11.21875 C 23.410156 -13.394531 24.578125 -15.535156 25.453125 -17.640625 C 25.953125 -18.773438 26.328125 -19.863281 26.578125 -20.90625 C 26.828125 -21.957031 26.992188 -22.832031 27.078125 -23.53125 C 27.160156 -24.238281 27.203125 -24.59375 27.203125 -24.59375 C 27.203125 -25.726562 27.617188 -26.296875 28.453125 -26.296875 L 28.65625 -26.296875 C 29.351562 -26.234375 29.703125 -25.800781 29.703125 -25 C 29.703125 -24.757812 29.65625 -24.457031 29.5625 -24.09375 C 29.289062 -23.0625 28.9375 -22.007812 28.5 -20.9375 C 28.070312 -19.875 27.640625 -18.890625 27.203125 -17.984375 C 26.765625 -17.078125 26.40625 -16.359375 26.125 -15.828125 C 25.84375 -15.296875 25.703125 -15.03125 25.703125 -15.03125 C 24.765625 -13.15625 23.617188 -11.289062 22.265625 -9.4375 C 20.910156 -7.582031 19.398438 -5.957031 17.734375 -4.5625 C 16.191406 -3.257812 14.609375 -2.25 12.984375 -1.53125 C 11.367188 -0.8125 9.726562 -0.453125 8.0625 -0.453125 L 7.765625 -0.453125 C 7.597656 -0.453125 7.410156 -0.457031 7.203125 -0.46875 C 7.003906 -0.488281 6.84375 -0.5 6.71875 -0.5 C 5.707031 -0.601562 4.6875 -0.90625 3.65625 -1.40625 C 2.625 -1.90625 1.753906 -2.796875 1.046875 -4.078125 C 0.347656 -5.367188 0 -7.195312 0 -9.5625 C 0 -9.726562 0.0546875 -10.367188 0.171875 -11.484375 C 0.285156 -12.609375 0.601562 -14.085938 1.125 -15.921875 C 1.644531 -17.765625 2.492188 -19.863281 3.671875 -22.21875 C 4.859375 -24.570312 6.488281 -27.066406 8.5625 -29.703125 C 10.632812 -32.335938 13.304688 -35.007812 16.578125 -37.71875 C 17.742188 -38.6875 19.09375 -39.597656 20.625 -40.453125 C 22.164062 -41.304688 23.828125 -42 25.609375 -42.53125 C 27.398438 -43.0625 29.203125 -43.328125 31.015625 -43.328125 C 31.242188 -43.328125 31.457031 -43.328125 31.65625 -43.328125 C 31.851562 -43.328125 32.070312 -43.3125 32.3125 -43.28125 C 35.71875 -42.976562 38.421875 -41.5 40.421875 -38.84375 C 42.429688 -36.1875 43.4375 -32.570312 43.4375 -28 C 43.4375 -26.5 43.316406 -24.910156 43.078125 -23.234375 C 42.847656 -21.566406 42.484375 -19.800781 41.984375 -17.9375 C 41.410156 -15.726562 40.664062 -13.4375 39.75 -11.0625 C 38.832031 -8.695312 37.785156 -6.351562 36.609375 -4.03125 C 35.441406 -1.707031 34.175781 0.453125 32.8125 2.453125 C 32.75 2.523438 32.71875 2.625 32.71875 2.75 C 32.71875 2.820312 32.75 2.859375 32.8125 2.859375 C 32.875 2.859375 32.929688 2.832031 32.984375 2.78125 C 33.035156 2.726562 33.0625 2.703125 33.0625 2.703125 C 35.5625 -0.171875 37.695312 -2.800781 39.46875 -5.1875 C 41.238281 -7.570312 42.785156 -9.789062 44.109375 -11.84375 C 45.429688 -13.894531 46.660156 -15.859375 47.796875 -17.734375 L 48.546875 -18.9375 C 49.210938 -20 49.878906 -21.070312 50.546875 -22.15625 C 51.210938 -23.25 51.910156 -24.363281 52.640625 -25.5 C 52.640625 -25.5 52.847656 -25.835938 53.265625 -26.515625 C 53.691406 -27.203125 54.285156 -28.097656 55.046875 -29.203125 C 55.816406 -30.304688 56.71875 -31.484375 57.75 -32.734375 C 58.789062 -33.984375 59.929688 -35.175781 61.171875 -36.3125 C 61.535156 -36.6875 61.914062 -36.875 62.3125 -36.875 C 62.582031 -36.875 62.816406 -36.769531 63.015625 -36.5625 C 63.179688 -36.332031 63.265625 -36.117188 63.265625 -35.921875 C 63.265625 -35.546875 63.046875 -35.109375 62.609375 -34.609375 C 62.609375 -34.609375 62.222656 -34.113281 61.453125 -33.125 C 60.691406 -32.144531 59.785156 -30.6875 58.734375 -28.75 C 57.679688 -26.8125 56.6875 -24.410156 55.75 -21.546875 C 54.914062 -19.003906 54.210938 -16.5625 53.640625 -14.21875 C 53.078125 -11.882812 52.613281 -10.035156 52.25 -8.671875 C 51.613281 -6.296875 50.921875 -3.769531 50.171875 -1.09375 C 49.421875 1.570312 48.328125 4.039062 46.890625 6.3125 C 46.859375 6.34375 46.84375 6.410156 46.84375 6.515625 C 46.84375 6.609375 46.859375 6.65625 46.890625 6.65625 C 46.953125 6.65625 47.015625 6.640625 47.078125 6.609375 C 47.148438 6.578125 47.203125 6.546875 47.234375 6.515625 C 48.535156 5.109375 50.015625 3.253906 51.671875 0.953125 C 53.328125 -1.347656 55.238281 -4.257812 57.40625 -7.78125 C 59.570312 -11.3125 62.078125 -15.582031 64.921875 -20.59375 C 66.285156 -22.988281 67.609375 -25.195312 68.890625 -27.21875 C 70.179688 -29.238281 71.429688 -31.085938 72.640625 -32.765625 C 73.035156 -33.328125 73.425781 -33.867188 73.8125 -34.390625 C 74.195312 -34.910156 74.570312 -35.398438 74.9375 -35.859375 C 77.175781 -38.734375 79.320312 -41.070312 81.375 -42.875 C 83.425781 -44.675781 85.378906 -46.085938 87.234375 -47.109375 C 89.085938 -48.128906 90.832031 -48.832031 92.46875 -49.21875 C 94.101562 -49.601562 95.625 -49.796875 97.03125 -49.796875 C 97.300781 -49.796875 97.773438 -49.757812 98.453125 -49.6875 C 99.140625 -49.625 99.910156 -49.441406 100.765625 -49.140625 C 101.617188 -48.835938 102.425781 -48.359375 103.1875 -47.703125 C 103.957031 -47.054688 104.5625 -46.132812 105 -44.9375 Z M 105 -44.9375 "/></g></g></g></g></g><g transform="matrix(1, 0, 0, 1, 408, 580)"><g clip-path="url(#bf61696783)"><g fill="#6b1510" fill-opacity="1"><g transform="translate(107.46851, 47.914605)"><g><path d="M -105 44.9375 C -105.132812 44.632812 -105.25 44.25 -105.34375 43.78125 C -105.445312 43.3125 -105.5 42.796875 -105.5 42.234375 C -105.5 41.796875 -105.457031 41.316406 -105.375 40.796875 C -105.289062 40.285156 -105.128906 39.742188 -104.890625 39.171875 C -104.628906 38.671875 -104.226562 38.421875 -103.6875 38.421875 C -103.625 38.421875 -103.554688 38.425781 -103.484375 38.4375 C -103.421875 38.457031 -103.359375 38.484375 -103.296875 38.515625 C -102.921875 38.679688 -102.734375 39.019531 -102.734375 39.53125 C -102.734375 39.789062 -102.800781 40.039062 -102.9375 40.28125 C -103.3125 40.914062 -103.570312 41.484375 -103.71875 41.984375 C -103.863281 42.484375 -103.9375 42.929688 -103.9375 43.328125 C -103.9375 43.796875 -103.878906 44.179688 -103.765625 44.484375 C -103.648438 44.785156 -103.523438 45.050781 -103.390625 45.28125 C -102.828125 46.21875 -102.132812 46.894531 -101.3125 47.3125 C -100.5 47.726562 -99.722656 47.992188 -98.984375 48.109375 C -98.253906 48.234375 -97.703125 48.296875 -97.328125 48.296875 C -96.054688 48.296875 -94.96875 48.132812 -94.0625 47.8125 C -93.164062 47.5 -92.4375 47.207031 -91.875 46.9375 C -91.84375 46.9375 -91.816406 46.925781 -91.796875 46.90625 C -91.773438 46.894531 -91.75 46.890625 -91.71875 46.890625 C -89.851562 46.054688 -87.707031 44.550781 -85.28125 42.375 C -82.863281 40.207031 -80.148438 37.003906 -77.140625 32.765625 C -75.910156 31.023438 -74.632812 29.101562 -73.3125 27 C -71.988281 24.894531 -70.59375 22.554688 -69.125 19.984375 C -66.351562 15.003906 -63.859375 10.742188 -61.640625 7.203125 C -59.421875 3.671875 -57.425781 0.710938 -55.65625 -1.671875 C -53.882812 -4.066406 -52.269531 -5.972656 -50.8125 -7.390625 C -49.363281 -8.804688 -47.992188 -9.875 -46.703125 -10.59375 C -45.421875 -11.3125 -44.164062 -11.785156 -42.9375 -12.015625 C -42 -12.253906 -41.078125 -12.375 -40.171875 -12.375 C -39.035156 -12.375 -38.082031 -12.253906 -37.3125 -12.015625 C -36.550781 -11.785156 -36.132812 -11.65625 -36.0625 -11.625 C -35.800781 -11.519531 -35.671875 -11.316406 -35.671875 -11.015625 C -35.671875 -10.921875 -35.6875 -10.835938 -35.71875 -10.765625 C -35.851562 -10.535156 -36.035156 -10.421875 -36.265625 -10.421875 C -36.398438 -10.421875 -36.5 -10.4375 -36.5625 -10.46875 C -36.5625 -10.46875 -36.65625 -10.492188 -36.84375 -10.546875 C -37.03125 -10.597656 -37.238281 -10.65625 -37.46875 -10.71875 C -37.601562 -10.75 -37.757812 -10.78125 -37.9375 -10.8125 C -38.125 -10.851562 -38.335938 -10.875 -38.578125 -10.875 C -39.242188 -10.875 -40.039062 -10.6875 -40.96875 -10.3125 C -41.90625 -9.945312 -42.894531 -9.195312 -43.9375 -8.0625 C -44.800781 -7.09375 -45.570312 -5.863281 -46.25 -4.375 C -46.9375 -2.894531 -47.546875 -1.335938 -48.078125 0.296875 C -48.617188 1.929688 -49.0625 3.457031 -49.40625 4.875 C -49.757812 6.300781 -50.039062 7.429688 -50.25 8.265625 L -50.390625 8.96875 C -50.753906 10.4375 -51.210938 12.40625 -51.765625 14.875 C -52.316406 17.34375 -53.007812 19.945312 -53.84375 22.6875 L -53.84375 22.890625 C -53.84375 23.023438 -53.78125 23.09375 -53.65625 23.09375 C -53.613281 23.09375 -53.5625 23.0625 -53.5 23 C -52.96875 22.195312 -52.441406 21.398438 -51.921875 20.609375 C -51.398438 19.828125 -50.90625 19.050781 -50.4375 18.28125 C -49.039062 15.976562 -47.457031 13.488281 -45.6875 10.8125 C -43.914062 8.144531 -41.757812 5.25 -39.21875 2.125 C -36.6875 -1 -33.550781 -4.429688 -29.8125 -8.171875 C -28.34375 -9.640625 -26.972656 -10.679688 -25.703125 -11.296875 C -24.429688 -11.910156 -23.160156 -12.21875 -21.890625 -12.21875 C -20.859375 -12.21875 -19.957031 -12.054688 -19.1875 -11.734375 C -18.414062 -11.421875 -17.796875 -11.113281 -17.328125 -10.8125 C -17.265625 -10.75 -17.171875 -10.660156 -17.046875 -10.546875 C -16.929688 -10.429688 -16.875 -10.289062 -16.875 -10.125 C -16.875 -10.050781 -16.910156 -9.945312 -16.984375 -9.8125 C -17.078125 -9.644531 -17.226562 -9.5625 -17.4375 -9.5625 C -17.601562 -9.5625 -17.742188 -9.59375 -17.859375 -9.65625 C -17.972656 -9.726562 -18.03125 -9.765625 -18.03125 -9.765625 C -18.164062 -9.835938 -18.484375 -9.988281 -18.984375 -10.21875 C -19.484375 -10.445312 -20.082031 -10.5625 -20.78125 -10.5625 C -21.15625 -10.5625 -21.523438 -10.519531 -21.890625 -10.4375 C -22.253906 -10.351562 -22.640625 -10.195312 -23.046875 -9.96875 C -24.410156 -9.0625 -25.816406 -7.628906 -27.265625 -5.671875 C -28.722656 -3.722656 -30.144531 -1.429688 -31.53125 1.203125 C -32.914062 3.835938 -34.179688 6.632812 -35.328125 9.59375 C -36.484375 12.550781 -37.445312 15.445312 -38.21875 18.28125 C -38.6875 20.050781 -39.113281 21.976562 -39.5 24.0625 C -39.882812 26.15625 -40.078125 28.21875 -40.078125 30.25 C -40.078125 32.1875 -39.832031 33.984375 -39.34375 35.640625 C -38.863281 37.296875 -38.046875 38.664062 -36.890625 39.75 C -35.742188 40.832031 -34.132812 41.472656 -32.0625 41.671875 C -31.863281 41.710938 -31.660156 41.734375 -31.453125 41.734375 C -31.253906 41.734375 -31.054688 41.734375 -30.859375 41.734375 C -28.015625 41.734375 -25.234375 40.894531 -22.515625 39.21875 C -19.796875 37.550781 -17.207031 35.304688 -14.75 32.484375 C -12.300781 29.660156 -10.039062 26.476562 -7.96875 22.9375 C -6.5625 20.539062 -5.441406 18.046875 -4.609375 15.453125 C -3.773438 12.867188 -3.359375 10.523438 -3.359375 8.421875 C -3.359375 6.878906 -3.625 5.539062 -4.15625 4.40625 C -4.6875 3.269531 -5.539062 2.519531 -6.71875 2.15625 C -7.613281 1.851562 -8.460938 1.703125 -9.265625 1.703125 C -10.703125 1.703125 -12.019531 2.078125 -13.21875 2.828125 C -14.425781 3.578125 -15.664062 4.488281 -16.9375 5.5625 C -18.832031 7.164062 -20.503906 9.050781 -21.953125 11.21875 C -23.410156 13.394531 -24.578125 15.535156 -25.453125 17.640625 C -25.953125 18.773438 -26.328125 19.863281 -26.578125 20.90625 C -26.828125 21.957031 -26.992188 22.832031 -27.078125 23.53125 C -27.160156 24.238281 -27.203125 24.59375 -27.203125 24.59375 C -27.203125 25.726562 -27.617188 26.296875 -28.453125 26.296875 L -28.65625 26.296875 C -29.351562 26.234375 -29.703125 25.800781 -29.703125 25 C -29.703125 24.757812 -29.65625 24.457031 -29.5625 24.09375 C -29.289062 23.0625 -28.9375 22.007812 -28.5 20.9375 C -28.070312 19.875 -27.640625 18.890625 -27.203125 17.984375 C -26.765625 17.078125 -26.40625 16.359375 -26.125 15.828125 C -25.84375 15.296875 -25.703125 15.03125 -25.703125 15.03125 C -24.765625 13.15625 -23.617188 11.289062 -22.265625 9.4375 C -20.910156 7.582031 -19.398438 5.957031 -17.734375 4.5625 C -16.191406 3.257812 -14.609375 2.25 -12.984375 1.53125 C -11.367188 0.8125 -9.726562 0.453125 -8.0625 0.453125 L -7.765625 0.453125 C -7.597656 0.453125 -7.410156 0.457031 -7.203125 0.46875 C -7.003906 0.488281 -6.84375 0.5 -6.71875 0.5 C -5.707031 0.601562 -4.6875 0.90625 -3.65625 1.40625 C -2.625 1.90625 -1.753906 2.796875 -1.046875 4.078125 C -0.347656 5.367188 0 7.195312 0 9.5625 C 0 9.726562 -0.0546875 10.367188 -0.171875 11.484375 C -0.285156 12.609375 -0.601562 14.085938 -1.125 15.921875 C -1.644531 17.765625 -2.492188 19.863281 -3.671875 22.21875 C -4.859375 24.570312 -6.488281 27.066406 -8.5625 29.703125 C -10.632812 32.335938 -13.304688 35.007812 -16.578125 37.71875 C -17.742188 38.6875 -19.09375 39.597656 -20.625 40.453125 C -22.164062 41.304688 -23.828125 42 -25.609375 42.53125 C -27.398438 43.0625 -29.203125 43.328125 -31.015625 43.328125 C -31.242188 43.328125 -31.457031 43.328125 -31.65625 43.328125 C -31.851562 43.328125 -32.070312 43.3125 -32.3125 43.28125 C -35.71875 42.976562 -38.421875 41.5 -40.421875 38.84375 C -42.429688 36.1875 -43.4375 32.570312 -43.4375 28 C -43.4375 26.5 -43.316406 24.910156 -43.078125 23.234375 C -42.847656 21.566406 -42.484375 19.800781 -41.984375 17.9375 C -41.410156 15.726562 -40.664062 13.4375 -39.75 11.0625 C -38.832031 8.695312 -37.785156 6.351562 -36.609375 4.03125 C -35.441406 1.707031 -34.175781 -0.453125 -32.8125 -2.453125 C -32.75 -2.523438 -32.71875 -2.625 -32.71875 -2.75 C -32.71875 -2.820312 -32.75 -2.859375 -32.8125 -2.859375 C -32.875 -2.859375 -32.929688 -2.832031 -32.984375 -2.78125 C -33.035156 -2.726562 -33.0625 -2.703125 -33.0625 -2.703125 C -35.5625 0.171875 -37.695312 2.800781 -39.46875 5.1875 C -41.238281 7.570312 -42.785156 9.789062 -44.109375 11.84375 C -45.429688 13.894531 -46.660156 15.859375 -47.796875 17.734375 L -48.546875 18.9375 C -49.210938 20 -49.878906 21.070312 -50.546875 22.15625 C -51.210938 23.25 -51.910156 24.363281 -52.640625 25.5 C -52.640625 25.5 -52.847656 25.835938 -53.265625 26.515625 C -53.691406 27.203125 -54.285156 28.097656 -55.046875 29.203125 C -55.816406 30.304688 -56.71875 31.484375 -57.75 32.734375 C -58.789062 33.984375 -59.929688 35.175781 -61.171875 36.3125 C -61.535156 36.6875 -61.914062 36.875 -62.3125 36.875 C -62.582031 36.875 -62.816406 36.769531 -63.015625 36.5625 C -63.179688 36.332031 -63.265625 36.117188 -63.265625 35.921875 C -63.265625 35.546875 -63.046875 35.109375 -62.609375 34.609375 C -62.609375 34.609375 -62.222656 34.113281 -61.453125 33.125 C -60.691406 32.144531 -59.785156 30.6875 -58.734375 28.75 C -57.679688 26.8125 -56.6875 24.410156 -55.75 21.546875 C -54.914062 19.003906 -54.210938 16.5625 -53.640625 14.21875 C -53.078125 11.882812 -52.613281 10.035156 -52.25 8.671875 C -51.613281 6.296875 -50.921875 3.769531 -50.171875 1.09375 C -49.421875 -1.570312 -48.328125 -4.039062 -46.890625 -6.3125 C -46.859375 -6.34375 -46.84375 -6.410156 -46.84375 -6.515625 C -46.84375 -6.609375 -46.859375 -6.65625 -46.890625 -6.65625 C -46.953125 -6.65625 -47.015625 -6.640625 -47.078125 -6.609375 C -47.148438 -6.578125 -47.203125 -6.546875 -47.234375 -6.515625 C -48.535156 -5.109375 -50.015625 -3.253906 -51.671875 -0.953125 C -53.328125 1.347656 -55.238281 4.257812 -57.40625 7.78125 C -59.570312 11.3125 -62.078125 15.582031 -64.921875 20.59375 C -66.285156 22.988281 -67.609375 25.195312 -68.890625 27.21875 C -70.179688 29.238281 -71.429688 31.085938 -72.640625 32.765625 C -73.035156 33.328125 -73.425781 33.867188 -73.8125 34.390625 C -74.195312 34.910156 -74.570312 35.398438 -74.9375 35.859375 C -77.175781 38.734375 -79.320312 41.070312 -81.375 42.875 C -83.425781 44.675781 -85.378906 46.085938 -87.234375 47.109375 C -89.085938 48.128906 -90.832031 48.832031 -92.46875 49.21875 C -94.101562 49.601562 -95.625 49.796875 -97.03125 49.796875 C -97.300781 49.796875 -97.773438 49.757812 -98.453125 49.6875 C -99.140625 49.625 -99.910156 49.441406 -100.765625 49.140625 C -101.617188 48.835938 -102.425781 48.359375 -103.1875 47.703125 C -103.957031 47.054688 -104.5625 46.132812 -105 44.9375 Z M -105 44.9375 "/></g></g></g></g></g></g></g></g></svg>